<svg width="832" height="832" viewBox="0 0 832 832" fill="none" xmlns="http://www.w3.org/2000/svg">
<path d="M100.323 199.979L76.0115 317.308C86.8275 328.274 98.2924 338.657 116.796 342.568L205.82 358.209L226.72 220.297L100.323 199.979Z" fill="#FAFAFA"/>
<path d="M95.2473 192.741L70.9363 310.053L111.721 335.313L200.745 350.954L227.036 218.583L95.2473 192.741Z" fill="#F5F5F5"/>
<path d="M87.5264 303.796L70.9363 310.053C70.9363 310.053 76.9267 319.821 85.6627 325.112C94.3987 330.404 102.819 333.748 111.721 335.313C111.721 335.313 92.2854 325.645 87.5264 303.796Z" fill="#E0E0E0"/>
<path d="M81.7189 217.917L142.555 199.048L138.678 186.235L76.8268 204.223L81.7189 217.917Z" fill="#EBEBEB"/>
<path d="M237.569 250.232L198.132 200.196L187.566 208.416L226.52 259.7L237.569 250.232Z" fill="#EBEBEB"/>
<path d="M204.14 257.554C204.09 257.787 181.626 253.594 153.953 248.186C126.281 242.778 103.884 238.202 103.933 237.969C103.983 237.736 126.447 241.929 154.12 247.337C181.792 252.745 204.189 257.321 204.14 257.554Z" fill="#E0E0E0"/>
<path d="M200.162 275.542C200.113 275.775 177.649 271.581 149.976 266.173C122.304 260.765 99.9065 256.189 99.9564 255.957C100.006 255.724 122.47 259.917 150.143 265.325C177.815 270.716 200.212 275.309 200.162 275.542Z" fill="#E0E0E0"/>
<path d="M197.583 291.666C197.533 291.899 175.069 287.706 147.397 282.298C119.725 276.89 97.3274 272.314 97.3773 272.081C97.4272 271.848 119.891 276.041 147.564 281.449C175.236 286.857 197.633 291.433 197.583 291.666Z" fill="#E0E0E0"/>
<path d="M194.472 307.074C194.422 307.307 171.958 303.114 144.285 297.706C116.613 292.298 94.2157 287.722 94.2656 287.489C94.3155 287.256 116.78 291.45 144.452 296.858C172.124 302.266 194.505 306.842 194.472 307.074Z" fill="#E0E0E0"/>
<path d="M669.976 146.032L638.51 222.743C628.06 224.856 617.477 226.37 605.347 221.445L548.221 195.969L589.589 108.775L669.976 146.032Z" fill="#FAFAFA"/>
<path d="M675.684 143.836L644.234 220.546L611.054 219.248L553.929 193.773L590.088 107.661L675.684 143.836Z" fill="#F5F5F5"/>
<path d="M637.129 210.529L644.218 220.547C644.218 220.547 636.996 223.825 629.94 223.492C622.885 223.142 616.762 221.811 611.054 219.265C611.054 219.249 625.947 221.229 637.129 210.529Z" fill="#E0E0E0"/>
<path d="M673.704 163.521L646.098 129.16L653.286 123.302L681.807 157.547L673.704 163.521Z" fill="#EBEBEB"/>
<path d="M571.8 121.755L613.783 108.31L616.662 117.112L574.463 131.456L571.8 121.755Z" fill="#EBEBEB"/>
<path d="M588.141 138.877C588.241 138.661 602.884 144.635 620.838 152.239C638.81 159.844 653.303 166.184 653.203 166.4C653.103 166.616 638.477 160.642 620.506 153.038C602.534 145.45 588.041 139.094 588.141 138.877Z" fill="#E0E0E0"/>
<path d="M583.465 150.742C583.565 150.525 598.208 156.499 616.163 164.103C634.134 171.708 648.627 178.048 648.527 178.264C648.428 178.48 633.801 172.507 615.83 164.902C597.859 157.298 583.365 150.958 583.465 150.742Z" fill="#E0E0E0"/>
<path d="M578.689 160.992C578.789 160.776 593.432 166.749 611.387 174.354C629.358 181.958 643.851 188.298 643.752 188.515C643.652 188.731 629.025 182.757 611.054 175.153C593.083 167.548 578.606 161.208 578.689 160.992Z" fill="#E0E0E0"/>
<path d="M574.529 171.026C574.629 170.809 589.272 176.783 607.227 184.388C625.198 191.992 639.691 198.332 639.592 198.548C639.492 198.765 624.865 192.791 606.894 185.186C588.923 177.599 574.429 171.242 574.529 171.026Z" fill="#E0E0E0"/>
<path d="M635.764 472.892C610.272 452.125 606.761 416.815 610.155 385.565C610.721 380.357 610.555 374.799 613.384 370.39C616.212 365.98 622.253 363.284 626.762 365.83C630.506 367.944 631.871 372.586 633.768 376.48C636.297 381.672 640.29 386.098 645.166 389.11C648.361 391.09 652.404 392.454 655.832 390.873C660.525 388.727 661.523 382.52 661.873 377.328C662.538 367.627 663.187 357.926 663.853 348.225C664.202 343.017 664.585 337.709 666.565 332.9C668.545 328.091 672.456 323.764 677.514 322.749C682.573 321.734 688.48 325.029 689.145 330.204C689.428 332.351 688.829 334.53 688.813 336.694C688.796 338.857 689.628 341.32 691.625 342.085C693.655 342.85 695.851 341.536 697.515 340.121C703.273 335.263 707.416 328.773 711.327 322.3C715.237 315.827 719.048 309.188 724.339 303.813C729.631 298.438 736.703 294.411 744.191 294.528C751.679 294.661 759.266 299.853 760.614 307.291C761.962 314.762 757.137 321.884 752.028 327.475C744.473 335.778 735.721 342.95 726.153 348.724C724.422 349.773 722.559 350.888 721.793 352.768C720.412 356.146 723.441 359.84 726.769 361.238C730.546 362.818 734.789 362.719 738.799 363.501C742.826 364.283 747.086 366.396 748.334 370.34C750.065 375.814 745.206 381.056 740.563 384.384C731.261 391.04 720.828 396.082 709.862 399.193C705.935 400.308 701.809 401.24 698.53 403.703C695.252 406.166 693.039 410.692 694.637 414.502C696.234 418.313 700.927 419.844 704.987 419.394C709.047 418.945 712.791 417.032 716.718 415.883C724.073 413.72 733.258 414.885 737.385 421.408C740.097 425.684 739.931 431.359 738.05 436.101C736.17 440.827 732.776 444.77 729.215 448.365C716.768 460.961 701.293 470.695 684.287 475.205C667.281 479.731 651.805 480.147 635.764 472.892Z" fill="#F5F5F5"/>
<path d="M633.635 496.088C635.698 483.758 639.492 469.298 645.316 453.856C651.107 438.381 658.844 421.957 667.53 405.051C669.727 400.841 671.873 396.664 674.02 392.554C676.15 388.461 678.28 384.4 680.593 380.557C685.202 372.852 690.211 365.78 695.186 359.224C700.161 352.668 705.103 346.611 709.779 341.003C714.472 335.396 718.931 330.254 723.208 325.728C731.727 316.659 739.448 310.169 744.923 305.926C747.668 303.796 749.832 302.216 751.329 301.167C752.045 300.668 752.611 300.269 753.027 299.986C753.409 299.72 753.609 299.603 753.626 299.603C753.642 299.62 753.459 299.769 753.076 300.052C752.66 300.368 752.128 300.784 751.429 301.317C749.981 302.415 747.835 304.046 745.139 306.226C739.731 310.552 732.11 317.092 723.674 326.194C719.447 330.72 715.021 335.895 710.362 341.519C705.719 347.16 700.794 353.217 695.851 359.773C690.909 366.329 685.934 373.385 681.375 381.056C679.078 384.883 676.982 388.91 674.835 393.02C672.705 397.13 670.542 401.29 668.362 405.517C659.676 422.406 651.922 438.797 646.115 454.205C640.274 469.597 636.413 483.974 634.283 496.238" fill="#E0E0E0"/>
<path d="M680.859 380.523C680.792 380.523 680.676 379.725 680.509 378.26C680.343 376.796 680.176 374.683 679.993 372.07C679.644 366.829 679.411 359.59 679.178 351.603C678.945 343.616 678.612 336.394 678.18 331.186C677.963 328.573 677.78 326.477 677.631 325.012C677.497 323.548 677.448 322.749 677.514 322.733C677.581 322.716 677.747 323.515 678.013 324.962C678.28 326.41 678.562 328.507 678.862 331.119C679.461 336.328 679.91 343.583 680.143 351.586C680.36 359.474 680.543 366.596 680.692 372.054C680.776 374.516 680.842 376.596 680.892 378.26C680.942 379.708 680.925 380.523 680.859 380.523Z" fill="#E0E0E0"/>
<path d="M748.667 372.986C748.667 373.052 747.702 373.085 745.971 373.102C744.241 373.135 741.745 373.152 738.65 373.285C732.476 373.485 723.957 374.084 714.588 375.132C705.22 376.214 696.783 377.545 690.693 378.677C687.648 379.226 685.202 379.741 683.505 380.074C681.807 380.424 680.859 380.59 680.842 380.524C680.826 380.457 681.741 380.174 683.421 379.708C685.102 379.259 687.532 378.643 690.56 377.994C696.617 376.68 705.07 375.232 714.472 374.15C723.873 373.085 732.426 372.62 738.633 372.586C741.728 372.553 744.241 372.62 745.971 372.719C747.718 372.836 748.667 372.919 748.667 372.986Z" fill="#E0E0E0"/>
<path d="M646.214 452.691C646.181 452.708 646.048 452.408 645.815 451.842C645.549 451.16 645.233 450.345 644.85 449.33C644.018 447.15 642.903 443.972 641.588 440.011C638.926 432.107 635.598 421.075 632.087 408.861C628.576 396.631 625.348 385.599 622.868 377.645C621.654 373.784 620.639 370.606 619.89 368.243C619.574 367.211 619.307 366.379 619.091 365.68C618.925 365.098 618.842 364.782 618.875 364.765C618.908 364.749 619.041 365.048 619.274 365.614C619.54 366.296 619.857 367.112 620.239 368.11C621.071 370.29 622.186 373.468 623.517 377.428C626.18 385.332 629.508 396.365 633.019 408.578C636.53 420.792 639.758 431.841 642.237 439.795C643.469 443.656 644.467 446.834 645.216 449.197C645.532 450.228 645.798 451.06 646.015 451.759C646.181 452.358 646.248 452.674 646.214 452.691Z" fill="#E0E0E0"/>
<path d="M737.219 430.627C737.219 430.66 736.919 430.76 736.303 430.926C735.588 431.109 734.722 431.325 733.658 431.592C731.211 432.191 727.917 432.989 723.907 433.971C715.686 435.985 704.338 438.88 691.825 442.125C679.311 445.353 667.93 448.165 659.659 449.996C655.516 450.911 652.171 451.626 649.842 452.076C648.76 452.275 647.878 452.442 647.163 452.575C646.547 452.675 646.214 452.708 646.214 452.675C646.214 452.641 646.514 452.541 647.13 452.375C647.845 452.192 648.71 451.976 649.775 451.709C652.221 451.11 655.516 450.312 659.526 449.33C667.747 447.317 679.095 444.421 691.608 441.176C704.122 437.948 715.503 435.136 723.773 433.306C727.917 432.39 731.261 431.675 733.591 431.226C734.673 431.026 735.555 430.86 736.27 430.726C736.886 430.643 737.202 430.593 737.219 430.627Z" fill="#E0E0E0"/>
<path d="M284.161 129.443L324.297 251.83C340.255 256.273 356.495 259.8 375.831 253.544L467.218 220.48L412.888 80.7207L284.161 129.443Z" fill="#E0E0E0"/>
<path d="M275.558 125.416L315.711 247.803L367.245 249.534L458.632 216.453L412.273 78.957L275.558 125.416Z" fill="#FFB501"/>
<path d="M327.825 233.093L315.711 247.82C315.711 247.82 326.527 253.727 337.509 253.976C348.475 254.243 358.126 252.845 367.261 249.534C367.245 249.534 343.949 250.915 327.825 233.093Z" fill="#FFB501"/>
<path opacity="0.3" d="M327.825 233.093C324.147 240.548 320.42 249.267 315.711 247.82C315.711 247.82 326.527 253.727 337.509 253.976C348.475 254.243 358.126 252.845 367.261 249.534C367.245 249.534 343.949 250.915 327.825 233.093Z" fill="black"/>
<path d="M276.424 156.133L323.049 105.98L312.582 96.1128L264.543 145.983L276.424 156.133Z" fill="#E0E0E0"/>
<path d="M439.03 102.835L375.482 77.3096L370.024 90.6216L433.805 117.578L439.03 102.835Z" fill="#E0E0E0"/>
<path d="M411.79 127.562C411.873 127.795 388.66 135.882 359.973 145.65C331.269 155.418 307.956 163.155 307.873 162.922C307.79 162.689 330.986 154.602 359.69 144.835C388.378 135.067 411.707 127.329 411.79 127.562Z" fill="#263238"/>
<path d="M417.714 146.449C417.797 146.682 394.584 154.769 365.897 164.536C337.193 174.304 313.88 182.042 313.797 181.809C313.714 181.576 336.91 173.489 365.614 163.721C394.301 153.953 417.631 146.232 417.714 146.449Z" fill="#263238"/>
<path d="M423.937 162.872C424.02 163.105 400.808 171.192 372.12 180.96C343.416 190.728 320.104 198.465 320.02 198.232C319.937 197.999 343.133 189.912 371.837 180.145C400.541 170.377 423.871 162.639 423.937 162.872Z" fill="#263238"/>
<path d="M429.279 178.897C429.362 179.13 406.149 187.217 377.462 196.985C348.758 206.752 325.445 214.49 325.362 214.257C325.279 214.024 348.475 205.937 377.179 196.169C405.866 186.402 429.196 178.681 429.279 178.897Z" fill="#263238"/>
<path d="M490.913 529.468L482.859 604.431C482.859 604.431 467.168 580.719 456.552 591.286C446.435 601.353 428.58 674.902 428.58 674.902C428.58 674.902 428.33 698.88 441.093 705.22C481.944 725.504 527.438 687.265 527.438 687.265L520.982 472.925C504.042 487.186 493.276 507.437 490.913 529.468Z" fill="#FFB501"/>
<path d="M628.809 477.418L558.072 471.76C557.64 463.507 558.222 431.541 558.222 431.541C558.222 431.541 528.786 426.965 528.42 397.529C528.054 368.093 533.162 300.518 533.162 300.518C567.224 285.875 606.545 290.817 635.931 313.431L640.291 316.792L628.809 477.418Z" fill="#FCC5AF"/>
<path d="M558.172 431.142C558.172 431.142 576.776 432.656 596.544 420.243C596.544 420.243 587.475 441.425 558.106 438.763L558.172 431.142Z" fill="#AA6550"/>
<path d="M636.68 347.31C637.179 347.093 656.897 341.336 656.265 361.454C655.616 381.572 635.548 376.779 635.532 376.197C635.515 375.614 636.68 347.31 636.68 347.31Z" fill="#FCC5AF"/>
<path d="M641.905 368.775C641.988 368.709 642.254 369.025 642.837 369.324C643.402 369.607 644.401 369.824 645.449 369.458C647.596 368.742 649.493 365.431 649.709 361.803C649.825 359.973 649.493 358.226 648.894 356.761C648.328 355.264 647.413 354.215 646.348 353.982C645.283 353.699 644.517 354.315 644.251 354.881C643.968 355.43 644.085 355.846 643.968 355.879C643.918 355.929 643.552 355.53 643.735 354.698C643.835 354.298 644.085 353.833 644.567 353.466C645.066 353.084 645.782 352.917 646.514 353.017C648.062 353.167 649.409 354.648 650.075 356.245C650.824 357.859 651.24 359.84 651.107 361.886C650.84 365.93 648.644 369.657 645.715 370.406C644.284 370.722 643.12 370.273 642.52 369.774C641.938 369.258 641.838 368.809 641.905 368.775Z" fill="#AA6550"/>
<path d="M539.652 346.162C539.569 348.375 541.382 350.272 543.712 350.405C546.025 350.522 547.972 348.841 548.038 346.611C548.122 344.398 546.308 342.484 543.995 342.368C541.682 342.251 539.735 343.949 539.652 346.162Z" fill="#263238"/>
<path d="M538.737 341.952C539.253 342.501 542.447 340.138 546.957 340.155C551.466 340.105 554.794 342.434 555.277 341.869C555.51 341.619 554.994 340.637 553.546 339.589C552.132 338.541 549.702 337.526 546.874 337.542C544.062 337.559 541.682 338.59 540.317 339.655C538.953 340.72 538.487 341.702 538.737 341.952Z" fill="#263238"/>
<path d="M583.948 347.742C583.864 349.956 585.678 351.853 588.008 351.986C590.321 352.102 592.268 350.421 592.334 348.192C592.417 345.979 590.604 344.082 588.291 343.949C585.961 343.832 584.014 345.529 583.948 347.742Z" fill="#263238"/>
<path d="M583.182 342.8C583.698 343.349 586.893 340.986 591.419 341.003C595.928 340.953 599.256 343.283 599.739 342.717C599.972 342.467 599.456 341.486 598.008 340.437C596.594 339.389 594.165 338.374 591.336 338.374C588.524 338.391 586.144 339.422 584.78 340.487C583.415 341.569 582.933 342.551 583.182 342.8Z" fill="#263238"/>
<path d="M566.775 376.33C566.792 376.081 563.98 375.581 559.437 374.999C558.289 374.883 557.19 374.65 556.991 373.867C556.725 373.035 557.207 371.787 557.756 370.44C558.838 367.644 559.986 364.715 561.167 361.654C565.91 349.14 569.338 338.84 568.838 338.657C568.339 338.474 564.079 348.475 559.337 360.988C558.189 364.083 557.107 367.012 556.059 369.841C555.626 371.155 554.877 372.636 555.46 374.367C555.776 375.232 556.625 375.864 557.357 376.047C558.089 376.28 558.755 376.28 559.32 376.314C563.913 376.58 566.758 376.596 566.775 376.33Z" fill="#263238"/>
<path d="M582.017 325.079C582.467 326.31 586.976 325.728 592.284 326.36C597.609 326.893 601.885 328.44 602.584 327.342C602.901 326.809 602.152 325.661 600.421 324.463C598.707 323.282 595.978 322.15 592.783 321.784C589.605 321.435 586.677 321.934 584.746 322.733C582.816 323.531 581.834 324.496 582.017 325.079Z" fill="#263238"/>
<path d="M540.401 328.873C541.199 329.904 544.311 328.839 548.055 328.79C551.799 328.606 554.977 329.472 555.71 328.407C556.026 327.891 555.526 326.859 554.145 325.878C552.781 324.912 550.501 324.114 547.922 324.197C545.343 324.28 543.113 325.212 541.815 326.26C540.484 327.309 540.051 328.357 540.401 328.873Z" fill="#263238"/>
<path d="M518.835 281.981C518.519 278.337 519.884 274.427 522.845 272.28C525.807 270.134 530.417 270.267 532.829 273.029C531.448 268.12 535.459 262.446 540.567 262.13C545.359 261.83 549.453 265.458 554.095 266.722C558.621 267.97 563.48 266.889 567.84 265.142C572.2 263.394 576.26 260.965 580.669 259.351C589.871 255.99 600.388 256.406 609.274 260.499C618.176 264.592 625.348 272.28 628.792 281.449C635.232 279.435 642.537 282.713 646.514 288.155C650.474 293.613 651.506 300.768 650.707 307.457C650.175 311.983 648.86 316.359 647.346 320.669C647.346 321.052 647.379 321.418 647.379 321.801C647.08 337.975 645.249 356.994 638.344 357.094C626.313 357.277 629.175 334.614 629.175 334.614C614.415 328.906 619.907 306.775 616.213 303.43C612.518 300.069 604.797 292.281 573.88 308.073C561.883 314.213 545.908 314.013 537.206 312.033C536.956 311.983 536.69 311.933 536.44 311.883C536.39 311.867 536.307 311.867 536.257 311.85C536.157 311.833 536.091 311.767 536.008 311.75C533.229 311.035 530.55 309.953 528.07 308.389C525.275 306.608 522.729 304.212 521.531 301.117C520.349 298.022 520.782 294.162 523.212 291.899C520.932 289.02 519.151 285.625 518.835 281.981Z" fill="#263238"/>
<path d="M686.683 662.089L688.913 703.855L693.888 763.842H504.808L513.011 675.217L496.904 535.192C498.301 485.705 517.304 465.137 556.175 460.412C556.492 460.378 552.781 460.828 553.114 460.794C558.472 460.162 553.114 460.794 556.175 460.412C581.318 468.149 606.461 468.133 631.605 460.362C643.269 460.861 652.92 464.439 662.838 466.352C694.071 472.343 719.78 496.471 726.02 517.47C731.162 534.759 768.352 684.736 768.352 684.736H694.387L686.683 662.089Z" fill="#FFB501"/>
<path d="M562.931 390.241C563.647 392.038 564.362 393.852 565.56 395.383C566.742 396.897 568.489 398.112 570.419 398.195C572.466 398.295 574.463 397.08 575.594 395.366C576.742 393.652 577.125 391.523 577.042 389.476C576.959 387.612 576.11 385.399 574.263 385.183C573.498 385.1 572.732 385.382 572.017 385.682C568.789 386.996 565.544 388.311 562.316 389.626" fill="#AA6550"/>
<path d="M566.808 398.228C566.858 397.929 568.988 398.794 571.983 397.596C573.431 397.014 575.028 395.849 575.894 394.035C576.776 392.238 576.942 389.809 576.027 387.679C575.811 387.146 575.494 386.664 575.178 386.231C574.795 385.832 574.862 385.848 574.446 385.915C574.047 386.015 573.414 386.314 572.899 386.53C572.349 386.747 571.834 386.963 571.301 387.179C569.221 388.011 567.341 388.76 565.76 389.343C562.582 390.524 560.568 391.156 560.468 390.94C560.369 390.724 562.216 389.692 565.277 388.228C566.808 387.496 568.639 386.63 570.685 385.715C571.201 385.482 571.717 385.249 572.25 385.016C572.815 384.783 573.248 384.534 574.03 384.284C574.413 384.184 574.945 384.118 575.478 384.334C575.994 384.534 576.31 384.883 576.543 385.183C576.975 385.765 577.358 386.347 577.641 387.03C578.789 389.675 578.506 392.621 577.341 394.801C576.16 397.03 574.13 398.278 572.416 398.778C570.669 399.31 569.171 399.194 568.206 398.944C567.224 398.661 566.775 398.328 566.808 398.228Z" fill="#263238"/>
<path d="M496.604 653.735L452.076 517.021L448.049 494.058C448.049 494.058 435.935 442.89 435.402 437.815C434.787 431.958 431.808 430.859 429.661 431.225C426.317 431.808 424.387 436.201 424.769 441.243C424.902 442.99 428.064 470.379 428.064 470.379C428.064 470.379 426.566 468.249 421.957 463.557C417.348 458.864 407.514 456.951 397.779 458.315C388.045 459.68 385.432 460.928 385.798 464.738C385.948 466.269 386.93 467.401 388.111 468.216C390.042 469.564 392.454 470.046 394.801 469.747C410.426 467.767 415.534 475.687 415.534 475.687L416.067 478.683C416.067 478.683 405.816 472.909 398.561 476.603C397.38 477.202 396.465 477.967 395.732 478.799C391.572 479.282 387.745 481.994 385.965 485.788C384.118 489.732 384.567 494.657 387.096 498.201C388.311 499.899 390.358 501.363 392.338 500.747C393.386 500.415 394.168 499.566 394.917 498.767C395.316 498.351 395.732 497.935 396.198 497.586L398.861 505.789C398.861 505.789 405.816 523.91 407.946 532.13L429.628 669.793C432.64 688.879 450.711 701.792 469.747 698.447C490.431 694.836 503.11 673.72 496.604 653.735Z" fill="#FCC5AF"/>
<path d="M447.366 515.624C444.571 516.722 441.409 514.925 439.579 512.562C437.749 510.182 436.783 507.254 435.136 504.758C430.211 497.286 419.944 494.557 415.368 486.853C414.735 485.771 414.286 484.257 415.201 483.409C416.05 482.626 417.414 483.026 418.479 483.475C427.598 487.319 436.717 491.146 445.836 494.99" fill="#FCC5AF"/>
<path d="M445.835 494.973C445.885 494.873 444.87 494.324 443.007 493.426C441.143 492.527 438.414 491.279 435.053 489.782C431.525 488.234 427.531 486.487 423.155 484.573C422.024 484.091 420.875 483.592 419.711 483.092C418.579 482.71 417.281 481.695 415.334 482.343C414.369 482.71 413.803 483.858 413.87 484.74C413.887 485.638 414.186 486.387 414.552 487.069C415.318 488.334 416.166 489.499 417.181 490.564C421.258 494.823 426.184 497.236 429.878 500.265C431.758 501.746 433.355 503.343 434.537 505.074C435.718 506.788 436.534 508.651 437.466 510.282C439.196 513.66 441.992 515.723 444.155 516.073C446.351 516.472 447.45 515.64 447.383 515.607C447.35 515.44 446.218 516.006 444.305 515.44C442.391 514.908 440.045 513.011 438.514 509.716C437.682 508.102 436.916 506.205 435.702 504.308C434.487 502.395 432.79 500.648 430.859 499.067C427.049 495.855 422.157 493.359 418.413 489.415C417.464 488.45 416.682 487.336 416.017 486.271C415.401 485.206 415.351 484.057 415.983 483.874C416.649 483.575 417.897 484.091 419.078 484.59C420.26 485.072 421.408 485.555 422.539 486.021C426.966 487.801 431.009 489.449 434.57 490.88C437.998 492.244 440.794 493.326 442.74 494.025C444.687 494.74 445.786 495.09 445.835 494.973Z" fill="#AA6550"/>
<path d="M416.433 478.799C416.216 478.866 416.333 476.403 414.07 473.724C412.955 472.409 411.174 471.278 408.928 470.779C406.698 470.246 404.119 470.28 401.407 470.513C398.694 470.729 396.032 470.978 393.602 470.662C391.19 470.346 389.043 469.597 387.529 468.416C385.981 467.234 385.499 465.554 385.549 464.539C385.599 463.49 385.865 462.975 385.898 462.975C385.998 462.991 385.882 463.557 385.965 464.522C386.048 465.471 386.58 466.835 387.995 467.817C389.376 468.799 391.423 469.448 393.702 469.681C395.999 469.93 398.578 469.664 401.307 469.431C404.052 469.198 406.765 469.181 409.161 469.814C411.557 470.396 413.521 471.744 414.652 473.241C415.817 474.722 416.25 476.22 416.416 477.218C416.582 478.233 416.499 478.799 416.433 478.799Z" fill="#AA6550"/>
<path d="M424.653 439.329C424.803 439.329 425.002 441.409 425.318 444.77C425.685 448.514 426.117 452.974 426.583 457.899C427.132 462.825 427.631 467.284 428.047 471.012C428.43 474.373 428.68 476.453 428.513 476.47C428.364 476.503 427.864 474.456 427.282 471.128C426.683 467.8 426.034 463.158 425.485 458.016C424.952 452.874 424.636 448.198 424.536 444.82C424.437 441.426 424.503 439.329 424.653 439.329Z" fill="#AA6550"/>
<path d="M410.908 485.655C410.875 485.738 410.292 485.522 409.244 485.206C408.246 484.923 406.548 484.49 405.018 485.455C404.269 485.921 403.836 486.803 403.853 487.885C403.836 488.95 404.186 490.114 404.485 491.396C404.785 492.66 405.068 494.258 404.302 495.755C403.537 497.203 402.006 498.152 400.358 498.368C398.661 498.601 397.047 497.935 395.866 496.97C394.684 495.988 393.836 494.757 393.436 493.376C392.754 490.73 392.721 488.351 392.787 486.354C392.887 484.357 393.236 482.743 393.686 481.695C394.135 480.646 394.618 480.214 394.651 480.247C394.734 480.313 394.385 480.813 394.085 481.844C393.769 482.876 393.553 484.44 393.553 486.387C393.569 488.317 393.719 490.697 394.385 493.11C395.083 495.323 397.48 497.636 400.209 497.303C401.54 497.136 402.771 496.338 403.354 495.273C403.936 494.191 403.786 492.877 403.503 491.629C403.237 490.381 402.871 489.116 402.938 487.851C402.938 486.603 403.603 485.322 404.602 484.806C406.598 483.708 408.412 484.424 409.394 484.806C410.426 485.256 410.941 485.588 410.908 485.655Z" fill="#AA6550"/>
<path d="M396.232 496.105C396.282 496.088 396.498 496.654 396.248 497.669C395.999 498.634 395.167 500.098 393.37 500.83C391.606 501.529 389.093 501.213 387.163 499.616C385.233 498.035 384.018 495.456 383.702 492.693C383.402 489.914 384.051 487.219 385.249 485.122C386.447 483.009 388.161 481.561 389.709 480.679C391.273 479.781 392.704 479.415 393.702 479.265C394.701 479.132 395.25 479.182 395.25 479.248C395.3 479.465 393.004 479.481 390.125 481.328C388.71 482.243 387.18 483.658 386.131 485.605C385.066 487.535 384.5 490.031 384.783 492.56C385.05 495.09 386.148 497.436 387.795 498.834C389.426 500.248 391.572 500.597 393.087 500.082C394.634 499.566 395.483 498.368 395.816 497.519C396.182 496.67 396.132 496.105 396.232 496.105Z" fill="#AA6550"/>
<path d="M417.082 512.395C417.065 512.295 418.03 511.996 419.711 512.146C421.358 512.295 423.754 513.028 425.784 514.991L424.886 515.357C424.886 514.192 424.952 512.928 425.102 511.646C425.934 504.425 429.312 499.416 429.512 499.599C429.811 499.732 426.966 504.824 426.184 511.78C426.034 513.028 425.951 514.242 425.934 515.374L425.901 516.622L425.036 515.74C423.255 513.943 421.125 513.127 419.594 512.811C418.047 512.462 417.082 512.528 417.082 512.395Z" fill="#AA6550"/>
<path d="M411.54 465.803C411.807 465.903 410.958 467.983 408.662 469.264C406.382 470.579 404.152 470.23 404.219 469.947C404.219 469.631 406.149 469.464 408.129 468.316C410.126 467.201 411.258 465.637 411.54 465.803Z" fill="#AA6550"/>
<path d="M531.881 465.787C531.931 465.837 531.265 466.452 530.15 467.733C529.086 469.031 527.355 470.962 526.29 473.924C526.024 474.672 525.891 475.471 525.857 476.32C525.874 477.168 526.074 478.034 526.49 478.832C527.388 480.43 529.185 481.628 531.282 482.393C535.509 483.974 540.767 484.44 546.508 484.54C549.386 484.59 552.465 484.706 555.626 484.889C557.207 485.072 558.821 485.272 560.469 485.455C562.116 485.638 563.763 486.071 565.444 486.387C572.117 487.901 579.238 490.464 585.445 495.273C588.54 497.636 591.402 500.514 593.715 503.942C594.264 504.807 594.813 505.706 595.279 506.638C595.762 507.603 596.095 508.568 596.511 509.517C597.243 511.463 597.859 513.51 598.241 515.607C599.905 523.96 598.624 533.212 594.331 541.182C589.988 549.186 582.616 554.994 574.662 557.972C570.669 559.47 566.509 560.252 562.415 560.402C558.305 560.535 554.312 559.803 550.568 558.954C546.824 558.122 543.213 557.257 539.685 557.007C536.157 556.757 532.73 557.257 529.801 558.754C526.872 560.219 524.476 562.448 522.396 564.761C520.316 567.091 518.552 569.537 516.805 571.867C513.344 576.509 509.7 580.586 505.423 582.733C503.327 583.798 501.114 584.413 499.084 584.397C497.053 584.413 495.223 584.014 493.676 583.381C492.128 582.766 490.897 581.917 489.965 581.035C489.05 580.137 488.467 579.205 488.101 578.406C487.419 576.792 487.519 575.844 487.519 575.844C487.635 575.827 487.669 576.759 488.417 578.24C488.817 578.972 489.416 579.821 490.314 580.636C491.23 581.435 492.428 582.183 493.909 582.733C496.837 583.814 501.014 584.097 504.957 581.851C508.951 579.737 512.429 575.76 515.79 571.101C517.487 568.772 519.251 566.276 521.348 563.846C523.461 561.45 525.941 559.07 529.102 557.44C532.264 555.792 536.024 555.227 539.735 555.46C543.462 555.693 547.14 556.558 550.867 557.357C554.595 558.172 558.405 558.838 562.316 558.704C566.226 558.538 570.203 557.789 574.013 556.341C581.618 553.463 588.64 547.922 592.75 540.301C596.844 532.713 598.092 523.86 596.527 515.873C596.161 513.876 595.596 511.929 594.897 510.049C594.514 509.117 594.165 508.152 593.749 507.32C593.316 506.455 592.817 505.606 592.284 504.791C590.121 501.546 587.392 498.767 584.43 496.487C578.506 491.828 571.601 489.282 565.078 487.735C563.43 487.419 561.816 486.969 560.202 486.77C558.588 486.57 557.007 486.354 555.443 486.154C552.315 485.938 549.32 485.788 546.408 485.705C540.6 485.505 535.259 484.973 530.866 483.225C528.686 482.377 526.706 481.046 525.691 479.149C525.208 478.2 525.009 477.185 525.025 476.22C525.092 475.271 525.275 474.389 525.574 473.607C526.822 470.496 528.653 468.632 529.818 467.401C531.099 466.286 531.831 465.753 531.881 465.787Z" fill="#FAFAFA"/>
<path d="M658.461 576.742C658.378 576.759 657.962 575.461 657.663 572.998C657.347 570.552 657.38 566.908 658.362 562.565C659.31 558.222 661.44 553.263 664.818 548.454C668.212 543.662 672.938 539.052 678.796 535.558C684.669 532.13 690.843 530.017 696.567 528.852C702.291 527.654 707.549 527.288 711.959 527.271C716.352 527.255 719.913 527.504 722.342 527.804C724.772 528.087 726.12 528.353 726.103 528.453C726.086 528.752 720.678 528.17 711.992 528.503C707.649 528.686 702.491 529.168 696.916 530.416C691.342 531.648 685.368 533.744 679.694 537.056C674.07 540.417 669.477 544.81 666.132 549.386C662.804 553.979 660.625 558.704 659.56 562.864C658.478 567.024 658.245 570.552 658.345 572.948C658.412 575.361 658.611 576.709 658.461 576.742Z" fill="#FAFAFA"/>
<path d="M749.382 605.662C749.466 605.729 748.817 606.794 747.419 608.591C746.038 610.388 743.808 612.818 740.713 615.463C737.635 618.109 733.591 620.871 728.716 623.184C723.857 625.514 718.116 627.311 711.926 628.077C705.719 628.792 699.729 628.409 694.437 627.311C689.146 626.213 684.57 624.499 680.942 622.669C677.315 620.838 674.569 618.991 672.805 617.577C671.025 616.179 670.143 615.28 670.209 615.197C670.409 614.914 674.22 618.242 681.475 621.554C688.646 624.882 699.645 627.794 711.709 626.346C723.773 624.882 733.758 619.424 739.931 614.498C746.221 609.573 749.116 605.446 749.382 605.662Z" fill="#FAFAFA"/>
<path d="M665.8 600.338C665.816 600.404 665.267 600.571 664.285 600.954C663.304 601.336 661.889 602.085 660.475 603.483C659.06 604.897 657.713 606.977 656.648 609.623C655.583 612.285 654.717 615.464 653.969 619.008C653.203 622.569 652.621 626.563 651.256 630.739C650.557 632.819 649.659 634.949 648.378 636.946C647.08 638.926 645.449 640.79 643.519 642.371C639.692 645.582 634.883 647.812 629.774 649.326C624.649 650.84 619.224 651.672 613.766 652.754C602.884 654.767 592.916 658.794 585.312 664.602C581.501 667.464 578.323 670.758 575.827 674.153C573.381 677.597 571.601 681.158 570.419 684.57C568.073 691.409 568.056 697.432 568.655 701.409C569.254 705.419 570.17 707.533 569.987 707.583C569.937 707.599 569.687 707.1 569.288 706.085C569.071 705.586 568.872 704.954 568.639 704.188C568.389 703.439 568.189 702.541 567.99 701.526C567.174 697.499 566.975 691.292 569.254 684.187C570.403 680.659 572.166 676.948 574.662 673.338C577.208 669.76 580.453 666.349 584.347 663.354C592.118 657.297 602.368 653.12 613.434 651.073C618.941 649.992 624.316 649.176 629.292 647.729C634.25 646.298 638.86 644.168 642.504 641.172C644.334 639.708 645.865 637.978 647.096 636.147C648.311 634.3 649.193 632.303 649.892 630.323C651.256 626.33 651.922 622.369 652.771 618.792C653.603 615.197 654.568 612.003 655.749 609.29C656.947 606.595 658.445 604.448 660.009 603.034C661.59 601.636 663.121 600.954 664.169 600.654C665.217 600.338 665.8 600.305 665.8 600.338Z" fill="#FAFAFA"/>
<path d="M621.221 593.399C621.288 593.366 621.903 594.514 622.086 596.81C622.269 599.073 621.787 602.568 619.424 606.012C618.243 607.709 616.612 609.407 614.415 610.555C613.334 611.171 612.102 611.57 610.804 611.869C609.507 612.086 608.125 612.202 606.744 612.036C603.965 611.753 601.153 610.655 598.757 608.808C596.378 606.961 594.397 604.282 593.599 601.087C593.1 599.057 593.066 596.943 593.515 594.963C593.948 592.95 595.063 591.186 596.161 589.738C597.293 588.257 598.491 586.926 599.805 585.745C600.471 585.162 601.153 584.613 601.919 584.164C602.684 583.715 603.499 583.299 604.531 583.249L604.747 584.73C604.465 584.796 604.198 584.863 603.932 584.929L603.516 583.498C606.861 582.533 610.156 582.966 612.685 583.997C615.264 584.979 617.161 586.56 618.475 587.991C619.773 589.455 620.472 590.853 620.838 591.818C621.204 592.833 621.288 593.382 621.221 593.399C621.005 593.499 620.506 591.252 617.86 588.623C616.545 587.342 614.698 585.978 612.285 585.162C609.906 584.297 606.911 584.031 603.982 584.946L603.566 583.515C603.832 583.448 604.099 583.365 604.381 583.299L604.598 584.78C603.433 584.896 602.052 585.878 600.887 586.959C599.689 588.058 598.557 589.356 597.509 590.753C596.444 592.168 595.562 593.632 595.196 595.346C594.813 597.043 594.847 598.89 595.279 600.671C595.962 603.433 597.676 605.796 599.789 607.46C601.919 609.124 604.448 610.156 606.911 610.438C608.142 610.605 609.357 610.522 610.522 610.355C611.67 610.106 612.768 609.789 613.75 609.274C615.747 608.308 617.277 606.794 618.426 605.28C620.722 602.185 621.387 598.957 621.404 596.81C621.437 594.647 621.055 593.449 621.221 593.399Z" fill="#FAFAFA"/>
<path d="M513.843 539.053C513.86 539.053 513.86 539.202 513.86 539.502C513.843 539.851 513.843 540.284 513.81 540.817C513.743 542.031 513.66 543.712 513.56 545.842C513.294 550.202 513.044 556.508 512.695 564.296C512.046 579.887 511.414 601.419 510.898 625.231C510.382 649.043 510.083 670.592 509.85 686.2C509.733 693.954 509.633 700.244 509.567 704.671C509.517 706.801 509.484 708.481 509.467 709.696C509.45 710.228 509.434 710.661 509.417 710.994C509.4 711.293 509.384 711.443 509.367 711.443C509.35 711.443 509.334 711.293 509.317 710.994C509.3 710.644 509.3 710.212 509.284 709.679C509.267 708.465 509.251 706.784 509.234 704.654C509.234 700.228 509.234 693.921 509.234 686.167C509.3 670.559 509.517 649.01 510.033 625.198C510.532 601.386 511.264 579.837 512.079 564.262C512.512 556.475 512.861 550.168 513.227 545.809C513.394 543.679 513.544 542.015 513.643 540.8C513.693 540.267 513.743 539.835 513.777 539.502C513.81 539.202 513.843 539.053 513.843 539.053Z" fill="#263238"/>
<g opacity="0.2">
<path d="M482.044 693.771C491.329 698.214 503.46 689.678 508.202 680.543C508.202 680.543 510.682 660.408 510.332 650.125C509.7 631.089 511.081 612.235 510.449 593.199C509.018 604.531 504.225 615.397 496.87 624.116C494.84 626.529 492.527 628.909 491.762 631.987C490.397 637.478 494.591 647.346 497.286 652.321C505.54 667.53 487.469 693.855 482.643 693.372" fill="black"/>
</g>
<g opacity="0.2">
<path d="M655.816 569.554C658.861 607.493 661.889 645.432 664.934 683.371C665.217 686.949 665.533 690.61 666.931 693.921C668.346 697.232 671.075 700.194 674.586 700.91C679.977 702.008 685.202 697.366 686.733 692.074C688.264 686.783 687.032 681.142 685.718 675.783C683.455 666.681 680.909 657.663 678.346 648.644C670.925 622.469 663.503 596.294 656.065 570.136" fill="black"/>
</g>
<path d="M551.516 763.892C551.333 763.792 553.097 761.995 554.045 757.852C554.994 753.742 554.395 747.385 551.217 740.513C549.652 737.068 547.439 733.507 545.21 729.564C542.996 725.637 540.667 721.244 539.569 716.119C538.454 710.977 539.086 705.353 540.75 700.011C542.381 694.653 544.81 689.445 546.774 683.987C550.934 673.171 550.717 661.639 547.606 652.171C546.075 647.412 543.862 643.169 541.299 639.541C538.703 635.93 535.791 632.935 532.879 630.522C527.005 625.697 521.265 623.168 517.254 621.803C513.211 620.455 510.848 620.089 510.881 619.923C510.898 619.856 511.48 619.923 512.612 620.073C513.727 620.239 515.391 620.555 517.454 621.154C521.597 622.336 527.521 624.748 533.645 629.557C536.673 631.987 539.735 634.999 542.447 638.693C545.143 642.403 547.473 646.763 549.103 651.672C550.717 656.564 551.666 661.972 551.599 667.596C551.616 673.221 550.435 679.045 548.388 684.586C546.391 690.144 543.962 695.319 542.364 700.527C540.733 705.702 540.118 710.977 541.133 715.819C542.115 720.661 544.328 724.954 546.458 728.882C548.621 732.825 550.784 736.453 552.331 740.03C555.46 747.169 555.892 753.808 554.694 758.035C554.129 760.165 553.247 761.646 552.648 762.594C551.965 763.493 551.566 763.925 551.516 763.892Z" fill="#FAFAFA"/>
<path d="M707.733 490.148C707.816 490.181 707.416 491.446 706.118 493.459C704.837 495.456 702.508 498.135 698.897 500.465C695.319 502.811 690.377 504.691 684.703 505.157C679.045 505.656 672.772 504.824 666.582 502.844C660.392 500.881 654.751 497.802 650.757 493.659C648.777 491.612 647.18 489.332 646.148 487.003C645.116 484.673 644.55 482.327 644.351 480.18C643.951 475.854 645.033 472.36 646.198 470.28C646.464 469.747 646.764 469.298 647.046 468.932C647.296 468.549 647.546 468.25 647.779 468.017C648.211 467.551 648.444 467.334 648.494 467.368C648.627 467.467 647.762 468.466 646.813 470.562C645.882 472.642 645.05 475.97 645.582 480.031C645.848 482.044 646.431 484.224 647.462 486.387C648.478 488.534 650.008 490.63 651.905 492.527C655.716 496.354 661.107 499.283 667.114 501.18C673.121 503.094 679.162 503.942 684.586 503.56C690.011 503.194 694.737 501.546 698.248 499.416C701.792 497.303 704.155 494.874 705.569 493.06C706.984 491.246 707.599 490.081 707.733 490.148Z" fill="#FAFAFA"/>
<path d="M684.952 669.144C684.936 669.144 684.886 668.994 684.769 668.678C684.653 668.312 684.52 667.863 684.337 667.28C683.954 665.982 683.422 664.185 682.756 661.889C681.408 657.146 679.478 650.374 677.098 642.037C672.389 625.214 665.9 602.051 658.728 576.476C655.183 563.663 651.789 551.466 648.71 540.35C647.18 534.793 645.848 529.451 645.166 524.343C644.467 519.234 644.434 514.392 645.116 510.049C646.564 501.313 650.84 495.123 654.534 491.945C656.382 490.314 658.079 489.399 659.21 488.8C659.759 488.567 660.209 488.384 660.558 488.234C660.858 488.117 661.024 488.051 661.024 488.067C661.107 488.201 658.395 488.949 654.751 492.194C651.19 495.406 647.063 501.546 645.715 510.149C645.066 514.425 645.15 519.218 645.865 524.243C646.581 529.301 647.928 534.593 649.459 540.134C652.554 551.233 655.965 563.43 659.543 576.243C666.615 601.852 673.022 625.031 677.664 641.871C679.927 650.241 681.774 657.03 683.055 661.789C683.654 664.102 684.137 665.916 684.486 667.214C684.636 667.796 684.753 668.262 684.836 668.628C684.936 668.978 684.969 669.144 684.952 669.144Z" fill="#263238"/>
<path d="M617.178 300.651C617.061 300.635 617.477 299.37 617.194 297.09C616.911 294.844 615.647 291.566 612.602 288.82C609.64 285.991 604.764 284.311 599.356 284.444C593.915 284.494 588.124 286.274 582.134 288.288C579.122 289.286 576.16 290.218 573.231 290.867C570.286 291.499 567.391 291.849 564.629 291.915C559.087 292.082 554.129 291.183 550.135 290.002C546.142 288.787 543.08 287.306 541.066 286.158C540.051 285.592 539.286 285.093 538.787 284.743C538.287 284.394 538.021 284.211 538.038 284.178C538.088 284.094 539.169 284.81 541.233 285.842C543.296 286.89 546.341 288.271 550.318 289.403C554.295 290.484 559.171 291.3 564.629 291.1C567.341 291.017 570.186 290.651 573.082 290.018C575.977 289.369 578.906 288.421 581.901 287.439C587.875 285.426 593.782 283.612 599.373 283.612C604.931 283.512 610.023 285.326 613.051 288.338C616.163 291.25 617.377 294.694 617.577 297.007C617.727 299.42 617.178 300.651 617.178 300.651Z" fill="#455A64"/>
<path d="M640.074 350.388C640.041 350.405 639.908 350.188 639.692 349.772C639.459 349.356 639.142 348.724 638.776 347.892C638.044 346.245 637.129 343.765 636.43 340.571C635.764 337.392 635.332 333.499 635.665 329.189C635.931 324.862 637.279 320.303 638.294 315.511C639.342 310.752 639.592 305.993 638.327 301.982C637.728 299.986 636.73 298.238 635.515 296.857C634.284 295.509 632.769 294.594 631.288 294.078C628.293 293.03 625.597 293.496 624.033 294.261C622.452 295.06 621.853 295.925 621.77 295.842C621.77 295.842 622.269 294.894 623.867 293.962C625.464 293.063 628.293 292.464 631.488 293.496C633.069 293.995 634.7 294.927 636.047 296.358C637.379 297.789 638.444 299.636 639.093 301.733C640.457 305.909 640.207 310.852 639.159 315.677C638.127 320.519 636.78 325.012 636.48 329.239C636.114 333.449 636.463 337.276 637.046 340.437C637.645 343.582 638.46 346.062 639.109 347.742C639.708 349.456 640.141 350.355 640.074 350.388Z" fill="#455A64"/>
<path d="M620.006 298.272C619.973 298.272 619.99 297.856 620.023 297.09C620.056 296.225 620.09 295.11 620.156 293.712C620.189 290.8 620.273 286.491 618.792 281.499C618.026 279.036 616.795 276.424 614.865 274.077C612.951 271.748 610.272 269.701 606.977 268.869C603.699 267.97 600.022 268.287 596.444 269.302C592.85 270.317 589.389 272.114 585.911 274.077C582.433 276.041 579.022 278.038 575.461 279.452C571.884 280.833 568.206 281.549 564.695 281.615C561.184 281.698 557.839 281.249 554.844 280.4C551.849 279.552 549.17 278.387 546.84 277.106C542.231 274.46 539.186 271.332 537.372 269.019C536.44 267.871 535.841 266.889 535.459 266.223C535.059 265.558 534.86 265.208 534.893 265.192C534.926 265.175 535.159 265.508 535.608 266.14C536.041 266.772 536.673 267.721 537.638 268.819C539.502 271.049 542.581 274.044 547.14 276.573C549.436 277.805 552.082 278.903 555.027 279.702C557.972 280.5 561.251 280.9 564.678 280.8C568.106 280.717 571.667 280.001 575.145 278.653C578.623 277.272 581.984 275.292 585.478 273.312C588.956 271.332 592.5 269.501 596.211 268.47C599.889 267.438 603.733 267.122 607.177 268.087C610.655 269.002 613.467 271.182 615.414 273.611C617.394 276.057 618.642 278.77 619.374 281.316C620.805 286.457 620.605 290.8 620.489 293.729C620.406 295.193 620.289 296.342 620.206 297.107C620.106 297.872 620.04 298.288 620.006 298.272Z" fill="#455A64"/>
<path d="M576.06 714.355L700.494 695.801L698.481 684.736H765.457L767.42 701.759C773.494 733.308 749.499 762.644 717.384 762.96L572.25 761.346L576.06 714.355Z" fill="#FCC5AF"/>
<path d="M585.046 716.485C584.38 716.701 575.994 712.957 568.489 709.48C560.518 705.785 551.766 704.088 542.996 704.537L508.402 706.301C508.402 706.301 510.532 712.009 514.209 714.039C517.87 716.069 539.386 716.502 539.386 716.502L538.287 717.633C533.761 722.292 527.571 725.005 521.065 725.171L517.754 725.254C515.307 725.055 512.878 724.589 510.532 723.84L501.995 720.395C499.416 719.231 496.687 719.414 495.556 722.026C494.541 724.372 495.29 727.617 502.328 731.161C506.272 733.142 520.865 738.2 520.865 738.2C520.865 738.2 521.082 742.244 521.714 744.357C522.346 746.487 528.087 748.6 528.087 748.6C528.087 748.6 531.698 756.038 533.179 757.736C533.844 758.501 539.036 760.115 544.577 761.663C553.496 764.175 562.948 764.109 571.834 761.463L585.012 757.519V717.35" fill="#FCC5AF"/>
<path d="M537.705 742.726C537.688 742.943 533.578 742.743 528.703 741.445C523.827 740.164 520.15 738.333 520.233 738.134C520.333 737.901 524.11 739.348 528.919 740.613C533.745 741.894 537.738 742.477 537.705 742.726Z" fill="#AA6550"/>
<path d="M536.49 750.83C536.49 751.063 534.26 751.196 531.631 750.48C528.986 749.765 527.138 748.517 527.255 748.317C527.371 748.101 529.335 748.966 531.864 749.632C534.377 750.347 536.507 750.58 536.49 750.83Z" fill="#AA6550"/>
<path d="M733.375 724.822C733.208 724.888 732.393 722.409 730.396 718.765C729.414 716.934 728.067 714.854 726.419 712.675C724.722 710.511 722.709 708.265 720.379 706.135C718.016 704.038 715.553 702.275 713.24 700.827C710.894 699.412 708.681 698.298 706.751 697.515C702.907 695.918 700.378 695.369 700.411 695.203C700.428 695.136 701.06 695.252 702.208 695.502C702.79 695.619 703.489 695.785 704.271 696.051C705.07 696.301 705.985 696.55 706.967 696.95C708.947 697.665 711.227 698.747 713.64 700.145C716.036 701.576 718.549 703.356 720.961 705.503C723.341 707.666 725.388 709.979 727.068 712.192C728.716 714.438 730.03 716.585 730.962 718.482C731.478 719.397 731.811 720.296 732.143 721.061C732.493 721.827 732.726 722.509 732.909 723.058C733.258 724.173 733.425 724.805 733.375 724.822Z" fill="#AA6550"/>
<path d="M542.813 713.39C542.897 713.473 541.898 714.588 540.134 716.252C538.37 717.899 535.808 720.079 532.596 721.959C529.385 723.84 526.14 724.888 523.761 725.371C521.381 725.853 519.883 725.887 519.867 725.787C519.784 725.471 525.857 724.921 532.164 721.211C535.292 719.38 537.871 717.3 539.735 715.786C541.582 714.255 542.73 713.29 542.813 713.39Z" fill="#AA6550"/>
<path d="M184.837 673.87C187.799 673.87 162.173 742.727 155.584 760.315C154.852 762.262 154.336 763.976 154.336 763.976L333.749 764.292L331.635 597.36C331.635 597.243 331.619 597.143 331.619 597.027L316.609 477.618C316.46 476.437 315.611 475.455 314.463 475.139C307.357 473.209 281.765 466.603 262.18 465.887C239.217 465.038 206.02 469.598 206.02 469.598C206.02 469.598 176.234 472.676 159.827 478.583C158.513 479.066 157.714 480.38 157.897 481.762L184.837 673.87Z" fill="#FFB501"/>
<path d="M267.688 599.872C267.738 599.889 267.422 600.671 266.789 602.035C266.49 602.734 266.09 603.566 265.525 604.482C264.975 605.413 264.426 606.495 263.628 607.593C262.879 608.725 262.03 609.939 261.015 611.171C260.05 612.452 258.869 613.667 257.654 614.981C255.125 617.511 252.113 620.09 248.652 622.386C245.174 624.633 241.613 626.363 238.268 627.678C236.571 628.26 234.974 628.859 233.426 629.242C231.895 629.691 230.431 629.974 229.1 630.224C227.768 630.523 226.554 630.59 225.489 630.723C224.424 630.856 223.492 630.906 222.743 630.906C221.229 630.939 220.397 630.922 220.397 630.856C220.38 630.673 223.742 630.69 229 629.625C230.314 629.358 231.745 629.042 233.243 628.56C234.774 628.16 236.338 627.545 238.002 626.946C241.28 625.614 244.775 623.884 248.202 621.671C251.597 619.408 254.575 616.895 257.105 614.432C258.319 613.151 259.518 611.97 260.483 610.722C261.514 609.54 262.38 608.342 263.162 607.26C266.19 602.884 267.521 599.789 267.688 599.872Z" fill="#263238"/>
<g opacity="0.2">
<path d="M160.426 747.302C177.399 754.508 196.968 751.695 211.894 740.863C218.367 736.17 223.791 730.03 230.78 726.136C240.465 720.728 251.996 720.229 263.062 719.43C277.871 718.382 292.781 716.552 306.692 711.41C309.504 710.362 312.399 709.114 314.33 706.801C316.26 704.488 316.909 700.844 315.029 698.497C313.115 696.101 309.571 695.968 306.492 696.051C260.1 697.416 217.701 701.143 172.54 711.876" fill="black"/>
</g>
<path d="M210.429 294.129C224.773 279.536 247.404 270.916 266.157 279.12C278.77 284.627 287.306 296.458 298.372 304.645C306.426 310.602 316.393 315.212 320.603 324.297C324.33 332.301 322.533 341.636 321.635 350.422C320.736 359.208 321.368 369.342 328.174 374.983C331.752 377.945 336.444 379.109 340.471 381.422C348.575 386.065 353.384 395.1 355.114 404.269C356.845 413.438 355.913 422.889 354.964 432.174L316.343 439.529L310.003 428.863L307.79 445.636L258.502 450.079L210.429 294.129Z" fill="#263238"/>
<path d="M204.056 310.07L203.973 320.819L200.928 481.895C200.662 500.565 218.533 516.456 238.518 516.589C258.719 516.722 266.956 501.546 267.521 482.693C268.12 462.908 269.135 442.075 269.135 442.075C269.135 442.075 294.744 438.547 300.951 405.417C304.03 388.944 303.946 361.787 303.164 339.573C302.465 319.571 285.26 304.196 265.325 305.744L204.056 310.07Z" fill="#FFBE9D"/>
<path d="M294.395 360.989C294.412 363.252 292.515 365.115 290.168 365.182C287.822 365.248 285.892 363.468 285.875 361.221C285.859 358.958 287.756 357.095 290.102 357.028C292.465 356.945 294.378 358.725 294.395 360.989Z" fill="#263238"/>
<path d="M296.908 353.534C296.358 354.083 293.197 351.587 288.604 351.487C284.012 351.304 280.584 353.584 280.101 353.001C279.868 352.752 280.434 351.753 281.932 350.721C283.413 349.69 285.892 348.725 288.754 348.825C291.616 348.924 293.996 350.039 295.343 351.154C296.725 352.269 297.174 353.284 296.908 353.534Z" fill="#263238"/>
<path d="M249.168 360.989C249.184 363.252 247.287 365.115 244.941 365.182C242.595 365.248 240.664 363.468 240.648 361.221C240.631 358.958 242.528 357.095 244.874 357.028C247.237 356.945 249.151 358.725 249.168 360.989Z" fill="#263238"/>
<path d="M251.747 353.151C251.198 353.7 248.036 351.204 243.443 351.104C238.851 350.921 235.423 353.201 234.94 352.618C234.707 352.369 235.273 351.37 236.771 350.339C238.252 349.307 240.731 348.342 243.593 348.442C246.455 348.542 248.835 349.656 250.183 350.771C251.564 351.886 252.013 352.901 251.747 353.151Z" fill="#263238"/>
<path d="M267.471 387.662C267.455 387.396 270.334 386.98 274.959 386.531C276.141 386.447 277.256 386.231 277.472 385.449C277.772 384.617 277.322 383.336 276.79 381.955C275.758 379.093 274.693 376.081 273.562 372.936C269.102 360.09 265.907 349.54 266.423 349.373C266.939 349.19 270.983 359.474 275.442 372.303C276.507 375.465 277.539 378.493 278.52 381.372C278.92 382.72 279.652 384.251 279.003 385.998C278.67 386.863 277.788 387.479 277.023 387.662C276.257 387.878 275.608 387.862 275.026 387.878C270.367 387.978 267.488 387.912 267.471 387.662Z" fill="#263238"/>
<path d="M269.152 442.075C269.152 442.075 246.721 442.907 224.923 428.963C224.923 428.963 235.107 452.109 268.487 449.913L269.152 442.075Z" fill="#EB996E"/>
<path d="M265.225 398.661C263.628 396.431 260.782 395.15 257.887 395.383C255.89 395.55 253.843 396.448 252.595 398.029C251.347 399.61 251.031 401.923 252.08 403.487C253.278 405.267 255.84 405.733 258.053 405.167C260.266 404.602 262.18 403.221 264.01 401.823C264.51 401.44 265.042 401.041 265.358 400.508C265.674 399.976 265.774 399.26 265.392 398.794" fill="#EB996E"/>
<path d="M253.877 390.458C254.625 390.441 254.492 395.416 258.669 399.077C262.829 402.738 268.154 402.339 268.17 403.021C268.237 403.337 266.956 403.953 264.709 403.953C262.513 403.969 259.318 403.171 256.772 400.941C254.226 398.695 253.194 395.783 253.078 393.719C252.945 391.639 253.527 390.424 253.877 390.458Z" fill="#263238"/>
<path d="M253.211 339.789C252.728 341.02 248.152 340.305 242.744 340.804C237.336 341.203 232.943 342.651 232.261 341.52C231.962 340.971 232.744 339.822 234.541 338.658C236.321 337.493 239.117 336.428 242.362 336.162C245.607 335.895 248.552 336.494 250.499 337.343C252.446 338.192 253.411 339.207 253.211 339.789Z" fill="#263238"/>
<path d="M297.074 344.265C296.059 345.28 292.248 344.099 287.606 343.916C282.98 343.6 279.036 344.382 278.171 343.267C277.788 342.734 278.437 341.703 280.184 340.754C281.898 339.822 284.744 339.09 287.922 339.257C291.1 339.423 293.829 340.455 295.41 341.553C297.007 342.668 297.523 343.766 297.074 344.265Z" fill="#263238"/>
<path d="M169.728 475.521C169.728 475.521 116.214 488.085 105.83 538.82C101.055 562.133 94.3821 696.018 125.565 716.818C165.818 743.658 217.002 719.231 217.002 719.231L210.429 654.468H177.199L172.723 583.515C173.971 588.973 169.728 475.521 169.728 475.521Z" fill="#FFB501"/>
<path d="M360.09 698.398C370.456 697.333 380.357 692.174 387.18 684.287C394.002 676.4 397.663 665.85 397.214 655.433L375.365 562.549C375.365 562.549 361.188 482.827 316.376 475.655L331.652 597.177L330.188 622.786C330.188 622.786 330.887 639.725 332.6 671.474L360.09 698.398Z" fill="#FFB501"/>
<path d="M365.88 640.274C365.88 640.457 362.719 640.124 357.81 641.156C352.951 642.154 346.295 644.883 340.937 650.341C335.579 655.816 333 662.522 332.101 667.414C331.169 672.339 331.569 675.501 331.386 675.501C331.336 675.501 331.203 674.735 331.136 673.304C331.053 671.89 331.103 669.827 331.502 667.297C332.251 662.305 334.813 655.366 340.321 649.725C345.829 644.101 352.718 641.405 357.693 640.557C360.206 640.108 362.269 640.008 363.684 640.058C365.115 640.107 365.897 640.224 365.88 640.274Z" fill="#263238"/>
<path d="M227.818 290.418C233.842 298.505 236.704 304.728 240.315 319.105C242.079 326.144 236.355 331.136 230.664 335.429C228.001 337.443 224.141 336.045 223.409 332.767C223.409 332.767 225.389 354.815 217.418 364.699C213.674 369.325 213.525 375.282 214.406 380.291C215.305 385.399 217.951 390.008 221.528 393.769C230.764 403.487 233.343 419.345 226.97 431.259C225.339 434.304 223.209 437.1 221.911 440.311C221.162 442.141 220.73 444.205 220.846 446.168C220.996 448.598 219.315 450.744 216.919 451.094C189.563 455.071 161.758 455.903 134.218 453.573C132.271 453.407 130.624 452.042 130.175 450.145C128.012 441.01 131.622 431.043 136.232 422.639C141.39 413.238 147.946 404.236 149.727 393.669C151.391 383.718 148.678 373.002 152.672 363.734C157.581 352.369 170.91 346.994 177.582 336.577C183.872 326.743 183.373 313.847 189.014 303.614C196.252 290.468 214.074 284.411 227.818 290.418Z" fill="#263238"/>
<path d="M229.349 302.615C239.816 307.99 244.641 320.786 254.808 326.726C264.06 332.118 275.625 330.703 286.225 329.106C285.825 326.76 285.443 324.397 285.043 322.051C286.108 324.114 287.223 326.227 288.97 327.758C290.717 329.289 293.263 330.154 295.41 329.289C298.971 327.858 299.437 322.966 298.522 319.238C297.057 313.281 293.58 307.94 289.27 303.563C281.449 295.61 270.7 290.601 259.584 289.719C248.469 288.837 237.053 292.065 228.068 298.671" fill="#263238"/>
<path d="M327.475 539.486C327.509 539.486 327.542 539.935 327.575 540.8C327.608 541.732 327.642 542.98 327.692 544.544C327.758 547.806 327.925 552.515 328.174 558.322C328.657 569.954 329.738 585.995 331.053 603.716C332.367 621.438 333.349 637.512 333.682 649.16C333.848 654.984 333.915 659.693 333.882 662.955C333.865 664.519 333.848 665.767 333.832 666.699C333.815 667.564 333.782 668.013 333.749 668.013C333.715 668.013 333.682 667.564 333.649 666.699C333.615 665.767 333.582 664.519 333.532 662.955C333.466 659.693 333.299 654.984 333.05 649.177C332.567 637.545 331.486 621.504 330.171 603.766C328.856 586.045 327.875 569.97 327.542 558.322C327.375 552.498 327.309 547.789 327.342 544.528C327.359 542.964 327.375 541.716 327.392 540.784C327.425 539.935 327.459 539.486 327.475 539.486Z" fill="#263238"/>
<path d="M177.199 654.485C177.166 654.485 177.133 654.169 177.083 653.553C177.033 652.854 176.983 651.955 176.917 650.874C176.783 648.428 176.6 645.1 176.367 641.056C175.901 632.753 175.169 621.305 174.304 608.658C173.422 596.062 172.64 584.663 172.058 576.26C171.791 572.2 171.575 568.872 171.409 566.442C171.359 565.361 171.309 564.479 171.276 563.763C171.259 563.148 171.259 562.832 171.292 562.832C171.326 562.832 171.375 563.148 171.459 563.747C171.542 564.446 171.642 565.328 171.758 566.409C171.991 568.839 172.291 572.167 172.673 576.21C173.405 584.497 174.321 595.945 175.186 608.592C176.051 621.238 176.684 632.72 177 641.023C177.15 645.183 177.249 648.544 177.266 650.874C177.266 651.955 177.266 652.837 177.283 653.553C177.249 654.152 177.233 654.485 177.199 654.485Z" fill="#263238"/>
<path d="M177.199 654.485C177.216 654.635 175.469 654.718 172.84 655.6C170.244 656.465 166.766 658.312 164.054 661.524C161.342 664.735 160.11 668.479 159.711 671.175C159.278 673.904 159.511 675.651 159.345 675.651C159.295 675.651 159.178 675.235 159.095 674.453C158.995 673.671 158.962 672.506 159.112 671.092C159.378 668.279 160.576 664.336 163.405 660.958C166.25 657.597 169.944 655.733 172.657 655.001C174.021 654.618 175.169 654.468 175.968 654.418C176.767 654.385 177.199 654.418 177.199 654.485Z" fill="#263238"/>
<path d="M217.002 719.248C216.969 719.248 216.902 718.898 216.803 718.216C216.703 717.451 216.57 716.469 216.42 715.254C216.12 712.575 215.688 708.881 215.172 704.372C214.19 695.07 212.859 682.423 211.395 668.429C210.912 663.57 210.429 658.878 209.997 654.501L210.413 654.884C199.747 654.818 190.511 654.768 183.806 654.734C180.594 654.685 177.998 654.635 176.085 654.618C175.253 654.585 174.57 654.568 174.021 654.551C173.555 654.535 173.306 654.501 173.306 654.485C173.306 654.468 173.555 654.435 174.021 654.418C174.57 654.402 175.253 654.385 176.085 654.352C177.998 654.318 180.594 654.285 183.806 654.235C190.511 654.202 199.747 654.135 210.413 654.085H210.796L210.829 654.468C211.278 658.828 211.761 663.52 212.26 668.379C213.624 682.373 214.872 695.037 215.788 704.338C216.187 708.864 216.52 712.558 216.753 715.254C216.836 716.469 216.919 717.451 216.969 718.233C217.019 718.882 217.036 719.231 217.002 719.248Z" fill="#263238"/>
<path d="M217.002 719.248C217.019 719.281 216.586 719.431 215.754 719.714C214.839 719.996 213.624 720.396 212.11 720.878C208.932 721.86 204.323 723.275 198.565 724.805C192.808 726.336 185.885 727.984 178.065 729.065C170.244 730.28 161.391 729.797 152.489 727.851C148.029 726.885 143.753 725.654 139.693 724.24C137.663 723.524 135.699 722.775 133.786 721.977C132.837 721.577 131.889 721.211 130.973 720.712L129.609 720.03L128.344 719.214C125 717.018 122.387 714.189 120.324 711.344C118.244 708.482 116.68 705.586 115.382 702.907C112.836 697.499 111.338 692.89 110.356 689.712C109.874 688.114 109.508 686.883 109.275 686.034C109.042 685.186 108.942 684.736 108.975 684.736C109.009 684.72 109.158 685.152 109.458 685.984C109.757 686.883 110.173 688.098 110.689 689.612C111.771 692.757 113.352 697.3 115.948 702.641C117.262 705.287 118.86 708.132 120.923 710.928C122.986 713.707 125.549 716.452 128.81 718.549L130.042 719.331L131.356 719.996C132.221 720.462 133.187 720.828 134.118 721.228C136.015 722.01 137.979 722.742 139.992 723.458C144.019 724.855 148.279 726.07 152.689 727.019C161.524 728.949 170.227 729.431 177.965 728.283C185.736 727.252 192.658 725.671 198.415 724.223C204.173 722.759 208.815 721.444 212.01 720.562C213.558 720.146 214.789 719.813 215.704 719.547C216.536 719.314 216.986 719.214 217.002 719.248Z" fill="#263238"/>
<path d="M188.764 329.838C192.192 322.117 189.979 312.416 183.905 306.559C177.815 300.701 168.364 298.838 160.343 301.45C156.749 302.615 153.354 304.678 151.141 307.74C147.064 313.381 147.863 321.668 152.073 327.192C156.3 332.717 163.322 335.645 170.261 336.028C177.199 336.411 184.105 334.514 190.528 331.835" fill="#263238"/>
<path d="M244.092 593.748C255.724 603.35 283.113 626.08 283.113 626.08L298.455 623.351L251.996 584.264C249.5 582.167 245.806 582.367 243.56 584.73C241.08 587.325 241.33 591.469 244.092 593.748Z" fill="#455A64"/>
<path d="M242.861 588.757L236.837 583.315C235.656 582.25 235.539 580.437 236.554 579.222C237.636 577.941 239.566 577.824 240.797 578.956L246.605 584.264L242.861 588.757Z" fill="#455A64"/>
<path d="M260.815 591.685C260.982 591.851 259.318 593.898 257.071 596.261C254.825 598.624 252.878 600.404 252.712 600.238C252.545 600.072 254.209 598.025 256.456 595.662C258.685 593.299 260.649 591.519 260.815 591.685Z" fill="#263238"/>
<path d="M261.281 610.821C261.215 610.921 259.418 609.79 256.639 607.793C253.86 605.796 250.116 602.901 246.189 599.473C244.242 597.792 242.262 596.045 241.297 593.849C240.332 591.652 240.498 589.372 241.147 587.742C241.796 586.078 242.844 585.029 243.61 584.43C244.392 583.848 244.908 583.665 244.924 583.715C244.957 583.781 244.508 584.048 243.826 584.697C243.16 585.346 242.245 586.394 241.729 587.958C241.197 589.489 241.13 591.586 242.029 593.532C242.927 595.513 244.791 597.143 246.755 598.841C250.665 602.252 254.342 605.214 257.005 607.327C259.684 609.424 261.348 610.722 261.281 610.821Z" fill="#263238"/>
<path d="M210.945 659.66C221.978 655.949 233.709 658.445 244.741 654.734C248.435 653.486 252.246 652.188 255.174 649.592C258.685 646.481 260.466 641.905 263.261 638.144C271.615 626.896 287.223 624.566 301.151 623.135C304.412 622.802 307.74 622.469 310.902 623.268C314.08 624.067 317.109 626.247 317.99 629.392C318.889 632.536 316.842 636.464 313.597 636.796C316.659 636.929 318.789 640.024 319.355 643.036C319.921 646.048 319.421 649.16 319.821 652.188C320.387 656.448 322.716 660.425 322.583 664.718C322.4 670.592 317.525 675.434 312.1 677.697C306.675 679.96 300.668 680.26 294.861 681.075C266.29 685.102 244.558 701.326 217.002 713.573" fill="#FFBE9D"/>
<path d="M319.621 646.997C320.57 648.96 323.465 649.393 325.246 648.162C327.026 646.914 327.725 644.501 327.409 642.354C327.093 640.191 325.944 638.261 324.646 636.497C322.3 633.285 319.471 630.473 316.643 627.661L307.79 635.066L319.621 646.997Z" fill="#FFBE9D"/>
<path d="M316.36 637.312C316.343 637.578 310.935 637.146 304.396 638.161C297.839 639.126 292.814 641.139 292.714 640.89C292.681 640.79 293.879 640.158 295.942 639.392C298.006 638.627 300.951 637.795 304.262 637.296C307.59 636.796 310.636 636.73 312.832 636.846C315.029 636.963 316.376 637.212 316.36 637.312Z" fill="#EB996E"/>
<path d="M320.254 654.651C320.204 654.918 315.694 653.986 310.103 654.152C304.495 654.269 300.053 655.417 299.986 655.15C299.903 654.951 304.346 653.403 310.087 653.287C315.811 653.12 320.32 654.452 320.254 654.651Z" fill="#EB996E"/>
<path d="M319.322 649.526C319.188 649.509 319.322 648.228 319.072 646.198C318.822 644.184 318.09 641.389 316.393 638.81C316.044 638.261 315.644 637.745 315.261 637.262L315.012 636.946L315.295 636.68C317.142 634.866 317.658 632.437 317.591 630.823C317.558 629.175 317.092 628.21 317.225 628.16C317.292 628.11 317.94 629.009 318.157 630.773C318.373 632.487 317.94 635.199 315.894 637.279L315.927 636.697C316.343 637.196 316.759 637.728 317.142 638.311C318.939 641.04 319.621 644.018 319.704 646.131C319.771 648.261 319.405 649.543 319.322 649.526Z" fill="#EB996E"/>
<path d="M319.638 646.048L334.148 659.677L336.012 667.764L322.583 664.735C320.653 657.896 319.239 651.39 319.638 646.048Z" fill="#455A64"/>
<path d="M299.986 663.387C299.686 663.92 221.661 702.391 221.661 702.391V710.661L301.284 669.244L400.092 665.517V659.66L299.986 663.387Z" fill="#F5F5F5"/>
<path d="M221.645 711.859C222.194 711.493 307.79 703.772 307.79 703.772L400.076 665.517L301.267 669.244L221.645 710.661V711.859Z" fill="#263238"/>
<path d="M303.614 691.375C302.915 686.899 307.208 683.055 311.584 681.857C315.96 680.659 320.636 681.142 325.063 680.127C327.908 679.478 330.57 678.247 333.283 677.198C346.928 671.957 361.904 671.69 376.513 671.491C378.327 675.384 376.83 680.526 373.202 682.839C374.533 686.334 374.134 690.327 372.753 693.805C371.372 697.283 369.092 700.328 366.663 703.173C364.599 705.586 362.336 707.949 359.441 709.214C356.562 710.478 353.334 710.561 350.189 710.628C340.388 710.828 329.872 710.844 321.751 705.336C315.445 701.06 311.085 693.705 303.78 691.525C304.362 691.542 304.928 691.575 305.511 691.592" fill="#FFBE9D"/>
<path d="M369.009 685.934C369.009 686.001 368.343 686.051 367.128 686.117C365.731 686.167 364.017 686.217 362.003 686.284C357.677 686.383 351.703 686.467 345.114 686.5C341.819 686.5 338.691 686.5 335.812 686.5C334.364 686.467 332.95 686.334 331.702 685.868C330.454 685.402 329.406 684.636 328.723 683.704C328.041 682.773 327.775 681.658 327.941 680.759C328.091 679.844 328.524 679.162 328.973 678.712C329.938 677.814 330.77 677.964 330.72 677.98C330.753 678.063 329.988 678.063 329.206 678.945C328.44 679.761 327.858 681.708 329.189 683.338C329.805 684.137 330.77 684.803 331.902 685.185C333.05 685.568 334.381 685.685 335.795 685.701C338.674 685.685 341.802 685.651 345.08 685.635C351.67 685.601 357.644 685.618 361.97 685.685C363.983 685.735 365.697 685.768 367.095 685.801C368.343 685.818 369.009 685.868 369.009 685.934Z" fill="#EB996E"/>
<path d="M363.983 694.154C363.983 694.221 363.151 694.371 361.621 694.62C360.09 694.853 357.877 695.169 355.131 695.435C352.385 695.685 349.074 695.885 345.397 695.668C341.719 695.469 337.742 694.62 333.649 693.688C325.479 691.692 317.891 691.076 312.399 691.076C309.654 691.059 307.424 691.176 305.893 691.259C304.362 691.342 303.497 691.392 303.497 691.325C303.497 691.275 304.329 691.109 305.86 690.909C307.391 690.726 309.621 690.51 312.399 690.46C317.924 690.294 325.645 690.826 333.848 692.84C337.942 693.772 341.852 694.637 345.463 694.87C349.074 695.136 352.352 695.003 355.081 694.82C357.827 694.637 360.04 694.404 361.587 694.287C363.135 694.138 363.983 694.088 363.983 694.154Z" fill="#EB996E"/>
<path d="M355.846 702.941C355.846 703.007 355.198 703.124 354.016 703.29C352.835 703.44 351.104 703.656 348.974 703.839C344.714 704.189 338.707 704.555 332.201 703.29C325.628 702.042 320.52 698.697 316.609 697.133C312.699 695.453 310.02 695.269 310.037 695.12C310.037 695.086 310.719 695.037 311.9 695.22C313.098 695.386 314.812 695.802 316.826 696.567C320.886 698.032 325.978 701.243 332.367 702.441C338.724 703.673 344.681 703.406 348.924 703.223C350.921 703.107 352.602 703.024 353.983 702.941C355.164 702.891 355.83 702.874 355.846 702.941Z" fill="#EB996E"/>
<g opacity="0.2">
<path d="M333.715 658.262C334.547 652.205 335.845 646.148 338.574 640.673C341.303 635.199 345.58 630.34 351.137 627.811C356.695 625.281 363.617 625.381 368.626 628.876C370.14 629.924 371.488 631.305 372.12 633.036C372.753 634.766 372.536 636.863 371.288 638.211C369.441 640.157 366.346 639.858 363.667 639.741C351.453 639.209 339.24 646.564 333.998 657.613" fill="black"/>
</g>
<g opacity="0.2">
<path d="M189.214 653.204C195.82 641.273 193.473 626.313 188.415 613.667C183.34 601.004 175.768 589.372 171.891 576.293C171.159 602.734 175.036 629.309 183.29 654.435" fill="black"/>
</g>
<path d="M200.928 470.713C200.928 470.713 208.998 489.732 238.118 488.517C267.238 487.303 268.17 464.722 268.17 464.722L287.656 485.439L269.152 523.578L244.292 542.131L210.429 528.22L182.524 506.572L200.928 470.713Z" fill="#FFB501"/>
<g opacity="0.5">
<path d="M132.737 552.016C133.037 552.382 129.226 555.943 124.234 559.953C119.242 563.963 114.949 566.909 114.65 566.542C114.35 566.176 118.161 562.615 123.153 558.605C128.145 554.595 132.438 551.633 132.737 552.016Z" fill="#FAFAFA"/>
</g>
<path d="M146.382 531.498C146.232 531.931 141.64 530.633 136.664 527.571C131.672 524.526 128.444 521.015 128.76 520.682C129.093 520.316 132.754 523.145 137.58 526.09C142.388 529.052 146.565 531.033 146.382 531.498Z" fill="#FAFAFA"/>
<path d="M171.392 533.728C171.791 534.028 168.114 539.386 163.921 546.158C159.711 552.931 156.566 558.605 156.117 558.389C155.701 558.189 158.18 552.115 162.44 545.243C166.7 538.371 171.043 533.429 171.392 533.728Z" fill="#FAFAFA"/>
<path d="M150.026 591.552C149.694 591.852 145.85 587.941 142.488 582.117C139.094 576.31 137.613 571.035 138.046 570.885C138.511 570.702 140.691 575.594 144.003 581.252C147.247 586.91 150.409 591.219 150.026 591.552Z" fill="#FAFAFA"/>
<path d="M127.695 619.524C127.213 619.591 126.248 615.347 125.532 610.072C124.817 604.781 124.617 600.438 125.083 600.388C125.549 600.321 126.531 604.565 127.246 609.839C127.978 615.114 128.178 619.457 127.695 619.524Z" fill="#FAFAFA"/>
<g opacity="0.5">
<path d="M148.728 627.145C148.312 626.912 150.459 622.453 153.504 617.194C156.549 611.936 159.361 607.859 159.777 608.109C160.193 608.342 158.047 612.801 155.002 618.076C151.957 623.318 149.144 627.395 148.728 627.145Z" fill="#FAFAFA"/>
</g>
<path d="M124.301 656.115C123.951 656.432 120.241 652.787 116.646 647.529C113.036 642.271 110.972 637.495 111.388 637.296C111.821 637.063 114.533 641.389 118.078 646.547C121.605 651.722 124.667 655.799 124.301 656.115Z" fill="#FAFAFA"/>
<path d="M157.498 651.34C157.83 651.673 154.02 656.082 148.961 661.174C143.903 666.266 139.543 670.126 139.194 669.794C138.861 669.461 142.671 665.051 147.73 659.959C152.772 654.867 157.148 651.007 157.498 651.34Z" fill="#FAFAFA"/>
<g opacity="0.5">
<path d="M138.628 711.127C138.312 711.46 134.634 708.382 131.273 703.573C127.895 698.764 126.264 694.254 126.68 694.071C127.13 693.855 129.409 697.915 132.687 702.574C135.932 707.25 138.977 710.778 138.628 711.127Z" fill="#FAFAFA"/>
</g>
<path d="M181.459 699.03C181.692 699.446 177.599 702.225 172.324 705.237C167.032 708.248 162.573 710.362 162.323 709.946C162.09 709.53 166.184 706.751 171.459 703.739C176.75 700.727 181.226 698.614 181.459 699.03Z" fill="#FAFAFA"/>
<path d="M198.149 685.252C197.85 685.602 193.956 682.64 190.445 677.797C186.901 672.972 185.27 668.362 185.686 668.196C186.135 667.98 188.415 672.123 191.843 676.782C195.237 681.442 198.499 684.886 198.149 685.252Z" fill="#FAFAFA"/>
<path d="M227.585 589.423C227.868 589.805 223.459 593.582 217.751 597.876C212.027 602.152 207.151 605.314 206.869 604.931C206.586 604.548 210.979 600.771 216.703 596.478C222.427 592.201 227.302 589.04 227.585 589.423Z" fill="#FAFAFA"/>
<path d="M196.568 587.425C196.086 587.375 196.169 582.816 196.735 577.242C197.301 571.667 198.149 567.191 198.632 567.241C199.114 567.291 199.031 571.85 198.465 577.425C197.883 582.999 197.034 587.475 196.568 587.425Z" fill="#FAFAFA"/>
<g opacity="0.5">
<path d="M225.173 548.438C224.906 548.821 219.748 545.642 214.09 540.8C208.416 535.974 204.472 531.382 204.805 531.066C205.155 530.716 209.614 534.726 215.222 539.486C220.813 544.278 225.455 548.038 225.173 548.438Z" fill="#FAFAFA"/>
</g>
<path d="M203.69 499.816C204.056 500.132 200.412 505.024 195.57 510.732C190.711 516.456 186.485 520.849 186.118 520.533C185.752 520.216 189.397 515.341 194.255 509.617C199.098 503.909 203.324 499.516 203.69 499.816Z" fill="#FAFAFA"/>
<g opacity="0.5">
<path d="M179.08 494.608C178.814 495.04 175.103 493.127 170.261 491.496C165.435 489.848 161.325 489.1 161.375 488.6C161.391 488.151 165.768 488.135 170.81 489.848C175.868 491.562 179.329 494.241 179.08 494.608Z" fill="#FAFAFA"/>
</g>
<path d="M241.629 517.022C241.164 516.888 241.962 512.845 243.393 507.969C244.824 503.111 246.355 499.283 246.804 499.416C247.27 499.55 246.472 503.593 245.041 508.469C243.626 513.327 242.095 517.171 241.629 517.022Z" fill="#FAFAFA"/>
<path d="M256.589 555.327C256.106 555.294 255.957 551.333 256.223 546.475C256.506 541.616 257.121 537.689 257.587 537.722C258.07 537.755 258.22 541.716 257.953 546.574C257.671 551.433 257.055 555.36 256.589 555.327Z" fill="#FAFAFA"/>
<path d="M281.166 584.064C280.867 584.43 277.222 582.001 273.029 578.64C268.836 575.262 265.674 572.233 265.974 571.867C266.273 571.501 269.917 573.93 274.111 577.292C278.304 580.653 281.466 583.698 281.166 584.064Z" fill="#FAFAFA"/>
<path d="M307.358 543.945C307.674 544.311 304.429 547.689 300.102 551.5C295.776 555.31 292.015 558.123 291.699 557.756C291.383 557.39 294.628 554.012 298.954 550.202C303.281 546.375 307.041 543.579 307.358 543.945Z" fill="#FAFAFA"/>
<g opacity="0.5">
<path d="M295.327 524.992C295.077 525.375 290.95 523.128 286.524 519.451C282.081 515.773 279.103 512.146 279.436 511.83C279.785 511.48 283.263 514.509 287.623 518.12C291.982 521.731 295.593 524.593 295.327 524.992Z" fill="#FAFAFA"/>
</g>
<path d="M325.578 491.213C325.961 491.479 323.948 494.924 320.387 498.252C316.842 501.597 313.281 503.394 313.032 503.011C312.765 502.595 315.777 500.215 319.188 496.987C322.616 493.792 325.179 490.93 325.578 491.213Z" fill="#FAFAFA"/>
<g opacity="0.5">
<path d="M304.778 488.051C304.712 488.517 299.404 488.135 293.064 486.521C286.707 484.923 281.865 482.727 282.031 482.294C282.198 481.828 287.24 483.259 293.496 484.84C299.72 486.437 304.845 487.569 304.778 488.051Z" fill="#FAFAFA"/>
</g>
<g opacity="0.5">
<path d="M343.416 541.832C342.967 541.732 343.999 535.226 346.378 527.488C348.741 519.734 351.503 513.76 351.936 513.943C352.385 514.126 350.372 520.316 348.026 528.004C345.679 535.658 343.899 541.932 343.416 541.832Z" fill="#FAFAFA"/>
</g>
<path d="M351.986 578.54C351.637 578.872 347.526 575.079 342.817 570.087C338.092 565.078 334.547 560.768 334.897 560.435C335.246 560.103 339.356 563.897 344.065 568.889C348.791 573.881 352.335 578.207 351.986 578.54Z" fill="#FAFAFA"/>
<g opacity="0.5">
<path d="M365.248 599.323C364.765 599.306 364.483 593.865 364.582 587.142C364.699 580.42 365.181 574.979 365.664 574.995C366.147 574.995 366.429 580.453 366.33 587.176C366.197 593.898 365.714 599.34 365.248 599.323Z" fill="#FAFAFA"/>
</g>
<path d="M351.786 633.568C351.42 633.835 347.843 629.475 344.548 623.385C341.236 617.295 339.539 611.92 339.972 611.753C340.438 611.57 342.817 616.562 346.079 622.553C349.307 628.543 352.186 633.286 351.786 633.568Z" fill="#FAFAFA"/>
<path d="M386.148 639.825C386.481 640.174 384.168 642.97 380.989 646.065C377.811 649.177 374.949 651.406 374.616 651.073C374.284 650.724 376.596 647.929 379.775 644.833C382.97 641.722 385.815 639.475 386.148 639.825Z" fill="#FAFAFA"/>
<g opacity="0.5">
<path d="M302.482 600.787C302.049 600.654 303.58 595.196 307.524 589.522C311.434 583.814 315.994 580.453 316.276 580.803C316.626 581.185 312.716 585.013 308.955 590.504C305.144 595.978 302.948 600.987 302.482 600.787Z" fill="#FAFAFA"/>
</g>
<path d="M205.454 646.448C204.988 646.331 205.804 641.389 207.285 635.399C208.766 629.408 210.33 624.633 210.796 624.749C211.262 624.866 210.446 629.808 208.965 635.815C207.484 641.805 205.903 646.564 205.454 646.448Z" fill="#FAFAFA"/>
<path d="M246.322 650.524C246.056 650.924 241.912 648.694 237.07 645.532C232.228 642.371 228.5 639.475 228.767 639.076C229.033 638.677 233.176 640.906 238.019 644.068C242.861 647.23 246.588 650.125 246.322 650.524Z" fill="#FAFAFA"/>
<path d="M244.275 621.038C243.876 621.305 241.929 619.092 239.932 616.096C237.935 613.101 236.621 610.455 237.02 610.189C237.42 609.923 239.366 612.136 241.363 615.131C243.36 618.126 244.675 620.772 244.275 621.038Z" fill="#FAFAFA"/>
<path d="M262.296 627.761C262.579 628.16 260.815 629.857 258.386 631.571C255.957 633.285 253.76 634.35 253.477 633.951C253.194 633.551 254.958 631.854 257.388 630.14C259.817 628.426 262.014 627.361 262.296 627.761Z" fill="#FAFAFA"/>
<g opacity="0.5">
<path d="M215.239 747.386C214.773 747.236 215.538 743.459 216.22 738.799C216.919 734.14 217.285 730.296 217.784 730.296C218.25 730.28 218.666 734.24 217.934 739.049C217.219 743.858 215.671 747.535 215.239 747.386Z" fill="#FAFAFA"/>
</g>
<g opacity="0.5">
<path d="M256.705 733.891C256.289 734.124 253.128 729.365 249.65 723.241C246.172 717.118 243.676 711.976 244.092 711.743C244.508 711.51 247.67 716.269 251.148 722.393C254.625 728.5 257.121 733.641 256.705 733.891Z" fill="#FAFAFA"/>
</g>
<g opacity="0.5">
<path d="M300.685 715.337C301.068 715.62 296.891 721.71 291.366 728.932C285.842 736.154 281.05 741.778 280.684 741.479C280.301 741.196 284.477 735.105 290.002 727.884C295.526 720.662 300.319 715.038 300.685 715.337Z" fill="#FAFAFA"/>
</g>
<g opacity="0.5">
<path d="M313.082 750.664C313.148 751.13 307.64 752.328 300.785 753.326C293.929 754.325 288.305 754.741 288.238 754.258C288.172 753.792 293.679 752.594 300.535 751.596C307.391 750.614 313.015 750.181 313.082 750.664Z" fill="#FAFAFA"/>
</g>
<path d="M314.995 732.859C314.513 732.743 314.945 729.198 315.128 724.839C315.328 720.479 315.211 716.901 315.694 716.835C316.143 716.768 317.059 720.363 316.859 724.905C316.659 729.448 315.444 732.976 314.995 732.859Z" fill="#FAFAFA"/>
<path d="M255.607 753.592C255.441 754.008 250.948 752.527 246.255 749.133C241.546 745.772 238.701 741.978 239.05 741.695C239.416 741.362 242.728 744.49 247.27 747.735C251.78 750.997 255.807 753.126 255.607 753.592Z" fill="#FAFAFA"/>
<path d="M185.037 750.963C184.571 750.847 185.137 747.053 186.285 742.477C187.433 737.901 188.748 734.29 189.213 734.407C189.679 734.523 189.114 738.317 187.965 742.893C186.801 747.469 185.503 751.08 185.037 750.963Z" fill="#FAFAFA"/>
<path d="M177.366 330.071C177.466 329.938 179.363 331.569 182.84 333.466C184.571 334.431 186.734 335.396 189.214 336.245C191.71 337.043 194.505 337.725 197.517 338.092C200.529 338.424 203.407 338.391 206.02 338.175C208.632 337.909 210.962 337.459 212.859 336.91C216.686 335.845 218.899 334.68 218.966 334.847C218.999 334.897 218.45 335.213 217.452 335.729C216.952 335.995 216.337 336.294 215.588 336.577C214.839 336.86 214.007 337.243 213.025 337.509C211.112 338.141 208.749 338.657 206.086 338.974C203.424 339.24 200.479 339.29 197.4 338.957C194.339 338.591 191.46 337.859 188.947 336.993C186.435 336.078 184.255 335.046 182.524 333.982C181.642 333.499 180.91 332.95 180.245 332.501C179.579 332.051 179.046 331.619 178.614 331.253C177.782 330.537 177.316 330.121 177.366 330.071Z" fill="#455A64"/>
<path d="M220.347 349.224C220.364 349.274 219.715 349.49 218.533 349.79C217.352 350.089 215.621 350.472 213.475 350.855C209.198 351.587 203.058 352.302 196.435 350.954C189.796 349.573 184.504 345.962 181.709 342.551C180.294 340.854 179.396 339.29 178.913 338.158C178.431 337.027 178.264 336.361 178.298 336.361C178.481 336.261 179.263 338.94 182.158 342.152C184.987 345.363 190.162 348.775 196.602 350.106C203.058 351.42 209.098 350.821 213.375 350.256C215.521 349.956 217.252 349.656 218.45 349.473C219.665 349.257 220.33 349.157 220.347 349.224Z" fill="#455A64"/>
<path d="M161.092 451.061C161.075 451.077 161.009 450.994 160.876 450.828C160.742 450.661 160.526 450.428 160.31 450.079C159.86 449.397 159.295 448.298 158.979 446.751C158.33 443.722 159.012 438.764 162.639 434.387C164.436 432.224 166.866 430.294 169.595 428.513C172.324 426.716 175.386 425.052 178.397 423.039C181.376 421.009 184.371 418.529 186.418 415.218C187.433 413.571 188.148 411.69 188.415 409.727C188.698 407.747 188.531 405.7 188.099 403.67C187.183 399.61 185.37 395.899 183.889 392.188C182.358 388.511 181.16 384.717 181.076 380.99C180.777 373.502 183.556 367.045 186.784 362.553C190.045 357.977 193.856 355.314 196.602 353.9C197.284 353.567 197.916 353.267 198.465 353.001C199.014 352.818 199.48 352.652 199.896 352.502C200.678 352.236 201.078 352.119 201.094 352.153C201.111 352.186 200.712 352.352 199.963 352.668C199.564 352.835 199.098 353.018 198.582 353.234C198.049 353.517 197.45 353.833 196.768 354.183C194.106 355.68 190.428 358.359 187.3 362.885C184.205 367.328 181.542 373.685 181.892 380.94C182.008 384.551 183.156 388.211 184.687 391.856C186.168 395.516 188.015 399.26 188.964 403.47C189.43 405.567 189.596 407.73 189.297 409.827C189.014 411.923 188.248 413.92 187.183 415.651C185.02 419.145 181.925 421.641 178.88 423.705C175.802 425.751 172.74 427.365 170.028 429.129C167.299 430.86 164.919 432.723 163.139 434.803C159.578 438.98 158.812 443.756 159.345 446.701C159.86 449.729 161.225 450.994 161.092 451.061Z" fill="#455A64"/>
<path d="M205.421 451.66C205.404 451.693 205.071 451.494 204.456 451.111C203.89 450.678 203.025 449.979 202.309 448.781C201.577 447.6 200.995 445.952 200.812 443.989C200.629 442.025 200.845 439.762 201.544 437.366C202.892 432.474 206.985 428.031 210.047 422.457C211.578 419.661 212.659 416.433 212.543 412.972C212.476 409.527 211.445 406.016 209.864 402.705C206.702 396.016 201.843 390.691 198.482 385.133C196.785 382.371 195.387 379.559 194.555 376.763C193.673 373.968 193.507 371.206 193.74 368.743C194.206 363.767 196.502 360.14 198.582 358.343C199.647 357.461 200.579 356.912 201.244 356.629C201.91 356.363 202.276 356.23 202.276 356.263C202.342 356.379 200.795 356.779 198.798 358.592C196.851 360.406 194.721 363.967 194.339 368.809C194.156 371.206 194.339 373.868 195.237 376.564C196.086 379.276 197.467 382.005 199.148 384.717C200.845 387.446 202.858 390.159 204.922 393.021C206.985 395.866 209.032 398.944 210.629 402.356C212.227 405.75 213.308 409.378 213.375 412.989C213.475 416.599 212.31 420.027 210.729 422.856C207.551 428.53 203.474 432.89 202.11 437.566C201.411 439.862 201.144 442.059 201.278 443.972C201.411 445.869 201.926 447.467 202.575 448.631C203.94 450.978 205.537 451.543 205.421 451.66Z" fill="#455A64"/>
<path d="M271.082 326.743C271.066 326.776 270.849 326.677 270.45 326.477C270.051 326.277 269.485 325.928 268.803 325.429C267.438 324.414 265.658 322.666 264.01 320.087C262.33 317.541 260.915 314.197 259.401 310.536C258.636 308.705 257.82 306.792 256.805 304.912C255.757 303.048 254.592 301.151 253.128 299.42C247.37 292.315 239.616 288.504 233.892 287.024C228.101 285.509 224.307 285.859 224.324 285.659C224.324 285.609 225.256 285.543 226.936 285.509C228.617 285.576 231.08 285.709 234.042 286.441C236.987 287.157 240.431 288.371 243.893 290.435C247.337 292.481 250.881 295.244 253.793 298.888C255.291 300.668 256.489 302.615 257.537 304.529C258.552 306.459 259.368 308.406 260.117 310.253C261.598 313.947 262.929 317.258 264.51 319.788C266.04 322.35 267.704 324.114 268.986 325.179C270.3 326.244 271.132 326.677 271.082 326.743Z" fill="#455A64"/>
<path d="M294.295 326.61C294.295 326.643 293.979 326.61 293.397 326.51C292.814 326.427 291.966 326.227 290.901 325.861C288.771 325.146 285.842 323.548 282.963 320.703C280.068 317.907 277.272 313.964 274.727 309.321C272.114 304.745 269.585 299.487 265.674 294.911C261.797 290.285 256.539 287.523 251.547 286.108C246.522 284.677 241.763 284.394 237.802 284.278C233.825 284.195 230.614 284.361 228.384 284.444C227.352 284.477 226.504 284.511 225.822 284.544C225.239 284.561 224.923 284.561 224.923 284.527C224.923 284.494 225.222 284.444 225.805 284.378C226.387 284.311 227.253 284.211 228.367 284.111C230.581 283.928 233.809 283.662 237.802 283.662C241.796 283.695 246.605 283.928 251.747 285.343C256.855 286.741 262.313 289.586 266.307 294.345C270.317 299.054 272.83 304.362 275.392 308.938C277.871 313.564 280.567 317.475 283.363 320.27C286.125 323.099 288.937 324.73 290.984 325.545C293.08 326.36 294.312 326.51 294.295 326.61Z" fill="#455A64"/>
<path d="M333.582 434.604C333.482 434.57 334.015 433.422 334.564 431.242C335.113 429.079 335.745 425.851 335.562 421.841C335.413 417.864 334.464 413.072 332.018 408.396C330.803 406.049 329.189 403.803 327.259 401.656C325.329 399.51 323.132 397.48 320.903 395.35C318.673 393.22 316.51 391.073 314.729 388.727C312.932 386.398 311.468 383.968 310.286 381.539C309.105 379.126 308.223 376.697 307.607 374.384C306.958 372.071 306.559 369.874 306.359 367.861C305.91 363.817 306.143 360.506 306.459 358.276C306.592 357.144 306.792 356.296 306.925 355.713C307.058 355.131 307.141 354.832 307.158 354.832C307.241 354.848 306.991 356.08 306.792 358.309C306.592 360.539 306.459 363.817 306.975 367.794C307.224 369.774 307.657 371.937 308.306 374.201C308.938 376.464 309.837 378.826 311.018 381.189C312.183 383.552 313.647 385.932 315.411 388.195C317.158 390.474 319.288 392.588 321.502 394.701C323.731 396.831 325.944 398.878 327.891 401.057C329.855 403.237 331.502 405.584 332.734 407.996C335.213 412.822 336.111 417.731 336.178 421.791C336.278 425.868 335.546 429.129 334.897 431.292C334.564 432.374 334.248 433.206 333.998 433.738C333.749 434.337 333.615 434.62 333.582 434.604Z" fill="#455A64"/>
<path d="M151.291 325.295C151.241 325.295 151.274 324.696 151.507 323.665C151.724 322.633 152.223 321.152 153.138 319.471C154.902 316.16 158.879 311.983 164.669 310.569C170.477 309.205 175.918 311.118 178.98 313.281C180.561 314.363 181.659 315.445 182.325 316.277C182.99 317.092 183.29 317.608 183.256 317.641C183.123 317.774 181.792 315.777 178.647 313.797C175.585 311.834 170.377 310.12 164.869 311.418C159.378 312.765 155.501 316.643 153.654 319.788C151.757 322.966 151.474 325.345 151.291 325.295Z" fill="#455A64"/>
<path d="M167.415 332.301C167.315 332.284 167.415 330.837 167.881 328.524C168.364 326.261 169.212 322.9 171.808 320.187C174.52 317.458 178.364 317.125 180.627 317.957C181.775 318.373 182.591 319.022 182.99 319.572C183.406 320.104 183.539 320.453 183.489 320.487C183.356 320.62 182.624 319.172 180.444 318.54C178.348 317.924 174.853 318.357 172.424 320.803C170.028 323.299 169.096 326.477 168.463 328.69C167.881 330.903 167.548 332.318 167.415 332.301Z" fill="#455A64"/>
<path d="M188.565 307.924C188.798 308.073 186.019 311.734 184.188 316.992C182.325 322.234 182.208 326.81 181.925 326.793C181.726 326.827 181.443 322.101 183.373 316.693C185.253 311.285 188.415 307.774 188.565 307.924Z" fill="#FFB501"/>
<path d="M454.771 348.491C454.771 351.354 457.084 353.666 459.946 353.666C462.808 353.666 465.121 351.354 465.121 348.491C465.121 345.629 462.808 343.316 459.946 343.316C457.084 343.316 454.771 345.629 454.771 348.491Z" fill="#455A64"/>
<path d="M439.213 353.666C442.071 353.666 444.388 351.35 444.388 348.491C444.388 345.633 442.071 343.316 439.213 343.316C436.355 343.316 434.038 345.633 434.038 348.491C434.038 351.35 436.355 353.666 439.213 353.666Z" fill="#455A64"/>
<path d="M413.371 345.895C411.94 348.375 412.788 351.536 415.268 352.967C417.747 354.399 420.909 353.55 422.34 351.071C423.771 348.591 422.922 345.43 420.443 343.999C417.963 342.567 414.802 343.416 413.371 345.895Z" fill="#455A64"/>
<path d="M438.897 288.005C438.897 287.988 438.547 287.972 437.848 287.988C437.083 288.005 436.068 288.038 434.77 288.072C434.088 288.105 433.339 288.105 432.507 288.171C431.675 288.288 430.776 288.421 429.795 288.554C428.813 288.704 427.748 288.854 426.633 289.003C425.518 289.286 424.337 289.569 423.089 289.885C418.113 291.167 412.09 293.346 405.933 297.357C399.776 301.3 393.386 306.958 388.194 314.629C383.103 322.317 379.176 331.984 378.127 342.85C378.027 345.563 377.695 348.342 377.961 351.137C378.061 352.535 378.027 353.966 378.244 355.38C378.46 356.795 378.676 358.226 378.893 359.657C380.058 365.331 381.738 371.138 384.65 376.53C387.496 381.954 391.19 387.113 395.682 391.705C400.258 396.198 405.617 400.109 411.574 403.12C417.514 406.149 424.087 408.246 430.943 409.061C432.64 409.394 434.37 409.394 436.101 409.494C437.832 409.61 439.579 409.677 441.326 409.593C444.82 409.444 448.315 409.011 451.776 408.279C459.297 406.681 466.369 403.62 472.593 399.526L471.96 399.593C479.182 402.488 486.254 405.334 493.16 408.096L494.408 408.595L494.042 407.297C491.895 399.51 489.815 391.955 487.802 384.633L487.702 385.199C493.659 377.295 497.453 368.26 499.017 359.291C499.799 354.815 500.132 350.338 499.849 346.012C499.749 343.849 499.649 341.719 499.25 339.639C499.083 338.591 498.934 337.559 498.767 336.544C498.584 335.529 498.268 334.53 498.019 333.549C493.925 317.591 484.091 305.81 474.356 299.054C469.481 295.626 464.672 293.163 460.279 291.632C459.181 291.233 458.132 290.867 457.101 290.501C456.052 290.235 455.054 289.985 454.089 289.736C453.124 289.503 452.209 289.27 451.327 289.053C450.445 288.887 449.596 288.787 448.797 288.671C447.2 288.471 445.786 288.188 444.554 288.121C443.339 288.088 442.308 288.038 441.443 288.022C440.66 288.005 440.028 287.988 439.546 287.972C439.113 287.972 438.897 287.972 438.897 288.005C438.897 288.022 439.113 288.055 439.546 288.088C440.028 288.121 440.66 288.171 441.443 288.238C442.308 288.288 443.339 288.371 444.538 288.454C445.769 288.554 447.15 288.854 448.747 289.087C454.987 290.235 464.339 292.714 473.907 299.703C483.458 306.459 493.027 318.123 496.97 333.815C497.203 334.797 497.503 335.762 497.686 336.76C497.835 337.775 497.985 338.79 498.135 339.805C498.518 341.835 498.618 343.932 498.701 346.062C498.984 350.305 498.634 354.681 497.835 359.074C496.271 367.86 492.527 376.68 486.67 384.417L486.487 384.667L486.57 384.966C488.567 392.288 490.63 399.859 492.76 407.647L493.659 406.848C486.753 404.069 479.681 401.224 472.459 398.312L472.127 398.178L471.827 398.378C465.737 402.372 458.831 405.367 451.476 406.931C448.099 407.663 444.671 408.079 441.259 408.229C439.546 408.312 437.848 408.246 436.151 408.129C434.454 408.029 432.756 408.029 431.109 407.696C424.42 406.898 417.98 404.868 412.173 401.906C406.349 398.977 401.107 395.167 396.614 390.774C392.205 386.281 388.594 381.239 385.782 375.947C382.903 370.656 381.239 364.982 380.074 359.424C379.858 358.026 379.642 356.628 379.425 355.231C379.226 353.849 379.242 352.452 379.142 351.071C378.876 348.308 379.192 345.596 379.275 342.934C380.241 332.267 384.051 322.749 389.01 315.145C394.068 307.557 400.325 301.933 406.365 297.972C412.406 293.945 418.33 291.716 423.238 290.368C424.47 290.035 425.635 289.736 426.733 289.436C427.848 289.253 428.896 289.087 429.861 288.92C430.826 288.754 431.725 288.621 432.557 288.471C433.389 288.388 434.138 288.354 434.803 288.304C436.101 288.205 437.116 288.138 437.865 288.088C438.547 288.072 438.897 288.022 438.897 288.005Z" fill="#455A64"/>
</svg>
