<svg width="18" height="19" viewBox="0 0 18 19" fill="none" xmlns="http://www.w3.org/2000/svg">
<path fill-rule="evenodd" clip-rule="evenodd" d="M8.69506 1.559C4.61968 1.559 1.30426 4.97312 1.30426 9.16981C1.30426 13.3665 4.61968 16.7806 8.69506 16.7806C12.7704 16.7806 16.0859 13.3665 16.0859 9.16981C16.0859 4.97312 12.7704 1.559 8.69506 1.559ZM8.69506 18.1241C3.9006 18.1241 0 14.1074 0 9.1702C0 4.23302 3.9006 0.216309 8.69506 0.216309C13.4895 0.216309 17.3901 4.23302 17.3901 9.1702C17.3901 14.1074 13.4895 18.1241 8.69506 18.1241Z" fill="black"/>
<path fill-rule="evenodd" clip-rule="evenodd" d="M8.69501 11.2471C8.55837 11.2471 8.42654 11.192 8.33041 11.0929L5.94708 8.66161C5.74589 8.45656 5.74727 8.12527 5.94845 7.92161C6.15032 7.71796 6.47648 7.71796 6.67698 7.92301L8.69501 9.98328L10.7137 7.92301C10.9142 7.71796 11.2404 7.71796 11.4423 7.92161C11.6434 8.12527 11.6441 8.45656 11.4436 8.66161L9.05962 11.0929C8.96349 11.192 8.83165 11.2471 8.69501 11.2471Z" fill="black"/>
</svg>
