<svg width="348" height="87" viewBox="0 0 348 87" fill="none" xmlns="http://www.w3.org/2000/svg">
<path d="M118.32 65.1458C118.32 73.6022 113.622 78.3002 105.166 78.3002H61.8744C53.418 78.3002 48.72 73.6022 48.72 65.1458V21.8546C48.72 13.3982 53.418 8.7002 61.8744 8.7002H105.183C113.622 8.7002 118.32 13.3982 118.32 21.8546V65.1458Z" fill="#FFE600"/>
<path fill-rule="evenodd" clip-rule="evenodd" d="M93.472 40.1066V33.46L95.8724 31.0578V36.8173L97.9616 38.9046L106.365 30.5016L108.436 32.571C108.418 31.006 108.105 26.4646 104.259 22.6887C100.119 18.6875 95.6292 20.4958 94.0981 22.0269L85.7111 30.4139L87.8521 32.5549L83.52 36.921L79.1861 32.5889L81.3271 30.4497L72.9401 22.0627C71.409 20.5316 66.9195 18.7215 62.7788 22.7227C58.9332 26.4986 58.6202 31.0399 58.6023 32.6068L60.6736 30.5355L69.0766 38.9404L71.1658 36.8531V31.0936L73.5662 33.494V40.1406L76.9413 43.4997L60.3069 60.1341L66.8855 66.6931L83.52 50.0766L100.153 66.711L106.731 60.1502L90.0969 43.4997L93.472 40.1066ZM129.927 46.4062H142.472V50.3556H134.625V54.4105H137.235C138.991 54.4105 141.254 54.6197 142.959 56.2903C143.69 57.0201 144.595 58.3598 144.595 60.5169C144.595 61.168 144.515 61.7922 144.359 62.3753C144.098 63.3484 143.624 64.2033 142.959 64.8669C142.506 65.3194 141.993 65.6664 141.429 65.9294C141.174 66.0474 140.907 66.1494 140.63 66.237C140.494 66.28 140.356 66.3193 140.215 66.3551C139.192 66.6144 138.051 66.6949 136.834 66.6949H129.927V46.4062ZM136.469 62.9191C137.113 62.9191 138.262 62.8672 138.991 62.2752C139.133 62.1535 139.374 61.9139 139.551 61.5329C139.68 61.2592 139.775 60.9122 139.775 60.4829C139.775 60.3291 139.762 60.1842 139.741 60.0483C139.718 59.9034 139.682 59.7693 139.639 59.6441C139.571 59.4473 139.482 59.2756 139.381 59.1271C139.287 58.9876 139.181 58.8696 139.076 58.7712C139.029 58.7283 138.982 58.6889 138.936 58.6531L138.87 58.6031C138.14 58.0808 136.956 58.0647 136.469 58.0647H134.607V62.937H136.469V62.9191ZM161.611 53.1226H157.227V54.6537C156.381 53.5036 155.256 53.0028 154.261 52.7989C153.784 52.7005 153.336 52.6701 152.963 52.6701C151.085 52.6701 149.432 53.348 148.248 54.5321C146.996 55.7841 146.142 57.7338 146.142 60.0125C146.142 61.8047 146.699 63.5791 148.126 65.0941C149.623 66.677 151.258 67.1635 153.208 67.1635C153.782 67.1635 154.506 67.092 155.234 66.7808C155.937 66.4803 156.645 65.9562 157.227 65.0583V66.6949H161.611V53.1226ZM150.65 59.8909C150.65 59.2201 150.818 58.6764 151.045 58.2471C151.231 57.8983 151.455 57.6247 151.659 57.4208C152.233 56.8466 153.102 56.4459 154.043 56.4638C154.842 56.4638 155.817 56.759 156.477 57.4029C156.599 57.5173 156.712 57.6426 156.814 57.7767C156.93 57.9323 157.032 58.1004 157.119 58.2775C157.359 58.7587 157.488 59.3132 157.488 59.8909C157.488 61.0571 157 61.9103 156.425 62.4487C156.139 62.7348 155.792 62.9692 155.406 63.1319C155.018 63.2965 154.59 63.3877 154.147 63.3877C153.102 63.3877 152.163 62.9709 151.553 62.327C151.17 61.8924 150.65 61.109 150.65 59.8909ZM164.256 53.1226H168.64V57.8375H173.548V53.1226H177.932V66.6949H173.548V61.3701H168.64V66.6949H164.256V53.1226ZM184.944 53.1226H180.56V66.6949H184.944V60.6743L189.573 66.6949H195.228L189.016 59.4223L194.828 53.1226H189.381L184.944 58.5172V53.1226ZM137.076 20.3062C138.834 20.3062 140.784 20.5495 142.401 21.9768C144.141 23.49 144.384 25.5094 144.384 26.901C144.384 29.4588 143.409 30.8861 142.644 31.6856C141.027 33.3223 138.904 33.4779 137.476 33.4779H134.624V40.5949H129.943V20.3062H137.076ZM134.606 29.6502H136.276C136.525 29.6502 136.841 29.6448 137.181 29.5965C137.727 29.5196 138.33 29.3336 138.8 28.8846C139.217 28.4661 139.566 27.7542 139.566 26.8831C139.566 26.4932 139.503 26.1337 139.39 25.8189C139.258 25.4468 139.054 25.1338 138.8 24.8995C138.102 24.2395 137.094 24.134 136.189 24.134H134.606V29.6502ZM160.201 27.0226H155.817V28.5537C155.216 27.7363 154.474 27.2462 153.739 26.9582C152.941 26.6452 152.151 26.5701 151.553 26.5701C149.675 26.5701 148.022 27.248 146.838 28.4321C145.586 29.6841 144.733 31.6338 144.733 33.9125C144.733 35.0716 144.966 36.2235 145.516 37.302C145.817 37.8923 146.212 38.4593 146.717 38.9941C148.214 40.577 149.849 41.0635 151.798 41.0635C152.371 41.0635 153.09 40.9938 153.814 40.6861C154.521 40.3856 155.232 39.8616 155.817 38.9583V40.5949H160.201V27.0226ZM149.24 33.7909C149.24 32.5728 149.797 31.7733 150.249 31.3208C150.823 30.7466 151.711 30.3459 152.633 30.3638C152.87 30.3638 153.12 30.3907 153.374 30.4425C153.522 30.4729 153.671 30.5123 153.819 30.5624C154.275 30.7162 154.715 30.9594 155.068 31.3029C155.404 31.6213 155.665 32.0201 155.837 32.4691C155.91 32.6605 155.968 32.8608 156.009 33.0665C156.027 33.1559 156.041 33.2471 156.052 33.3401C156.061 33.4135 156.066 33.4886 156.069 33.5637C156.075 33.6389 156.078 33.714 156.078 33.7909C156.078 34.9571 155.59 35.8103 155.016 36.3487C154.715 36.6491 154.349 36.8924 153.939 37.057C153.78 37.1214 153.614 37.1732 153.442 37.2108L153.252 37.2483L153.075 37.2698C152.964 37.2823 152.852 37.2877 152.737 37.2877C152.281 37.2877 151.845 37.2072 151.446 37.0641C150.934 36.8799 150.487 36.5901 150.144 36.227C149.761 35.7924 149.24 35.009 149.24 33.7909ZM167.231 27.0226V34.7836L173.008 27.0226H177.081V40.5949H172.695V32.7123L166.918 40.5949H162.847V27.0226H167.231ZM175.48 21.5422C175.113 22.6369 174.383 23.5777 173.53 24.134C172.382 24.8995 170.973 24.9871 169.964 24.9871C168.955 24.9871 167.562 24.8995 166.397 24.134C166.297 24.0696 166.199 24.0016 166.102 23.9265C165.993 23.8424 165.886 23.7512 165.782 23.6528C165.671 23.5473 165.564 23.4364 165.46 23.3183C165.025 22.8175 164.669 22.2058 164.448 21.5422L167.492 20.3581C167.613 20.9663 167.91 21.4546 168.275 21.7497C168.676 22.0806 169.18 22.2899 169.946 22.2899C170.134 22.2899 170.305 22.2773 170.465 22.2541L170.556 22.2398L170.645 22.2219L170.765 22.1915L170.885 22.1557C171.171 22.0609 171.407 21.9214 171.616 21.7497C171.981 21.4546 172.278 20.9663 172.4 20.3581L175.48 21.5422ZM186.772 40.8042V47.3632H191.191V40.8042H191.365C194.445 40.8042 196.15 39.5325 196.933 38.7669C197.335 38.3716 197.736 37.8672 198.069 37.2394C198.126 37.1321 198.181 37.0212 198.233 36.9067L198.326 36.6957C198.443 36.4148 198.545 36.1143 198.629 35.7906C198.732 35.3953 198.808 34.9678 198.849 34.5046C198.859 34.374 198.868 34.2416 198.874 34.1057C198.879 33.9841 198.881 33.8624 198.881 33.739C198.881 32.859 198.748 32.0845 198.532 31.4084C198.341 30.8074 198.081 30.2851 197.786 29.8362C197.716 29.7289 197.643 29.6251 197.568 29.525L197.504 29.4409L197.393 29.3032C197.115 28.9651 196.822 28.6807 196.532 28.45C195.193 27.3875 193.175 26.8134 191.383 26.8134H191.174V20.3062H186.79V26.8134H186.58C184.77 26.8134 182.769 27.3875 181.429 28.45C180.299 29.355 179.08 31.0596 179.08 33.739C179.08 36.2091 180.055 37.8279 181.03 38.7669C181.812 39.5325 183.518 40.8042 186.596 40.8042H186.772ZM185.883 30.439C186.24 30.3603 186.614 30.3281 186.981 30.3459V37.2716C185.867 37.3056 184.822 36.8888 184.248 36.2449C183.726 35.7047 183.361 34.8176 183.361 33.7569C183.361 32.6783 183.726 31.8073 184.248 31.285C184.65 30.8718 185.241 30.5803 185.883 30.439ZM193.679 36.2628C193.105 36.8888 192.079 37.3235 190.948 37.2895V30.3638C191.653 30.3155 192.376 30.4729 192.968 30.786C193.236 30.929 193.479 31.1025 193.679 31.3029C193.917 31.5408 194.123 31.8538 194.277 32.224C194.459 32.6694 194.567 33.1953 194.567 33.773C194.567 34.8355 194.202 35.7226 193.679 36.2628ZM207.862 47.3632V40.8042H207.686C206.695 40.8042 205.848 40.6718 205.125 40.4679C204.73 40.357 204.374 40.2229 204.054 40.078C203.138 39.663 202.512 39.1515 202.12 38.7669C201.986 38.6381 201.852 38.4968 201.721 38.3412C201.607 38.2071 201.494 38.0622 201.387 37.9084C201.135 37.5471 200.9 37.1303 200.707 36.6545C200.491 36.1233 200.326 35.5187 200.238 34.8355C200.212 34.6298 200.192 34.4151 200.181 34.1951C200.174 34.0467 200.17 33.8946 200.17 33.739C200.17 31.0596 201.389 29.355 202.519 28.45C203.859 27.3875 205.86 26.8134 207.67 26.8134H207.88V20.3062H212.264V26.8134H212.473C213.029 26.8134 213.607 26.8688 214.179 26.9761C214.469 27.0298 214.757 27.0978 215.041 27.18C215.292 27.2516 215.537 27.3339 215.776 27.4251C216.46 27.688 217.093 28.0314 217.622 28.45C218.755 29.355 219.971 31.0596 219.971 33.739C219.971 34.7228 219.817 35.567 219.57 36.2896C219.348 36.9371 219.051 37.4862 218.724 37.9459C218.499 38.2607 218.261 38.5326 218.023 38.7669C217.522 39.257 216.642 39.9546 215.265 40.3928C214.898 40.5091 214.496 40.6074 214.058 40.679C213.571 40.7595 213.038 40.8042 212.455 40.8042H212.281V47.3632H207.862ZM208.071 30.3459C207.044 30.2941 205.964 30.6411 205.338 31.285C204.816 31.8073 204.451 32.6783 204.451 33.7569C204.451 34.8176 204.816 35.7047 205.338 36.2449C205.912 36.8888 206.957 37.3056 208.071 37.2716V30.3459ZM212.036 37.2895C213.169 37.3235 214.195 36.8888 214.769 36.2628C215.047 35.9766 215.279 35.5921 215.437 35.136C215.576 34.7317 215.657 34.272 215.657 33.773C215.657 32.7123 215.292 31.8252 214.769 31.3029C214.126 30.659 213.063 30.2941 212.036 30.3638V37.2895ZM236.709 27.0226H232.325V28.5537C231.071 26.8491 229.209 26.5701 228.061 26.5701C226.183 26.5701 224.53 27.248 223.346 28.4321C222.094 29.6841 221.241 31.6338 221.241 33.9125C221.241 35.0537 221.466 36.1877 221.997 37.2519C222.301 37.8601 222.706 38.4432 223.224 38.9941C224.721 40.577 226.356 41.0635 228.306 41.0635C229.436 41.0635 231.141 40.7863 232.325 38.9583V40.5949H236.709V27.0226ZM225.748 33.7909C225.748 33.2257 225.868 32.7517 226.042 32.36C226.242 31.9056 226.514 31.564 226.757 31.3208C227.331 30.7466 228.218 30.3459 229.141 30.3638C229.941 30.3638 230.916 30.659 231.576 31.3029C232.22 31.911 232.586 32.8161 232.586 33.7909C232.586 34.9571 232.098 35.8103 231.524 36.3487C230.95 36.9228 230.132 37.2877 229.245 37.2877C228.2 37.2877 227.261 36.8709 226.651 36.227C226.467 36.0178 226.251 35.7262 226.076 35.3452C225.888 34.9356 225.748 34.4205 225.748 33.7909ZM243.738 27.0226V34.7836L249.516 27.0226H253.589V40.5949H249.203V32.7123L243.425 40.5949H239.354V27.0226H243.738ZM251.988 21.5422C251.818 22.0502 251.569 22.5242 251.267 22.9427C251.056 23.2361 250.818 23.5008 250.56 23.7315C250.394 23.8818 250.219 24.0159 250.038 24.134C249.747 24.3271 249.439 24.4774 249.124 24.5954C248.763 24.7296 248.394 24.819 248.033 24.878C247.471 24.9693 246.929 24.9871 246.471 24.9871C245.463 24.9871 244.069 24.8995 242.905 24.134C242.052 23.5938 241.32 22.6369 240.955 21.5422L244 20.3581C244.121 20.9663 244.418 21.4546 244.783 21.7497C244.983 21.9142 245.209 22.0484 245.481 22.1414C245.752 22.2362 246.071 22.2899 246.454 22.2899C247.219 22.2899 247.724 22.0806 248.124 21.7497C248.31 21.5994 248.478 21.3991 248.616 21.1576C248.747 20.9251 248.849 20.6568 248.908 20.3581L251.988 21.5422ZM258.042 27.0566C257.311 27.3356 256.372 27.8222 255.798 28.1888L257.502 31.1294C257.939 30.7627 258.391 30.4855 258.965 30.2422C259.539 29.9972 260.06 29.8755 260.757 29.8755C261.487 29.8755 261.922 30.0329 262.131 30.1206C262.446 30.2619 262.619 30.4568 262.709 30.6429C262.771 30.777 262.793 30.9058 262.793 31.0077C262.793 31.2689 262.671 31.6678 262.149 31.911C262.008 31.9772 261.82 32.0255 261.618 32.0613C261.224 32.1328 260.777 32.1561 260.512 32.1561H259.26V35.1306H260.895C261.383 35.1306 262.113 35.2182 262.48 35.3738C262.652 35.449 262.795 35.5438 262.902 35.6636C263.043 35.821 263.124 36.0213 263.124 36.2789C263.124 36.4774 263.084 36.7368 262.904 36.9747C262.813 37.0927 262.687 37.2072 262.514 37.3056C262.079 37.5488 261.417 37.6365 260.931 37.6365C260.469 37.6365 259.965 37.5632 259.511 37.4469C259.262 37.3825 259.03 37.3056 258.826 37.2197C258.286 36.9747 257.642 36.54 257.155 36.1233L255.293 39.012C255.465 39.1497 255.747 39.3715 256.123 39.6147C256.298 39.7274 256.492 39.8455 256.703 39.9617C257.01 40.1299 257.355 40.2944 257.729 40.4375C258.947 40.89 260.217 41.0474 261.435 41.0474C263.698 41.0474 265.281 40.7165 266.429 39.5861C266.88 39.1336 267.179 38.6507 267.363 38.1623C267.54 37.6901 267.612 37.2108 267.612 36.7493C267.612 36.6295 267.608 36.5114 267.597 36.3969C267.59 36.3236 267.583 36.2503 267.572 36.1787L267.547 36.0285C267.436 35.4633 267.177 34.9625 266.708 34.5046C266.517 34.3132 265.889 33.773 264.88 33.5297C264.984 33.4922 265.086 33.4457 265.186 33.3938C265.27 33.3509 265.351 33.3026 265.431 33.2507L265.535 33.181C265.606 33.1309 265.676 33.0772 265.744 33.0218C265.844 32.9413 265.939 32.8536 266.029 32.7642C266.69 32.0684 266.846 31.3029 266.846 30.4497C266.846 30.1903 266.826 29.9346 266.78 29.6859C266.755 29.55 266.721 29.4158 266.678 29.2835C266.528 28.8131 266.263 28.3695 265.837 27.9617C264.464 26.622 261.976 26.5701 261.244 26.5701C260.199 26.5701 259.069 26.6917 258.042 27.0566ZM283.48 34.5743H273.353C273.353 34.8265 273.387 35.1091 273.453 35.3953C273.578 35.9355 273.82 36.49 274.172 36.887C274.346 37.0802 274.539 37.2323 274.741 37.3485C274.882 37.4308 275.029 37.497 275.176 37.5488C275.61 37.7045 276.052 37.7402 276.415 37.7402C276.659 37.7402 276.904 37.7223 277.14 37.6866C277.528 37.6258 277.891 37.5131 278.174 37.3396C278.225 37.3056 278.748 36.9747 279.113 36.2091L283.255 36.6277C282.645 38.5415 281.427 39.5503 280.644 40.0369C279.34 40.8203 277.878 41.0457 276.347 41.0457C274.31 41.0457 272.518 40.6808 270.935 39.0978C269.753 37.9137 268.899 36.1215 268.899 33.8606C268.899 31.911 269.595 29.9113 270.971 28.5018C271.784 27.6862 272.704 27.1997 273.607 26.9171C274.518 26.6309 275.412 26.5522 276.172 26.5522C277.687 26.5522 279.878 26.8312 281.567 28.5877C283.185 30.2941 283.48 32.4154 283.48 34.1039V34.5743ZM279.443 31.9629C279.41 31.8413 279.2 30.9899 278.556 30.3799C278.377 30.2136 278.17 30.0669 277.936 29.9471C277.784 29.8684 277.621 29.8022 277.446 29.7503C277.156 29.6627 276.836 29.6144 276.485 29.6144C276.108 29.6144 275.784 29.6645 275.503 29.7467C274.94 29.9131 274.548 30.2118 274.258 30.5016C273.927 30.8682 273.614 31.3547 273.493 31.9629H279.443ZM289.848 27.0226H285.464V40.5949H289.848V35.2701H294.756V40.5949H299.14V27.0226H294.756V31.7375H289.848V27.0226Z" fill="#2B2D34"/>
</svg>
