<svg width="304" height="76" viewBox="0 0 304 76" fill="none" xmlns="http://www.w3.org/2000/svg">
<path d="M84.3719 31.959C86.115 31.959 88.0554 32.0195 89.7381 33.1564C90.8598 33.8993 92.1786 35.3697 92.1786 37.9922C92.1786 40.8724 90.3596 44.2679 85.3117 44.2679H81.0671V52.1659H77.3533V31.959H84.3719ZM84.5234 41.312C85.3419 41.312 86.5243 41.3422 87.4642 40.4631C88.1161 39.872 88.4648 38.8713 88.4648 38.0226C88.4648 37.2343 88.1463 36.2793 87.4946 35.7184C86.8426 35.1575 85.8119 34.8845 84.6598 34.8845H81.0671V41.312H84.5234ZM95.6047 38.6743C96.6355 37.7041 98.1666 36.8552 100.456 36.8552C102.76 36.8552 104.291 37.7041 105.322 38.6743C106.853 40.1144 107.641 42.3579 107.641 44.647C107.641 46.936 106.853 49.1795 105.322 50.6196C104.291 51.5898 102.76 52.4538 100.456 52.4538C98.1666 52.4538 96.6355 51.5898 95.6047 50.6196C94.0737 49.1795 93.2855 46.936 93.2855 44.647C93.2703 42.3429 94.0737 40.1144 95.6047 38.6743ZM98.106 48.8915C98.4243 49.2704 99.1671 49.9828 100.456 49.9828C101.759 49.9828 102.487 49.2856 102.805 48.8915C103.048 48.6338 103.927 47.4514 103.927 44.647C103.927 41.8426 103.048 40.6753 102.805 40.4024C102.487 40.0235 101.744 39.3111 100.456 39.3111C99.1671 39.3111 98.4243 40.0083 98.106 40.4024C97.8786 40.6753 96.9842 41.8426 96.9842 44.647C96.9842 47.4362 97.8786 48.6186 98.106 48.8915ZM119.389 42.646C119.328 41.8881 119.04 40.9937 118.646 40.4328C118.282 39.9022 117.585 39.3111 116.403 39.3111C115.251 39.3111 114.493 39.9022 114.023 40.6905C113.28 41.9031 113.234 43.7829 113.234 44.647C113.234 46.0264 113.432 47.6788 114.023 48.6186C114.402 49.2098 115.175 49.9678 116.403 49.9678C117.282 49.9678 118.025 49.6191 118.586 48.846C119.025 48.2245 119.328 47.3452 119.374 46.5721L122.497 46.9512C122.315 48.3306 121.708 49.8767 120.617 50.8622C119.707 51.6807 118.282 52.4235 116.281 52.4235C114.053 52.4235 112.598 51.5443 111.749 50.7409C110.597 49.6494 109.505 47.7091 109.505 44.647C109.505 41.797 110.475 40.0841 111.249 39.1746C112.34 37.8709 114.189 36.825 116.372 36.825C118.237 36.825 119.768 37.4767 120.723 38.4774C121.693 39.4474 122.284 40.9179 122.497 42.2368L119.389 42.646ZM134.002 42.646C133.942 41.8881 133.654 40.9937 133.259 40.4328C132.911 39.9022 132.198 39.3111 131.016 39.3111C129.864 39.3111 129.106 39.9022 128.636 40.6905C127.908 41.9031 127.848 43.7829 127.848 44.647C127.848 46.0264 128.06 47.6788 128.636 48.6186C129.015 49.2098 129.788 49.9678 131.016 49.9678C131.895 49.9678 132.638 49.6191 133.199 48.846C133.639 48.2245 133.942 47.3452 133.987 46.5721L137.11 46.9512C136.943 48.3306 136.322 49.8767 135.23 50.8622C134.321 51.6807 132.911 52.4235 130.91 52.4235C128.666 52.4235 127.226 51.5443 126.377 50.7409C125.225 49.6494 124.134 47.7091 124.134 44.647C124.134 41.797 125.104 40.0841 125.877 39.1746C126.969 37.8709 128.818 36.825 131.001 36.825C132.85 36.825 134.381 37.4767 135.351 38.4774C136.322 39.4474 136.913 40.9179 137.125 42.2368L134.002 42.646ZM152.876 47.8C152.345 49.5585 151.283 50.5893 150.404 51.2109C149.222 51.999 147.691 52.4538 146.069 52.4538C144.037 52.4538 141.976 51.5898 140.733 50.3315C139.581 49.1643 138.732 47.1178 138.732 44.7075C138.732 41.6455 140.005 39.6142 141.385 38.4622C142.188 37.78 143.689 36.8402 145.948 36.8402C148.813 36.8402 150.632 38.1589 151.602 39.5233C152.632 40.9331 153.117 42.9037 153.117 44.6166V45.2988H142.461C142.461 45.4656 142.431 46.8299 142.961 47.9213C143.75 49.5737 145.205 49.9828 146.205 49.9828C146.994 49.9828 147.994 49.7404 148.828 48.8915C149.328 48.3608 149.54 47.8606 149.616 47.3908L152.876 47.8ZM149.404 43.0553C149.404 42.2064 149.192 41.2362 148.752 40.5844C148.191 39.7657 147.191 39.2048 146.099 39.2048C144.977 39.2048 144.007 39.7657 143.416 40.4631C142.946 41.0544 142.537 41.9638 142.537 43.0553H149.404ZM167.654 37.1432V52.1659H164.23V39.69H160.348C160.258 41.7213 160.197 42.5399 160.137 43.9345C160.045 45.4958 159.939 48.7854 158.606 50.5893C157.863 51.5594 156.952 51.9385 156.302 52.1203C155.922 52.2416 155.513 52.287 155.089 52.287C154.8 52.287 154.497 52.2568 154.209 52.1659V49.5737H154.497C154.937 49.5433 155.528 49.3159 155.906 49.0128C157.089 48.0728 157.195 45.9506 157.317 44.2679C157.469 42.0548 157.499 40.7359 157.513 38.735L157.543 37.1432H167.654ZM174.674 42.4944H178.448C179.418 42.4944 181.298 42.6157 182.541 43.8436C183.663 44.9349 183.77 46.466 183.77 47.2847C183.77 49.4372 182.889 50.5287 182.207 51.0896C181.965 51.2715 180.859 52.1507 178.737 52.1507H171.263V37.1432H174.674V42.4944ZM174.674 49.6798H177.357C178.009 49.6798 178.706 49.6493 179.298 49.1491C179.646 48.8156 180.07 48.27 180.07 47.3149C180.07 46.4964 179.828 45.8445 179.161 45.4049C178.57 45.026 177.826 44.9653 177.372 44.9653H174.689V49.6798H174.674ZM188.741 37.1432L191.515 41.8122L194.396 37.1432H197.518L193.122 43.9345L198.337 52.1507H194.335L190.924 46.4964L187.331 52.1507H184.209L189.333 44.359L184.739 37.1432H188.741ZM200.974 38.6743C202.005 37.7041 203.537 36.8552 205.825 36.8552C208.129 36.8552 209.661 37.7041 210.692 38.6743C212.222 40.1144 213.011 42.3579 213.011 44.647C213.011 46.936 212.207 49.1795 210.692 50.6196C209.661 51.5898 208.129 52.4538 205.825 52.4538C203.537 52.4538 202.005 51.5898 200.974 50.6196C199.444 49.1795 198.655 46.936 198.655 44.647C198.655 42.3429 199.444 40.1144 200.974 38.6743ZM203.476 48.8915C203.794 49.2704 204.537 49.9828 205.825 49.9828C207.129 49.9828 207.857 49.2856 208.19 48.8915C208.418 48.6338 209.312 47.4514 209.312 44.647C209.312 41.8426 208.433 40.6753 208.19 40.4024C207.872 40.0235 207.129 39.3111 205.825 39.3111C204.537 39.3111 203.794 40.0083 203.476 40.4024C203.233 40.6753 202.355 41.8426 202.355 44.647C202.355 47.4362 203.248 48.6186 203.476 48.8915ZM214.844 41.2059C215.285 39.3868 216.436 38.3863 217.255 37.8861C217.755 37.5678 219.135 36.8552 221.499 36.8552C222.97 36.8552 224.471 37.113 225.592 37.7345C227.245 38.6441 227.653 39.9628 227.653 40.9179C227.653 41.9487 227.153 43.9194 224.592 44.2073V44.2679C225.471 44.3892 226.442 44.7682 227.033 45.3897C227.564 45.9506 227.973 46.8906 227.973 47.891C227.973 49.3917 227.093 50.7106 225.971 51.4533C224.623 52.3326 222.758 52.4538 221.379 52.4538C219.984 52.4538 217.877 52.3022 216.392 51.135C215.572 50.4832 214.799 49.3615 214.572 47.9517L217.664 47.421C217.786 47.891 218.044 48.6034 218.392 49.0128C219.166 49.9071 220.362 49.9828 221.136 49.9828C221.909 49.9828 222.727 49.8919 223.379 49.4524C223.97 49.043 224.259 48.4821 224.259 47.7393C224.259 47.1179 224.138 46.6176 223.607 46.178C222.925 45.6171 222.016 45.5262 221.166 45.5262H219.605V43.222H221.166C221.757 43.222 222.606 43.1007 223.077 42.8733C223.698 42.5551 224.046 42.0244 224.046 41.1605C224.046 40.6905 223.864 40.2357 223.425 39.887C222.742 39.3261 221.773 39.2959 221.272 39.2959C220.59 39.2959 219.59 39.3868 218.771 40.0841C218.422 40.3722 217.953 40.9331 217.801 41.8122L214.844 41.2059ZM245.451 35.491H235.703V39.9628H240.038C241.601 39.9628 243.101 40.0841 244.632 41.1453C246.134 42.1761 247.073 43.7071 247.073 45.9203C247.073 47.9819 246.299 49.513 245.33 50.4831C243.86 51.9535 242.177 52.1659 240.418 52.1659H230.99V31.959H245.451V35.491ZM235.703 48.6186H239.508C240.221 48.6186 240.873 48.5882 241.54 47.9061C242.192 47.2543 242.282 46.5267 242.282 45.9658C242.282 45.3291 242.101 44.6773 241.54 44.1164C240.873 43.4494 240.008 43.3736 239.388 43.3736H235.703V48.6186ZM249.499 41.312C249.969 39.2807 251.286 38.2498 252.09 37.78C253.258 37.0978 254.819 36.8402 256.775 36.8402C259.245 36.8402 261.747 37.1584 262.869 39.4929C263.46 40.7057 263.399 41.9942 263.399 43.1159V48.9217C263.399 50.1345 263.565 51.2563 263.839 52.1659H259.564C259.443 51.5746 259.352 50.7863 259.336 49.7859C258.775 50.7863 257.41 52.469 254.304 52.469C252.923 52.469 251.499 52.1203 250.529 51.3169C249.589 50.5437 248.997 49.3159 248.997 47.9667C248.997 46.466 249.649 44.6621 252.212 43.601C253.864 42.9188 256.547 42.6914 257.745 42.6308L259.154 42.5703V42.2518C259.154 41.8425 259.124 40.9633 258.715 40.4783C258.154 39.8264 257.032 39.7961 256.593 39.7961C255.986 39.7961 255.243 39.8568 254.621 40.2357C254.243 40.4631 253.743 40.9481 253.56 41.7668L249.499 41.312ZM257.836 45.0562C256.365 45.1775 254.895 45.3291 254.06 46.3447C253.834 46.6328 253.591 47.0875 253.591 47.6939C253.591 48.3458 253.91 48.7854 254.243 49.0128C254.652 49.3311 255.273 49.4826 255.865 49.4826C256.745 49.4826 257.775 49.1037 258.367 48.3912C258.458 48.3002 259.154 47.421 259.154 45.7081V44.9199L257.836 45.0562ZM271.191 37.1432V42.7672H275.935V37.1432H280.317V52.1507H275.935V45.8445H271.191V52.1507H266.81V37.1432H271.191ZM288.124 37.1432V42.9188H289.306C290.578 42.9188 291.109 42.2973 291.428 41.6152C292.05 40.2963 292.019 39.2655 292.58 38.2348C293.02 37.4161 293.611 37.2039 293.989 37.1432H297.613C297.143 37.6435 296.733 38.2348 296.461 38.7652C295.991 39.7355 295.552 41.3272 295.278 42.0094C294.93 42.9492 294.339 43.889 292.837 44.0103V44.071C293.641 44.1922 294.46 44.6014 295.081 45.511C295.461 46.0719 295.717 46.7995 296.143 47.9517C296.552 49.1341 296.733 49.5433 297.113 50.4528C297.415 51.135 297.583 51.5443 298.083 52.1659H293.959C293.308 51.9535 292.868 51.5139 292.337 49.9828C291.928 48.8156 291.867 48.3912 291.595 47.7393L291.382 47.2088C290.943 46.0871 290.352 45.8597 289.441 45.8597H288.124V52.1659H283.743V37.1432H288.124Z" fill="#19502E"/>
<path d="M36.9699 74.48C19.0974 74.48 4.56 59.9578 4.56 42.0853C4.56 31.8227 9.27443 22.3787 17.4906 16.1939L17.8241 15.921V1.52002H36.4241V9.69069H36.9699C54.827 9.69069 69.3644 24.2281 69.3644 42.1005C69.3644 59.9578 54.827 74.48 36.9699 74.48Z" fill="#19502E"/>
<path d="M27.5863 42.6006L34.3321 35.9761V31.4739L27.5863 38.0681V42.6006ZM27.5863 25.8197L34.3321 19.18V14.9355L27.5863 21.5296V25.8197ZM27.5863 31.3678L34.3321 24.7433V20.4989L27.5863 27.093V31.3678ZM25.6612 14.981L24.7669 14.117V3.61182H23.7361V13.1165L22.8568 12.2373V3.61182H21.8261V11.2519L20.9317 10.3727V3.61182H19.9161V13.6319L26.6769 20.2563V3.61182H25.6612V14.981ZM27.5863 36.916L34.3321 30.2915V26.047L27.5863 32.6411V36.916ZM19.9161 35.9761L26.6769 42.6006V38.0681L19.9161 31.4739V35.9761ZM33.3164 10.3727L32.422 11.2519V3.61182H31.4064V12.2524L30.512 13.1165V3.61182H29.4963V14.1018L28.602 14.981V3.61182H27.5863V20.2563L34.3321 13.6319V3.61182H33.3164V10.3727ZM19.9161 19.18L26.6769 25.8197V21.5296L19.9161 14.9355V19.18ZM19.9161 24.7433L26.6769 31.3678V27.093L19.9161 20.4989V24.7433ZM19.9161 30.2915L26.6769 36.916V32.6411L19.9161 26.047V30.2915ZM60.1327 33.7933H43.7156C44.0643 33.2476 44.2613 32.6109 44.2613 31.9287C44.2613 29.9732 42.6696 28.3967 40.7141 28.3967C38.7586 28.3967 37.1821 29.9884 37.1821 31.9287C37.1821 32.7019 37.4247 33.3991 37.849 33.9752C37.5459 34.1722 37.3336 34.5209 37.3336 34.9302C37.3336 35.3244 37.5459 35.6731 37.849 35.87C37.4399 36.4461 37.1821 37.1585 37.1821 37.9166C37.1821 39.8721 38.7586 41.4486 40.7141 41.4486C42.6696 41.4486 44.2613 39.8721 44.2613 37.9166C44.2613 37.2344 44.0643 36.5825 43.7156 36.052H55.9337V36.7948H54.721V37.8407H55.9337V38.917H54.721V40.9028H55.9337V40.0084H57.7224V40.9028H58.92V38.917H57.7224V37.8407H58.92V36.7948H57.7224V36.052H60.1327C60.6027 36.052 60.9816 35.6579 60.9816 35.1879V34.6574C60.9816 34.1874 60.5875 33.7933 60.1327 33.7933ZM42.5484 37.9166C42.5484 38.917 41.7297 39.7356 40.7141 39.7356C39.7136 39.7356 38.8951 38.917 38.8951 37.9166C38.8951 37.5527 39.0012 37.204 39.1982 36.916L39.6984 36.052C39.3801 35.7791 39.183 35.3698 39.183 34.915C39.183 34.4602 39.3801 34.0511 39.6984 33.7781L39.1982 32.9141C39.0012 32.6261 38.8951 32.2926 38.8951 31.9136C38.8951 30.913 39.7136 30.0945 40.7141 30.0945C41.7146 30.0945 42.5484 30.913 42.5484 31.9136C42.5484 32.6563 41.6843 34.43 41.6843 34.43V35.385C41.6843 35.4002 42.5484 37.1737 42.5484 37.9166Z" fill="#FFCB05"/>
<path d="M13.7765 31.6406V36.052C13.7765 40.2662 15.6107 42.9795 16.6718 44.0256C17.2933 44.6319 23.5691 50.8168 23.6602 50.8925C25.6156 52.8025 25.9491 53.424 26.3887 54.5156V49.6344C26.3887 45.2837 24.1906 43.601 23.0537 42.4945C20.401 39.9175 18.6425 38.2196 17.2024 36.7946C14.5041 34.0813 13.7765 31.6406 13.7765 31.6406ZM23.0538 53.3938C20.4162 50.8016 18.6425 49.119 17.2176 47.694C14.5042 44.9806 13.7917 43.1463 13.7917 43.1463V46.9511C13.7917 51.1653 15.7018 53.8486 16.672 54.9551C17.2933 55.5615 23.5843 61.7159 23.6602 61.7918C25.6156 63.7018 25.9491 64.6114 26.3887 65.6877V60.5335C26.3887 56.183 24.1756 54.5004 23.0538 53.3938Z" fill="white"/>
<path d="M36.9697 11.7676C36.4847 11.7676 35.9995 11.7827 35.5145 11.7979V13.8595C35.9995 13.8292 36.4695 13.8292 36.9697 13.8292C52.5683 13.8292 65.2109 26.4717 65.2109 42.0855C65.2109 57.684 52.5683 70.3266 36.9697 70.3266C21.3712 70.3266 8.71348 57.684 8.71348 42.0855C8.71348 33.4297 12.6093 25.6834 18.7487 20.4992V17.8615C11.3966 23.3945 6.65186 32.1866 6.65186 42.0855C6.65186 58.821 20.219 72.3882 36.9697 72.3882C53.7052 72.3882 67.2725 58.821 67.2725 42.0855C67.2725 25.3499 53.7052 11.7676 36.9697 11.7676Z" fill="white"/>
<path d="M58.4047 57.9111C58.8745 57.2744 59.3142 56.6074 59.7386 55.9252V51.8627H58.4047V57.9111ZM62.2854 50.377C62.4824 49.7859 62.6491 49.1948 62.8007 48.6035H58.4047V49.6798H59.0716C60.2388 49.6494 61.5578 49.6344 62.2854 50.377Z" fill="white"/>
<path d="M33.0133 48.4521H31.8157V60.5337H33.0133V48.4521Z" fill="white"/>
<path d="M29.0721 46.133H33.0133C34.029 46.133 34.7416 46.3452 35.1508 46.7393C35.5601 47.1335 35.7572 47.846 35.7572 48.8617V60.155C35.7572 61.1707 35.5601 61.8832 35.1508 62.2774C34.5292 62.8988 33.3772 62.8988 32.4222 62.8988C32.21 62.8837 31.9978 62.8837 31.8159 62.8837V68.2347C32.21 68.3106 32.6041 68.3864 33.0133 68.4471V64.0509C34.8325 64.0509 36.0149 63.4294 36.5758 62.1863V68.7349H36.9699C37.2125 68.7349 37.4701 68.7349 37.7127 68.7199V49.0587C37.7127 48.0128 37.9249 47.2852 38.319 46.8758C38.7132 46.4665 39.4256 46.2543 40.4261 46.2543C41.4417 46.2543 42.9426 46.1028 43.7156 46.8758C44.1098 47.2852 44.2916 48.0278 44.2916 49.0587V54.8494H41.5934V48.6646H40.4261V68.5077C40.8202 68.4621 41.1993 68.4015 41.5934 68.3258V56.0167H44.2916V67.7042C44.8525 67.5527 45.3983 67.3707 45.944 67.1736V56.4714C45.944 55.2588 46.232 54.3492 47.4599 53.9399L46.0955 46.4969H48.8242L49.279 54.622H49.6125L50.0673 46.4969H52.9474L51.4012 53.9399C52.6897 54.3947 52.9474 55.1829 52.9474 56.4714V63.3839C53.7508 62.7776 54.5087 62.1409 55.2363 61.4435V46.421H63.2403C63.301 46.0573 63.3464 45.7086 63.3919 45.3297H44.6857L44.9435 46.6787C44.3522 45.5873 43.2305 45.0416 41.5782 45.0416H40.411C38.4251 45.0416 37.2275 45.8299 36.7577 47.4065C36.3332 45.7541 35.0751 44.9355 32.9983 44.9355H27.8745V67.113C28.2686 67.2495 28.6628 67.3858 29.0569 67.5071V46.133H29.0721ZM53.9176 54.6675L52.6291 53.4396L53.9176 46.7697V54.6675Z" fill="white"/>
<path d="M48.8392 65.9454C49.2486 65.7332 49.6578 65.521 50.0671 65.2937V56.1528H48.8392V65.9454Z" fill="white"/>
</svg>
