<svg width="320" height="80" viewBox="0 0 320 80" fill="none" xmlns="http://www.w3.org/2000/svg">
<path d="M144.8 31.2007L150.88 26.7207H130.72V53.2807H150.88V48.8007H136.48V42.0807H148.64V37.6007H136.48V31.2007H144.8ZM119.68 31.2007L125.76 26.7207H102.72V53.2807H114.72C121.44 53.2807 125.28 50.2407 125.28 44.9607C125.28 39.8407 121.76 37.1207 115.36 37.1207H108.32V31.2007H119.68ZM114.56 41.4407C118.24 41.4407 119.84 42.7207 119.84 45.1207C119.84 47.5207 118.08 48.8007 114.56 48.8007H108.48V41.4407H114.56ZM167.04 26.7207H156.16V53.2807H161.92V45.7607H167.2C174.24 45.7607 178.56 42.0807 178.56 36.1607C178.56 30.2407 174.08 26.7207 167.04 26.7207ZM167.04 41.2807H161.92V31.0407H167.04C170.72 31.0407 172.8 32.8007 172.8 36.1607C172.64 39.5207 170.72 41.2807 167.04 41.2807ZM92.9601 47.5207C91.3601 48.3207 89.7601 48.8007 88.0001 48.8007C82.8801 48.8007 79.0401 45.1207 79.0401 40.0007C79.0401 34.8807 82.7201 31.2007 88.0001 31.2007C89.9201 31.2007 91.6801 31.8407 93.2801 32.8007L97.4401 29.7607L97.1201 29.4407C94.7201 27.3607 91.5201 26.2407 87.8401 26.2407C83.8401 26.2407 80.3201 27.5207 77.6001 30.0807C75.0401 32.6407 73.4401 36.1607 73.6001 39.8407C73.6001 43.5207 75.0401 47.0407 77.6001 49.7607C80.3201 52.3207 84.0001 53.7607 87.6801 53.6007C91.8401 53.6007 95.3601 52.1607 97.9201 49.6007L94.2401 46.8807L92.9601 47.5207ZM265.6 37.6007H253.28V26.7207H247.52V53.2807H253.28V42.4007H265.6V53.2807H271.36V26.7207H265.6V37.6007ZM226.72 26.7207L215.2 53.2807H220.96L223.2 48.0007H235.36L237.6 53.2807H243.68L232.48 26.7207H226.72ZM225.12 43.5207L229.6 32.8007L233.76 43.5207H225.12ZM292.16 39.5207L302.56 26.7207H296L287.36 38.0807H284.16V26.7207H278.4V53.2807H284.16V42.5607H287.84L296.64 53.2807H304L292.16 39.5207ZM203.2 37.1207H196.16V31.2007H211.2V26.7207H190.4V53.2807H202.4C209.12 53.2807 212.96 50.2407 212.96 44.9607C213.12 39.8407 209.6 37.1207 203.2 37.1207ZM202.24 48.9607H196.16V41.6007H202.24C205.92 41.6007 207.52 42.8807 207.52 45.2807C207.68 47.6807 205.76 48.9607 202.24 48.9607Z" fill="#21A038"/>
<path d="M55.1697 26.21C56.2085 27.571 57.0878 29.0496 57.79 30.6161L37.8717 45.4966L29.5474 40.2081V33.8459L37.8717 39.1343L55.1697 26.21Z" fill="#21A038"/>
<path d="M21.0517 39.7593C21.0517 39.4738 21.0585 39.1902 21.0723 38.9082L16.0275 38.6577C16.0103 39.0231 16 39.3921 16 39.7644C15.9979 42.6738 16.5625 45.5549 17.6616 48.2425C18.7607 50.9302 20.3725 53.3714 22.4047 55.4262L25.9831 51.8014C24.4188 50.2225 23.1779 48.3457 22.3316 46.2791C21.4852 44.2125 21.0503 41.9967 21.0517 39.7593Z" fill="url(#paint0_linear_78_4263)"/>
<path d="M37.8671 22.7187C38.1486 22.7187 38.4284 22.7292 38.7066 22.7431L38.9591 17.6287C38.5974 17.6113 38.2333 17.6026 37.8671 17.6026C34.995 17.599 32.1506 18.1704 29.4972 19.284C26.8437 20.3976 24.4334 22.0315 22.4047 24.0917L25.9831 27.7183C27.5411 26.1324 29.3931 24.8743 31.4326 24.0163C33.4721 23.1583 35.6588 22.7173 37.8671 22.7187Z" fill="url(#paint1_linear_78_4263)"/>
<path d="M37.867 56.8015C37.5855 56.8015 37.3055 56.8015 37.0257 56.7789L36.7733 61.8915C37.1362 61.9101 37.5008 61.9195 37.867 61.9195C40.7379 61.9224 43.5809 61.3506 46.233 60.2367C48.8851 59.1228 51.2938 57.4887 53.3209 55.4285L49.7494 51.8037C48.191 53.3887 46.3392 54.6462 44.3001 55.5038C42.2611 56.3615 40.0748 56.8026 37.867 56.8015Z" fill="url(#paint2_linear_78_4263)"/>
<path d="M47.3456 25.692L51.5971 22.5162C47.7112 19.3272 42.8606 17.5912 37.8604 17.6001V22.718C41.2463 22.7138 44.5536 23.7508 47.3456 25.692Z" fill="url(#paint3_linear_78_4263)"/>
<path d="M59.7326 39.7597C59.7353 38.4283 59.6204 37.0992 59.3891 35.7886L54.6827 39.3038C54.6827 39.4552 54.6827 39.6066 54.6827 39.7597C54.6839 42.1408 54.1914 44.4956 53.2372 46.6714C52.2829 48.8472 50.8881 50.7955 49.1433 52.39L52.538 56.1924C54.8064 54.117 56.6191 51.5818 57.8584 48.751C59.098 45.92 59.7364 42.8567 59.7326 39.7597Z" fill="#21A038"/>
<path d="M37.8672 56.8024C35.5175 56.8032 33.1939 56.3039 31.0467 55.3368C28.8996 54.3698 26.9768 52.9564 25.4028 51.1885L21.6527 54.6271C23.7003 56.9263 26.2018 58.7637 28.9951 60.0201C31.7884 61.2764 34.8111 61.9238 37.8672 61.9202V56.8024Z" fill="url(#paint4_linear_78_4263)"/>
<path d="M26.591 27.129L23.198 23.3267C20.929 25.4016 19.1157 27.9368 17.8757 30.7677C16.6357 33.5985 15.9966 36.662 16 39.7593H21.0517C21.0506 37.3783 21.5432 35.0235 22.4974 32.8477C23.4517 30.672 24.8463 28.7237 26.591 27.129Z" fill="url(#paint5_linear_78_4263)"/>
<defs>
<linearGradient id="paint0_linear_78_4263" x1="23.4264" y1="54.7876" x2="17.7745" y2="38.6661" gradientUnits="userSpaceOnUse">
<stop offset="0.14" stop-color="#F1E813"/>
<stop offset="0.3" stop-color="#E6E418"/>
<stop offset="0.58" stop-color="#C9DA26"/>
<stop offset="0.89" stop-color="#A2CC39"/>
</linearGradient>
<linearGradient id="paint1_linear_78_4263" x1="23.847" y1="24.9966" x2="38.1104" y2="19.6332" gradientUnits="userSpaceOnUse">
<stop offset="0.06" stop-color="#0FA7DF"/>
<stop offset="0.54" stop-color="#0098F8"/>
<stop offset="0.92" stop-color="#0290EA"/>
</linearGradient>
<linearGradient id="paint2_linear_78_4263" x1="36.4403" y1="58.8306" x2="52.5361" y2="55.2426" gradientUnits="userSpaceOnUse">
<stop offset="0.12" stop-color="#A2CC39"/>
<stop offset="0.28" stop-color="#86C239"/>
<stop offset="0.87" stop-color="#219F38"/>
</linearGradient>
<linearGradient id="paint3_linear_78_4263" x1="36.8096" y1="19.3142" x2="50.5847" y2="23.5087" gradientUnits="userSpaceOnUse">
<stop offset="0.06" stop-color="#0290EA"/>
<stop offset="0.79" stop-color="#0C89CA"/>
</linearGradient>
<linearGradient id="paint4_linear_78_4263" x1="22.9199" y1="54.0041" x2="37.9277" y2="59.5386" gradientUnits="userSpaceOnUse">
<stop offset="0.13" stop-color="#F1E813"/>
<stop offset="0.3" stop-color="#EAE616"/>
<stop offset="0.53" stop-color="#D8DF1F"/>
<stop offset="0.8" stop-color="#BAD52D"/>
<stop offset="0.98" stop-color="#A2CC39"/>
</linearGradient>
<linearGradient id="paint5_linear_78_4263" x1="17.8819" y1="40.3788" x2="24.0279" y2="24.6033" gradientUnits="userSpaceOnUse">
<stop offset="0.07" stop-color="#A2CC39"/>
<stop offset="0.26" stop-color="#81C45E"/>
<stop offset="0.92" stop-color="#0FA7DF"/>
</linearGradient>
</defs>
</svg>
