<svg width="296" height="74" viewBox="0 0 296 74" fill="none" xmlns="http://www.w3.org/2000/svg">
<path d="M18.2425 48.3933C11.9895 48.3933 6.89532 43.3761 6.89532 37.2163C6.89532 31.0566 11.988 26.0379 18.2395 26.0379H18.9499V19.2402H18.241C8.18736 19.2402 0 27.3077 0 37.2148C0 47.1871 8.18736 55.2546 18.2425 55.2546H18.9514V48.3962H18.2425V48.3933Z" fill="#FF4B5F"/>
<path fill-rule="evenodd" clip-rule="evenodd" d="M21.916 28.9612V19.6245C30.297 21.2751 36.5487 28.5161 36.5487 37.2169C36.5487 45.9841 30.2941 53.2222 21.916 54.8121V45.4754H18.2409C13.6011 45.4754 9.86279 41.7898 9.86279 37.2197C9.86279 32.6468 13.6011 28.9612 18.2427 28.9612H21.916ZM57.1119 45.3453C59.0121 45.3511 60.8545 44.7007 62.3316 43.504L65.2323 46.3657C63.1056 48.2677 60.2699 49.4124 57.1119 49.4124C50.2784 49.4124 44.7996 43.8855 44.7996 37.2169C44.7996 30.5482 50.2784 25.0849 57.1119 25.0849C60.1813 25.0762 63.1442 26.2094 65.4264 28.2617L62.5256 31.1176C61.0294 29.8024 59.1039 29.0797 57.1119 29.0884C52.5327 29.0884 48.8606 32.7075 48.8606 37.2169C48.8606 41.7262 52.5342 45.3453 57.1119 45.3453ZM184.421 36.8353L193.51 26.0388H197.12V48.3949H193.51V32.2623L184.421 42.8044L175.204 32.0079V48.3978H171.529V26.0388H175.204V26.166L175.268 26.0388L184.421 36.8353ZM80.4453 49.3488C87.2134 49.3488 92.7576 43.9491 92.7576 37.2169C92.7576 30.5482 87.2134 25.0849 80.4453 25.0849C73.6773 25.0849 68.1349 30.5482 68.1349 37.2169C68.1349 43.8855 73.6137 49.3488 80.4453 49.3488ZM80.3818 29.0884C84.9594 29.0884 88.6327 32.7075 88.6327 37.2169C88.6327 41.7262 84.9594 45.3453 80.3818 45.3453C75.8041 45.3453 72.1308 41.7262 72.1308 37.2169C72.1308 32.7075 75.8041 29.0884 80.3818 29.0884ZM155.478 49.3488C162.246 49.3488 167.791 43.9491 167.791 37.2169C167.791 30.5482 162.31 25.0849 155.478 25.0849C148.71 25.0849 143.166 30.5482 143.166 37.2169C143.166 43.8855 148.645 49.3488 155.478 49.3488ZM155.478 29.0884C160.056 29.0884 163.729 32.7075 163.729 37.2169C163.729 41.7262 159.99 45.3453 155.478 45.3453C150.901 45.3453 147.227 41.7262 147.227 37.2169C147.227 32.7075 150.901 29.0884 155.478 29.0884ZM138.137 26.0388H143.103L131.886 37.2804L142.972 48.3978H138.074L128.726 39.0582H124.989V48.3978H121.379V26.0388H124.989V35.4391H128.792L138.137 26.0388ZM291.104 26.0388H296L284.848 37.2804L295.871 48.3978H290.972L281.691 39.0582H277.888V48.3978H274.278V26.0388H277.888V35.4391H281.691L291.104 26.0388ZM246.626 48.3949H242.627L240.438 43.5704H228.704L226.514 48.3978H222.518L232.508 26.0388H236.633L246.626 48.3949ZM234.571 30.6118L230.318 40.0121H238.826L234.571 30.6118ZM114.675 37.2169C115.989 38.4251 116.738 40.1306 116.738 41.917C116.738 45.4725 113.837 48.3978 110.226 48.4614H96.949V26.0388H110.226C113.812 26.033 116.726 28.9323 116.738 32.5167C116.738 34.358 115.899 36.0115 114.675 37.2169ZM110.162 29.6608H100.622V35.3726H110.162C111.774 35.3726 113.062 34.1037 113.062 32.5167C113.062 30.9269 111.774 29.6608 110.162 29.6608ZM100.622 44.8394H110.162C111.775 44.8394 113.063 43.504 113.127 41.9199C113.127 41.1654 112.811 40.4572 112.296 39.934C111.771 39.4022 111.04 39.0611 110.226 39.0611H100.622V44.8394ZM266.092 35.4391V26.1024H269.767V48.3313H266.092V39.0553H252.879V48.3313H249.205V26.1024H252.879V35.4391H266.092ZM214.652 35.4391C218.262 35.4391 221.227 38.3587 221.227 41.917C221.227 45.4725 218.263 48.3978 214.65 48.4585H201.437V26.0388H219.036V29.6579H205.112V35.4391H214.652ZM205.113 44.8394H214.653C216.265 44.8394 217.554 43.504 217.554 41.9199C217.554 40.3937 216.265 39.0611 214.653 39.0611H205.113V44.8394Z" fill="#003791"/>
</svg>
