<svg width="324" height="81" viewBox="0 0 324 81" fill="none" xmlns="http://www.w3.org/2000/svg">
<path d="M55.08 14.5801C40.7463 14.5801 29.16 26.1664 29.16 40.5001C29.16 54.8337 40.7463 66.4201 55.08 66.4201C69.4136 66.4201 81 54.8337 81 40.5001C81 26.1664 69.4136 14.5801 55.08 14.5801ZM51.4966 51.4892L49.5854 57.1032C42.4186 54.7143 37.6407 47.9058 37.6407 40.2612C37.6407 32.6166 42.4186 25.9275 49.7049 23.4192L51.616 29.0332C46.8381 30.586 43.7325 35.125 43.7325 40.1417C43.4936 45.3974 46.7187 49.9364 51.4966 51.4892ZM60.3356 57.2227L58.5439 51.4892C63.4413 49.9364 66.6663 45.3974 66.6663 40.2612C66.6663 35.125 63.4413 30.7054 58.6634 29.1526L60.5745 23.4192C67.8608 25.8081 72.7581 32.6166 72.7581 40.2612C72.7581 48.1447 67.7414 54.9532 60.3356 57.2227Z" fill="#00BEF0"/>
<path d="M292.421 45.1586L295.288 48.6226C292.302 51.7282 288.599 52.5643 285.613 52.5643C282.746 52.5643 280.716 52.0865 278.924 51.2504C275.102 49.3393 273.19 45.517 273.19 40.8585C273.19 33.8112 277.968 28.5555 285.016 28.5555C292.899 28.5555 296.721 34.4084 296.124 42.053H278.207C278.327 43.9641 279.402 45.7559 280.954 46.7114C282.268 47.5476 283.821 47.9059 285.852 47.9059C288.121 47.9059 290.391 47.1892 292.421 45.1586ZM278.327 37.8723H290.988C290.63 35.1251 288.36 32.7361 284.777 32.7361C281.074 32.7361 278.804 35.364 278.327 37.8723ZM158.043 51.8477H164.494L154.341 40.0224L164.374 28.9138H158.043L150.399 37.7529H148.129V28.9138H143.232V51.7282H148.129V42.6502H150.399L158.043 51.8477ZM179.066 33.0945C174.886 33.0945 172.138 36.3195 172.138 40.3807C172.138 44.4419 174.886 47.667 179.066 47.667C183.247 47.667 185.875 44.5614 185.875 40.3807C185.994 36.439 183.366 33.0945 179.066 33.0945ZM179.902 28.436C186.352 28.436 191.13 33.4528 191.13 40.3807C191.13 47.1892 186.472 52.4449 179.902 52.4449C176.797 52.4449 174.288 51.3699 172.497 49.4587V61.4034H167.48V29.0333H172.377V31.7806C174.288 29.5111 176.797 28.436 179.902 28.436ZM245.001 29.0333H224.575V33.5723H232.34V51.8477H237.356V33.5723H245.12V29.0333H245.001ZM139.768 29.0333H119.223V33.5723H126.987V51.8477H132.004V33.5723H139.768V29.0333ZM113.251 40.5002C113.251 36.2001 110.265 33.0945 106.084 33.0945C102.023 33.0945 98.9172 36.2001 98.9172 40.5002C98.9172 44.8003 101.903 47.9059 106.084 47.9059C110.145 47.9059 113.251 44.8003 113.251 40.5002ZM93.781 40.5002C93.781 33.6917 99.0367 28.5555 106.084 28.5555C113.012 28.5555 118.387 33.6917 118.387 40.5002C118.387 47.3087 113.131 52.5643 106.084 52.5643C99.1561 52.4449 93.781 47.3087 93.781 40.5002ZM269.249 29.0333V51.8477H264.351V37.1557L252.407 51.8477H248.465V29.0333H253.362V43.7253L265.307 29.0333H269.249ZM221.112 51.8477H216.214V29.0333H221.112V51.8477ZM208.45 44.0836C208.45 42.053 207.017 40.6196 205.106 40.6196H200.089V47.667H205.106C207.017 47.667 208.45 46.1142 208.45 44.0836ZM213.347 44.0836C213.347 48.6226 210.003 51.8477 205.225 51.8477H195.192V29.0333H200.089V36.439H205.703C210.481 36.439 213.347 39.5446 213.347 44.0836Z" fill="black"/>
</svg>
