<svg width="243" height="50" viewBox="0 0 243 50" fill="none" xmlns="http://www.w3.org/2000/svg">
<path d="M0 42.1176H32.0907V48.7647H0V42.1176ZM232.072 20.7794L242.19 9.63235H234.65L226.358 18.8971V9.63235H220.349V33.0588H226.388V23.1912L235.253 33.0588H243L232.072 20.7794ZM35.6253 22.3235C35.4633 26.7353 34.9036 27.5735 32.4589 27.5735V33.0735H33.372C39.5133 33.0735 40.9713 29.9118 41.1922 22.8676L41.4573 15.0735H47.1273V33.0588H53.136V9.63235H36.0376L35.6253 22.3235ZM9.54327 26.3529H22.2087L24.3147 33.0588H31.3396L21.87 4.88235C20.9569 2.16176 19.8965 0 16.2736 0C12.6507 0 11.5462 2.16176 10.5742 4.88235L0.648001 33.0588H7.24582L9.54327 26.3529ZM15.9644 7.35294H16.1264L20.3678 20.7059H11.4431L15.9644 7.35294ZM156.33 12.9559H149.629V6.33823H165.181V0.455883H143.326V33.0588H156.33C163.532 33.0588 167.67 29.4706 167.67 22.9118C167.67 16.6912 163.473 12.9559 156.33 12.9559ZM156.021 27.1618H149.629V18.6912H156.021C159.349 18.6912 161.219 20.1618 161.219 22.9265C161.219 25.6912 159.349 27.1618 156.021 27.1618ZM96.5962 9.08824V0.411764H90.6022V9.08824C87.4548 9.19191 84.4773 10.5387 82.3234 12.8326C80.1697 15.1268 79.0156 18.1806 79.1149 21.3235C79.0077 24.4729 80.1576 27.5359 82.3119 29.8387C84.4661 32.1416 87.4482 33.4956 90.6022 33.6029V42.4265H96.6109V33.6029C98.1732 33.5516 99.7101 33.1932 101.133 32.5479C102.557 31.9028 103.839 30.9835 104.906 29.8429C105.973 28.7022 106.804 27.3626 107.352 25.9007C107.9 24.4388 108.153 22.8834 108.098 21.3235C108.161 19.7626 107.912 18.2049 107.366 16.7412C106.82 15.2774 105.987 13.9369 104.916 12.7979C103.845 11.6591 102.558 10.7444 101.13 10.1075C99.7013 9.47059 98.1602 9.12412 96.5962 9.08824ZM90.6169 27.9412C89.0267 27.7668 87.5688 26.9751 86.5578 25.7372C85.5466 24.4993 85.0633 22.9141 85.212 21.3235C85.0824 19.7369 85.5727 18.1618 86.5803 16.9282C87.5878 15.6946 89.0345 14.8982 90.6169 14.7059V27.9412ZM96.6256 27.9412V14.7059C98.2081 14.8982 99.6547 15.6946 100.662 16.9282C101.67 18.1618 102.16 19.7369 102.031 21.3235C102.171 22.9125 101.685 24.4935 100.676 25.7299C99.6661 26.966 98.2128 27.7596 96.6256 27.9412ZM130.616 25.8676V17.9706C130.616 12.2059 126.949 8.60294 120.793 8.60294C114.637 8.60294 111.044 12.4265 110.749 16.4118H116.831C117.038 15.5588 117.951 14.0441 120.778 14.0441C121.307 13.9762 121.843 14.0318 122.345 14.2068C122.849 14.3818 123.304 14.671 123.675 15.0521C124.046 15.4329 124.325 15.895 124.487 16.4015C124.649 16.9081 124.69 17.4453 124.607 17.9706H118.717C113.385 17.9706 110.219 20.7794 110.219 25.4265C110.177 26.5354 110.369 27.6407 110.783 28.6709C111.196 29.701 111.821 30.6329 112.618 31.4065C113.415 32.18 114.366 32.7778 115.409 33.1613C116.451 33.5447 117.563 33.7051 118.672 33.6324C119.924 33.6981 121.173 33.4547 122.309 32.9238C123.444 32.3928 124.431 31.5907 125.182 30.5882C125.671 31.414 126.384 32.0843 127.239 32.5215C128.093 32.9588 129.055 33.1451 130.012 33.0588H132.089V27.6471C131.073 27.6471 130.616 27.1618 130.616 25.8676ZM124.607 24.3971C124.632 24.9763 124.534 25.5543 124.317 26.0926C124.102 26.631 123.775 27.1178 123.359 27.5207C122.94 27.9237 122.443 28.2337 121.896 28.4304C121.35 28.6271 120.768 28.7059 120.189 28.6618C118.024 28.6618 116.316 27.8824 116.316 25.5441C116.316 23.2059 118.216 22.8676 119.821 22.8676H124.607V24.3971ZM68.0989 16.75H63.7838V9.63235H57.7751V33.0588H68.202C74.7262 33.0588 77.0384 28.8235 77.0384 24.8235C77.0678 19.6618 73.8278 16.75 68.0989 16.75ZM67.6571 27.9412H63.7838V22.0588H67.6571C69.7336 22.0588 70.9855 23 70.9855 25C70.9855 27 69.7925 27.9412 67.6571 27.9412ZM190.6 25.8676V17.9706C190.6 12.2059 186.933 8.60294 180.777 8.60294C174.621 8.60294 171.028 12.4265 170.733 16.4118H176.816C177.022 15.5588 177.935 14.0441 180.763 14.0441C181.291 13.9762 181.827 14.0318 182.33 14.2068C182.833 14.3818 183.288 14.671 183.659 15.0521C184.031 15.4329 184.309 15.895 184.471 16.4015C184.633 16.9081 184.674 17.4453 184.592 17.9706H178.701C173.369 17.9706 170.203 20.7794 170.203 25.4265C170.162 26.5354 170.353 27.6407 170.767 28.6709C171.18 29.701 171.805 30.6329 172.602 31.4065C173.399 32.18 174.35 32.7778 175.393 33.1613C176.436 33.5447 177.548 33.7051 178.657 33.6324C179.92 33.7104 181.184 33.4731 182.334 32.9418C183.483 32.4103 184.481 31.6015 185.24 30.5882C185.721 31.3996 186.421 32.0606 187.259 32.4971C188.097 32.9335 189.039 33.1281 189.982 33.0588H192.058V27.6471C191.013 27.6471 190.6 27.1618 190.6 25.8676ZM184.621 24.3971C184.643 24.9757 184.543 25.5525 184.327 26.0899C184.11 26.6272 183.783 27.1129 183.366 27.5154C182.95 27.9178 182.452 28.2279 181.907 28.4256C181.362 28.6231 180.782 28.7035 180.203 28.6618C178.038 28.6618 176.33 27.8824 176.33 25.5441C176.33 23.2059 178.229 22.8676 179.835 22.8676H184.621V24.3971ZM209.79 18.3529H201.499V9.63235H195.49V33.0735H201.499V23.8382H209.79V33.0588H215.799V9.63235H209.79V18.3529Z" fill="#EF3124"/>
</svg>
