<svg width="320" height="80" viewBox="0 0 320 80" fill="none" xmlns="http://www.w3.org/2000/svg">
<path d="M92.9894 35.7856L94.02 32.5492L90.668 32.6552C89.0981 32.5973 87.5858 32.0676 86.3144 31.1333H86.767C88.8091 31.1237 90.6778 29.9581 91.583 28.128L93.0568 24.9784C91.901 24.988 90.7451 24.9205 89.5989 24.776C88.5008 24.516 87.5184 23.9189 86.7766 23.0712C85.7749 22.0021 84.388 21.3952 82.9238 21.3856C82.3555 21.3856 81.7872 21.482 81.2382 21.6552C81.3154 21.3952 81.3827 21.1352 81.4309 20.8655C81.6621 18.9872 81.1323 17.0896 79.9667 15.5967L77.4238 12.4663L75.8635 16.1264C75.6131 16.6466 75.2374 17.0994 74.7558 17.4268C74.4861 16.1168 73.8504 14.9225 72.9064 13.9785C71.3269 12.3603 69.1595 11.4549 66.896 11.4742C66.5011 11.4742 66.1062 11.5031 65.721 11.5609L62.6771 12.1581C62.9373 11.137 63.3514 10.1642 63.9101 9.26842L65.5861 6.65812L61.3672 7.05304L60.0187 4.16341L57.4181 5.57933L55.0101 3.2002L52.6019 5.57933L50.0013 4.23084L48.6528 7.05304L44.4339 6.57143L46.1099 9.19136C46.6686 10.0872 47.0827 11.06 47.3429 12.081L44.4533 11.5127H44.357C43.9523 11.4549 43.5478 11.426 43.1432 11.426C40.8797 11.4068 38.7125 12.3122 37.1328 13.9304C36.1792 14.8839 35.5243 16.0976 35.2642 17.4268C34.8019 17.109 34.4262 16.6756 34.1758 16.165L32.6058 12.4759L30.0437 15.616C28.8974 17.109 28.3869 18.9968 28.6085 20.8655C28.6566 21.1352 28.724 21.3952 28.8011 21.6552C28.252 21.482 27.6837 21.3856 27.1155 21.3856C25.6514 21.3952 24.2643 22.0021 23.2626 23.0712C22.5306 23.9092 21.5578 24.5064 20.4693 24.776C19.3134 24.9495 18.1384 25.0168 16.9632 24.9784L18.3984 28.1762C19.3038 30.0063 21.1725 31.1719 23.2144 31.1815H23.6672C22.415 32.0965 20.9221 32.6263 19.3712 32.6936L16 32.5492L17.0306 35.7856C17.8013 38.3189 19.9877 40.1778 22.6173 40.5149C22.3475 42.2199 21.2688 43.6936 19.7277 44.4642L17.1462 45.514L18.5333 47.9317C19.6795 49.7136 21.6541 50.7732 23.7635 50.754C24.3125 50.754 24.8616 50.696 25.401 50.5805C25.5358 51.168 25.7091 51.7556 25.9018 52.3239C26.3834 53.5954 26.4123 54.9824 25.9981 56.2732L24.7459 58.9026L27.549 59.6444C28.175 59.808 28.8299 59.8852 29.4754 59.8852C29.9376 59.8852 30.3904 59.837 30.843 59.7311C31.1706 59.654 31.4981 59.5576 31.8062 59.4324C32.1627 60.0778 32.6154 60.6749 33.1259 61.2047C34.9174 63.0445 37.4603 63.9788 40.687 63.9788H42.9891L38.2405 65.9533L41.8429 67.7352C43.2974 68.448 44.7808 69.0935 46.293 69.6616L45.8595 70.914L47.1021 71.4821C49.1634 72.2912 51.3498 72.744 53.5653 72.821H56.5222C58.728 72.744 60.9048 72.2816 62.9565 71.4725L64.1605 70.914L63.7366 69.6616C65.2682 69.0741 66.7709 68.4095 68.2349 67.6679L71.7699 65.9533L67.0309 64.0269H69.3426C72.5693 64.0269 75.1219 63.0637 76.9038 61.2528C77.4238 60.7231 77.867 60.126 78.2234 59.4805C78.5317 59.6058 78.859 59.7021 79.1866 59.7792C79.6394 59.8852 80.092 59.9333 80.5544 59.9333C81.1997 59.9333 81.8547 59.8466 82.4808 59.6925L85.2933 58.9508L84.0701 56.3695C83.6077 55.0594 83.627 53.6242 84.1182 52.3239C84.3205 51.7364 84.4843 51.1392 84.619 50.542C85.1586 50.6576 85.7171 50.7154 86.2662 50.7154C88.3949 50.7346 90.379 49.6365 91.5061 47.8258L92.8738 45.437L90.3309 44.3967C88.7898 43.6261 87.711 42.1524 87.4413 40.4476C90.0709 40.1008 92.2574 38.2514 93.028 35.7085L92.9894 35.7856Z" fill="white"/>
<path d="M66.588 46.0149H43.4709V54.6837C43.4709 58.2477 46.0427 60.463 49.8474 60.463C53.0259 60.463 53.864 60.5882 55.039 61.7634C55.7808 60.9638 56.8306 60.5112 57.9286 60.5304V60.3955L58.6608 58.1416L57.4182 56.7835C56.9173 56.9376 56.3971 56.9955 55.8771 56.9666C55.0968 56.957 54.3262 56.8798 53.5653 56.7258H53.3245C53.2186 56.7258 53.2185 56.7258 53.1897 56.7835L53.0453 57.0243L52.7851 57.4578L52.2843 57.3422L50.0592 56.8221L49.751 57.3229V57.3808L50.0208 57.6794L49.9051 58.0646C49.7029 58.5366 49.4139 58.9603 49.0478 59.3264L48.4893 59.9237L47.9787 59.2878L47.603 58.8158C47.1986 58.2861 47.1022 57.5926 47.3334 56.9666L46.7074 57.2266L46.428 56.6102L46.2739 56.1766C45.8789 55.2616 46.1774 54.2021 46.977 53.6242L48.7685 52.6609L50.4734 52.9981C50.4734 52.8344 50.5794 52.2469 50.6275 52.1024H50.5312L49.568 52.4683L48.6048 51.8134C48.4122 51.6208 48.4026 51.3029 48.6048 51.1006L49.5198 49.7136L47.1986 46.824L50.6757 48.1917L50.9165 47.9027L51.3981 47.3248L51.9472 47.845C52.0917 47.9894 52.188 48.1629 52.2361 48.3651C53.1993 48.7504 54.9813 49.8773 55.1258 51.7074L54.5766 51.929C54.6442 52.0253 54.7309 52.1024 54.8368 52.1506L57.3797 52.401L57.6109 52.3334C58.0443 52.1698 58.5065 52.083 58.969 52.0734C59.4314 52.0734 59.884 52.1794 60.2982 52.3816C60.4811 52.3142 60.6835 52.2757 60.8762 52.2661H61.0013C62.3595 52.2661 63.0434 53.287 63.5827 54.0962L63.8621 54.5008C64.3341 55.175 64.9602 56.1574 64.989 56.196L65.2683 56.6294L64.9216 57.0339C64.6037 57.4578 64.1029 57.6986 63.5731 57.6986C63.419 57.7082 63.2648 57.7082 63.1107 57.6986C62.9758 57.6698 62.8411 57.6312 62.7062 57.5734C62.7062 57.7082 62.7062 57.872 62.6291 58.0069L62.2342 60.28C64.8542 59.7502 66.7035 57.4 66.5976 54.7222L66.588 46.0149ZM43.4421 45.3117H61.4445C60.7123 44.5411 60.4619 43.4334 60.7894 42.4221C60.5486 42.3066 60.3174 42.1523 60.1152 41.979C59.412 42.4992 57.2256 44.0595 56.7054 44.4544L56.5899 44.5315L49.5198 43.2794H49.3754C49.1442 43.289 48.9131 43.289 48.6819 43.2794C48.6144 43.5971 48.3352 43.8187 48.0173 43.8187H47.9018C47.5261 43.7514 47.2659 43.3949 47.3238 43.0192V42.8651C46.4086 42.2102 45.9752 41.0736 46.216 39.9755V39.8502L46.3221 39.7733C46.3221 39.7733 46.4568 39.677 46.6398 39.571L46.1294 39.4939C45.9368 39.4554 45.8115 39.2821 45.8405 39.0894C45.8693 38.8968 46.0427 38.7715 46.2354 38.8005H46.2449L47.4683 38.9931L47.5838 34.6875L49.4043 32.7611L50.541 35.1498L49.3466 39.2917L50.4253 39.465C50.6179 39.5035 50.7432 39.677 50.7142 39.8696C50.6854 40.0429 50.541 40.1586 50.3675 40.1586H50.3098L49.4331 40.0141V40.0814C49.5294 40.2549 49.6741 40.3898 49.857 40.4763L55.2413 40.563L56.6187 39.205C55.5688 38.8389 54.8176 37.9142 54.6923 36.8066C54.0181 36.5466 53.4691 36.0456 53.1608 35.4003C52.9008 34.7934 52.8526 34.1096 53.0357 33.4739C52.188 33.1368 51.4174 32.6262 50.7914 31.9712H42.7966C43.1819 32.9152 43.4035 33.917 43.4421 34.9283V45.3117Z" fill="#FCE527"/>
<path d="M105.578 37.8755H113.515V51.3605H119.294V37.8755H127.231V32.9824H105.578V37.8755ZM134.86 43.6549V33.0595H129.273V51.3605H134.205L143.837 40.6496V51.3605H149.424V32.9824H144.492L134.86 43.6549ZM168.024 39.8019H159.046V33.0595H153.46V51.3605H159.046V44.5024H168.024V51.3605H173.61V33.0595H168.024V39.8019ZM193.096 38.3765C191.776 37.9719 190.389 37.8082 189.011 37.8755H183.232V33.0595H177.646V51.3605L188.973 51.2835C190.158 51.3027 191.333 51.1679 192.48 50.8597C195.389 50.1469 197.392 47.4981 197.296 44.5024C197.411 41.7573 195.706 39.253 193.096 38.3765ZM190.245 46.66C189.541 46.9008 188.79 46.9971 188.048 46.9298H183.232V42.2679H188.048C188.771 42.2197 189.502 42.3064 190.206 42.4991C191.093 42.7591 191.69 43.5778 191.67 44.5024C191.68 45.4464 191.122 46.3037 190.245 46.66ZM220.701 33.0595H213.69L206.947 39.9562H205.406V33.0595H199.819V51.3605H205.406V44.4255H206.947L213.613 51.3605H221.048L211.763 41.7285L220.701 33.0595Z" fill="#222220"/>
<path d="M232.723 32.4817C225.171 32.4817 220.662 36.7198 220.662 42.1908C220.662 47.6619 225.21 51.8999 232.683 51.8999C240.158 51.8999 244.666 47.6619 244.666 42.1908C244.666 36.7198 240.274 32.4817 232.723 32.4817ZM232.683 47.4307C228.947 47.4307 226.558 45.1961 226.558 42.1908C226.558 39.1857 228.986 36.9895 232.683 36.9895C236.382 36.9895 238.81 39.1857 238.81 42.1908C238.81 45.1961 236.421 47.4307 232.683 47.4307ZM263.074 33.7916V31.9423H257.486V33.7916C250.474 33.9457 246.275 36.9124 246.275 42.1523C246.275 47.3923 250.474 50.1278 257.486 50.2819V52.1311H263.074V50.2819C270.123 50.1278 274.323 47.3923 274.323 42.1523C274.323 36.9124 270.133 33.9457 263.074 33.7916ZM257.486 46.3519C253.634 46.1979 251.938 44.6182 251.938 42.1523C251.938 39.6865 253.634 37.9142 257.486 37.7601V46.3519ZM263.074 46.3519V37.7601C266.965 37.9142 268.621 39.6865 268.621 42.1523H268.63C268.63 44.6182 266.974 46.1979 263.074 46.3519ZM292.749 33.7916V31.9423H287.163V33.7916C280.15 33.9457 275.95 36.9124 275.95 42.1523C275.95 47.3923 280.15 50.1278 287.163 50.2819V52.1311H292.749V50.2819C299.8 50.1278 304 47.3923 304 42.1523C304 36.9124 299.8 33.9457 292.749 33.7916ZM287.163 46.3519C283.31 46.1979 281.614 44.6182 281.614 42.1523C281.614 39.6865 283.31 37.9142 287.163 37.7601V46.3519ZM298.288 42.1523C298.288 44.6182 296.642 46.1979 292.749 46.3519V37.7601C296.642 37.9142 298.298 39.6865 298.298 42.1523H298.288ZM50.8298 49.8003C50.7141 49.8003 50.6082 49.887 50.5986 50.0025V50.0121C50.589 50.1374 50.6853 50.2529 50.8104 50.2625H50.82C50.9549 50.2625 51.0512 50.1566 51.0512 50.0315C51.0512 49.8966 50.9549 49.8003 50.8298 49.8003ZM50.8202 49.7905C50.8298 49.7905 50.8298 49.8003 50.8298 49.8003C50.8394 49.8003 50.8394 49.7905 50.849 49.7905H50.8202ZM66.5589 65.5873L65.2296 65.0767L65.5957 63.6993L66.0002 62.1967C64.1797 63.131 62.2726 63.8823 60.3077 64.4411C59.3445 64.7107 58.6509 64.8359 58.6509 64.8359V65.8087C57.4662 66.0014 56.2718 66.1073 55.0678 66.1171H54.9618C53.7578 66.1073 52.5634 66.0014 51.3787 65.8087V64.8455C51.3787 64.8455 50.6755 64.7107 49.7123 64.4411C47.7474 63.8823 45.8402 63.131 44.0197 62.1967L44.4147 63.6993L44.7902 65.0767L43.4515 65.5873L42.0067 66.1362C43.9909 67.1668 46.0618 68.0241 48.2002 68.6983L47.6896 70.0854C50.0109 70.9716 52.496 71.4051 54.9811 71.3473H55.0389C57.524 71.4051 60.0091 70.9716 62.3304 70.0854L61.8294 68.6983C63.9582 68.0241 66.0291 67.1668 68.0133 66.1362L66.5589 65.5873ZM43.6152 66.223L45.7728 65.5006L45.1275 63.3815C46.5434 64.0846 48.0075 64.6723 49.5197 65.1345L48.4602 68.0241C46.7938 67.5811 45.1659 66.9743 43.6152 66.223ZM55.0678 70.6633L55.0197 70.6249C52.9005 70.6151 50.791 70.3262 48.7491 69.7676L50.0494 66.2422C51.6677 66.6468 53.3339 66.8683 55.0099 66.8779H55.116C56.792 66.8587 58.4582 66.6468 60.0765 66.2422L61.3768 69.7676C59.3251 70.3455 57.1965 70.6441 55.0678 70.6633ZM61.6368 68.082V68.0531L60.5773 65.1635C62.0896 64.7011 63.5536 64.1135 64.9696 63.4103L64.3242 65.5294L66.5107 66.2615C64.9502 67.0225 63.3128 67.6388 61.6368 68.082ZM55.0099 10.6072C57.1867 10.5494 59.3251 11.2044 61.0973 12.4662C61.3766 11.0406 61.9064 9.67287 62.6674 8.43032L60.481 8.68076L59.3443 6.24384L57.1386 7.38044L55.0099 5.271L52.8811 7.38044L50.6754 6.24384L49.5389 8.68076L47.3523 8.43032C48.1133 9.67287 48.643 11.0406 48.9224 12.4662C50.6947 11.2044 52.833 10.5494 55.0099 10.6072ZM49.4426 9.52839L50.0493 9.59581L50.3094 9.04679L51.0704 7.40933L52.4862 8.14136L53.0354 8.42069L53.4784 8.01615L55.0099 6.46538L56.5414 8.01615L56.9845 8.44959L57.5334 8.17026L58.9398 7.43823L59.7104 9.07568L59.9704 9.62471L60.5773 9.55728L61.1552 9.48986C60.924 10.0196 60.7218 10.5687 60.5579 11.1273C57.0808 9.34538 52.9486 9.34538 49.4714 11.1273C49.3077 10.5687 49.1054 10.0196 48.8742 9.48986L49.4426 9.52839ZM83.5789 30.4878L83.3187 30.17C81.5272 27.8871 79.8222 25.7199 76.7786 24.7278C76.9038 24.6219 77.029 24.5255 77.1638 24.4388C78.6086 23.6201 79.6296 22.2139 79.9571 20.586C80.121 19.1123 79.7067 17.6387 78.8013 16.4635L77.8381 15.2595L77.2312 16.6947C77.2312 16.7814 76.1621 19.0835 74.0045 19.0835H73.3688C73.4843 17.5711 72.9354 16.0782 71.8662 14.9994C70.5659 13.6702 68.7742 12.9285 66.9154 12.9382C66.5685 12.9382 66.2218 12.9671 65.8846 13.0152L64.4109 13.3042L65.3259 14.5082C66.0387 15.4714 66.6842 17.1377 65.9232 18.0335C65.5571 18.3515 65.143 18.6019 64.6902 18.7751C63.727 19.2279 62.34 19.8732 62.34 21.4915C62.34 22.5414 63.1587 23.6395 64.6325 24.5737C68.9765 27.3286 71.6638 30.17 72.8294 33.3678C74.6306 38.2417 72.2803 41.0158 69.9976 42.4798L68.9765 43.1348L69.8723 43.9535C70.6718 44.6374 71.6542 45.0612 72.7042 45.1671H73.5806C74.4765 45.1671 75.3627 45.042 76.2198 44.7819C76.008 45.1575 75.748 45.5139 75.4686 45.8414C74.1683 47.3537 72.2418 48.182 70.248 48.0761H69.3907L69.3234 48.9334C69.3138 50.1374 69.8435 51.2739 70.7586 52.0542C70.9994 52.266 71.269 52.4395 71.5579 52.5742C70.1325 53.9612 69.3234 55.8588 69.2944 57.8526C69.2944 58.9411 69.044 60.0199 68.572 61.0023L67.6088 62.4471H69.3234C72.1552 62.4471 74.3224 61.667 75.825 60.1163C76.6051 59.2975 77.183 58.3054 77.5202 57.2265C78.0789 57.6985 78.7339 58.026 79.4467 58.1897C79.7838 58.2668 80.1306 58.3054 80.4773 58.3054C80.9974 58.3054 81.5176 58.2379 82.0184 58.1223L83.1165 57.8334L82.6349 56.8124C82.028 55.1846 82.028 53.3833 82.6349 51.7555C82.9912 50.6959 83.2418 49.5979 83.3765 48.4806C84.2434 48.9236 85.2067 49.1452 86.1795 49.1356C87.7784 49.1548 89.2714 48.3651 90.1382 47.0262L90.668 46.063L89.7048 45.6583C86.4781 44.3196 85.7653 40.7172 85.6208 38.7715C85.9387 38.8388 86.2565 38.8774 86.584 38.887L86.8538 39.07C90.3598 39.07 91.5349 35.4966 91.583 35.3425L91.9781 34.0806H90.6584C87.8843 33.9843 85.2933 32.6743 83.5789 30.4878ZM86.8634 38.0972H86.7285C86.0254 38.1068 85.3318 37.9142 84.7347 37.5483C84.7347 37.5483 84.2242 44.5123 89.4158 46.6699V46.6987C88.732 47.739 87.557 48.3555 86.3144 48.3361C84.908 48.4228 83.5499 47.8257 82.6638 46.7372C82.6926 48.3747 82.423 50.0121 81.8739 51.5532C81.1707 53.4123 81.1707 55.4735 81.8739 57.3326C81.4405 57.4385 81.007 57.4963 80.564 57.4963C80.2942 57.4963 80.0149 57.4673 79.7549 57.3999C78.4738 57.0918 77.4528 56.1478 77.0386 54.9052C77.0386 54.9052 77.241 61.5899 69.4485 61.5899H69.3907C69.9782 60.4726 70.2866 59.23 70.277 57.9683C70.6141 53.027 73.9659 52.3238 73.9659 52.3238C73.0413 52.2083 72.1648 51.8807 71.3942 51.3606C70.691 50.7731 70.2866 49.9062 70.2672 48.9911C72.5211 49.0875 74.6981 48.1531 76.1717 46.4387C77.0579 45.4273 77.6454 44.1943 77.8958 42.8747C76.6533 43.8091 75.1218 44.2811 73.571 44.2135H72.7813C71.9432 44.127 71.1438 43.7995 70.4984 43.2503C73.4651 41.3239 75.5456 38.0299 73.7059 33.0307C72.2226 29.0238 68.6683 26.0283 65.0949 23.7743C63.9101 23.0422 63.1973 22.2139 63.1973 21.5011C63.1973 19.8251 65.5765 19.7769 66.5589 18.6115C67.6859 17.3015 66.9827 15.1824 66.0002 13.911C66.2795 13.8628 66.5685 13.8436 66.8478 13.8436C68.4565 13.8243 70.0072 14.4697 71.1245 15.6255C72.2611 16.7043 72.6946 18.3321 72.2611 19.8348L72.7813 19.9407C73.099 19.9985 73.417 20.0275 73.7445 20.0371H73.9563C76.7786 20.0371 78.0499 17.0799 78.0499 17.0799C78.0499 17.0799 81.0552 20.7787 76.6341 23.6683C75.8731 24.1596 75.536 24.6315 75.6709 25.1131L75.7382 25.431L76.0562 25.4887C79.2637 26.3556 80.8722 28.5711 82.8661 31.0851C84.7539 33.4835 87.6051 34.9283 90.6584 35.0342H90.7162C90.7162 35.0342 89.753 38.0972 86.8634 38.0972Z" fill="#222220"/>
<path d="M80.6793 25.1609C81.7581 25.7774 82.6925 26.6155 83.4245 27.6173C83.9736 28.4648 84.7537 29.139 85.6784 29.5437C86.0251 29.6592 86.4008 29.7169 86.7669 29.7169C88.2405 29.7169 89.5891 28.879 90.2633 27.5691L90.8219 26.3169L89.4638 26.2398C87.9997 25.9701 86.6801 25.2189 85.7073 24.0918C84.9849 23.3117 83.9736 22.8589 82.9043 22.8493C82.076 22.8589 81.2765 23.1094 80.583 23.5525L79.3309 24.4289L80.6793 25.1609ZM82.9333 23.7837L82.9043 23.7933C83.723 23.7933 84.4936 24.1496 85.0427 24.7565C86.1696 26.0472 87.7107 26.9045 89.4061 27.1838C88.8859 28.1566 87.8745 28.7633 86.7669 28.7731C86.4971 28.7731 86.2275 28.7249 85.9673 28.6382C84.407 28.1085 83.8579 25.7486 81.1513 24.323C81.6811 23.9763 82.2976 23.7933 82.9333 23.7837ZM81.315 37.5768L81.2958 37.5576C80.5061 31.2003 75.8921 26.6059 70.7584 23.8222C70.2864 23.5621 69.8432 23.3502 69.4195 23.148C71.5385 23.5814 73.7443 23.0613 75.4491 21.732C75.4491 21.732 72.4728 23.9185 66.3853 21.9342C68.071 23.0323 71.3459 24.5734 74.3414 27.0777C81.816 33.6469 76.4702 40.0619 76.4702 40.0619C78.7048 37.9429 79.4849 34.7064 78.4832 31.7976C80.0629 34.427 80.8238 37.4709 80.6601 40.5339C80.4481 45.5811 77.6453 49.9926 74.7557 53.5083C73.8888 54.616 73.2915 55.9163 73.0411 57.3033C73.5323 55.9259 74.2741 54.6545 75.2373 53.5565C78.3677 49.8867 81.0165 46.0819 81.3921 40.6013C81.7197 41.5645 83.0489 44.3675 85.168 45.4173C85.168 45.4173 82.5094 43.8184 81.315 37.5768ZM41.4382 61.0696C40.9758 60.087 40.7254 59.0083 40.7158 57.9198C40.6869 55.9259 39.8681 54.0285 38.4425 52.6414C38.7315 52.5065 39.0013 52.3333 39.2421 52.1213C40.1571 51.3411 40.6869 50.2045 40.6773 49.0005L40.6195 48.1432H39.7525C37.7683 48.2395 35.8419 47.4208 34.5416 45.9086C34.2622 45.5811 34.0118 45.2246 33.7902 44.8491C34.6475 45.1091 35.5337 45.2344 36.4294 45.2344H37.3061C38.3558 45.1283 39.348 44.7046 40.1475 44.0206L41.0432 43.2019L40.0222 42.547C37.7297 41.0829 35.3893 38.3088 37.1904 33.435C38.3558 30.2661 41.0432 27.4053 45.4259 24.6505C46.8995 23.6873 47.7086 22.6182 47.7086 21.5683C47.7086 19.9501 46.3505 19.3048 45.3584 18.852C44.9057 18.6785 44.4915 18.4281 44.1256 18.1104C43.355 17.2145 44.0003 15.5097 44.7227 14.585L45.6859 13.381L44.2025 13.092C43.8654 13.0342 43.5187 13.0149 43.172 13.0149C41.2937 12.9571 39.4829 13.6796 38.1536 14.9991C37.0653 16.0683 36.4969 17.5709 36.6029 19.0928H36.0249C33.8577 19.0928 32.8366 16.8003 32.7982 16.704L32.1913 15.2689L31.2281 16.4729C30.3323 17.648 29.9182 19.1217 30.0819 20.5953C30.4094 22.2232 31.4208 23.6296 32.8656 24.4483C33.0005 24.5349 33.1353 24.6312 33.2509 24.7373C30.2072 25.7005 28.5022 27.8966 26.7107 30.1793L26.4505 30.5069C24.7361 32.6933 22.1355 34.0033 19.3614 34.0997H18.0417L18.4464 35.3614C18.4464 35.5155 19.66 39.0891 23.1757 39.0891H23.3491C23.6766 39.0793 23.9944 39.0409 24.3123 38.9734C24.1678 40.8998 23.455 44.5216 20.2187 45.8605L19.2555 46.2649L19.7853 47.2281C20.6521 48.567 22.1451 49.3569 23.744 49.3376C24.7168 49.3472 25.6704 49.1257 26.5373 48.6827C26.6721 49.8 26.9225 50.8981 27.279 51.9576C27.8857 53.5854 27.8857 55.3865 27.279 57.0144L26.7974 58.0353L27.8953 58.3243C28.3963 58.44 28.9165 58.5073 29.4366 58.5073C29.7833 58.5073 30.1301 58.4688 30.4672 58.3918C31.18 58.228 31.835 57.9006 32.3936 57.4286C32.7307 58.5073 33.3086 59.4995 34.0889 60.3182C35.6011 61.8689 37.7683 62.6395 40.5905 62.6491H42.3051L41.4382 61.0696ZM40.6097 61.6089C32.8174 61.6089 33.0101 54.9243 33.0101 54.9243C32.5958 56.1667 31.5749 57.1107 30.2937 57.419C30.0337 57.4864 29.7544 57.5153 29.4848 57.5153C29.0416 57.5153 28.6081 57.4574 28.1845 57.3515C28.8875 55.4925 28.8875 53.4312 28.1845 51.5723C27.6353 50.0312 27.3753 48.3937 27.4041 46.7561C26.5181 47.8446 25.16 48.4419 23.7536 48.3552H23.7054C22.4533 48.3744 21.2782 47.7483 20.5942 46.708C25.7861 44.5504 25.2755 37.5864 25.2755 37.5864C24.6782 37.9525 23.9848 38.1451 23.2816 38.1355H23.1757C20.2861 38.1355 19.3229 35.0725 19.3229 35.0725H19.3806C22.4341 34.9761 25.2947 33.5313 27.1827 31.1329C29.1669 28.619 30.7851 26.4035 33.9926 25.5366L34.3104 25.4789L34.3779 25.1611C34.4645 24.6697 34.1273 24.1977 33.4145 23.7161C28.9934 20.8265 31.9987 17.1278 31.9987 17.1278C31.9987 17.1278 33.2509 20.0849 36.0923 20.0849H36.2272C36.5547 20.0753 36.8725 20.0464 37.1904 19.9886L37.7105 19.8827C37.2675 18.38 37.7105 16.7521 38.8472 15.6734C39.9645 14.5175 41.5152 13.8722 43.1238 13.8915C43.4032 13.8915 43.6921 13.9107 43.9713 13.9589C43.0081 15.24 42.2953 17.359 43.4224 18.6593C44.3856 19.7864 46.7744 19.8345 46.7744 21.5489C46.7744 22.2617 46.1097 23.0901 44.9249 23.8318C41.3419 26.0857 37.7877 29.0813 36.3139 33.0883C34.4742 38.0873 36.5547 41.4104 39.5214 43.308C38.876 43.8473 38.0766 44.1845 37.2385 44.2712H36.439C34.8883 44.3385 33.3568 43.8665 32.1142 42.9323C32.3648 44.2518 32.9523 45.4848 33.8288 46.4961C35.3025 48.2009 37.4889 49.1449 39.7429 49.0486C39.7237 49.9637 39.319 50.8305 38.616 51.4182C37.8454 51.9382 36.9688 52.2657 36.0441 52.3814C36.0441 52.3814 39.4057 53.0653 39.7718 58.0257C39.7622 59.2875 40.0704 60.5301 40.6579 61.6475L40.6097 61.6089Z" fill="#222220"/>
<path d="M23.2432 29.7077H23.2529C23.6189 29.7077 23.9945 29.65 24.3413 29.5344C25.2661 29.1298 26.0462 28.4556 26.5952 27.6079C27.3176 26.6063 28.252 25.7682 29.3307 25.1517L30.6792 24.4293L29.427 23.5528C28.7336 23.1098 27.9341 22.8592 27.1153 22.8496C26.0462 22.8592 25.0349 23.312 24.3125 24.1018C23.3493 25.2192 22.02 25.9802 20.5656 26.2498L19.2073 26.3173L19.7565 27.5695C20.4307 28.8794 21.7696 29.6981 23.2432 29.7077ZM24.9771 24.7568C25.5165 24.15 26.287 23.7936 27.1057 23.7936C27.7318 23.8032 28.3483 23.9959 28.8781 24.333C26.1521 25.7874 25.5838 28.1184 24.0621 28.6482C23.8115 28.7349 23.5419 28.7831 23.2721 28.7831C22.1549 28.7831 21.1339 28.1666 20.6137 27.1842C22.3089 26.9048 23.8501 26.0476 24.9771 24.7568ZM29.379 40.5728C29.2153 37.5098 29.9667 34.466 31.556 31.8365C30.5542 34.7453 31.3344 37.9818 33.5691 40.1008C33.5691 40.1008 28.2136 33.6858 35.6977 27.1167C38.6933 24.6124 41.9587 23.0712 43.6443 21.9732C37.5568 23.9573 34.5805 21.7709 34.5805 21.7709C36.2853 23.1002 38.4814 23.6202 40.6005 23.1868C40.1766 23.3892 39.7336 23.6106 39.2616 23.861C34.1277 26.6544 29.4851 31.2488 28.7241 37.6061V37.558C27.5297 43.7996 24.8713 45.3984 24.8713 45.3984C26.9806 44.3581 28.3195 41.5456 28.6374 40.5824C28.9937 46.0727 31.6715 49.8773 34.8019 53.5376C35.7555 54.6356 36.5069 55.9071 36.9981 57.2845C36.7381 55.9071 36.1408 54.6068 35.2643 53.5087C32.3747 49.993 29.5814 45.5815 29.379 40.5728ZM53.2472 28.9757C53.5843 28.6482 54.0563 28.4941 54.5283 28.5519V30.3724C54.5187 30.825 54.403 31.2584 54.1816 31.6535H56.0021C55.7805 31.2584 55.6649 30.825 55.6553 30.3724V28.5519C56.1176 28.4941 56.5896 28.6482 56.9267 28.9757V27.714H53.2472V28.9757ZM52.4864 20.2394H52.4672C52.7465 20.4802 53.0741 20.6728 53.4304 20.7884L53.6616 20.8944V19.7L51.5232 18.8042C51.6291 19.4013 51.976 19.9215 52.4864 20.2394ZM57.5627 20.2298L57.5531 20.2394C58.0635 19.9215 58.4102 19.4013 58.5163 18.8042L56.3779 19.7V20.8847L56.5995 20.7788C56.9558 20.6632 57.2833 20.4706 57.5627 20.2298Z" fill="#222220"/>
<path d="M61.3961 15.4038C61.3961 13.6026 58.3621 11.9844 55.0197 11.9844C51.6773 11.9844 48.6432 13.6026 48.6432 15.4038L48.7107 15.8469L50.0494 23.5525L48.7107 24.3327L45.2142 26.317C45.2142 26.317 44.4339 26.7215 44.068 26.9623C42.7483 27.9255 42.4691 29.2162 43.2299 29.7749C43.4225 28.4649 44.5688 27.5017 45.8981 27.5402C47.0057 27.5692 48.0365 28.1277 48.6625 29.0428C48.8552 29.274 49.0285 29.5244 49.1825 29.7749C49.3849 30.1023 49.5872 30.3913 49.7894 30.6706H40.8701C41.6214 31.9613 42.0549 33.4157 42.1512 34.9089V54.722C42.1512 59.5381 45.8403 61.8017 49.8568 61.8017C52.9392 61.8017 53.3533 61.6572 55.0486 63.3524C56.7438 61.6572 57.1581 61.8017 60.2403 61.8017C64.228 61.8017 67.9459 59.5188 67.9459 54.722V34.9281C68.0422 33.4351 68.4757 31.9807 69.227 30.69H60.2113C60.4136 30.4106 60.616 30.1217 60.8182 29.7941C60.9819 29.5437 61.1553 29.2933 61.3384 29.0621C61.9741 28.1471 63.0046 27.5884 64.1123 27.5594C65.4416 27.521 66.5878 28.4842 66.7805 29.7941C67.551 29.2452 67.2717 27.8677 65.9425 26.9815C65.5861 26.7311 64.8059 26.3362 64.8059 26.3362L61.3384 24.2941L59.9995 23.514L61.3384 15.8083L61.3961 15.4038ZM49.9339 16.29L54.6344 17.8793V25.2575L51.1765 23.4273L49.9339 16.29ZM42.7965 31.9709H50.8971C51.5232 32.626 52.2937 33.1461 53.1414 33.4737C52.9584 34.1093 53.0065 34.7932 53.2665 35.4001C53.5749 36.0453 54.1238 36.5463 54.7981 36.8063C54.9233 37.914 55.6747 38.8386 56.7245 39.2047C56.1465 39.7922 55.5784 40.3413 55.3472 40.5628L49.9629 40.4762C49.7798 40.3895 49.6353 40.2546 49.539 40.0812V40.0138L50.4155 40.1583H50.4733C50.6467 40.1583 50.7912 40.0428 50.8201 39.8693C50.8489 39.6767 50.7237 39.5033 50.531 39.4647L49.4523 39.2914L50.6467 35.1497L49.5101 32.7609L47.6896 34.6873L47.5741 38.9929L46.3507 38.8002C46.1581 38.7617 45.9848 38.8868 45.9462 39.0794V39.0892C45.9173 39.2818 46.0425 39.4551 46.2352 39.4937L46.7457 39.5708C46.5627 39.6767 46.4374 39.7537 46.4278 39.773L46.3219 39.85V39.9753C46.0811 41.0733 46.5241 42.21 47.4296 42.8649V43.0191C47.3718 43.3946 47.6318 43.7511 48.0075 43.8185H48.123C48.4409 43.8185 48.7203 43.597 48.7877 43.2791C49.0189 43.2887 49.2405 43.2887 49.4715 43.2791H49.616L56.6763 44.5602L56.792 44.4831C57.3507 44.0882 59.4985 42.5567 60.2017 42.0076C60.404 42.181 60.6352 42.3351 60.876 42.4508C60.5485 43.4621 60.7989 44.5698 61.531 45.3404H43.4419V34.9281C43.4033 33.9167 43.1817 32.9149 42.7965 31.9709ZM59.5949 41.4972C58.8629 42.0365 57.0617 43.3465 56.4067 43.8089L50.0013 42.6916V42.5181C50.1073 42.0847 50.1651 41.6417 50.1747 41.1986L55.5686 41.2852L55.6747 41.1793C55.7613 41.0925 57.4662 39.4455 58.3331 38.4919C58.5643 38.7809 58.8339 39.0217 59.1422 39.2143C58.9881 40.0042 59.1518 40.8229 59.5949 41.4972ZM48.8936 40.3413V40.3701C49.0381 40.6399 49.2501 40.8711 49.5101 41.0252C49.5005 41.4201 49.4619 41.8053 49.3945 42.1906C49.3945 42.2773 49.3945 42.3641 49.327 42.4508V42.5855C48.884 42.5855 48.4505 42.5181 48.0267 42.3832C47.2561 41.9692 46.8227 41.1215 46.948 40.2546C47.2947 40.0138 47.6896 39.8597 48.1038 39.8018C48.4601 39.7922 48.7781 40.0042 48.8936 40.3413ZM48.2291 39.0602L48.335 34.9858L49.2982 34.0226L49.8857 35.246L48.7395 39.2143L48.2291 39.0602ZM59.5467 60.5205H58.6221L59.3445 58.1607C59.46 57.8332 58.8629 57.4093 58.6125 57.0337C59.2 57.3901 59.8069 57.7079 60.4329 57.9969C60.4329 58.074 59.5467 60.5205 59.5467 60.5205ZM62.0222 57.8813L61.9451 57.814L61.4443 60.4146C61.1264 60.4146 60.7893 60.482 60.4811 60.5013L61.0109 57.9969C61.1649 57.2553 59.171 57.0337 58.1886 55.5601C57.5433 56.0994 56.7149 56.3498 55.8865 56.2631C55.1545 56.2535 54.4321 56.1765 53.7193 56.0321C53.5941 56.0223 53.4689 56.0223 53.3437 56.0321C53.0451 56.0127 52.7561 56.1668 52.6021 56.4269L52.4576 56.6677L49.7123 56.0031L49.0574 57.1397C48.9515 57.2938 48.9707 57.5056 49.1056 57.6405L49.2886 57.8428C49.1056 58.1992 48.8744 58.5268 48.595 58.806L48.1905 58.3052C47.8822 57.8042 47.9112 57.1589 48.2579 56.6869L49.3368 54.8665L51.6389 55.2133L51.2824 54.3945C50.8008 53.3157 51.5328 51.9383 51.6099 51.1485C51.6099 51.3893 51.3595 51.4375 51.1091 51.4375H50.4445C50.3963 51.4279 50.3384 51.4279 50.2902 51.4375L49.6641 51.8132L49.1729 51.3604C49.096 51.2159 49.1248 51.0426 49.2405 50.9365L50.3769 49.6556L49.0285 48.0855L50.9549 49.0487L51.5328 48.3553C51.687 48.5093 51.6195 48.9138 51.6195 48.9138C53.0161 49.2607 53.9891 50.5321 53.9505 51.9769V52.2562C54.1432 52.5644 54.4513 52.7764 54.7981 52.8631L57.4085 53.1231C57.9286 52.9594 58.4584 52.8533 58.9977 52.786C59.46 52.786 59.9224 52.9305 60.3077 53.1809C60.4907 53.0557 60.7123 52.9786 60.9337 52.969H61.0205C62.1859 52.969 62.6771 54.0285 63.3033 54.8954C63.7752 55.5601 64.411 56.5618 64.411 56.5618C64.228 56.8314 63.9294 56.9953 63.6019 56.9953C63.4862 57.0049 63.3803 57.0049 63.2648 56.9953C62.0126 56.7641 61.8296 54.1826 61.1168 53.9804H61.0013C60.8664 53.9804 60.7411 54.0573 60.6737 54.1826C61.0013 55.0591 60.8086 55.4156 61.1649 56.109C61.4249 56.5233 61.7525 56.8989 62.1281 57.2167C62.1281 57.2167 62.08 57.602 62.0222 57.8813ZM47.9883 55.3578H47.9689L48.0846 55.6564C48.0075 55.9164 47.1213 56.292 47.1213 56.292L46.9286 55.8682C46.6782 55.2615 46.8613 54.5679 47.391 54.173L48.8454 53.2868L50.3963 53.6143C50.3865 53.9226 50.4829 54.2212 50.6659 54.4716L49.0381 54.1634L48.0749 54.8377C47.9208 54.9725 47.8918 55.1844 47.9883 55.3578ZM66.6168 54.7316C66.7227 57.4093 64.8637 59.7596 62.2341 60.2797L62.6771 57.9489C62.6771 57.814 62.7253 57.6501 62.7446 57.5153C62.8795 57.5732 63.0144 57.6116 63.1491 57.6405C63.3033 57.6501 63.4574 57.6501 63.6115 57.6405C64.1413 57.6405 64.6421 57.3997 64.96 56.9759L65.3067 56.5714L65.0177 56.1765C65.0177 56.1765 64.3725 55.1554 63.8909 54.4812L63.6211 54.0767C63.0817 53.2676 62.3979 52.2466 61.0397 52.2466H60.9145C60.7219 52.2562 60.5197 52.2948 60.3366 52.3621C59.9224 52.1599 59.4697 52.054 59.0073 52.054C58.5449 52.0636 58.0827 52.1503 57.6493 52.314L57.4181 52.3815L54.8752 52.1309C54.7693 52.0828 54.6825 52.0058 54.6152 51.9095L55.1641 51.6879C55.0101 49.8482 53.2377 48.7212 52.2745 48.3455C52.2264 48.1433 52.1301 47.97 51.9856 47.8255L51.4365 47.3053L50.9549 47.8833L50.7141 48.1722L47.1502 46.7081L49.4715 49.5978L48.5565 50.9847C48.3638 51.1773 48.3542 51.4953 48.5565 51.6975L49.5197 52.3525L50.4829 51.9865H50.5792C50.5792 52.1309 50.4733 52.7186 50.4251 52.8823L48.7491 52.5933L46.9576 53.5565C46.1293 54.1537 45.8403 55.2517 46.2737 56.1765L46.476 56.61L46.7553 57.2263L47.3814 56.9663C47.1502 57.5924 47.2465 58.286 47.651 58.8157L48.0267 59.2973L48.5277 59.933L49.0862 59.3357C49.4523 58.9698 49.7413 58.546 49.9435 58.074L50.0592 57.6887L49.7894 57.3901V57.3324L50.0976 56.8314L52.3227 57.3516L52.8235 57.4671L53.0933 57.0241L53.2377 56.7833C53.2377 56.7351 53.2377 56.7255 53.3726 56.7255H53.6134C54.3744 56.8796 55.1449 56.9567 55.9155 56.9663C56.4355 56.9953 56.9557 56.9373 57.4566 56.7833L58.6894 58.1897L57.9574 60.4434V60.5783C56.8593 60.5591 55.8094 61.0117 55.0678 61.8113C53.883 60.6361 53.0451 60.5109 49.8761 60.5109C46.0715 60.5109 43.4997 58.286 43.4997 54.7316V46.0628H66.6168V54.7316ZM67.2429 31.9709C66.8478 32.9053 66.636 33.9071 66.5974 34.9281V41.4201C65.7595 41.237 65.1334 40.5244 65.0755 39.6671V39.3684H64.7865C64.2857 39.33 63.8233 39.0988 63.4766 38.7423C63.0528 38.2511 62.8216 37.6346 62.812 36.9893C62.3979 37.6636 62.4363 38.5305 62.9181 39.1661C63.2936 39.6381 63.8427 39.9561 64.4398 40.033C64.6133 41.1505 65.5089 42.0173 66.6264 42.1618V45.3404H62.5808C61.5213 44.801 61.0782 43.5391 61.5502 42.4508L61.7043 42.1039L61.348 41.9692C60.1921 41.5645 59.5563 40.322 59.9224 39.1469L59.9995 38.858L59.7297 38.7327C58.7184 38.1452 58.1597 36.9989 58.3235 35.8431C57.7937 36.3825 57.6589 37.2012 57.996 37.8754C57.8033 38.097 57.5529 38.357 57.2736 38.646C56.2622 38.4341 55.5302 37.5577 55.4917 36.5269V36.2861L55.2701 36.1994C54.6825 36.0261 54.2009 35.6215 53.9216 35.0821C53.7385 34.6391 53.7 34.1383 53.8253 33.6759C54.0179 33.7145 54.2105 33.7433 54.4032 33.7626C54.5958 33.7722 54.7981 33.7722 54.9907 33.7626C56.5512 33.7626 58.0345 33.0884 59.0747 31.9325L67.2429 31.9709ZM61.0013 25.402L62.5808 26.3652L62.9758 26.5962C62.1571 26.8178 61.4153 27.2609 60.8278 27.8773L60.7605 27.9351C60.6256 28.0796 60.5003 28.2241 60.3752 28.3783L60.2981 28.4746C60.1728 28.6287 60.0573 28.7924 59.9513 28.9658L59.8936 29.0525C59.7587 29.2452 59.6334 29.457 59.5081 29.6689C58.6317 31.4124 56.9269 32.5778 54.9907 32.7705C53.0547 32.5778 51.3499 31.4124 50.4733 29.6689C50.3481 29.457 50.2229 29.2548 50.0976 29.0525L50.0206 28.9465L49.7123 28.4457L49.6257 28.3397C49.5005 28.1857 49.3752 28.041 49.2501 27.9063L49.1825 27.8388C48.595 27.2223 47.8534 26.7793 47.0347 26.5578L47.4392 26.3266L49.0285 25.3634L50.6563 24.4002L55.0005 26.7601L59.3445 24.4772L61.0013 25.402ZM58.8629 23.4754L55.4049 25.2959V17.8889L60.0958 16.2996L58.8629 23.4754ZM55.0101 17.1087L49.8665 15.0474C50.3 14.0071 52.3227 13.121 55.0101 13.121C57.6974 13.121 59.7201 14.0071 60.1536 15.0474L55.0101 17.1087Z" fill="#222220"/>
</svg>
