<svg width="286" height="71" viewBox="0 0 286 71" fill="none" xmlns="http://www.w3.org/2000/svg">
<path d="M155.807 9.22607L129.552 12.632V20.3471L155.807 18.0205V9.22607Z" fill="#E4003A"/>
<path fill-rule="evenodd" clip-rule="evenodd" d="M150.837 26.9063L129.552 12.6396V20.3365L136.189 24.8006L137.495 25.557C135.11 25.5855 133.968 26.0664 132.821 26.7541C129.544 28.716 127.843 32.1665 127.843 37.258C127.843 45.8374 132.612 49.8994 141.696 49.8994C150.781 49.8994 155.574 45.8374 155.574 37.258C155.574 32.2925 153.952 28.8972 150.837 26.9063ZM141.696 43.6261C137.193 43.6261 135.775 41.998 135.775 37.3239C135.775 32.6497 137.182 31.0216 141.696 31.0216C146.211 31.0216 147.594 32.618 147.594 37.3239C147.594 42.0293 146.235 43.6261 141.696 43.6261ZM75.5876 37.3239C75.5876 42.006 76.9944 43.6261 81.5087 43.6261C86.023 43.6261 87.4063 41.998 87.4063 37.3239C87.4063 32.6497 86.0442 31.0216 81.5087 31.0216C76.9728 31.0216 75.5876 32.618 75.5876 37.3239ZM67.6553 37.2557C67.6553 28.6764 72.4561 24.7506 81.5087 24.7506C90.5616 24.7506 95.3834 28.6764 95.3834 37.2557C95.3834 45.8346 90.6144 49.8971 81.5087 49.8971C72.403 49.8971 67.6553 45.8346 67.6553 37.2557ZM45.3609 28.4322C46.2247 27.3448 49.7088 24.7189 53.9953 24.7189C61.1297 24.7189 65.064 28.5372 65.064 37.2109C65.064 45.8841 61.1245 49.7393 53.9713 49.7393C49.6606 49.7393 46.2007 47.1606 45.3134 46.0498V57.5146H37.7546V25.281H45.3609V28.4322ZM45.3663 37.1922C45.3663 41.8692 46.7837 43.4945 51.2874 43.4945V43.4842C55.8229 43.4842 57.1822 41.8925 57.1822 37.1922C57.1822 32.4919 55.8017 30.8899 51.2874 30.8899C46.7731 30.8899 45.3663 32.5152 45.3663 37.1922ZM207.586 25.2913V34.0439H197.55V25.2913H189.944V48.9778H197.55V40.1043H207.586V48.9778H215.195V25.2913H207.586ZM169.285 49.7393C162.126 49.7393 158.191 45.8761 158.191 37.2109C158.191 28.5606 162.123 24.7189 169.258 24.7189C173.542 24.7189 177.026 27.3448 177.895 28.4163V25.2652H185.501V48.9801H177.94V46.0498C177.052 47.1606 173.592 49.7393 169.285 49.7393ZM171.968 30.8741C167.43 30.8741 166.071 32.4709 166.071 37.1763C166.068 41.8584 167.457 43.4791 171.968 43.4791C176.48 43.4791 177.887 41.8771 177.887 37.1763C177.887 32.476 176.507 30.8741 171.968 30.8741ZM117.455 40.2252C116.861 42.7017 115.272 43.6257 111.828 43.6257C107.324 43.6257 105.909 41.9976 105.909 37.3234C105.909 32.6492 107.324 31.0211 111.828 31.0211C115.272 31.0211 116.861 31.9428 117.457 34.4351L125.39 33.8389C124.205 27.6417 119.561 24.7609 111.828 24.7609C102.775 24.7609 97.9769 28.6866 97.9769 37.266C97.9769 45.8448 102.745 49.9074 111.828 49.9074C119.556 49.9074 124.152 46.9663 125.366 40.8294L117.455 40.2252ZM235.351 36.5385L247.39 48.975H237.611L227.125 38.0695V38.6419V40.6926V48.975H219.654V25.2913H227.125V35.58L237.333 25.2913H246.743L235.351 36.5385Z" fill="#00274F"/>
</svg>
