<svg width="77" height="86" viewBox="0 0 77 86" fill="none" xmlns="http://www.w3.org/2000/svg">
<path fill-rule="evenodd" clip-rule="evenodd" d="M39.2551 0.210754L0 19.8383V66.642V66.6424H0.000793457L39.2551 85.5146L76.9996 66.6424H77.0003V66.642V19.8383L39.2551 0.210754Z" fill="url(#paint0_linear_1301_244)"/>
<path d="M48.8687 60.532L47.9074 66.7129L24.37 63.0522L25.3313 56.8713L33.8846 58.2015L38.7979 26.6102C38.3873 27.0579 37.738 27.5324 36.8501 28.0337C36.0102 28.4999 35.0663 28.9499 34.0184 29.3838C32.9769 29.776 31.9068 30.0785 30.808 30.2912C29.7508 30.5105 28.806 30.5553 27.9735 30.4259L28.9639 24.0577C30.0877 24.2324 31.2569 24.1159 32.4713 23.7079C33.7273 23.3065 34.9131 22.8088 36.0285 22.215C37.1505 21.5795 38.0513 20.9949 38.7312 20.4612C39.4526 19.934 39.8374 19.6528 39.8855 19.6177L46.9404 20.7149L40.9396 59.2988L48.8687 60.532Z" fill="#1D1D1D"/>
<defs>
<linearGradient id="paint0_linear_1301_244" x1="39.2551" y1="6.24997" x2="39.2551" y2="71.1715" gradientUnits="userSpaceOnUse">
<stop stop-color="#FFB400"/>
<stop offset="1" stop-color="#FFD233"/>
</linearGradient>
</defs>
</svg>
