<svg width="65" height="75" viewBox="0 0 65 75" fill="none" xmlns="http://www.w3.org/2000/svg">
<path fill-rule="evenodd" clip-rule="evenodd" d="M4.79469 26.5856V52.7172L32.3227 68.6117L59.8507 52.7172V26.5856L64.6421 29.3524V55.484L32.3227 74.1452L0 55.484V29.3524L4.79469 26.5856Z" fill="#FFB501"/>
<path fill-rule="evenodd" clip-rule="evenodd" d="M4.79469 47.5596V21.428L32.3227 5.53361L59.8507 21.428V47.5596L64.6421 44.7928V18.6612L32.3227 1.90735e-05L0 18.6612V44.7928L4.79469 47.5596Z" fill="#FFB501"/>
<path d="M8.96 34.768C8.96 33.648 9.232 32.64 9.776 31.744C10.336 30.848 11.088 30.144 12.032 29.632C12.976 29.104 14.032 28.84 15.2 28.84C16.48 28.84 17.584 29.152 18.512 29.776C19.456 30.384 20.184 31.272 20.696 32.44C21.208 33.592 21.464 34.992 21.464 36.64C21.464 38.704 21.192 40.456 20.648 41.896C20.12 43.32 19.36 44.4 18.368 45.136C17.376 45.872 16.208 46.24 14.864 46.24C13.808 46.24 12.824 46.008 11.912 45.544C11 45.064 10.232 44.392 9.608 43.528L11.456 41.512C11.84 42.104 12.336 42.576 12.944 42.928C13.552 43.264 14.208 43.432 14.912 43.432C15.632 43.432 16.256 43.24 16.784 42.856C17.312 42.472 17.72 41.92 18.008 41.2C18.312 40.464 18.472 39.584 18.488 38.56C18.264 38.944 17.976 39.28 17.624 39.568C17.272 39.856 16.864 40.072 16.4 40.216C15.952 40.36 15.456 40.432 14.912 40.432C13.792 40.432 12.776 40.184 11.864 39.688C10.968 39.176 10.256 38.496 9.728 37.648C9.216 36.784 8.96 35.824 8.96 34.768ZM15.176 31.528C14.616 31.528 14.096 31.68 13.616 31.984C13.152 32.272 12.776 32.664 12.488 33.16C12.2 33.64 12.056 34.168 12.056 34.744C12.056 35.32 12.192 35.848 12.464 36.328C12.752 36.792 13.136 37.168 13.616 37.456C14.096 37.728 14.624 37.864 15.2 37.864C15.776 37.864 16.296 37.728 16.76 37.456C17.24 37.168 17.624 36.792 17.912 36.328C18.2 35.848 18.344 35.328 18.344 34.768C18.344 34.176 18.192 33.64 17.888 33.16C17.6 32.68 17.216 32.288 16.736 31.984C16.272 31.68 15.752 31.528 15.176 31.528ZM31.1221 31.888H23.3941V28.96H36.2101L27.7381 46H24.0901L31.1221 31.888ZM40.9016 35.992C40.1656 35.992 39.5016 35.832 38.9096 35.512C38.3176 35.176 37.8376 34.736 37.4696 34.192C37.1176 33.632 36.9416 33.016 36.9416 32.344C36.9416 31.672 37.1176 31.064 37.4696 30.52C37.8376 29.96 38.3176 29.52 38.9096 29.2C39.5016 28.88 40.1656 28.72 40.9016 28.72C41.6376 28.72 42.3016 28.88 42.8936 29.2C43.5016 29.52 43.9816 29.96 44.3336 30.52C44.6856 31.064 44.8616 31.672 44.8616 32.344C44.8616 33.016 44.6856 33.632 44.3336 34.192C43.9816 34.736 43.5016 35.176 42.8936 35.512C42.3016 35.832 41.6376 35.992 40.9016 35.992ZM40.9016 34.384C41.2216 34.384 41.5096 34.288 41.7656 34.096C42.0216 33.904 42.2216 33.656 42.3656 33.352C42.5256 33.048 42.6056 32.72 42.6056 32.368C42.6056 31.984 42.5256 31.64 42.3656 31.336C42.2056 31.032 41.9976 30.792 41.7416 30.616C41.4856 30.424 41.2056 30.328 40.9016 30.328C40.5816 30.328 40.2936 30.424 40.0376 30.616C39.7816 30.792 39.5736 31.032 39.4136 31.336C39.2696 31.64 39.1976 31.976 39.1976 32.344C39.1976 32.712 39.2776 33.056 39.4376 33.376C39.5976 33.68 39.8056 33.928 40.0616 34.12C40.3176 34.296 40.5976 34.384 40.9016 34.384ZM50.1656 46.24C49.4296 46.24 48.7656 46.08 48.1736 45.76C47.5816 45.44 47.1016 45.008 46.7336 44.464C46.3816 43.904 46.2056 43.288 46.2056 42.616C46.2056 41.928 46.3816 41.312 46.7336 40.768C47.1016 40.224 47.5816 39.792 48.1736 39.472C48.7656 39.136 49.4296 38.968 50.1656 38.968C50.9016 38.968 51.5656 39.136 52.1576 39.472C52.7656 39.792 53.2456 40.224 53.5976 40.768C53.9496 41.312 54.1256 41.92 54.1256 42.592C54.1256 43.264 53.9496 43.88 53.5976 44.44C53.2456 44.984 52.7656 45.424 52.1576 45.76C51.5656 46.08 50.9016 46.24 50.1656 46.24ZM50.1656 44.632C50.4856 44.632 50.7736 44.536 51.0296 44.344C51.2856 44.152 51.4856 43.904 51.6296 43.6C51.7896 43.296 51.8696 42.968 51.8696 42.616C51.8696 42.232 51.7896 41.888 51.6296 41.584C51.4856 41.28 51.2776 41.04 51.0056 40.864C50.7496 40.672 50.4696 40.576 50.1656 40.576C49.8616 40.576 49.5736 40.672 49.3016 40.864C49.0456 41.04 48.8376 41.288 48.6776 41.608C48.5336 41.912 48.4616 42.24 48.4616 42.592C48.4616 42.976 48.5416 43.32 48.7016 43.624C48.8616 43.928 49.0696 44.176 49.3256 44.368C49.5816 44.544 49.8616 44.632 50.1656 44.632ZM38.3096 44.872L45.0536 36.976L51.2936 28.768L52.7576 30.064L46.1816 37.84L39.7496 46.168L38.3096 44.872Z" fill="#1D1D1D"/>
</svg>
