<svg width="250" height="65" viewBox="0 0 250 65" fill="none" xmlns="http://www.w3.org/2000/svg">
<path fill-rule="evenodd" clip-rule="evenodd" d="M33.3786 10.4589L52.2827 21.3739V43.2011L33.3786 54.1161L14.4745 43.2011V21.3739L33.3786 10.4589ZM33.3786 15.3532L48.0446 23.8211V40.7539L33.3786 49.2218L18.7126 40.7539V23.8211L33.3786 15.3532Z" fill="#009640"/>
<path fill-rule="evenodd" clip-rule="evenodd" d="M9.56329 23.4295V46.0367L33.3786 59.7874L57.1939 46.0367V23.4295L61.3391 25.8231V48.4303L33.3786 64.5747L5.41525 48.4303V25.8231L9.56329 23.4295Z" fill="#FFB501"/>
<path fill-rule="evenodd" clip-rule="evenodd" d="M33.3786 0L66.7572 19.2702L64.6845 22.8606L33.3786 4.78728L2.07261 22.8606L0 19.2702L33.3786 0Z" fill="#009640"/>
<path d="M27.845 38.5686H31.413V29.2024C31.413 28.7434 31.4271 28.2647 31.4524 27.7634L29.3516 29.5093C29.2165 29.6192 29.0785 29.698 28.9433 29.7459C28.8081 29.7938 28.6758 29.8163 28.5491 29.8163C28.3294 29.8163 28.1295 29.7684 27.9577 29.6699C27.7831 29.5713 27.6536 29.4671 27.5691 29.3573L26.3216 27.7014L32.1029 22.8466H35.3639V38.5686H38.4221V41.424H27.8479V38.5686H27.845Z" fill="#009640"/>
<path d="M82.5693 26.3553V21.4891L83.6056 20.4331L88.514 26.3553H92.738L86.0274 18.2789L92.3241 11.8583H88.1422L82.5693 17.5129V11.8583H79.3618V26.3553H82.5693Z" fill="#3A4249"/>
<path d="M97.2971 21.7989H100.093C102.208 21.7989 103.76 21.323 104.754 20.3486C105.748 19.3968 106.244 18.2366 106.244 16.8483C106.244 15.5417 105.911 14.4659 105.044 13.4719C104.174 12.4778 102.436 11.8583 100.093 11.8583H94.0869V26.3553H97.2943V21.7989H97.2971ZM100.178 14.8574C102.003 14.8574 102.912 15.522 102.912 16.8258C102.912 18.1324 101.958 18.7942 100.051 18.7942H97.2943V14.8545H100.178V14.8574Z" fill="#3A4249"/>
<path d="M119.583 26.3553V23.3534H111.527V20.4528H118.879V17.5551H111.527V14.8574H119.398V11.8583H108.319V26.3553H119.583Z" fill="#3A4249"/>
<path d="M123.667 28.78V26.3553H132.971V28.78H135.973V23.3563H134.294V11.8612H123.754V13.5987C123.754 17.9692 123.255 21.2217 122.242 23.3563H120.668V28.78H123.667ZM131.084 14.8574V23.3534H125.551C126.297 21.6131 126.711 19.0449 126.792 15.6656L126.812 14.8574H131.084Z" fill="#3A4249"/>
<path d="M147.426 17.5129V26.3553H150.636V11.8583H147.966L140.94 20.7429V11.8583H137.733V26.3553H140.36L147.426 17.5129Z" fill="#3A4249"/>
<path d="M156.831 14.8574V26.3553H160.039V14.8574H164.699V11.8583H152.19V14.8574H156.831Z" fill="#3A4249"/>
<path d="M179.117 26.3553V11.8583H175.91V17.5551H169.464V11.8583H166.256V26.3553H169.464V20.5542H175.91V26.3553H179.117Z" fill="#3A4249"/>
<path d="M183.905 26.3553L185.085 23.6631H191.153L192.333 26.3553H195.687L189.328 11.8583H186.946L180.587 26.3553H183.905ZM189.973 20.9513H186.203L188.109 16.623L189.973 20.9513Z" fill="#3A4249"/>
<path d="M208.987 26.3553V11.8583H202.919C200.95 11.8583 199.458 12.3145 198.424 13.2241C197.368 14.1336 196.85 15.3164 196.85 16.7469C196.85 18.8815 197.988 20.3289 200.08 20.971L195.816 26.3553H199.604L203.313 21.5708H205.78V26.3553H208.987ZM202.609 18.5689C201.178 18.5689 200.184 17.7804 200.184 16.7244C200.184 15.4797 201.035 14.8602 202.733 14.8602H205.78V18.5717H202.609V18.5689Z" fill="#3A4249"/>
<path d="M82.5693 50.106V45.2398L83.6056 44.1838L88.514 50.106H92.738L86.0274 42.0296L92.3241 35.609H88.1422L82.5693 41.2636V35.609H79.3618V50.106H82.5693Z" fill="#3A4249"/>
<path d="M92.431 42.8573C92.431 44.9918 93.1548 46.7744 94.605 48.2021C96.0553 49.6298 97.8153 50.3536 99.9076 50.3536C102 50.3536 103.763 49.6298 105.21 48.2021C106.638 46.7744 107.362 44.9918 107.362 42.8573C107.362 40.7227 106.638 38.9204 105.21 37.4927C103.76 36.065 102 35.3609 99.9076 35.3609C97.8153 35.3609 96.0328 36.0847 94.605 37.5349C93.1548 38.9852 92.431 40.7649 92.431 42.8573ZM96.9874 39.6892C97.7956 38.881 98.7699 38.467 99.9104 38.467C101.009 38.467 101.983 38.881 102.811 39.6892C103.619 40.4974 104.033 41.5534 104.033 42.8601C104.033 44.1639 103.639 45.2227 102.853 46.0309C102.065 46.8391 101.09 47.2531 99.9104 47.2531C98.7699 47.2531 97.7956 46.8391 96.9874 46.0309C96.1792 45.2227 95.7652 44.1667 95.7652 42.8601C95.7624 41.5534 96.1792 40.4974 96.9874 39.6892Z" fill="#3A4249"/>
<path d="M122.402 50.106V35.609H119.195V41.3058H112.749V35.609H109.541V50.106H112.749V44.3077H119.195V50.106H122.402Z" fill="#3A4249"/>
<path d="M136.26 45.3241C135.243 46.6082 133.897 47.2503 132.261 47.2503C130.997 47.2503 129.963 46.8363 129.155 46.0281C128.327 45.2199 127.913 44.1639 127.913 42.8573C127.913 41.5112 128.327 40.4523 129.135 39.6441C129.944 38.8557 131 38.4642 132.303 38.4642C133.545 38.4642 134.934 39.0443 135.762 40.1003L137.935 38.1122C136.879 36.4564 134.663 35.3609 132.072 35.3609C129.856 35.3609 128.054 36.0847 126.666 37.5124C125.28 38.9627 124.576 40.7452 124.576 42.8573C124.576 45.1157 125.258 46.918 126.604 48.2838C127.95 49.6693 129.73 50.3536 131.988 50.3536C134.579 50.3536 136.857 49.2778 138.161 47.3742L136.26 45.3241Z" fill="#3A4249"/>
<path d="M146.555 42.8179L142.145 35.6117H138.169L144.922 46.2394C144.652 46.8195 144.3 47.1096 143.886 47.1096C143.534 47.1096 143.224 46.9237 142.996 46.5717L140.926 48.4556C141.672 49.5539 142.644 50.1115 143.846 50.1115C145.773 50.1115 146.89 49.0357 147.989 46.7181L153.249 35.6145H149.895L146.555 42.8179Z" fill="#3A4249"/>
<path d="M166.172 50.106V35.609H155.299L155.279 37.2451C155.237 40.3287 155.113 42.5674 154.927 43.9952C154.719 45.4257 154.429 46.3184 154.057 46.6901C153.686 47.0844 153.106 47.228 152.297 47.1238V50.1032C152.568 50.1454 152.835 50.1651 153.125 50.1651C154.452 50.1651 155.175 50.0412 156.088 49.2949C157.392 48.2389 158.011 45.7946 158.343 40.3878L158.425 38.7094H162.964V50.1032H166.172V50.106Z" fill="#3A4249"/>
<path d="M174.997 43.4178C176.862 43.4178 177.794 44.0176 177.794 45.2201C177.794 46.4845 176.839 47.1068 174.933 47.1068H172.3V43.4178H174.997ZM169.073 35.6089V50.1059H174.871C178.847 50.1059 181.125 48.3881 181.125 45.2173C181.125 42.007 179.098 40.4131 175.037 40.4131H172.303V35.6061H169.073V35.6089Z" fill="#3A4249"/>
<path d="M184.029 38.6109V50.106H187.236V38.6109H191.897V35.609H179.388V38.6109H184.029Z" fill="#3A4249"/>
<path d="M193.392 50.106L194.572 47.4138H200.64L201.82 50.106H205.174L198.816 35.609H196.433L190.075 50.106H193.392ZM199.46 44.7048H195.69L197.596 40.3765L199.46 44.7048Z" fill="#3A4249"/>
<path d="M217.627 50.106V52.5306H220.606V47.1069H218.931V35.609H215.72V47.1069H209.857V35.609H206.65V50.106H217.627Z" fill="#3A4249"/>
<path d="M232.065 41.2636V50.106H235.272V35.609H232.602L225.579 44.4936V35.609H222.372V50.106H224.999L232.065 41.2636Z" fill="#3A4249"/>
<path d="M250 50.106V35.609H243.931C241.963 35.609 240.47 36.0652 239.437 36.9748C238.381 37.8843 237.863 39.0643 237.863 40.4948C237.863 42.6294 239 44.0796 241.093 44.7189L236.829 50.106H240.617L244.326 45.3215H246.792V50.106H250ZM243.622 42.3224C242.191 42.3224 241.197 41.5339 241.197 40.4779C241.197 39.2332 242.047 38.6137 243.745 38.6137H246.792V42.3252H243.622V42.3224Z" fill="#3A4249"/>
<path d="M233.242 11.8583H230.158V20.6809L223.464 11.8583H221.023V26.3553H224.087V17.5748L230.8 26.3553H233.242V11.8583ZM234.033 16.4541C234.033 17.5946 234.405 18.5041 235.131 19.2307C235.858 19.9572 236.807 20.3064 237.989 20.3064C239.172 20.3064 240.144 19.9544 240.868 19.2307C241.591 18.507 241.966 17.5946 241.966 16.4541C241.966 14.1534 240.394 12.6242 237.989 12.6242C235.604 12.6242 234.033 14.1562 234.033 16.4541ZM237.136 15.5417C237.345 15.3136 237.635 15.2094 237.987 15.2094C238.671 15.2094 239.169 15.7078 239.169 16.4541C239.169 17.2623 238.733 17.7185 237.987 17.7185C237.654 17.7185 237.384 17.5946 237.156 17.3665C236.722 16.9103 236.722 15.9782 237.136 15.5417ZM241.572 23.849V21.1597H234.427V23.849H241.572Z" fill="#009640"/>
<path d="M244.306 16.8483L246.897 15.6684V26.3553H250V11.8583H247.972L243.211 14.2407L244.306 16.8483Z" fill="#009640"/>
</svg>
