<svg width="335" height="59" viewBox="0 0 335 59" fill="none" xmlns="http://www.w3.org/2000/svg">
<path d="M63.62 37V22.8H65.86V28.74H67.52L71.98 22.8H74.54L69.32 29.68L74.92 37H72.18L67.52 30.8H65.86V37H63.62ZM82.6389 37.2C81.7989 37.2 81.0589 37 80.4189 36.6C79.7789 36.2 79.2722 35.68 78.8989 35.04V41.26H76.6989V26.54H78.6389V28.42C79.0389 27.7933 79.5589 27.2933 80.1989 26.92C80.8389 26.5467 81.5522 26.36 82.3389 26.36C83.0589 26.36 83.7189 26.5067 84.3189 26.8C84.9189 27.08 85.4389 27.4733 85.8789 27.98C86.3189 28.4867 86.6589 29.0667 86.8989 29.72C87.1522 30.36 87.2789 31.04 87.2789 31.76C87.2789 32.76 87.0789 33.6733 86.6789 34.5C86.2922 35.3267 85.7456 35.9867 85.0389 36.48C84.3456 36.96 83.5456 37.2 82.6389 37.2ZM81.9189 35.32C82.3856 35.32 82.8056 35.22 83.1789 35.02C83.5656 34.82 83.8922 34.5533 84.1589 34.22C84.4389 33.8867 84.6522 33.5067 84.7989 33.08C84.9456 32.6533 85.0189 32.2133 85.0189 31.76C85.0189 31.28 84.9389 30.8267 84.7789 30.4C84.6189 29.9733 84.3856 29.6 84.0789 29.28C83.7856 28.96 83.4389 28.7067 83.0389 28.52C82.6522 28.3333 82.2256 28.24 81.7589 28.24C81.4789 28.24 81.1856 28.2933 80.8789 28.4C80.5722 28.5067 80.2856 28.6533 80.0189 28.84C79.7522 29.0267 79.5189 29.2467 79.3189 29.5C79.1189 29.7533 78.9789 30.02 78.8989 30.3V33.04C79.0856 33.4667 79.3322 33.8533 79.6389 34.2C79.9456 34.5333 80.2989 34.8067 80.6989 35.02C81.0989 35.22 81.5056 35.32 81.9189 35.32ZM93.9975 37.2C93.1842 37.2 92.4442 37.06 91.7775 36.78C91.1242 36.4867 90.5575 36.0933 90.0775 35.6C89.5975 35.0933 89.2242 34.52 88.9575 33.88C88.7042 33.2267 88.5775 32.5333 88.5775 31.8C88.5775 30.8133 88.8042 29.9133 89.2575 29.1C89.7108 28.2733 90.3442 27.6133 91.1575 27.12C91.9708 26.6133 92.9242 26.36 94.0175 26.36C95.1108 26.36 96.0508 26.6133 96.8375 27.12C97.6375 27.6133 98.2575 28.2667 98.6975 29.08C99.1375 29.8933 99.3575 30.7667 99.3575 31.7C99.3575 31.86 99.3508 32.0133 99.3375 32.16C99.3242 32.2933 99.3108 32.4067 99.2975 32.5H90.9175C90.9575 33.1133 91.1242 33.6533 91.4175 34.12C91.7242 34.5733 92.1108 34.9333 92.5775 35.2C93.0442 35.4533 93.5442 35.58 94.0775 35.58C94.6642 35.58 95.2175 35.4333 95.7375 35.14C96.2708 34.8467 96.6308 34.46 96.8175 33.98L98.6975 34.52C98.4708 35.0267 98.1242 35.4867 97.6575 35.9C97.2042 36.3 96.6642 36.62 96.0375 36.86C95.4108 37.0867 94.7308 37.2 93.9975 37.2ZM90.8575 31.04H97.1775C97.1375 30.44 96.9642 29.9133 96.6575 29.46C96.3642 28.9933 95.9842 28.6333 95.5175 28.38C95.0642 28.1133 94.5575 27.98 93.9975 27.98C93.4508 27.98 92.9442 28.1133 92.4775 28.38C92.0242 28.6333 91.6508 28.9933 91.3575 29.46C91.0642 29.9133 90.8975 30.44 90.8575 31.04ZM100.152 39.5V35.06H100.392C100.672 35.06 100.932 34.98 101.172 34.82C101.412 34.66 101.625 34.3867 101.812 34C101.999 33.6 102.152 33.0533 102.272 32.36C102.392 31.6533 102.465 30.7667 102.492 29.7L102.612 26.54H110.072V35.06H111.512V39.5H109.572V37H102.072V39.5H100.152ZM103.292 35.06H107.872V28.44H104.552L104.492 29.9C104.452 30.9133 104.379 31.7667 104.272 32.46C104.179 33.1533 104.045 33.7067 103.872 34.12C103.712 34.5333 103.519 34.8467 103.292 35.06ZM113.379 37V26.56H115.579V34.06L120.879 26.54H122.879V37H120.679V29.66L115.439 37H113.379ZM127.988 37V28.48H124.528V26.54H133.668V28.48H130.188V37H127.988ZM135.312 37V26.54H137.512V30.7H142.372V26.54H144.572V37H142.372V32.6H137.512V37H135.312ZM146.466 33.94C146.466 33.2733 146.653 32.6933 147.026 32.2C147.413 31.6933 147.94 31.3067 148.606 31.04C149.273 30.76 150.046 30.62 150.926 30.62C151.393 30.62 151.866 30.6533 152.346 30.72C152.84 30.7867 153.273 30.8933 153.646 31.04V30.38C153.646 29.6467 153.426 29.0733 152.986 28.66C152.546 28.2467 151.913 28.04 151.086 28.04C150.5 28.04 149.946 28.1467 149.426 28.36C148.906 28.56 148.353 28.8467 147.766 29.22L147.026 27.74C147.72 27.2733 148.413 26.9267 149.106 26.7C149.813 26.4733 150.553 26.36 151.326 26.36C152.726 26.36 153.826 26.7333 154.626 27.48C155.44 28.2133 155.846 29.26 155.846 30.62V34.52C155.846 34.7733 155.886 34.9533 155.966 35.06C156.06 35.1667 156.213 35.2267 156.426 35.24V37C156.226 37.04 156.046 37.0667 155.886 37.08C155.726 37.0933 155.593 37.1 155.486 37.1C155.02 37.1 154.666 36.9867 154.426 36.76C154.186 36.5333 154.046 36.2667 154.006 35.96L153.946 35.36C153.493 35.9467 152.913 36.4 152.206 36.72C151.5 37.04 150.786 37.2 150.066 37.2C149.373 37.2 148.753 37.06 148.206 36.78C147.66 36.4867 147.233 36.0933 146.926 35.6C146.62 35.1067 146.466 34.5533 146.466 33.94ZM153.126 34.58C153.286 34.4067 153.413 34.2333 153.506 34.06C153.6 33.8867 153.646 33.7333 153.646 33.6V32.4C153.273 32.2533 152.88 32.1467 152.466 32.08C152.053 32 151.646 31.96 151.246 31.96C150.446 31.96 149.793 32.12 149.286 32.44C148.793 32.76 148.546 33.2 148.546 33.76C148.546 34.0667 148.626 34.36 148.786 34.64C148.96 34.92 149.2 35.1467 149.506 35.32C149.826 35.4933 150.22 35.58 150.686 35.58C151.166 35.58 151.626 35.4867 152.066 35.3C152.506 35.1133 152.86 34.8733 153.126 34.58ZM157.855 37L160.655 32.86C160.002 32.7 159.482 32.3667 159.095 31.86C158.709 31.3533 158.515 30.6733 158.515 29.82C158.515 29.1667 158.662 28.5933 158.955 28.1C159.262 27.6067 159.689 27.22 160.235 26.94C160.782 26.66 161.415 26.52 162.135 26.52H166.735V37H164.535V33.22H162.815L160.255 37H157.855ZM162.355 31.62H164.535V28.22H162.495C161.935 28.22 161.489 28.3733 161.155 28.68C160.835 28.9867 160.675 29.3867 160.675 29.88C160.675 30.3733 160.815 30.7867 161.095 31.12C161.389 31.4533 161.809 31.62 162.355 31.62ZM174.336 37V26.54H176.516V30.68H177.556L180.636 26.54H183.076L179.256 31.6L183.516 37H180.976L177.536 32.66H176.516V37H174.336ZM189.348 37.2C188.521 37.2 187.781 37.06 187.128 36.78C186.475 36.4867 185.908 36.0867 185.428 35.58C184.961 35.0733 184.601 34.5 184.348 33.86C184.095 33.2067 183.968 32.5133 183.968 31.78C183.968 31.0467 184.095 30.3533 184.348 29.7C184.601 29.0467 184.961 28.4733 185.428 27.98C185.908 27.4733 186.475 27.08 187.128 26.8C187.795 26.5067 188.535 26.36 189.348 26.36C190.161 26.36 190.895 26.5067 191.548 26.8C192.215 27.08 192.781 27.4733 193.248 27.98C193.728 28.4733 194.095 29.0467 194.348 29.7C194.601 30.3533 194.728 31.0467 194.728 31.78C194.728 32.5133 194.601 33.2067 194.348 33.86C194.095 34.5 193.728 35.0733 193.248 35.58C192.781 36.0867 192.215 36.4867 191.548 36.78C190.895 37.06 190.161 37.2 189.348 37.2ZM186.228 31.8C186.228 32.4667 186.368 33.0667 186.648 33.6C186.928 34.1333 187.301 34.5533 187.768 34.86C188.235 35.1667 188.761 35.32 189.348 35.32C189.921 35.32 190.441 35.1667 190.908 34.86C191.388 34.54 191.768 34.1133 192.048 33.58C192.328 33.0333 192.468 32.4333 192.468 31.78C192.468 31.1133 192.328 30.5133 192.048 29.98C191.768 29.4467 191.388 29.0267 190.908 28.72C190.441 28.4 189.921 28.24 189.348 28.24C188.761 28.24 188.235 28.4 187.768 28.72C187.301 29.04 186.928 29.4667 186.648 30C186.368 30.52 186.228 31.12 186.228 31.8ZM196.679 37V26.54H198.879V30.7H203.739V26.54H205.939V37H203.739V32.6H198.879V37H196.679ZM213.333 37.2C212.52 37.2 211.78 37.06 211.113 36.78C210.46 36.4867 209.893 36.0867 209.413 35.58C208.933 35.0733 208.56 34.4933 208.293 33.84C208.04 33.1867 207.913 32.4933 207.913 31.76C207.913 30.7733 208.133 29.8733 208.573 29.06C209.027 28.2467 209.653 27.5933 210.453 27.1C211.267 26.6067 212.227 26.36 213.333 26.36C214.4 26.36 215.327 26.6 216.113 27.08C216.913 27.5467 217.5 28.1733 217.873 28.96L215.733 29.64C215.493 29.2 215.153 28.86 214.713 28.62C214.287 28.3667 213.813 28.24 213.293 28.24C212.707 28.24 212.173 28.3933 211.693 28.7C211.227 28.9933 210.853 29.4067 210.573 29.94C210.307 30.46 210.173 31.0667 210.173 31.76C210.173 32.4267 210.313 33.0333 210.593 33.58C210.873 34.1133 211.247 34.54 211.713 34.86C212.193 35.1667 212.727 35.32 213.313 35.32C213.673 35.32 214.02 35.26 214.353 35.14C214.7 35.0067 215 34.8333 215.253 34.62C215.507 34.3933 215.687 34.1467 215.793 33.88L217.953 34.52C217.727 35.04 217.387 35.5 216.933 35.9C216.493 36.3 215.967 36.62 215.353 36.86C214.753 37.0867 214.08 37.2 213.333 37.2ZM220.99 41.44C220.75 41.44 220.497 41.4067 220.23 41.34C219.963 41.2733 219.683 41.1733 219.39 41.04L219.95 39.4C220.11 39.48 220.263 39.54 220.41 39.58C220.557 39.62 220.69 39.64 220.81 39.64C221.143 39.64 221.443 39.5 221.71 39.22C221.99 38.9533 222.237 38.5467 222.45 38L222.85 36.92L218.43 26.54H220.73L223.93 34.76L226.77 26.54H228.89L224.29 38.6C224.063 39.2267 223.777 39.7467 223.43 40.16C223.097 40.5733 222.723 40.8867 222.31 41.1C221.897 41.3267 221.457 41.44 220.99 41.44ZM229.668 37.1V35.14C230.001 35.14 230.301 35.06 230.568 34.9C230.834 34.7267 231.068 34.4467 231.268 34.06C231.468 33.66 231.628 33.1067 231.748 32.4C231.868 31.6933 231.948 30.7933 231.988 29.7L232.127 26.54H239.588V37H237.388V28.48H234.068L234.028 29.9C233.974 31.3 233.848 32.4667 233.648 33.4C233.448 34.32 233.168 35.0533 232.808 35.6C232.461 36.1333 232.021 36.52 231.488 36.76C230.968 36.9867 230.361 37.1 229.668 37.1ZM242.226 37V26.54H244.426V29.98H246.926C248.166 29.98 249.106 30.2933 249.746 30.92C250.4 31.5467 250.726 32.3733 250.726 33.4C250.726 34.0933 250.586 34.7133 250.306 35.26C250.026 35.8067 249.613 36.2333 249.066 36.54C248.533 36.8467 247.866 37 247.066 37H242.226ZM244.426 35.3H246.726C247.166 35.3 247.52 35.22 247.786 35.06C248.053 34.8867 248.253 34.66 248.386 34.38C248.52 34.0867 248.586 33.7733 248.586 33.44C248.586 33.1067 248.526 32.8067 248.406 32.54C248.286 32.26 248.086 32.04 247.806 31.88C247.54 31.7067 247.173 31.62 246.706 31.62H244.426V35.3ZM251.759 33.94C251.759 33.2733 251.946 32.6933 252.319 32.2C252.706 31.6933 253.233 31.3067 253.899 31.04C254.566 30.76 255.339 30.62 256.219 30.62C256.686 30.62 257.159 30.6533 257.639 30.72C258.133 30.7867 258.566 30.8933 258.939 31.04V30.38C258.939 29.6467 258.719 29.0733 258.279 28.66C257.839 28.2467 257.206 28.04 256.379 28.04C255.793 28.04 255.239 28.1467 254.719 28.36C254.199 28.56 253.646 28.8467 253.059 29.22L252.319 27.74C253.013 27.2733 253.706 26.9267 254.399 26.7C255.106 26.4733 255.846 26.36 256.619 26.36C258.019 26.36 259.119 26.7333 259.919 27.48C260.733 28.2133 261.139 29.26 261.139 30.62V34.52C261.139 34.7733 261.179 34.9533 261.259 35.06C261.353 35.1667 261.506 35.2267 261.719 35.24V37C261.519 37.04 261.339 37.0667 261.179 37.08C261.019 37.0933 260.886 37.1 260.779 37.1C260.313 37.1 259.959 36.9867 259.719 36.76C259.479 36.5333 259.339 36.2667 259.299 35.96L259.239 35.36C258.786 35.9467 258.206 36.4 257.499 36.72C256.793 37.04 256.079 37.2 255.359 37.2C254.666 37.2 254.046 37.06 253.499 36.78C252.953 36.4867 252.526 36.0933 252.219 35.6C251.913 35.1067 251.759 34.5533 251.759 33.94ZM258.419 34.58C258.579 34.4067 258.706 34.2333 258.799 34.06C258.893 33.8867 258.939 33.7333 258.939 33.6V32.4C258.566 32.2533 258.173 32.1467 257.759 32.08C257.346 32 256.939 31.96 256.539 31.96C255.739 31.96 255.086 32.12 254.579 32.44C254.086 32.76 253.839 33.2 253.839 33.76C253.839 34.0667 253.919 34.36 254.079 34.64C254.253 34.92 254.493 35.1467 254.799 35.32C255.119 35.4933 255.513 35.58 255.979 35.58C256.459 35.58 256.919 35.4867 257.359 35.3C257.799 35.1133 258.153 34.8733 258.419 34.58ZM272.008 39.5V37H263.808V26.54H266.008V35.08H270.288V26.54H272.488V35.08H273.948V39.5H272.008ZM275.8 37V26.56H278V34.06L283.3 26.54H285.3V37H283.1V29.66L277.86 37H275.8ZM287.269 37L290.069 32.86C289.416 32.7 288.896 32.3667 288.509 31.86C288.123 31.3533 287.929 30.6733 287.929 29.82C287.929 29.1667 288.076 28.5933 288.369 28.1C288.676 27.6067 289.103 27.22 289.649 26.94C290.196 26.66 290.829 26.52 291.549 26.52H296.149V37H293.949V33.22H292.229L289.669 37H287.269ZM291.769 31.62H293.949V28.22H291.909C291.349 28.22 290.903 28.3733 290.569 28.68C290.249 28.9867 290.089 29.3867 290.089 29.88C290.089 30.3733 290.229 30.7867 290.509 31.12C290.803 31.4533 291.223 31.62 291.769 31.62ZM306.37 27V37H304.11V22.8H305.87L313.99 33.04V22.82H316.25V37H314.39L306.37 27ZM321.57 30.16C320.81 30.16 320.15 29.9933 319.59 29.66C319.043 29.3133 318.623 28.86 318.33 28.3C318.036 27.7267 317.89 27.12 317.89 26.48C317.89 25.8 318.036 25.18 318.33 24.62C318.636 24.06 319.063 23.6133 319.61 23.28C320.17 22.9333 320.823 22.76 321.57 22.76C322.33 22.76 322.976 22.9333 323.51 23.28C324.056 23.6133 324.483 24.06 324.79 24.62C325.096 25.18 325.25 25.8 325.25 26.48C325.25 27.12 325.096 27.7267 324.79 28.3C324.496 28.86 324.076 29.3133 323.53 29.66C322.983 29.9933 322.33 30.16 321.57 30.16ZM319.59 26.48C319.59 26.9067 319.676 27.2933 319.85 27.64C320.036 27.9733 320.276 28.24 320.57 28.44C320.863 28.6267 321.196 28.72 321.57 28.72C321.943 28.72 322.276 28.62 322.57 28.42C322.863 28.22 323.096 27.9533 323.27 27.62C323.456 27.2733 323.55 26.8867 323.55 26.46C323.55 26.02 323.456 25.6333 323.27 25.3C323.096 24.9667 322.856 24.7067 322.55 24.52C322.256 24.32 321.93 24.22 321.57 24.22C321.21 24.22 320.876 24.32 320.57 24.52C320.276 24.7067 320.036 24.9733 319.85 25.32C319.676 25.6667 319.59 26.0533 319.59 26.48ZM334.415 35.02V37H326.875V35.02H329.615V24.9C329.508 25.06 329.328 25.24 329.075 25.44C328.835 25.6267 328.561 25.8133 328.255 26C327.948 26.1733 327.628 26.32 327.295 26.44C326.975 26.56 326.681 26.62 326.415 26.62V24.58C326.775 24.58 327.135 24.4867 327.495 24.3C327.868 24.1133 328.215 23.9 328.535 23.66C328.855 23.4067 329.108 23.18 329.295 22.98C329.495 22.78 329.601 22.6733 329.615 22.66H331.875V35.02H334.415Z" fill="#1D1D1D"/>
<path fill-rule="evenodd" clip-rule="evenodd" d="M27 1L1 14V45L27 57.5L52 45V14L27 1Z" fill="#1D1D1D"/>
<path d="M1 14L0.776393 13.5528L0.5 13.691V14H1ZM27 1L27.2307 0.556392L27.0045 0.438756L26.7764 0.552786L27 1ZM1 45H0.5V45.3144L0.783353 45.4506L1 45ZM27 57.5L26.7834 57.9506L27.0043 58.0569L27.2236 57.9472L27 57.5ZM52 45L52.2236 45.4472L52.5 45.309V45H52ZM52 14H52.5V13.6964L52.2307 13.5564L52 14ZM1.22361 14.4472L27.2236 1.44721L26.7764 0.552786L0.776393 13.5528L1.22361 14.4472ZM1.5 45V14H0.5V45H1.5ZM27.2166 57.0494L1.21665 44.5494L0.783353 45.4506L26.7834 57.9506L27.2166 57.0494ZM51.7764 44.5528L26.7764 57.0528L27.2236 57.9472L52.2236 45.4472L51.7764 44.5528ZM51.5 14V45H52.5V14H51.5ZM26.7693 1.44361L51.7693 14.4436L52.2307 13.5564L27.2307 0.556392L26.7693 1.44361Z" fill="#C79852"/>
<path d="M13.94 27V37H11.68V22.8H13.44L21.56 33.04V22.82H23.82V37H21.96L13.94 27ZM29.14 30.16C28.38 30.16 27.72 29.9933 27.16 29.66C26.6133 29.3133 26.1933 28.86 25.9 28.3C25.6067 27.7267 25.46 27.12 25.46 26.48C25.46 25.8 25.6067 25.18 25.9 24.62C26.2067 24.06 26.6333 23.6133 27.18 23.28C27.74 22.9333 28.3933 22.76 29.14 22.76C29.9 22.76 30.5467 22.9333 31.08 23.28C31.6267 23.6133 32.0533 24.06 32.36 24.62C32.6667 25.18 32.82 25.8 32.82 26.48C32.82 27.12 32.6667 27.7267 32.36 28.3C32.0667 28.86 31.6467 29.3133 31.1 29.66C30.5533 29.9933 29.9 30.16 29.14 30.16ZM27.16 26.48C27.16 26.9067 27.2467 27.2933 27.42 27.64C27.6067 27.9733 27.8467 28.24 28.14 28.44C28.4333 28.6267 28.7667 28.72 29.14 28.72C29.5133 28.72 29.8467 28.62 30.14 28.42C30.4333 28.22 30.6667 27.9533 30.84 27.62C31.0267 27.2733 31.12 26.8867 31.12 26.46C31.12 26.02 31.0267 25.6333 30.84 25.3C30.6667 24.9667 30.4267 24.7067 30.12 24.52C29.8267 24.32 29.5 24.22 29.14 24.22C28.78 24.22 28.4467 24.32 28.14 24.52C27.8467 24.7067 27.6067 24.9733 27.42 25.32C27.2467 25.6667 27.16 26.0533 27.16 26.48ZM41.985 35.02V37H34.445V35.02H37.185V24.9C37.0783 25.06 36.8983 25.24 36.645 25.44C36.405 25.6267 36.1317 25.8133 35.825 26C35.5183 26.1733 35.1983 26.32 34.865 26.44C34.545 26.56 34.2517 26.62 33.985 26.62V24.58C34.345 24.58 34.705 24.4867 35.065 24.3C35.4383 24.1133 35.785 23.9 36.105 23.66C36.425 23.4067 36.6783 23.18 36.865 22.98C37.065 22.78 37.1717 22.6733 37.185 22.66H39.445V35.02H41.985Z" fill="#FFB800"/>
</svg>
