<svg width="190" height="50" viewBox="0 0 190 50" fill="none" xmlns="http://www.w3.org/2000/svg">
<path fill-rule="evenodd" clip-rule="evenodd" d="M25.3676 8.69824L39.7347 16.9936V33.5823L25.3676 41.8777L11.0005 33.5823V16.9936L25.3676 8.69824ZM25.3676 12.4179L36.5137 18.8535V31.7224L25.3676 38.158L14.2215 31.7224V18.8535L25.3676 12.4179Z" fill="#009640"/>
<path fill-rule="evenodd" clip-rule="evenodd" d="M7.26823 18.5557V35.7371L25.3678 46.1877L43.4675 35.7371V18.5557L46.6178 20.3748V37.5563L25.3678 49.826L4.11572 37.5563V20.3748L7.26823 18.5557Z" fill="#2D2D2D"/>
<path fill-rule="evenodd" clip-rule="evenodd" d="M25.3677 0.749023L50.7354 15.3944L49.1603 18.1231L25.3677 4.38735L1.57518 18.1231L0 15.3944L25.3677 0.749023Z" fill="#009640"/>
<path d="M21.1622 30.061H23.8739V22.9427C23.8739 22.5939 23.8846 22.23 23.9038 21.8491L22.3072 23.176C22.2045 23.2595 22.0996 23.3194 21.9969 23.3558C21.8942 23.3922 21.7936 23.4093 21.6973 23.4093C21.5304 23.4093 21.3784 23.3729 21.2478 23.298C21.1152 23.2231 21.0167 23.1439 20.9525 23.0604L20.0044 21.802L24.3982 18.1123H26.8766V30.061H29.2008V32.2312H21.1644V30.061H21.1622Z" fill="#009640"/>
<path d="M62.7526 20.7794V17.0812L63.5402 16.2786L67.2706 20.7794H70.4809L65.3808 14.6414L70.1663 9.76172H66.9881L62.7526 14.0592V9.76172H60.3149V20.7794H62.7526Z" fill="#2D2D2D"/>
<path d="M73.9459 17.3166H76.0711C77.6784 17.3166 78.8577 16.9549 79.6132 16.2144C80.3686 15.491 80.7453 14.6093 80.7453 13.5541C80.7453 12.5611 80.4928 11.7435 79.8336 10.988C79.1723 10.2326 77.8518 9.76172 76.0711 9.76172H71.5061V20.7794H73.9438V17.3166H73.9459ZM76.1353 12.041C77.5222 12.041 78.2135 12.5461 78.2135 13.537C78.2135 14.5301 77.4879 15.033 76.039 15.033H73.9438V12.0389H76.1353V12.041Z" fill="#2D2D2D"/>
<path d="M90.8833 20.7794V18.498H84.7602V16.2936H90.3482V14.0913H84.7602V12.041H90.742V9.76172H82.3225V20.7794H90.8833Z" fill="#2D2D2D"/>
<path d="M93.9868 22.622V20.7793H101.058V22.622H103.339V18.4999H102.064V9.76367H94.0532V11.0842C94.0532 14.4058 93.6744 16.8777 92.9039 18.4999H91.7075V22.622H93.9868ZM99.6241 12.0408V18.4978H95.4186C95.9858 17.1752 96.3004 15.2233 96.3624 12.6551L96.3774 12.0408H99.6241Z" fill="#2D2D2D"/>
<path d="M112.043 14.0592V20.7794H114.483V9.76172H112.454L107.114 16.514V9.76172H104.677V20.7794H106.674L112.043 14.0592Z" fill="#2D2D2D"/>
<path d="M119.191 12.041V20.7794H121.629V12.041H125.171V9.76172H115.664V12.041H119.191Z" fill="#2D2D2D"/>
<path d="M136.129 20.7794V9.76172H133.691V14.0913H128.792V9.76172H126.355V20.7794H128.792V16.3706H133.691V20.7794H136.129Z" fill="#2D2D2D"/>
<path d="M139.767 20.7794L140.664 18.7334H145.276L146.173 20.7794H148.722L143.889 9.76172H142.079L137.246 20.7794H139.767ZM144.38 16.6724H141.514L142.963 13.3829L144.38 16.6724Z" fill="#2D2D2D"/>
<path d="M158.83 20.7794V9.76172H154.218C152.722 9.76172 151.588 10.1084 150.802 10.7997C150 11.491 149.606 12.3899 149.606 13.4771C149.606 15.0994 150.471 16.1994 152.061 16.6874L148.821 20.7794H151.699L154.518 17.1432H156.393V20.7794H158.83ZM153.983 14.8618C152.895 14.8618 152.14 14.2625 152.14 13.46C152.14 12.514 152.786 12.0432 154.077 12.0432H156.393V14.8639H153.983V14.8618Z" fill="#2D2D2D"/>
<path d="M62.7526 38.8292V35.131L63.5402 34.3284L67.2706 38.8292H70.4809L65.3808 32.6912L70.1663 27.8115H66.9881L62.7526 32.109V27.8115H60.3149V38.8292H62.7526Z" fill="#2D2D2D"/>
<path d="M70.2478 33.3202C70.2478 34.9425 70.7978 36.2973 71.9 37.3823C73.0022 38.4674 74.3399 39.0174 75.93 39.0174C77.5202 39.0174 78.8599 38.4674 79.96 37.3823C81.0451 36.2973 81.5951 34.9425 81.5951 33.3202C81.5951 31.698 81.0451 30.3283 79.96 29.2432C78.8578 28.1581 77.5202 27.623 75.93 27.623C74.3399 27.623 72.9851 28.1731 71.9 29.2753C70.7978 30.3775 70.2478 31.7301 70.2478 33.3202ZM73.7106 30.9125C74.3249 30.2983 75.0654 29.9837 75.9322 29.9837C76.7668 29.9837 77.5073 30.2983 78.1366 30.9125C78.7508 31.5268 79.0654 32.3293 79.0654 33.3224C79.0654 34.3133 78.7658 35.118 78.1687 35.7322C77.5694 36.3465 76.8289 36.6611 75.9322 36.6611C75.0654 36.6611 74.3249 36.3465 73.7106 35.7322C73.0964 35.118 72.7818 34.3154 72.7818 33.3224C72.7797 32.3293 73.0964 31.5268 73.7106 30.9125Z" fill="#2D2D2D"/>
<path d="M93.0257 38.8292V27.8115H90.588V32.1411H85.6891V27.8115H83.2515V38.8292H85.6891V34.4226H90.588V38.8292H93.0257Z" fill="#2D2D2D"/>
<path d="M103.558 35.1951C102.785 36.171 101.762 36.6589 100.519 36.6589C99.5576 36.6589 98.7722 36.3443 98.1579 35.7301C97.5287 35.1159 97.2141 34.3133 97.2141 33.3202C97.2141 32.2972 97.5287 31.4925 98.143 30.8783C98.7572 30.279 99.5598 29.9815 100.551 29.9815C101.494 29.9815 102.55 30.4224 103.179 31.225L104.831 29.714C104.028 28.4556 102.344 27.623 100.375 27.623C98.6908 27.623 97.3211 28.1731 96.266 29.2582C95.213 30.3604 94.678 31.7151 94.678 33.3202C94.678 35.0367 95.1959 36.4064 96.2189 37.4444C97.2419 38.4974 98.5945 39.0174 100.311 39.0174C102.28 39.0174 104.011 38.1999 105.002 36.7531L103.558 35.1951Z" fill="#2D2D2D"/>
<path d="M111.382 33.2912L108.03 27.8145H105.009L110.141 35.8915C109.935 36.3324 109.668 36.5529 109.353 36.5529C109.086 36.5529 108.85 36.4116 108.677 36.1441L107.104 37.5759C107.671 38.4106 108.409 38.8343 109.323 38.8343C110.787 38.8343 111.637 38.0168 112.471 36.2554L116.469 27.8166H113.92L111.382 33.2912Z" fill="#2D2D2D"/>
<path d="M126.291 38.8292V27.8115H118.027L118.012 29.055C117.98 31.3985 117.886 33.0999 117.745 34.185C117.586 35.2722 117.366 35.9507 117.083 36.2332C116.801 36.5328 116.36 36.642 115.746 36.5628V38.8271C115.951 38.8592 116.155 38.8742 116.375 38.8742C117.383 38.8742 117.933 38.78 118.627 38.2129C119.617 37.4103 120.088 35.5526 120.341 31.4434L120.403 30.1679H123.853V38.8271H126.291V38.8292Z" fill="#2D2D2D"/>
<path d="M132.998 33.7465C134.415 33.7465 135.123 34.2023 135.123 35.1162C135.123 36.0771 134.398 36.5501 132.949 36.5501H130.948V33.7465H132.998ZM128.495 27.8117V38.8294H132.902C135.923 38.8294 137.655 37.5239 137.655 35.1141C137.655 32.6742 136.114 31.4629 133.028 31.4629H130.95V27.8096H128.495V27.8117Z" fill="#2D2D2D"/>
<path d="M139.862 30.093V38.8292H142.299V30.093H145.841V27.8115H136.335V30.093H139.862Z" fill="#2D2D2D"/>
<path d="M146.978 38.8292L147.874 36.7832H152.487L153.383 38.8292H155.932L151.1 27.8115H149.289L144.457 38.8292H146.978ZM151.59 34.7244H148.724L150.173 31.4349L151.59 34.7244Z" fill="#2D2D2D"/>
<path d="M165.396 38.8292V40.672H167.661V36.5499H166.387V27.8115H163.947V36.5499H159.491V27.8115H157.054V38.8292H165.396Z" fill="#2D2D2D"/>
<path d="M176.369 32.109V38.8292H178.807V27.8115H176.778L171.44 34.5638V27.8115H169.002V38.8292H170.999L176.369 32.109Z" fill="#2D2D2D"/>
<path d="M190 38.8292V27.8115H185.388C183.892 27.8115 182.758 28.1582 181.972 28.8495C181.169 29.5408 180.776 30.4375 180.776 31.5248C180.776 33.147 181.64 34.2492 183.23 34.735L179.99 38.8292H182.869L185.687 35.1931H187.562V38.8292H190ZM185.152 32.9137C184.065 32.9137 183.31 32.3145 183.31 31.5119C183.31 30.566 183.956 30.0951 185.247 30.0951H187.562V32.9159H185.152V32.9137Z" fill="#2D2D2D"/>
<path d="M177.264 9.76172H174.92V16.4669L169.833 9.76172H167.977V20.7794H170.306V14.1063L175.408 20.7794H177.264V9.76172ZM177.865 13.2545C177.865 14.1213 178.147 14.8126 178.7 15.3647C179.252 15.9169 179.973 16.1823 180.872 16.1823C181.771 16.1823 182.509 15.9148 183.059 15.3647C183.609 14.8147 183.894 14.1213 183.894 13.2545C183.894 11.506 182.7 10.3439 180.872 10.3439C179.059 10.3439 177.865 11.5081 177.865 13.2545ZM180.223 12.5611C180.382 12.3877 180.602 12.3085 180.87 12.3085C181.39 12.3085 181.769 12.6874 181.769 13.2545C181.769 13.8687 181.437 14.2155 180.87 14.2155C180.617 14.2155 180.412 14.1213 180.238 13.9479C179.909 13.6012 179.909 12.8928 180.223 12.5611ZM183.594 18.8747V16.8308H178.165V18.8747H183.594Z" fill="#009640"/>
<path d="M185.673 13.5541L187.642 12.6574V20.7794H190V9.76172H188.459L184.84 11.5723L185.673 13.5541Z" fill="#009640"/>
</svg>
