<svg width="386" height="386" viewBox="0 0 386 386" fill="none" xmlns="http://www.w3.org/2000/svg">
<path d="M46.5436 92.779L35.2646 147.213C40.2826 152.3 45.6017 157.117 54.1864 158.932L95.4884 166.188L105.185 102.205L46.5436 92.779Z" fill="#FAFAFA"/>
<path d="M44.1891 89.4208L32.9102 143.847L51.8319 155.566L93.1339 162.823L105.331 101.41L44.1891 89.4208Z" fill="#F5F5F5"/>
<path d="M40.607 140.944L32.9102 143.847C32.9102 143.847 35.6894 148.378 39.7424 150.833C43.7954 153.288 47.7017 154.84 51.8319 155.566C51.8319 155.566 42.8149 151.08 40.607 140.944Z" fill="#E0E0E0"/>
<path d="M37.9127 101.101L66.1371 92.3467L64.3383 86.4023L35.6431 94.7476L37.9127 101.101Z" fill="#EBEBEB"/>
<path d="M110.218 116.093L91.9217 92.8794L87.0195 96.6931L105.092 120.486L110.218 116.093Z" fill="#EBEBEB"/>
<path d="M94.7086 119.49C94.6855 119.598 84.2635 117.653 71.4251 115.144C58.5867 112.635 48.1956 110.512 48.2188 110.404C48.2419 110.296 58.664 112.241 71.5023 114.75C84.3407 117.259 94.7318 119.382 94.7086 119.49Z" fill="#E0E0E0"/>
<path d="M92.8639 127.836C92.8407 127.944 82.4187 125.998 69.5804 123.489C56.742 120.98 46.3509 118.857 46.3741 118.749C46.3972 118.641 56.8192 120.586 69.6576 123.095C82.4959 125.597 92.8871 127.727 92.8639 127.836Z" fill="#E0E0E0"/>
<path d="M91.6671 135.316C91.644 135.424 81.222 133.479 68.3836 130.97C55.5452 128.461 45.1541 126.338 45.1773 126.23C45.2004 126.122 55.6224 128.067 68.4608 130.576C81.2992 133.085 91.6903 135.208 91.6671 135.316Z" fill="#E0E0E0"/>
<path d="M90.2233 142.465C90.2001 142.573 79.7781 140.628 66.9398 138.119C54.1014 135.61 43.7103 133.487 43.7334 133.379C43.7566 133.27 54.1786 135.216 67.017 137.725C79.8553 140.234 90.2387 142.357 90.2233 142.465Z" fill="#E0E0E0"/>
<path d="M310.83 67.7508L296.231 103.34C291.383 104.32 286.473 105.023 280.846 102.738L254.343 90.9185L273.535 50.4657L310.83 67.7508Z" fill="#FAFAFA"/>
<path d="M313.478 66.7317L298.887 102.321L283.493 101.719L256.991 89.8994L273.766 49.9484L313.478 66.7317Z" fill="#F5F5F5"/>
<path d="M295.591 97.6735L298.88 102.321C298.88 102.321 295.529 103.842 292.256 103.687C288.983 103.525 286.142 102.908 283.494 101.726C283.494 101.719 290.403 102.637 295.591 97.6735Z" fill="#E0E0E0"/>
<path d="M312.559 75.8644L299.752 59.9226L303.087 57.2052L316.319 73.093L312.559 75.8644Z" fill="#EBEBEB"/>
<path d="M265.282 56.4873L284.76 50.2495L286.095 54.3334L266.517 60.988L265.282 56.4873Z" fill="#EBEBEB"/>
<path d="M272.863 64.4312C272.909 64.3308 279.703 67.1023 288.033 70.6303C296.37 74.1584 303.095 77.0997 303.048 77.2C303.002 77.3004 296.216 74.5289 287.878 71.0009C279.541 67.4806 272.817 64.5315 272.863 64.4312Z" fill="#E0E0E0"/>
<path d="M270.694 69.9355C270.74 69.8351 277.534 72.6066 285.863 76.1347C294.201 79.6627 300.925 82.604 300.879 82.7044C300.832 82.8047 294.047 80.0333 285.709 76.5052C277.371 72.9772 270.647 70.0359 270.694 69.9355Z" fill="#E0E0E0"/>
<path d="M268.478 74.691C268.525 74.5906 275.318 77.3621 283.648 80.8902C291.986 84.4182 298.71 87.3595 298.663 87.4599C298.617 87.5602 291.831 84.7888 283.494 81.2607C275.156 77.7327 268.44 74.7914 268.478 74.691Z" fill="#E0E0E0"/>
<path d="M266.548 79.3462C266.594 79.2458 273.388 82.0173 281.718 85.5454C290.056 89.0734 296.78 92.0147 296.733 92.1151C296.687 92.2154 289.901 89.444 281.563 85.9159C273.226 82.3956 266.502 79.4466 266.548 79.3462Z" fill="#E0E0E0"/>
<path d="M294.958 219.395C283.131 209.76 281.502 193.378 283.077 178.88C283.339 176.464 283.262 173.885 284.574 171.839C285.887 169.794 288.689 168.543 290.781 169.724C292.518 170.705 293.151 172.859 294.031 174.665C295.205 177.074 297.058 179.127 299.32 180.524C300.802 181.443 302.678 182.076 304.268 181.343C306.445 180.347 306.908 177.467 307.071 175.059C307.379 170.558 307.68 166.057 307.989 161.556C308.151 159.14 308.329 156.677 309.248 154.446C310.166 152.215 311.98 150.208 314.327 149.737C316.674 149.266 319.415 150.795 319.724 153.196C319.855 154.192 319.577 155.203 319.569 156.207C319.562 157.21 319.948 158.353 320.874 158.708C321.816 159.063 322.835 158.453 323.607 157.797C326.278 155.543 328.2 152.532 330.014 149.529C331.829 146.526 333.596 143.445 336.051 140.952C338.506 138.458 341.787 136.59 345.261 136.644C348.735 136.706 352.256 139.114 352.881 142.565C353.506 146.032 351.268 149.336 348.898 151.93C345.393 155.782 341.332 159.109 336.893 161.788C336.09 162.274 335.225 162.792 334.87 163.664C334.23 165.231 335.635 166.945 337.179 167.593C338.931 168.327 340.9 168.281 342.76 168.643C344.628 169.006 346.605 169.987 347.184 171.816C347.987 174.356 345.732 176.788 343.578 178.332C339.263 181.42 334.423 183.759 329.335 185.203C327.513 185.72 325.599 186.152 324.078 187.295C322.557 188.438 321.53 190.537 322.271 192.305C323.012 194.073 325.189 194.783 327.073 194.575C328.957 194.366 330.694 193.479 332.516 192.946C335.928 191.942 340.189 192.483 342.104 195.509C343.362 197.493 343.285 200.126 342.413 202.326C341.54 204.518 339.966 206.348 338.313 208.015C332.539 213.859 325.359 218.376 317.469 220.468C309.58 222.568 302.4 222.761 294.958 219.395Z" fill="#F5F5F5"/>
<path d="M293.97 230.156C294.927 224.436 296.687 217.727 299.389 210.563C302.076 203.383 305.666 195.764 309.695 187.92C310.714 185.967 311.71 184.029 312.706 182.123C313.694 180.223 314.682 178.34 315.756 176.556C317.894 172.982 320.218 169.701 322.526 166.659C324.834 163.618 327.127 160.808 329.296 158.206C331.473 155.604 333.542 153.219 335.526 151.119C339.479 146.912 343.061 143.901 345.601 141.932C346.875 140.944 347.878 140.211 348.573 139.724C348.905 139.493 349.168 139.307 349.361 139.176C349.538 139.053 349.631 138.999 349.639 138.999C349.646 139.006 349.561 139.076 349.384 139.207C349.191 139.354 348.944 139.547 348.62 139.794C347.948 140.303 346.952 141.06 345.701 142.071C343.192 144.078 339.657 147.112 335.743 151.335C333.782 153.435 331.728 155.836 329.567 158.445C327.413 161.062 325.128 163.872 322.835 166.914C320.542 169.956 318.234 173.229 316.118 176.788C315.053 178.564 314.08 180.432 313.084 182.339C312.096 184.246 311.093 186.176 310.081 188.136C306.052 195.972 302.454 203.576 299.76 210.725C297.05 217.866 295.259 224.536 294.271 230.226" fill="#E0E0E0"/>
<path d="M315.879 176.541C315.848 176.541 315.794 176.17 315.717 175.491C315.64 174.812 315.563 173.831 315.478 172.619C315.316 170.187 315.208 166.829 315.1 163.124C314.992 159.418 314.837 156.068 314.636 153.651C314.536 152.439 314.451 151.466 314.382 150.787C314.32 150.108 314.297 149.737 314.328 149.729C314.358 149.722 314.436 150.092 314.559 150.764C314.683 151.436 314.814 152.408 314.953 153.62C315.231 156.037 315.439 159.403 315.547 163.116C315.648 166.775 315.733 170.079 315.802 172.612C315.841 173.754 315.872 174.719 315.895 175.491C315.918 176.163 315.91 176.541 315.879 176.541Z" fill="#E0E0E0"/>
<path d="M347.338 173.044C347.338 173.075 346.89 173.09 346.087 173.098C345.284 173.113 344.126 173.121 342.69 173.183C339.826 173.275 335.874 173.553 331.527 174.04C327.181 174.542 323.267 175.159 320.441 175.684C319.029 175.939 317.894 176.178 317.106 176.333C316.319 176.495 315.879 176.572 315.871 176.541C315.863 176.51 316.288 176.379 317.068 176.163C317.848 175.954 318.975 175.669 320.38 175.368C323.19 174.758 327.112 174.086 331.473 173.584C335.835 173.09 339.803 172.874 342.683 172.859C344.119 172.843 345.284 172.874 346.087 172.92C346.898 172.974 347.338 173.013 347.338 173.044Z" fill="#E0E0E0"/>
<path d="M299.806 210.023C299.791 210.03 299.729 209.891 299.621 209.629C299.497 209.312 299.35 208.934 299.173 208.463C298.787 207.452 298.27 205.977 297.66 204.14C296.425 200.473 294.881 195.355 293.252 189.688C291.623 184.014 290.125 178.896 288.975 175.205C288.411 173.414 287.94 171.94 287.593 170.844C287.446 170.365 287.323 169.979 287.222 169.655C287.145 169.385 287.107 169.238 287.122 169.23C287.137 169.222 287.199 169.361 287.307 169.624C287.431 169.94 287.577 170.319 287.755 170.782C288.141 171.793 288.658 173.268 289.276 175.105C290.511 178.772 292.055 183.89 293.684 189.557C295.313 195.223 296.811 200.349 297.961 204.04C298.532 205.831 298.995 207.305 299.343 208.401C299.489 208.88 299.613 209.266 299.713 209.59C299.791 209.868 299.821 210.015 299.806 210.023Z" fill="#E0E0E0"/>
<path d="M342.027 199.786C342.027 199.801 341.888 199.848 341.602 199.925C341.27 200.01 340.869 200.11 340.375 200.234C339.24 200.512 337.711 200.882 335.851 201.338C332.037 202.272 326.772 203.615 320.967 205.12C315.161 206.618 309.881 207.923 306.044 208.772C304.122 209.197 302.57 209.529 301.489 209.737C300.987 209.83 300.578 209.907 300.246 209.969C299.961 210.015 299.806 210.03 299.806 210.015C299.806 209.999 299.945 209.953 300.231 209.876C300.563 209.791 300.964 209.691 301.458 209.567C302.593 209.289 304.122 208.919 305.982 208.463C309.796 207.529 315.061 206.186 320.866 204.68C326.672 203.183 331.952 201.878 335.789 201.029C337.711 200.604 339.263 200.272 340.344 200.064C340.846 199.971 341.255 199.894 341.587 199.832C341.872 199.794 342.019 199.77 342.027 199.786Z" fill="#E0E0E0"/>
<path d="M131.834 60.0539L150.455 116.834C157.859 118.896 165.393 120.532 174.364 117.63L216.762 102.29L191.556 37.4497L131.834 60.0539Z" fill="#E0E0E0"/>
<path d="M127.843 58.1856L146.472 114.966L170.38 115.769L212.779 100.422L191.271 36.6314L127.843 58.1856Z" fill="#FFB501"/>
<path d="M152.092 108.142L146.472 114.974C146.472 114.974 151.49 117.715 156.585 117.83C161.672 117.954 166.15 117.305 170.388 115.769C170.381 115.769 159.573 116.41 152.092 108.142Z" fill="#FFB501"/>
<path opacity="0.3" d="M152.092 108.142C150.386 111.6 148.656 115.646 146.472 114.974C146.472 114.974 151.49 117.715 156.585 117.83C161.672 117.954 166.15 117.305 170.388 115.769C170.381 115.769 159.573 116.41 152.092 108.142Z" fill="black"/>
<path d="M128.245 72.4367L149.876 49.1687L145.02 44.5907L122.732 67.7275L128.245 72.4367Z" fill="#E0E0E0"/>
<path d="M203.684 47.7096L174.202 35.8671L171.669 42.0431L201.26 54.5495L203.684 47.7096Z" fill="#E0E0E0"/>
<path d="M191.046 59.1815C191.085 59.2896 180.316 63.0415 167.006 67.5732C153.689 72.1048 142.874 75.6946 142.835 75.5865C142.796 75.4784 153.558 71.7265 166.875 67.1949C180.184 62.6632 191.008 59.0734 191.046 59.1815Z" fill="#263238"/>
<path d="M193.795 67.9437C193.834 68.0518 183.064 71.8037 169.755 76.3353C156.438 80.867 145.622 84.4568 145.584 84.3487C145.545 84.2406 156.307 80.4887 169.624 75.9571C182.933 71.4254 193.756 67.8433 193.795 67.9437Z" fill="#263238"/>
<path d="M196.682 75.5634C196.721 75.6714 185.951 79.4234 172.642 83.955C159.325 88.4866 148.509 92.0764 148.471 91.9684C148.432 91.8603 159.194 88.1084 172.511 83.5767C185.828 79.0451 196.651 75.4553 196.682 75.5634Z" fill="#263238"/>
<path d="M199.16 82.9977C199.199 83.1058 188.429 86.8577 175.12 91.3894C161.803 95.921 150.987 99.5108 150.949 99.4027C150.91 99.2946 161.672 95.5427 174.989 91.0111C188.298 86.4794 199.122 82.8974 199.16 82.9977Z" fill="#263238"/>
<path d="M227.756 245.643L224.019 280.421C224.019 280.421 216.739 269.42 211.814 274.323C207.12 278.993 198.837 313.116 198.837 313.116C198.837 313.116 198.721 324.24 204.642 327.181C223.595 336.592 244.701 318.851 244.701 318.851L241.706 219.41C233.847 226.026 228.852 235.421 227.756 245.643Z" fill="#FFB501"/>
<path d="M291.731 221.495L258.914 218.87C258.713 215.041 258.983 200.211 258.983 200.211C258.983 200.211 245.327 198.088 245.157 184.431C244.987 170.774 247.357 139.423 247.357 139.423C263.16 132.63 281.402 134.922 295.036 145.414L297.058 146.973L291.731 221.495Z" fill="#FCC5AF"/>
<path d="M258.96 200.025C258.96 200.025 267.591 200.728 276.762 194.969C276.762 194.969 272.555 204.796 258.929 203.561L258.96 200.025Z" fill="#AA6550"/>
<path d="M295.383 161.132C295.614 161.032 304.763 158.36 304.469 167.694C304.168 177.027 294.858 174.804 294.85 174.534C294.842 174.264 295.383 161.132 295.383 161.132Z" fill="#FCC5AF"/>
<path d="M297.807 171.091C297.846 171.06 297.969 171.206 298.239 171.345C298.502 171.477 298.965 171.577 299.452 171.407C300.447 171.075 301.327 169.539 301.428 167.856C301.482 167.007 301.327 166.196 301.05 165.517C300.787 164.822 300.362 164.336 299.868 164.228C299.374 164.096 299.019 164.382 298.896 164.644C298.764 164.899 298.818 165.092 298.764 165.108C298.741 165.131 298.571 164.946 298.656 164.56C298.703 164.374 298.818 164.158 299.042 163.988C299.274 163.811 299.606 163.734 299.946 163.78C300.664 163.849 301.289 164.536 301.598 165.278C301.945 166.026 302.138 166.945 302.076 167.895C301.953 169.771 300.934 171.5 299.575 171.847C298.911 171.994 298.371 171.785 298.093 171.554C297.823 171.315 297.776 171.106 297.807 171.091Z" fill="#AA6550"/>
<path d="M250.367 160.599C250.329 161.626 251.17 162.506 252.251 162.568C253.324 162.622 254.227 161.842 254.258 160.808C254.297 159.781 253.456 158.893 252.382 158.839C251.309 158.785 250.406 159.572 250.367 160.599Z" fill="#263238"/>
<path d="M249.943 158.646C250.182 158.901 251.665 157.805 253.757 157.812C255.849 157.789 257.393 158.87 257.617 158.607C257.725 158.492 257.485 158.036 256.814 157.55C256.158 157.063 255.03 156.592 253.718 156.6C252.413 156.608 251.309 157.087 250.676 157.581C250.043 158.075 249.827 158.53 249.943 158.646Z" fill="#263238"/>
<path d="M270.918 161.333C270.88 162.359 271.721 163.239 272.802 163.301C273.875 163.355 274.778 162.575 274.809 161.541C274.848 160.514 274.006 159.634 272.933 159.572C271.852 159.518 270.949 160.306 270.918 161.333Z" fill="#263238"/>
<path d="M270.563 159.04C270.802 159.294 272.285 158.198 274.384 158.206C276.476 158.183 278.02 159.264 278.244 159.001C278.352 158.885 278.113 158.43 277.441 157.943C276.785 157.457 275.658 156.986 274.346 156.986C273.041 156.994 271.937 157.473 271.304 157.967C270.671 158.468 270.447 158.924 270.563 159.04Z" fill="#263238"/>
<path d="M262.951 174.595C262.959 174.48 261.654 174.248 259.547 173.978C259.014 173.924 258.504 173.816 258.412 173.453C258.288 173.067 258.512 172.488 258.767 171.863C259.269 170.566 259.801 169.207 260.349 167.786C262.55 161.981 264.14 157.202 263.908 157.117C263.677 157.032 261.7 161.672 259.5 167.478C258.968 168.914 258.466 170.272 257.979 171.585C257.779 172.195 257.431 172.882 257.701 173.685C257.848 174.086 258.242 174.379 258.582 174.464C258.921 174.572 259.23 174.572 259.493 174.588C261.623 174.711 262.943 174.719 262.951 174.595Z" fill="#263238"/>
<path d="M270.023 150.818C270.231 151.389 272.323 151.119 274.786 151.412C277.256 151.659 279.24 152.377 279.565 151.868C279.711 151.621 279.364 151.088 278.561 150.532C277.766 149.984 276.5 149.459 275.018 149.289C273.543 149.127 272.184 149.359 271.289 149.729C270.393 150.1 269.938 150.548 270.023 150.818Z" fill="#263238"/>
<path d="M250.715 152.578C251.085 153.057 252.529 152.563 254.266 152.539C256.003 152.455 257.478 152.856 257.817 152.362C257.964 152.123 257.732 151.644 257.092 151.188C256.459 150.741 255.401 150.37 254.204 150.409C253.008 150.447 251.973 150.88 251.371 151.366C250.753 151.852 250.553 152.339 250.715 152.578Z" fill="#263238"/>
<path d="M240.71 130.823C240.563 129.132 241.196 127.318 242.57 126.322C243.944 125.327 246.083 125.388 247.202 126.67C246.561 124.392 248.422 121.76 250.792 121.613C253.015 121.474 254.914 123.157 257.068 123.744C259.168 124.323 261.422 123.821 263.445 123.01C265.468 122.2 267.351 121.073 269.397 120.324C273.666 118.764 278.545 118.958 282.668 120.857C286.798 122.756 290.125 126.322 291.723 130.576C294.711 129.642 298.1 131.163 299.945 133.687C301.783 136.219 302.261 139.539 301.891 142.642C301.644 144.742 301.034 146.773 300.331 148.772C300.331 148.95 300.347 149.12 300.347 149.297C300.208 156.801 299.359 165.625 296.155 165.671C290.573 165.756 291.901 155.241 291.901 155.241C285.053 152.594 287.601 142.326 285.887 140.774C284.173 139.215 280.591 135.602 266.247 142.928C260.681 145.777 253.27 145.684 249.233 144.765C249.117 144.742 248.993 144.719 248.877 144.696C248.854 144.688 248.816 144.688 248.793 144.681C248.746 144.673 248.715 144.642 248.677 144.634C247.387 144.302 246.145 143.8 244.994 143.075C243.697 142.249 242.516 141.137 241.96 139.701C241.412 138.265 241.613 136.474 242.74 135.424C241.682 134.089 240.856 132.514 240.71 130.823Z" fill="#263238"/>
<path d="M318.581 307.171L319.616 326.548L321.924 354.379H234.202L238.008 313.262L230.535 248.298C231.183 225.339 239.999 215.797 258.033 213.605C258.18 213.589 256.458 213.798 256.613 213.782C259.099 213.489 256.613 213.782 258.033 213.605C269.698 217.195 281.363 217.187 293.028 213.582C298.44 213.813 302.917 215.473 307.519 216.361C322.009 219.14 333.936 230.334 336.831 240.077C339.217 248.098 356.471 317.678 356.471 317.678H322.156L318.581 307.171Z" fill="#FFB501"/>
<path d="M261.168 181.049C261.5 181.883 261.832 182.725 262.388 183.435C262.936 184.137 263.746 184.701 264.642 184.74C265.592 184.786 266.518 184.222 267.043 183.427C267.576 182.632 267.753 181.644 267.715 180.694C267.676 179.83 267.282 178.803 266.425 178.703C266.07 178.664 265.715 178.795 265.383 178.934C263.885 179.544 262.38 180.154 260.882 180.764" fill="#AA6550"/>
<path d="M262.967 184.755C262.99 184.616 263.978 185.018 265.367 184.462C266.039 184.192 266.78 183.651 267.182 182.81C267.591 181.976 267.668 180.849 267.243 179.861C267.143 179.614 266.996 179.39 266.85 179.189C266.672 179.004 266.703 179.011 266.51 179.042C266.325 179.089 266.031 179.228 265.792 179.328C265.537 179.428 265.298 179.529 265.051 179.629C264.086 180.015 263.214 180.362 262.48 180.633C261.006 181.181 260.072 181.474 260.025 181.374C259.979 181.273 260.836 180.795 262.256 180.115C262.967 179.776 263.816 179.374 264.765 178.95C265.005 178.842 265.244 178.733 265.491 178.625C265.753 178.517 265.954 178.402 266.317 178.286C266.495 178.239 266.742 178.209 266.989 178.309C267.228 178.402 267.375 178.564 267.483 178.703C267.683 178.973 267.861 179.243 267.992 179.56C268.525 180.787 268.394 182.153 267.853 183.165C267.305 184.199 266.363 184.778 265.568 185.01C264.758 185.257 264.063 185.203 263.615 185.087C263.16 184.956 262.951 184.801 262.967 184.755Z" fill="#263238"/>
<path d="M230.396 303.296L209.737 239.868L207.869 229.215C207.869 229.215 202.249 205.475 202.002 203.121C201.716 200.403 200.334 199.894 199.338 200.064C197.787 200.334 196.891 202.372 197.069 204.711C197.13 205.522 198.597 218.229 198.597 218.229C198.597 218.229 197.902 217.241 195.764 215.064C193.626 212.887 189.063 211.999 184.547 212.632C180.031 213.265 178.819 213.844 178.988 215.612C179.058 216.322 179.513 216.847 180.062 217.225C180.957 217.851 182.076 218.075 183.165 217.936C190.414 217.017 192.784 220.692 192.784 220.692L193.031 222.081C193.031 222.081 188.276 219.402 184.91 221.116C184.362 221.394 183.937 221.749 183.597 222.135C181.667 222.359 179.892 223.618 179.066 225.378C178.209 227.207 178.417 229.492 179.591 231.137C180.154 231.924 181.104 232.604 182.022 232.318C182.509 232.164 182.872 231.77 183.219 231.399C183.404 231.206 183.597 231.013 183.813 230.851L185.049 234.657C185.049 234.657 188.276 243.064 189.264 246.878L199.323 310.745C200.72 319.6 209.104 325.591 217.936 324.039C227.532 322.364 233.414 312.567 230.396 303.296Z" fill="#FCC5AF"/>
<path d="M207.553 239.22C206.256 239.729 204.789 238.895 203.94 237.799C203.091 236.695 202.643 235.337 201.879 234.179C199.593 230.712 194.83 229.446 192.707 225.872C192.414 225.37 192.205 224.667 192.63 224.274C193.024 223.911 193.657 224.096 194.151 224.305C198.381 226.088 202.612 227.864 206.842 229.647" fill="#FCC5AF"/>
<path d="M206.842 229.639C206.865 229.593 206.395 229.338 205.53 228.921C204.665 228.504 203.399 227.925 201.84 227.23C200.203 226.513 198.35 225.702 196.32 224.814C195.795 224.59 195.262 224.359 194.722 224.127C194.197 223.95 193.595 223.479 192.692 223.78C192.244 223.949 191.981 224.482 192.012 224.891C192.02 225.308 192.159 225.656 192.329 225.972C192.684 226.559 193.078 227.099 193.549 227.593C195.44 229.57 197.725 230.689 199.439 232.094C200.311 232.781 201.052 233.522 201.6 234.325C202.149 235.12 202.527 235.985 202.959 236.742C203.762 238.309 205.059 239.266 206.063 239.428C207.082 239.613 207.591 239.227 207.56 239.212C207.545 239.135 207.02 239.397 206.132 239.135C205.244 238.888 204.156 238.008 203.446 236.479C203.06 235.73 202.704 234.85 202.141 233.97C201.577 233.082 200.79 232.272 199.894 231.538C198.126 230.048 195.857 228.89 194.12 227.061C193.68 226.613 193.317 226.096 193.008 225.602C192.722 225.108 192.699 224.575 192.993 224.49C193.301 224.351 193.88 224.59 194.429 224.822C194.977 225.046 195.509 225.27 196.034 225.486C198.088 226.312 199.964 227.076 201.616 227.74C203.206 228.373 204.503 228.875 205.406 229.199C206.31 229.531 206.819 229.693 206.842 229.639Z" fill="#AA6550"/>
<path d="M193.201 222.135C193.101 222.166 193.155 221.024 192.105 219.781C191.588 219.171 190.761 218.646 189.719 218.414C188.685 218.167 187.488 218.183 186.23 218.291C184.971 218.391 183.736 218.507 182.609 218.36C181.49 218.214 180.494 217.866 179.791 217.318C179.073 216.77 178.85 215.99 178.873 215.519C178.896 215.033 179.019 214.794 179.035 214.794C179.081 214.801 179.027 215.064 179.066 215.512C179.104 215.952 179.351 216.585 180.008 217.04C180.648 217.496 181.598 217.797 182.656 217.905C183.721 218.021 184.917 217.897 186.184 217.789C187.457 217.681 188.716 217.673 189.827 217.966C190.939 218.237 191.85 218.862 192.375 219.557C192.915 220.244 193.116 220.939 193.193 221.402C193.271 221.873 193.232 222.135 193.201 222.135Z" fill="#AA6550"/>
<path d="M197.015 203.823C197.084 203.823 197.177 204.788 197.323 206.348C197.493 208.085 197.694 210.154 197.91 212.439C198.165 214.724 198.396 216.793 198.589 218.522C198.767 220.082 198.883 221.047 198.806 221.054C198.736 221.07 198.504 220.12 198.234 218.576C197.956 217.032 197.655 214.878 197.401 212.493C197.153 210.108 197.007 207.938 196.961 206.371C196.914 204.796 196.945 203.823 197.015 203.823Z" fill="#AA6550"/>
<path d="M190.638 225.316C190.622 225.355 190.352 225.254 189.866 225.107C189.403 224.976 188.615 224.776 187.905 225.223C187.557 225.439 187.357 225.849 187.364 226.35C187.357 226.844 187.519 227.385 187.658 227.979C187.797 228.566 187.928 229.307 187.573 230.002C187.218 230.674 186.508 231.114 185.743 231.214C184.956 231.322 184.207 231.013 183.659 230.566C183.111 230.11 182.717 229.539 182.532 228.898C182.215 227.671 182.2 226.567 182.231 225.64C182.277 224.714 182.439 223.965 182.648 223.479C182.856 222.992 183.08 222.791 183.095 222.807C183.134 222.838 182.972 223.069 182.833 223.548C182.686 224.027 182.586 224.752 182.586 225.656C182.594 226.551 182.663 227.655 182.972 228.774C183.296 229.801 184.408 230.874 185.674 230.72C186.291 230.643 186.863 230.272 187.133 229.778C187.403 229.276 187.334 228.666 187.202 228.087C187.079 227.508 186.909 226.922 186.94 226.335C186.94 225.756 187.249 225.162 187.712 224.922C188.638 224.413 189.48 224.745 189.935 224.922C190.414 225.131 190.653 225.285 190.638 225.316Z" fill="#AA6550"/>
<path d="M183.829 230.164C183.852 230.156 183.952 230.419 183.836 230.89C183.721 231.338 183.335 232.017 182.501 232.357C181.683 232.681 180.517 232.534 179.621 231.793C178.726 231.06 178.162 229.863 178.016 228.581C177.877 227.292 178.178 226.042 178.734 225.069C179.289 224.088 180.085 223.417 180.803 223.008C181.528 222.591 182.192 222.421 182.655 222.351C183.119 222.29 183.373 222.313 183.373 222.344C183.396 222.444 182.331 222.452 180.996 223.309C180.339 223.733 179.629 224.39 179.143 225.293C178.649 226.188 178.386 227.346 178.517 228.52C178.641 229.693 179.15 230.782 179.915 231.43C180.671 232.086 181.667 232.248 182.37 232.009C183.088 231.77 183.481 231.214 183.636 230.82C183.806 230.427 183.782 230.164 183.829 230.164Z" fill="#AA6550"/>
<path d="M193.502 237.722C193.494 237.676 193.942 237.537 194.722 237.606C195.486 237.676 196.598 238.015 197.54 238.926L197.123 239.096C197.123 238.556 197.154 237.969 197.223 237.375C197.609 234.024 199.176 231.7 199.269 231.785C199.408 231.847 198.088 234.209 197.725 237.436C197.655 238.015 197.617 238.579 197.609 239.104L197.594 239.683L197.192 239.274C196.366 238.44 195.378 238.062 194.668 237.915C193.95 237.753 193.502 237.784 193.502 237.722Z" fill="#AA6550"/>
<path d="M190.931 216.106C191.055 216.152 190.661 217.117 189.596 217.712C188.538 218.322 187.503 218.16 187.534 218.028C187.534 217.882 188.43 217.804 189.349 217.272C190.275 216.754 190.8 216.029 190.931 216.106Z" fill="#AA6550"/>
<path d="M246.762 216.098C246.785 216.121 246.476 216.407 245.959 217.002C245.465 217.604 244.662 218.499 244.168 219.873C244.045 220.221 243.983 220.591 243.967 220.985C243.975 221.379 244.068 221.78 244.261 222.151C244.678 222.892 245.511 223.448 246.484 223.803C248.445 224.536 250.885 224.752 253.548 224.799C254.884 224.822 256.312 224.876 257.779 224.961C258.512 225.046 259.261 225.138 260.025 225.223C260.789 225.308 261.554 225.509 262.333 225.656C265.429 226.358 268.733 227.547 271.613 229.778C273.049 230.874 274.377 232.21 275.45 233.8C275.704 234.202 275.959 234.619 276.175 235.051C276.399 235.499 276.554 235.946 276.747 236.386C277.086 237.29 277.372 238.239 277.549 239.212C278.321 243.087 277.727 247.38 275.735 251.078C273.72 254.791 270.3 257.485 266.61 258.867C264.757 259.562 262.827 259.925 260.928 259.994C259.021 260.056 257.169 259.716 255.432 259.323C253.695 258.937 252.019 258.535 250.383 258.419C248.746 258.304 247.156 258.535 245.797 259.23C244.438 259.909 243.327 260.944 242.362 262.017C241.397 263.098 240.578 264.232 239.768 265.313C238.162 267.467 236.471 269.359 234.487 270.354C233.515 270.849 232.488 271.134 231.546 271.126C230.604 271.134 229.755 270.949 229.037 270.656C228.319 270.37 227.748 269.976 227.315 269.567C226.891 269.15 226.621 268.718 226.451 268.347C226.134 267.598 226.181 267.158 226.181 267.158C226.235 267.151 226.25 267.583 226.597 268.27C226.783 268.61 227.061 269.003 227.478 269.382C227.902 269.752 228.458 270.1 229.145 270.354C230.504 270.856 232.442 270.987 234.271 269.945C236.124 268.965 237.737 267.12 239.297 264.958C240.084 263.877 240.903 262.719 241.875 261.592C242.856 260.481 244.006 259.377 245.473 258.62C246.94 257.856 248.684 257.593 250.406 257.701C252.135 257.809 253.841 258.211 255.571 258.581C257.3 258.96 259.068 259.269 260.882 259.207C262.696 259.13 264.541 258.782 266.309 258.111C269.837 256.775 273.095 254.204 275.002 250.668C276.901 247.148 277.48 243.041 276.754 239.335C276.584 238.409 276.322 237.506 275.998 236.633C275.82 236.201 275.658 235.753 275.465 235.367C275.264 234.966 275.033 234.572 274.786 234.194C273.782 232.689 272.516 231.399 271.142 230.342C268.394 228.18 265.19 226.999 262.164 226.281C261.399 226.134 260.65 225.926 259.902 225.833C259.153 225.741 258.419 225.64 257.694 225.548C256.242 225.447 254.853 225.378 253.502 225.339C250.807 225.246 248.329 224.999 246.291 224.189C245.28 223.795 244.361 223.178 243.89 222.297C243.666 221.857 243.574 221.386 243.581 220.939C243.612 220.499 243.697 220.09 243.836 219.727C244.415 218.283 245.264 217.418 245.805 216.847C246.399 216.33 246.739 216.083 246.762 216.098Z" fill="#FAFAFA"/>
<path d="M305.488 267.575C305.45 267.583 305.257 266.981 305.118 265.838C304.971 264.703 304.986 263.013 305.442 260.998C305.882 258.983 306.87 256.682 308.437 254.451C310.012 252.228 312.205 250.089 314.922 248.468C317.647 246.878 320.511 245.897 323.167 245.357C325.823 244.801 328.262 244.631 330.308 244.624C332.346 244.616 333.998 244.732 335.125 244.871C336.252 245.002 336.878 245.125 336.87 245.172C336.862 245.311 334.353 245.041 330.323 245.195C328.309 245.28 325.915 245.504 323.329 246.083C320.743 246.654 317.971 247.627 315.339 249.163C312.73 250.722 310.599 252.761 309.047 254.884C307.503 257.014 306.492 259.207 305.998 261.137C305.496 263.067 305.388 264.703 305.434 265.815C305.465 266.934 305.558 267.56 305.488 267.575Z" fill="#FAFAFA"/>
<path d="M347.67 280.993C347.709 281.023 347.408 281.518 346.759 282.351C346.119 283.185 345.084 284.312 343.648 285.54C342.22 286.767 340.344 288.049 338.082 289.122C335.828 290.203 333.165 291.036 330.293 291.391C327.413 291.723 324.634 291.546 322.179 291.036C319.724 290.527 317.601 289.732 315.918 288.882C314.235 288.033 312.961 287.176 312.143 286.52C311.317 285.872 310.908 285.455 310.939 285.416C311.031 285.285 312.799 286.829 316.165 288.365C319.492 289.909 324.595 291.26 330.192 290.589C335.789 289.909 340.421 287.377 343.285 285.092C346.204 282.807 347.547 280.892 347.67 280.993Z" fill="#FAFAFA"/>
<path d="M308.893 278.522C308.9 278.553 308.646 278.63 308.19 278.808C307.735 278.985 307.079 279.333 306.422 279.981C305.766 280.637 305.141 281.602 304.647 282.83C304.153 284.065 303.751 285.54 303.404 287.184C303.049 288.836 302.779 290.689 302.145 292.627C301.821 293.592 301.404 294.58 300.81 295.506C300.208 296.425 299.451 297.289 298.556 298.023C296.78 299.513 294.549 300.547 292.179 301.25C289.801 301.952 287.284 302.338 284.752 302.84C279.703 303.774 275.079 305.643 271.551 308.337C269.783 309.665 268.309 311.193 267.151 312.768C266.016 314.366 265.19 316.018 264.642 317.601C263.553 320.774 263.545 323.568 263.823 325.413C264.101 327.274 264.526 328.254 264.441 328.278C264.418 328.285 264.302 328.054 264.117 327.583C264.016 327.351 263.924 327.058 263.816 326.703C263.7 326.355 263.607 325.938 263.515 325.467C263.136 323.599 263.044 320.72 264.101 317.423C264.634 315.787 265.452 314.065 266.61 312.39C267.791 310.73 269.297 309.147 271.103 307.758C274.709 304.948 279.464 303.01 284.598 302.06C287.153 301.559 289.647 301.18 291.955 300.509C294.256 299.845 296.394 298.857 298.085 297.467C298.934 296.788 299.644 295.985 300.215 295.136C300.779 294.279 301.188 293.352 301.512 292.434C302.145 290.581 302.454 288.743 302.848 287.084C303.234 285.416 303.682 283.934 304.23 282.676C304.786 281.425 305.481 280.429 306.206 279.773C306.94 279.124 307.65 278.808 308.136 278.669C308.623 278.522 308.893 278.507 308.893 278.522Z" fill="#FAFAFA"/>
<path d="M288.211 275.303C288.242 275.288 288.528 275.82 288.613 276.886C288.697 277.935 288.474 279.557 287.377 281.155C286.829 281.942 286.073 282.73 285.054 283.262C284.552 283.548 283.981 283.733 283.378 283.872C282.776 283.973 282.135 284.027 281.495 283.949C280.205 283.818 278.901 283.309 277.789 282.452C276.685 281.595 275.766 280.352 275.396 278.87C275.164 277.928 275.149 276.947 275.357 276.029C275.558 275.095 276.075 274.276 276.585 273.605C277.11 272.917 277.666 272.3 278.275 271.752C278.584 271.482 278.901 271.227 279.256 271.018C279.611 270.81 279.989 270.617 280.468 270.594L280.568 271.281C280.437 271.312 280.314 271.343 280.19 271.373L279.997 270.71C281.549 270.262 283.077 270.463 284.251 270.941C285.447 271.397 286.327 272.13 286.937 272.794C287.539 273.473 287.864 274.122 288.034 274.57C288.203 275.04 288.242 275.295 288.211 275.303C288.111 275.349 287.879 274.307 286.652 273.087C286.042 272.493 285.185 271.86 284.065 271.482C282.961 271.08 281.572 270.957 280.213 271.381L280.02 270.717C280.144 270.686 280.267 270.648 280.398 270.617L280.499 271.304C279.958 271.358 279.318 271.814 278.777 272.315C278.221 272.825 277.696 273.427 277.21 274.075C276.716 274.732 276.307 275.411 276.137 276.206C275.959 276.994 275.975 277.851 276.176 278.677C276.492 279.958 277.287 281.054 278.268 281.826C279.256 282.598 280.429 283.077 281.572 283.208C282.143 283.285 282.707 283.247 283.247 283.17C283.78 283.054 284.289 282.907 284.745 282.668C285.671 282.22 286.381 281.518 286.914 280.815C287.979 279.379 288.288 277.881 288.296 276.886C288.311 275.882 288.134 275.326 288.211 275.303Z" fill="#FAFAFA"/>
<path d="M238.394 250.089C238.402 250.089 238.402 250.159 238.402 250.298C238.394 250.46 238.394 250.661 238.378 250.908C238.347 251.471 238.309 252.251 238.263 253.239C238.139 255.262 238.023 258.188 237.861 261.801C237.56 269.034 237.267 279.024 237.027 290.071C236.788 301.119 236.649 311.116 236.541 318.357C236.487 321.955 236.441 324.873 236.41 326.927C236.387 327.915 236.371 328.694 236.363 329.258C236.356 329.505 236.348 329.706 236.34 329.86C236.333 329.999 236.325 330.069 236.317 330.069C236.309 330.069 236.302 329.999 236.294 329.86C236.286 329.698 236.286 329.497 236.279 329.25C236.271 328.687 236.263 327.907 236.255 326.919C236.255 324.865 236.255 321.939 236.255 318.342C236.286 311.101 236.387 301.103 236.626 290.056C236.858 279.009 237.197 269.011 237.575 261.785C237.776 258.172 237.938 255.246 238.108 253.224C238.185 252.236 238.255 251.464 238.301 250.9C238.324 250.653 238.347 250.452 238.363 250.298C238.378 250.159 238.394 250.089 238.394 250.089Z" fill="#263238"/>
<g opacity="0.2">
<path d="M223.641 321.87C227.948 323.931 233.576 319.971 235.776 315.733C235.776 315.733 236.927 306.391 236.765 301.62C236.471 292.789 237.112 284.042 236.819 275.21C236.155 280.468 233.931 285.509 230.519 289.554C229.577 290.673 228.504 291.777 228.149 293.206C227.516 295.753 229.462 300.331 230.712 302.639C234.541 309.696 226.157 321.909 223.919 321.685" fill="black"/>
</g>
<g opacity="0.2">
<path d="M304.261 264.24C305.674 281.842 307.079 299.443 308.491 317.045C308.623 318.705 308.769 320.403 309.418 321.939C310.074 323.476 311.34 324.85 312.969 325.182C315.47 325.691 317.894 323.537 318.605 321.083C319.315 318.628 318.743 316.01 318.134 313.525C317.084 309.302 315.903 305.118 314.714 300.933C311.271 288.79 307.827 276.646 304.377 264.51" fill="black"/>
</g>
<path d="M255.872 354.402C255.787 354.356 256.605 353.522 257.045 351.6C257.485 349.693 257.208 346.744 255.733 343.555C255.007 341.957 253.981 340.305 252.946 338.476C251.919 336.654 250.839 334.616 250.329 332.238C249.812 329.852 250.105 327.243 250.877 324.765C251.634 322.279 252.761 319.863 253.672 317.331C255.602 312.313 255.501 306.963 254.058 302.57C253.347 300.362 252.321 298.393 251.132 296.71C249.928 295.035 248.577 293.646 247.226 292.526C244.5 290.287 241.837 289.114 239.976 288.481C238.101 287.856 237.004 287.686 237.02 287.609C237.027 287.578 237.298 287.609 237.823 287.678C238.34 287.755 239.112 287.902 240.069 288.18C241.991 288.728 244.74 289.847 247.581 292.078C248.986 293.206 250.406 294.603 251.665 296.317C252.915 298.038 253.996 300.061 254.753 302.338C255.501 304.608 255.941 307.117 255.911 309.726C255.918 312.336 255.37 315.038 254.421 317.609C253.494 320.187 252.367 322.588 251.626 325.004C250.869 327.405 250.584 329.852 251.055 332.099C251.51 334.345 252.537 336.337 253.525 338.159C254.529 339.989 255.532 341.672 256.25 343.332C257.702 346.643 257.902 349.724 257.346 351.685C257.084 352.673 256.675 353.36 256.397 353.8C256.08 354.217 255.895 354.417 255.872 354.402Z" fill="#FAFAFA"/>
<path d="M328.347 227.4C328.386 227.416 328.2 228.002 327.598 228.937C327.004 229.863 325.923 231.106 324.248 232.187C322.588 233.275 320.295 234.148 317.663 234.364C315.038 234.595 312.127 234.209 309.255 233.291C306.384 232.38 303.767 230.952 301.914 229.029C300.995 228.08 300.254 227.022 299.775 225.941C299.297 224.86 299.034 223.772 298.942 222.776C298.756 220.769 299.258 219.148 299.798 218.183C299.922 217.936 300.061 217.727 300.192 217.557C300.308 217.38 300.424 217.241 300.532 217.133C300.733 216.917 300.841 216.816 300.864 216.832C300.926 216.878 300.524 217.341 300.084 218.314C299.652 219.279 299.266 220.823 299.513 222.707C299.636 223.641 299.907 224.652 300.385 225.656C300.856 226.651 301.566 227.624 302.446 228.504C304.214 230.28 306.716 231.639 309.503 232.519C312.289 233.406 315.092 233.8 317.609 233.623C320.125 233.453 322.318 232.689 323.947 231.7C325.591 230.72 326.687 229.593 327.343 228.751C328 227.91 328.285 227.369 328.347 227.4Z" fill="#FAFAFA"/>
<path d="M317.778 310.444C317.771 310.444 317.748 310.375 317.694 310.228C317.64 310.058 317.578 309.85 317.493 309.58C317.315 308.978 317.068 308.144 316.759 307.078C316.134 304.878 315.239 301.736 314.135 297.868C311.95 290.064 308.939 279.317 305.612 267.452C303.967 261.507 302.393 255.849 300.964 250.692C300.254 248.113 299.636 245.635 299.32 243.265C298.996 240.895 298.98 238.648 299.297 236.633C299.968 232.58 301.952 229.709 303.666 228.234C304.523 227.478 305.311 227.053 305.836 226.775C306.09 226.667 306.299 226.582 306.461 226.513C306.6 226.458 306.677 226.428 306.677 226.435C306.716 226.497 305.457 226.844 303.767 228.35C302.115 229.84 300.2 232.689 299.575 236.68C299.274 238.664 299.312 240.887 299.644 243.219C299.976 245.565 300.601 248.02 301.312 250.591C302.748 255.74 304.33 261.399 305.99 267.344C309.271 279.225 312.243 289.979 314.397 297.791C315.447 301.674 316.304 304.824 316.898 307.032C317.176 308.105 317.4 308.947 317.562 309.549C317.632 309.819 317.686 310.035 317.724 310.205C317.771 310.367 317.786 310.444 317.778 310.444Z" fill="#263238"/>
<path d="M286.335 139.485C286.281 139.477 286.474 138.891 286.343 137.833C286.211 136.791 285.625 135.27 284.212 133.996C282.838 132.684 280.576 131.904 278.067 131.966C275.542 131.989 272.856 132.815 270.077 133.749C268.679 134.212 267.305 134.645 265.946 134.946C264.58 135.239 263.237 135.401 261.955 135.432C259.384 135.509 257.084 135.092 255.231 134.544C253.378 133.981 251.958 133.294 251.024 132.761C250.553 132.498 250.198 132.267 249.966 132.105C249.734 131.943 249.611 131.858 249.619 131.842C249.642 131.804 250.143 132.136 251.101 132.614C252.058 133.101 253.471 133.741 255.316 134.266C257.161 134.768 259.423 135.146 261.955 135.054C263.213 135.015 264.534 134.845 265.877 134.552C267.22 134.251 268.579 133.811 269.968 133.355C272.74 132.421 275.481 131.58 278.074 131.58C280.653 131.533 283.015 132.375 284.42 133.772C285.864 135.123 286.427 136.721 286.52 137.794C286.59 138.914 286.335 139.485 286.335 139.485Z" fill="#455A64"/>
<path d="M296.958 162.56C296.942 162.568 296.881 162.467 296.78 162.274C296.672 162.081 296.526 161.788 296.356 161.402C296.016 160.638 295.591 159.487 295.267 158.005C294.958 156.531 294.758 154.724 294.912 152.725C295.036 150.718 295.661 148.602 296.132 146.379C296.618 144.171 296.734 141.963 296.147 140.103C295.869 139.176 295.406 138.366 294.843 137.725C294.271 137.099 293.569 136.675 292.882 136.436C291.492 135.949 290.241 136.165 289.516 136.52C288.782 136.891 288.504 137.292 288.466 137.254C288.466 137.254 288.697 136.814 289.439 136.382C290.18 135.965 291.492 135.687 292.974 136.165C293.708 136.397 294.464 136.829 295.09 137.493C295.707 138.157 296.201 139.014 296.502 139.987C297.135 141.925 297.02 144.217 296.533 146.456C296.055 148.703 295.429 150.787 295.29 152.748C295.12 154.701 295.283 156.477 295.553 157.943C295.831 159.403 296.209 160.553 296.51 161.333C296.788 162.128 296.989 162.545 296.958 162.56Z" fill="#455A64"/>
<path d="M287.647 138.381C287.632 138.381 287.639 138.188 287.655 137.833C287.67 137.431 287.686 136.914 287.717 136.266C287.732 134.915 287.771 132.915 287.084 130.599C286.728 129.457 286.157 128.245 285.262 127.156C284.374 126.075 283.131 125.126 281.602 124.74C280.082 124.323 278.375 124.47 276.716 124.941C275.048 125.411 273.442 126.245 271.829 127.156C270.215 128.067 268.633 128.994 266.981 129.65C265.321 130.29 263.615 130.622 261.986 130.653C260.357 130.692 258.805 130.483 257.416 130.09C256.026 129.696 254.783 129.156 253.702 128.561C251.564 127.334 250.151 125.882 249.31 124.809C248.877 124.277 248.599 123.821 248.422 123.512C248.237 123.204 248.144 123.041 248.159 123.034C248.175 123.026 248.283 123.18 248.491 123.474C248.692 123.767 248.985 124.207 249.433 124.717C250.298 125.751 251.726 127.141 253.841 128.314C254.907 128.885 256.134 129.395 257.501 129.766C258.867 130.136 260.388 130.321 261.978 130.275C263.568 130.236 265.221 129.904 266.834 129.279C268.448 128.638 270.007 127.72 271.628 126.801C273.242 125.882 274.886 125.033 276.608 124.555C278.314 124.076 280.097 123.929 281.695 124.377C283.309 124.802 284.613 125.813 285.516 126.94C286.435 128.075 287.014 129.333 287.354 130.514C288.018 132.9 287.925 134.915 287.871 136.273C287.832 136.953 287.778 137.486 287.74 137.841C287.693 138.196 287.663 138.389 287.647 138.381Z" fill="#455A64"/>
<path d="M267.259 331.42L324.989 322.812L324.055 317.678H355.128L356.039 325.576C358.856 340.213 347.724 353.823 332.825 353.97L265.491 353.221L267.259 331.42Z" fill="#FCC5AF"/>
<path d="M271.428 332.408C271.119 332.508 267.228 330.771 263.746 329.158C260.048 327.444 255.988 326.656 251.919 326.865L235.869 327.683C235.869 327.683 236.857 330.331 238.564 331.273C240.262 332.215 250.244 332.415 250.244 332.415L249.734 332.94C247.635 335.102 244.763 336.36 241.744 336.438L240.208 336.476C239.073 336.384 237.946 336.167 236.857 335.82L232.897 334.222C231.7 333.682 230.434 333.766 229.909 334.978C229.439 336.067 229.786 337.572 233.051 339.217C234.881 340.135 241.652 342.482 241.652 342.482C241.652 342.482 241.752 344.358 242.045 345.339C242.339 346.327 245.002 347.307 245.002 347.307C245.002 347.307 246.677 350.758 247.364 351.546C247.673 351.901 250.082 352.65 252.653 353.368C256.79 354.533 261.175 354.502 265.298 353.275L271.412 351.445V332.809" fill="#FCC5AF"/>
<path d="M249.464 344.582C249.456 344.683 247.55 344.59 245.288 343.988C243.026 343.393 241.319 342.544 241.358 342.451C241.404 342.343 243.157 343.015 245.388 343.602C247.627 344.196 249.48 344.466 249.464 344.582Z" fill="#AA6550"/>
<path d="M248.901 348.342C248.901 348.45 247.866 348.512 246.647 348.18C245.419 347.848 244.562 347.269 244.616 347.176C244.67 347.076 245.581 347.477 246.755 347.786C247.92 348.118 248.909 348.226 248.901 348.342Z" fill="#AA6550"/>
<path d="M340.244 336.275C340.166 336.306 339.788 335.156 338.862 333.465C338.406 332.616 337.781 331.651 337.017 330.64C336.229 329.636 335.295 328.594 334.214 327.606C333.118 326.633 331.976 325.815 330.902 325.143C329.814 324.487 328.787 323.97 327.892 323.607C326.108 322.866 324.935 322.611 324.95 322.534C324.958 322.503 325.251 322.557 325.784 322.673C326.054 322.727 326.379 322.804 326.741 322.928C327.112 323.043 327.537 323.159 327.992 323.344C328.911 323.676 329.968 324.178 331.088 324.827C332.199 325.491 333.365 326.317 334.485 327.313C335.588 328.316 336.538 329.389 337.318 330.416C338.082 331.458 338.692 332.454 339.124 333.334C339.364 333.759 339.518 334.176 339.672 334.531C339.834 334.886 339.943 335.202 340.028 335.457C340.19 335.974 340.267 336.268 340.244 336.275Z" fill="#AA6550"/>
<path d="M251.834 330.972C251.873 331.01 251.41 331.528 250.591 332.3C249.773 333.064 248.584 334.075 247.094 334.948C245.604 335.82 244.099 336.306 242.995 336.53C241.891 336.754 241.196 336.77 241.188 336.723C241.15 336.577 243.968 336.322 246.893 334.6C248.345 333.751 249.541 332.786 250.406 332.084C251.263 331.373 251.796 330.926 251.834 330.972Z" fill="#AA6550"/>
<path d="M85.7538 312.637C87.1279 312.637 75.2391 344.582 72.182 352.742C71.8423 353.646 71.603 354.441 71.603 354.441L154.84 354.587L153.86 277.14C153.86 277.086 153.852 277.04 153.852 276.986L146.888 221.587C146.819 221.039 146.425 220.584 145.893 220.437C142.596 219.541 130.723 216.477 121.636 216.145C110.983 215.751 95.5813 217.866 95.5813 217.866C95.5813 217.866 81.7625 219.294 74.1506 222.035C73.5407 222.259 73.1702 222.869 73.2551 223.509L85.7538 312.637Z" fill="#FFB501"/>
<path d="M124.192 278.306C124.215 278.314 124.068 278.677 123.775 279.31C123.636 279.634 123.451 280.02 123.188 280.444C122.933 280.877 122.679 281.379 122.308 281.888C121.961 282.413 121.567 282.977 121.096 283.548C120.648 284.142 120.1 284.706 119.537 285.316C118.363 286.489 116.966 287.686 115.36 288.751C113.747 289.793 112.094 290.596 110.543 291.206C109.755 291.476 109.014 291.754 108.296 291.932C107.586 292.14 106.907 292.272 106.289 292.387C105.671 292.526 105.108 292.557 104.614 292.619C104.12 292.681 103.687 292.704 103.34 292.704C102.637 292.719 102.251 292.712 102.251 292.681C102.244 292.596 103.803 292.604 106.243 292.109C106.853 291.986 107.517 291.839 108.211 291.615C108.922 291.43 109.647 291.144 110.419 290.866C111.94 290.249 113.561 289.446 115.152 288.419C116.726 287.369 118.108 286.204 119.282 285.061C119.845 284.467 120.401 283.918 120.849 283.339C121.328 282.791 121.729 282.236 122.092 281.734C123.497 279.703 124.115 278.267 124.192 278.306Z" fill="#263238"/>
<g opacity="0.2">
<path d="M74.4287 346.705C82.3031 350.048 91.3818 348.743 98.3067 343.718C101.31 341.541 103.826 338.692 107.069 336.885C111.562 334.376 116.912 334.145 122.046 333.774C128.916 333.288 135.834 332.439 142.288 330.053C143.592 329.567 144.935 328.988 145.831 327.915C146.727 326.842 147.028 325.151 146.155 324.062C145.267 322.951 143.623 322.889 142.195 322.928C120.672 323.561 101.001 325.29 80.0489 330.269" fill="black"/>
</g>
<path d="M97.627 136.459C104.282 129.688 114.781 125.689 123.481 129.495C129.333 132.051 133.293 137.54 138.427 141.338C142.164 144.102 146.788 146.24 148.741 150.455C150.47 154.168 149.637 158.499 149.22 162.576C148.803 166.652 149.096 171.353 152.254 173.97C153.913 175.344 156.091 175.885 157.959 176.958C161.718 179.112 163.949 183.304 164.752 187.557C165.555 191.811 165.123 196.196 164.683 200.504L146.765 203.916L143.823 198.968L142.797 206.749L119.93 208.811L97.627 136.459Z" fill="#263238"/>
<path d="M94.6705 143.854L94.6319 148.842L93.2191 223.571C93.0956 232.233 101.387 239.606 110.659 239.667C120.031 239.729 123.852 232.689 124.115 223.942C124.393 214.763 124.863 205.097 124.863 205.097C124.863 205.097 136.745 203.461 139.624 188.09C141.052 180.447 141.014 167.848 140.651 157.542C140.327 148.263 132.344 141.129 123.096 141.847L94.6705 143.854Z" fill="#FFBE9D"/>
<path d="M136.582 167.478C136.59 168.528 135.71 169.392 134.621 169.423C133.533 169.454 132.637 168.628 132.629 167.586C132.622 166.536 133.502 165.671 134.59 165.64C135.687 165.602 136.574 166.428 136.582 167.478Z" fill="#263238"/>
<path d="M137.748 164.019C137.493 164.274 136.026 163.116 133.896 163.07C131.765 162.985 130.175 164.042 129.951 163.772C129.843 163.656 130.105 163.193 130.8 162.714C131.487 162.236 132.637 161.788 133.965 161.834C135.293 161.881 136.397 162.398 137.022 162.915C137.663 163.432 137.871 163.903 137.748 164.019Z" fill="#263238"/>
<path d="M115.6 167.478C115.607 168.528 114.727 169.392 113.639 169.423C112.55 169.454 111.655 168.628 111.647 167.586C111.639 166.536 112.519 165.671 113.608 165.64C114.704 165.602 115.592 166.428 115.6 167.478Z" fill="#263238"/>
<path d="M116.796 163.842C116.541 164.096 115.075 162.938 112.944 162.892C110.813 162.807 109.223 163.865 108.999 163.595C108.891 163.479 109.153 163.016 109.848 162.537C110.535 162.058 111.686 161.61 113.013 161.657C114.341 161.703 115.445 162.22 116.071 162.738C116.711 163.255 116.92 163.726 116.796 163.842Z" fill="#263238"/>
<path d="M124.091 179.853C124.084 179.729 125.419 179.536 127.565 179.328C128.113 179.289 128.631 179.189 128.731 178.826C128.87 178.44 128.662 177.846 128.414 177.205C127.936 175.877 127.442 174.48 126.917 173.021C124.848 167.061 123.366 162.166 123.605 162.089C123.844 162.004 125.72 166.775 127.789 172.727C128.283 174.194 128.762 175.599 129.217 176.935C129.403 177.56 129.742 178.27 129.441 179.081C129.287 179.482 128.878 179.768 128.523 179.853C128.167 179.953 127.866 179.945 127.596 179.953C125.435 180 124.099 179.969 124.091 179.853Z" fill="#263238"/>
<path d="M124.871 205.097C124.871 205.097 114.465 205.483 104.352 199.014C104.352 199.014 109.076 209.752 124.563 208.733L124.871 205.097Z" fill="#EB996E"/>
<path d="M123.049 184.956C122.308 183.921 120.988 183.327 119.645 183.435C118.718 183.512 117.769 183.929 117.19 184.662C116.611 185.396 116.464 186.469 116.951 187.195C117.506 188.021 118.695 188.237 119.722 187.974C120.749 187.712 121.637 187.071 122.486 186.423C122.717 186.245 122.964 186.06 123.111 185.813C123.258 185.566 123.304 185.234 123.127 185.018" fill="#EB996E"/>
<path d="M117.784 181.15C118.132 181.142 118.07 183.45 120.008 185.149C121.938 186.847 124.408 186.662 124.416 186.978C124.447 187.125 123.852 187.411 122.81 187.411C121.791 187.418 120.309 187.048 119.128 186.013C117.946 184.971 117.468 183.62 117.414 182.663C117.352 181.698 117.622 181.134 117.784 181.15Z" fill="#263238"/>
<path d="M117.475 157.642C117.252 158.214 115.129 157.882 112.62 158.113C110.111 158.299 108.073 158.97 107.756 158.445C107.617 158.191 107.98 157.658 108.814 157.117C109.64 156.577 110.937 156.083 112.442 155.959C113.947 155.836 115.314 156.114 116.217 156.508C117.12 156.901 117.568 157.372 117.475 157.642Z" fill="#263238"/>
<path d="M137.825 159.719C137.355 160.19 135.587 159.642 133.433 159.557C131.287 159.41 129.457 159.773 129.056 159.256C128.878 159.009 129.179 158.53 129.99 158.09C130.785 157.658 132.105 157.318 133.579 157.395C135.054 157.473 136.32 157.951 137.053 158.461C137.795 158.978 138.034 159.488 137.825 159.719Z" fill="#263238"/>
<path d="M78.744 220.614C78.744 220.614 53.9165 226.443 49.0992 249.981C46.8836 260.797 43.7878 322.912 58.2551 332.562C76.9298 345.015 100.677 333.682 100.677 333.682L97.6271 303.635H82.2103L80.1336 270.717C80.7126 273.249 78.744 220.614 78.744 220.614Z" fill="#FFB501"/>
<path d="M167.061 324.016C171.87 323.522 176.464 321.129 179.629 317.47C182.794 313.81 184.492 308.916 184.284 304.083L174.148 260.99C174.148 260.99 167.57 224.004 146.78 220.676L153.867 277.055L153.188 288.937C153.188 288.937 153.512 296.795 154.307 311.525L167.061 324.016Z" fill="#FFB501"/>
<path d="M169.747 297.05C169.747 297.135 168.281 296.981 166.003 297.459C163.749 297.923 160.661 299.189 158.175 301.721C155.689 304.261 154.493 307.372 154.076 309.641C153.644 311.927 153.829 313.393 153.744 313.393C153.721 313.393 153.659 313.038 153.628 312.374C153.59 311.718 153.613 310.761 153.798 309.587C154.145 307.271 155.334 304.052 157.89 301.435C160.445 298.826 163.641 297.575 165.949 297.181C167.115 296.973 168.072 296.927 168.728 296.95C169.392 296.973 169.755 297.027 169.747 297.05Z" fill="#263238"/>
<path d="M105.695 134.737C108.489 138.489 109.817 141.376 111.492 148.046C112.311 151.312 109.655 153.628 107.015 155.62C105.78 156.554 103.989 155.905 103.649 154.385C103.649 154.385 104.568 164.614 100.87 169.199C99.1327 171.345 99.0633 174.109 99.4724 176.433C99.8893 178.803 101.117 180.941 102.777 182.686C107.061 187.195 108.258 194.552 105.301 200.079C104.544 201.492 103.556 202.789 102.954 204.279C102.607 205.128 102.406 206.085 102.46 206.996C102.53 208.123 101.75 209.119 100.638 209.281C87.9465 211.127 75.0463 211.513 62.2697 210.432C61.3665 210.355 60.6022 209.722 60.3938 208.841C59.3902 204.603 61.0654 199.979 63.2039 196.08C65.5971 191.718 68.6387 187.542 69.4648 182.64C70.2368 178.023 68.9784 173.052 70.8312 168.751C73.1086 163.479 79.2923 160.985 82.3881 156.152C85.3062 151.59 85.0746 145.607 87.6917 140.859C91.0499 134.76 99.318 131.95 105.695 134.737Z" fill="#263238"/>
<path d="M106.405 140.396C111.261 142.89 113.5 148.826 118.217 151.582C122.509 154.084 127.874 153.427 132.792 152.686C132.607 151.598 132.429 150.501 132.244 149.413C132.738 150.37 133.255 151.351 134.066 152.061C134.876 152.771 136.058 153.173 137.053 152.771C138.705 152.107 138.922 149.838 138.497 148.108C137.818 145.344 136.204 142.866 134.205 140.836C130.576 137.146 125.589 134.822 120.432 134.413C115.275 134.004 109.979 135.501 105.811 138.566" fill="#263238"/>
<path d="M151.929 250.29C151.945 250.29 151.96 250.499 151.976 250.9C151.991 251.332 152.007 251.911 152.03 252.637C152.061 254.15 152.138 256.335 152.254 259.029C152.478 264.425 152.979 271.868 153.589 280.089C154.199 288.311 154.655 295.769 154.809 301.173C154.886 303.875 154.917 306.059 154.902 307.573C154.894 308.298 154.886 308.877 154.878 309.31C154.871 309.711 154.855 309.919 154.84 309.919C154.824 309.919 154.809 309.711 154.794 309.31C154.778 308.877 154.763 308.298 154.739 307.573C154.709 306.059 154.631 303.875 154.516 301.18C154.292 295.784 153.79 288.342 153.18 280.113C152.57 271.891 152.115 264.433 151.96 259.029C151.883 256.327 151.852 254.142 151.868 252.629C151.875 251.904 151.883 251.325 151.891 250.892C151.906 250.499 151.922 250.29 151.929 250.29Z" fill="#263238"/>
<path d="M82.2104 303.643C82.195 303.643 82.1795 303.496 82.1564 303.211C82.1332 302.886 82.1101 302.47 82.0792 301.968C82.0174 300.833 81.9325 299.289 81.8244 297.413C81.6083 293.561 81.2686 288.249 80.8671 282.382C80.458 276.538 80.0951 271.25 79.8249 267.351C79.7014 265.468 79.6011 263.924 79.5239 262.797C79.5007 262.295 79.4775 261.886 79.4621 261.554C79.4544 261.268 79.4544 261.121 79.4698 261.121C79.4853 261.121 79.5084 261.268 79.547 261.546C79.5856 261.87 79.6319 262.279 79.686 262.781C79.7941 263.908 79.933 265.452 80.1106 267.328C80.4503 271.173 80.8749 276.484 81.2763 282.351C81.6777 288.218 81.9711 293.545 82.1178 297.398C82.1873 299.328 82.2336 300.887 82.2413 301.968C82.2413 302.47 82.2413 302.879 82.249 303.211C82.2336 303.489 82.2259 303.643 82.2104 303.643Z" fill="#263238"/>
<path d="M82.2105 303.643C82.2182 303.713 81.4076 303.751 80.1878 304.16C78.9835 304.562 77.37 305.419 76.1117 306.909C74.8533 308.399 74.282 310.136 74.0967 311.386C73.896 312.652 74.0041 313.463 73.9269 313.463C73.9037 313.463 73.8497 313.27 73.8111 312.907C73.7648 312.544 73.7493 312.004 73.8188 311.348C73.9423 310.043 74.4982 308.213 75.8106 306.646C77.1307 305.087 78.8445 304.222 80.1029 303.882C80.7359 303.705 81.2686 303.635 81.6392 303.612C82.0097 303.597 82.2105 303.612 82.2105 303.643Z" fill="#263238"/>
<path d="M100.677 333.689C100.661 333.689 100.63 333.527 100.584 333.211C100.538 332.856 100.476 332.4 100.406 331.836C100.267 330.594 100.067 328.88 99.8273 326.788C99.3718 322.472 98.7542 316.605 98.0749 310.112C97.851 307.858 97.6271 305.681 97.4264 303.651L97.6194 303.828C92.6709 303.797 88.3863 303.774 85.2751 303.759C83.7852 303.736 82.5808 303.713 81.693 303.705C81.307 303.689 80.9905 303.682 80.7358 303.674C80.5196 303.666 80.4038 303.651 80.4038 303.643C80.4038 303.635 80.5196 303.62 80.7358 303.612C80.9905 303.604 81.307 303.597 81.693 303.581C82.5808 303.566 83.7852 303.55 85.2751 303.527C88.3863 303.512 92.6709 303.481 97.6194 303.458H97.797L97.8124 303.635C98.0208 305.658 98.2447 307.835 98.4763 310.089C99.1094 316.582 99.6884 322.457 100.113 326.772C100.298 328.872 100.453 330.586 100.561 331.836C100.599 332.4 100.638 332.856 100.661 333.218C100.684 333.519 100.692 333.682 100.677 333.689Z" fill="#263238"/>
<path d="M100.676 333.689C100.684 333.705 100.483 333.774 100.097 333.906C99.6727 334.037 99.1091 334.222 98.4066 334.446C96.9321 334.901 94.7937 335.558 92.1226 336.268C89.4514 336.978 86.2399 337.742 82.6115 338.244C78.9831 338.808 74.8761 338.584 70.7459 337.681C68.6769 337.233 66.6929 336.662 64.8092 336.005C63.8673 335.673 62.9564 335.326 62.0686 334.955C61.6286 334.77 61.1885 334.6 60.7639 334.369L60.1309 334.052L59.5441 333.674C57.9924 332.655 56.7804 331.342 55.8231 330.022C54.8581 328.695 54.1324 327.351 53.5303 326.108C52.3491 323.599 51.6543 321.461 51.1988 319.986C50.975 319.245 50.8051 318.674 50.697 318.28C50.589 317.887 50.5426 317.678 50.5581 317.678C50.5735 317.67 50.643 317.871 50.782 318.257C50.9209 318.674 51.1139 319.238 51.3532 319.94C51.855 321.399 52.5884 323.507 53.7928 325.985C54.4026 327.212 55.1438 328.532 56.101 329.829C57.0583 331.119 58.2472 332.392 59.7603 333.365L60.3316 333.728L60.9415 334.037C61.3429 334.253 61.7907 334.423 62.223 334.608C63.1031 334.971 64.014 335.311 64.9481 335.643C66.8164 336.291 68.7927 336.855 70.8385 337.295C74.9378 338.19 78.9754 338.414 82.5652 337.881C86.1704 337.403 89.3819 336.669 92.0531 335.998C94.7242 335.318 96.8781 334.708 98.3603 334.299C99.0783 334.106 99.6496 333.952 100.074 333.828C100.46 333.72 100.669 333.674 100.676 333.689Z" fill="#263238"/>
<path d="M87.5755 153.026C89.1658 149.444 88.139 144.943 85.3212 142.226C82.4957 139.508 78.1108 138.643 74.3897 139.856C72.7222 140.396 71.1473 141.353 70.1206 142.774C68.2292 145.391 68.5997 149.235 70.5529 151.798C72.5138 154.361 75.7716 155.72 78.9908 155.898C82.2101 156.075 85.4139 155.195 88.3938 153.952" fill="#263238"/>
<path d="M113.245 275.465C118.641 279.92 131.348 290.465 131.348 290.465L138.466 289.199L116.912 271.065C115.754 270.092 114.04 270.185 112.998 271.281C111.847 272.485 111.963 274.407 113.245 275.465Z" fill="#455A64"/>
<path d="M112.673 273.149L109.879 270.625C109.331 270.131 109.276 269.289 109.747 268.726C110.249 268.131 111.145 268.077 111.716 268.602L114.41 271.065L112.673 273.149Z" fill="#455A64"/>
<path d="M121.003 274.508C121.08 274.585 120.308 275.535 119.266 276.631C118.224 277.727 117.321 278.553 117.244 278.476C117.166 278.399 117.938 277.449 118.981 276.353C120.015 275.257 120.926 274.431 121.003 274.508Z" fill="#263238"/>
<path d="M121.219 283.386C121.188 283.432 120.354 282.907 119.065 281.981C117.776 281.054 116.039 279.711 114.217 278.121C113.314 277.341 112.395 276.53 111.947 275.511C111.5 274.492 111.577 273.435 111.878 272.678C112.179 271.906 112.665 271.42 113.02 271.142C113.383 270.872 113.623 270.787 113.63 270.81C113.646 270.841 113.437 270.964 113.121 271.265C112.812 271.566 112.387 272.053 112.148 272.778C111.901 273.489 111.87 274.461 112.287 275.365C112.704 276.283 113.569 277.04 114.48 277.827C116.294 279.41 118 280.784 119.235 281.765C120.478 282.737 121.25 283.339 121.219 283.386Z" fill="#263238"/>
<path d="M97.8662 306.044C102.985 304.322 108.427 305.48 113.546 303.759C115.259 303.18 117.027 302.578 118.386 301.373C120.015 299.93 120.841 297.807 122.138 296.062C126.013 290.843 133.255 289.763 139.716 289.099C141.229 288.944 142.773 288.79 144.24 289.16C145.715 289.531 147.12 290.542 147.529 292.001C147.946 293.46 146.996 295.282 145.491 295.437C146.911 295.499 147.9 296.934 148.162 298.332C148.424 299.729 148.193 301.173 148.378 302.578C148.641 304.554 149.721 306.399 149.66 308.391C149.575 311.116 147.313 313.363 144.796 314.412C142.279 315.462 139.492 315.601 136.798 315.98C123.543 317.848 113.461 325.375 100.676 331.057" fill="#FFBE9D"/>
<path d="M148.285 300.169C148.725 301.08 150.069 301.281 150.895 300.71C151.721 300.131 152.045 299.011 151.898 298.015C151.752 297.012 151.219 296.116 150.617 295.298C149.528 293.808 148.216 292.503 146.903 291.198L142.796 294.634L148.285 300.169Z" fill="#FFBE9D"/>
<path d="M146.772 295.676C146.764 295.8 144.255 295.599 141.222 296.07C138.18 296.518 135.848 297.452 135.802 297.336C135.787 297.29 136.342 296.996 137.3 296.641C138.257 296.286 139.623 295.9 141.16 295.668C142.704 295.437 144.117 295.406 145.136 295.46C146.155 295.514 146.78 295.63 146.772 295.676Z" fill="#EB996E"/>
<path d="M148.579 303.72C148.556 303.844 146.464 303.412 143.87 303.489C141.268 303.543 139.207 304.075 139.176 303.952C139.137 303.859 141.198 303.141 143.862 303.087C146.518 303.01 148.61 303.628 148.579 303.72Z" fill="#EB996E"/>
<path d="M148.146 301.343C148.085 301.335 148.146 300.74 148.031 299.799C147.915 298.864 147.575 297.567 146.788 296.371C146.626 296.116 146.44 295.877 146.263 295.653L146.147 295.506L146.278 295.383C147.135 294.541 147.374 293.414 147.344 292.665C147.328 291.901 147.112 291.453 147.174 291.43C147.205 291.407 147.506 291.824 147.606 292.642C147.706 293.437 147.506 294.696 146.556 295.661L146.572 295.39C146.765 295.622 146.958 295.869 147.135 296.139C147.969 297.405 148.285 298.787 148.324 299.768C148.355 300.756 148.185 301.35 148.146 301.343Z" fill="#EB996E"/>
<path d="M148.294 299.729L155.025 306.052L155.89 309.804L149.66 308.399C148.765 305.226 148.108 302.207 148.294 299.729Z" fill="#455A64"/>
<path d="M139.176 307.773C139.037 308.02 102.838 325.869 102.838 325.869V329.706L139.778 310.491L185.619 308.761V306.044L139.176 307.773Z" fill="#F5F5F5"/>
<path d="M102.831 330.262C103.085 330.092 142.797 326.51 142.797 326.51L185.612 308.761L139.771 310.491L102.831 329.706V330.262Z" fill="#263238"/>
<path d="M140.859 320.758C140.535 318.682 142.527 316.898 144.557 316.342C146.587 315.787 148.757 316.01 150.81 315.54C152.13 315.238 153.365 314.667 154.624 314.181C160.954 311.749 167.902 311.626 174.68 311.533C175.522 313.339 174.827 315.725 173.144 316.798C173.762 318.419 173.576 320.272 172.936 321.885C172.295 323.499 171.237 324.912 170.11 326.232C169.153 327.351 168.103 328.447 166.76 329.034C165.424 329.621 163.926 329.659 162.467 329.69C157.92 329.783 153.041 329.791 149.274 327.235C146.348 325.251 144.325 321.839 140.936 320.828C141.206 320.835 141.469 320.851 141.739 320.859" fill="#FFBE9D"/>
<path d="M171.199 318.234C171.199 318.265 170.89 318.288 170.326 318.319C169.678 318.342 168.883 318.365 167.949 318.396C165.941 318.442 163.17 318.481 160.113 318.496C158.584 318.496 157.133 318.496 155.797 318.496C155.126 318.481 154.47 318.419 153.891 318.203C153.312 317.987 152.825 317.632 152.509 317.199C152.192 316.767 152.069 316.25 152.146 315.833C152.215 315.408 152.416 315.092 152.624 314.883C153.072 314.467 153.458 314.536 153.435 314.544C153.451 314.582 153.095 314.582 152.733 314.991C152.377 315.37 152.107 316.273 152.725 317.03C153.01 317.4 153.458 317.709 153.983 317.886C154.516 318.064 155.134 318.118 155.79 318.126C157.125 318.118 158.577 318.103 160.097 318.095C163.155 318.079 165.926 318.087 167.933 318.118C168.867 318.141 169.663 318.157 170.311 318.172C170.89 318.18 171.199 318.203 171.199 318.234Z" fill="#EB996E"/>
<path d="M168.867 322.048C168.867 322.078 168.481 322.148 167.771 322.264C167.061 322.372 166.034 322.518 164.76 322.642C163.487 322.758 161.95 322.85 160.244 322.75C158.538 322.657 156.693 322.264 154.794 321.831C151.003 320.905 147.483 320.619 144.935 320.619C143.662 320.612 142.627 320.666 141.917 320.704C141.207 320.743 140.805 320.766 140.805 320.735C140.805 320.712 141.191 320.635 141.901 320.542C142.612 320.457 143.646 320.357 144.935 320.334C147.498 320.257 151.081 320.504 154.886 321.438C156.786 321.87 158.6 322.271 160.275 322.38C161.95 322.503 163.471 322.441 164.737 322.356C166.011 322.271 167.038 322.163 167.756 322.109C168.474 322.04 168.867 322.017 168.867 322.048Z" fill="#EB996E"/>
<path d="M165.092 326.124C165.092 326.155 164.791 326.209 164.243 326.286C163.695 326.355 162.892 326.456 161.904 326.541C159.927 326.703 157.14 326.873 154.122 326.286C151.073 325.707 148.703 324.155 146.888 323.429C145.074 322.65 143.831 322.565 143.839 322.495C143.839 322.48 144.155 322.457 144.704 322.542C145.259 322.619 146.055 322.812 146.989 323.167C148.872 323.846 151.235 325.336 154.199 325.892C157.148 326.463 159.912 326.34 161.881 326.255C162.807 326.201 163.587 326.162 164.227 326.124C164.776 326.101 165.084 326.093 165.092 326.124Z" fill="#EB996E"/>
<g opacity="0.2">
<path d="M154.825 305.395C155.211 302.585 155.813 299.775 157.079 297.235C158.345 294.696 160.329 292.441 162.908 291.268C165.486 290.094 168.698 290.141 171.021 291.762C171.724 292.248 172.349 292.889 172.642 293.692C172.936 294.495 172.835 295.468 172.256 296.093C171.4 296.996 169.964 296.857 168.721 296.803C163.054 296.556 157.388 299.968 154.956 305.094" fill="black"/>
</g>
<g opacity="0.2">
<path d="M87.7841 303.049C90.8489 297.513 89.7604 290.573 87.4135 284.706C85.0589 278.831 81.5463 273.435 79.7476 267.367C79.4079 279.634 81.2066 291.963 85.0358 303.62" fill="black"/>
</g>
<path d="M93.219 218.383C93.219 218.383 96.9632 227.207 110.473 226.644C123.983 226.08 124.416 215.604 124.416 215.604L133.456 225.216L124.871 242.91L113.337 251.518L97.6271 245.064L84.6807 235.02L93.219 218.383Z" fill="#FFB501"/>
<g opacity="0.5">
<path d="M61.5824 256.103C61.7214 256.273 59.9535 257.925 57.6375 259.786C55.3215 261.646 53.3297 263.013 53.1908 262.843C53.0518 262.673 54.8197 261.021 57.1357 259.16C59.4517 257.3 61.4434 255.926 61.5824 256.103Z" fill="#FAFAFA"/>
</g>
<path d="M67.9129 246.585C67.8434 246.785 65.7127 246.183 63.4044 244.763C61.0884 243.35 59.5907 241.721 59.7374 241.567C59.8918 241.397 61.5902 242.709 63.829 244.076C66.0601 245.45 67.9978 246.368 67.9129 246.585Z" fill="#FAFAFA"/>
<path d="M79.5162 247.619C79.7014 247.758 77.9953 250.244 76.0499 253.386C74.0967 256.528 72.6376 259.16 72.4292 259.06C72.2362 258.967 73.3865 256.15 75.3628 252.961C77.3391 249.773 79.354 247.48 79.5162 247.619Z" fill="#FAFAFA"/>
<path d="M69.6037 274.446C69.4493 274.585 67.6659 272.771 66.1065 270.069C64.5316 267.374 63.8445 264.927 64.0453 264.858C64.2614 264.773 65.2727 267.043 66.809 269.667C68.3144 272.292 69.7812 274.292 69.6037 274.446Z" fill="#FAFAFA"/>
<path d="M59.2432 287.423C59.0194 287.454 58.5716 285.486 58.2396 283.038C57.9077 280.583 57.815 278.569 58.0312 278.545C58.2474 278.514 58.7028 280.483 59.0348 282.93C59.3745 285.378 59.4671 287.392 59.2432 287.423Z" fill="#FAFAFA"/>
<g opacity="0.5">
<path d="M69.0015 290.959C68.8085 290.851 69.8043 288.782 71.2171 286.343C72.6299 283.903 73.9345 282.012 74.1275 282.127C74.3205 282.236 73.3247 284.304 71.9119 286.752C70.4992 289.183 69.1945 291.075 69.0015 290.959Z" fill="#FAFAFA"/>
</g>
<path d="M57.6686 304.4C57.5065 304.546 55.7849 302.856 54.1174 300.416C52.4421 297.977 51.4849 295.761 51.6779 295.668C51.8786 295.56 53.1369 297.567 54.7813 299.961C56.4179 302.362 57.8384 304.253 57.6686 304.4Z" fill="#FAFAFA"/>
<path d="M73.0697 302.184C73.2241 302.338 71.4563 304.384 69.1094 306.746C66.7625 309.109 64.7399 310.9 64.5777 310.745C64.4233 310.591 66.1912 308.545 68.5381 306.183C70.8773 303.821 72.9076 302.03 73.0697 302.184Z" fill="#FAFAFA"/>
<g opacity="0.5">
<path d="M64.3152 329.922C64.1685 330.076 62.4624 328.648 60.903 326.417C59.3358 324.186 58.5792 322.094 58.7722 322.009C58.9807 321.909 60.0383 323.792 61.5592 325.954C63.0646 328.123 64.4773 329.76 64.3152 329.922Z" fill="#FAFAFA"/>
</g>
<path d="M84.1866 324.31C84.2947 324.503 82.3955 325.792 79.9483 327.189C77.4933 328.586 75.4244 329.567 75.3086 329.374C75.2005 329.181 77.0996 327.892 79.5469 326.494C82.0018 325.097 84.0785 324.117 84.1866 324.31Z" fill="#FAFAFA"/>
<path d="M91.9299 317.917C91.791 318.079 89.9845 316.705 88.3556 314.459C86.7112 312.22 85.9546 310.082 86.1476 310.004C86.3561 309.904 87.4137 311.826 89.0041 313.988C90.5789 316.149 92.0921 317.748 91.9299 317.917Z" fill="#FAFAFA"/>
<path d="M105.587 273.458C105.718 273.635 103.672 275.388 101.024 277.38C98.3684 279.364 96.1065 280.831 95.9752 280.653C95.844 280.475 97.8821 278.723 100.538 276.731C103.193 274.747 105.455 273.28 105.587 273.458Z" fill="#FAFAFA"/>
<path d="M91.1962 272.531C90.9723 272.508 91.0109 270.393 91.2734 267.807C91.5358 265.221 91.9296 263.144 92.1534 263.167C92.3773 263.19 92.3387 265.306 92.0762 267.892C91.806 270.478 91.4123 272.555 91.1962 272.531Z" fill="#FAFAFA"/>
<g opacity="0.5">
<path d="M104.467 254.444C104.344 254.621 101.95 253.147 99.3256 250.9C96.6931 248.661 94.8635 246.53 95.0179 246.384C95.18 246.222 97.2489 248.082 99.8506 250.29C102.445 252.513 104.598 254.258 104.467 254.444Z" fill="#FAFAFA"/>
</g>
<path d="M94.5005 231.886C94.6703 232.032 92.9797 234.302 90.7331 236.95C88.4789 239.606 86.518 241.644 86.3482 241.497C86.1783 241.35 87.869 239.088 90.1233 236.433C92.3698 233.785 94.3307 231.747 94.5005 231.886Z" fill="#FAFAFA"/>
<g opacity="0.5">
<path d="M83.0825 229.469C82.9589 229.67 81.2374 228.782 78.9908 228.026C76.752 227.261 74.8452 226.914 74.8684 226.682C74.8761 226.474 76.9065 226.466 79.2456 227.261C81.5925 228.057 83.1983 229.299 83.0825 229.469Z" fill="#FAFAFA"/>
</g>
<path d="M112.102 239.868C111.886 239.806 112.257 237.93 112.921 235.668C113.584 233.414 114.295 231.639 114.503 231.7C114.719 231.762 114.349 233.638 113.685 235.9C113.029 238.154 112.318 239.938 112.102 239.868Z" fill="#FAFAFA"/>
<path d="M119.042 257.64C118.819 257.624 118.749 255.787 118.873 253.533C119.004 251.278 119.29 249.456 119.506 249.472C119.73 249.487 119.799 251.325 119.676 253.579C119.544 255.833 119.259 257.655 119.042 257.64Z" fill="#FAFAFA"/>
<path d="M130.445 270.972C130.306 271.142 128.615 270.015 126.67 268.455C124.724 266.888 123.257 265.483 123.396 265.313C123.535 265.143 125.226 266.271 127.171 267.83C129.117 269.389 130.584 270.802 130.445 270.972Z" fill="#FAFAFA"/>
<path d="M142.596 252.359C142.743 252.529 141.237 254.096 139.23 255.864C137.223 257.632 135.478 258.937 135.332 258.767C135.185 258.597 136.69 257.03 138.698 255.262C140.705 253.486 142.449 252.189 142.596 252.359Z" fill="#FAFAFA"/>
<g opacity="0.5">
<path d="M137.015 243.566C136.899 243.744 134.984 242.701 132.931 240.995C130.87 239.289 129.488 237.606 129.642 237.459C129.804 237.297 131.418 238.702 133.44 240.378C135.463 242.053 137.138 243.381 137.015 243.566Z" fill="#FAFAFA"/>
</g>
<path d="M151.05 227.894C151.227 228.018 150.293 229.616 148.641 231.16C146.997 232.712 145.345 233.546 145.229 233.368C145.105 233.175 146.503 232.071 148.085 230.573C149.676 229.091 150.864 227.763 151.05 227.894Z" fill="#FAFAFA"/>
<g opacity="0.5">
<path d="M141.399 226.428C141.369 226.644 138.906 226.466 135.965 225.717C133.015 224.976 130.769 223.957 130.846 223.756C130.923 223.54 133.263 224.204 136.165 224.938C139.053 225.679 141.43 226.204 141.399 226.428Z" fill="#FAFAFA"/>
</g>
<g opacity="0.5">
<path d="M159.325 251.379C159.117 251.332 159.596 248.314 160.7 244.724C161.796 241.127 163.077 238.355 163.278 238.44C163.487 238.525 162.552 241.397 161.464 244.963C160.375 248.515 159.549 251.425 159.325 251.379Z" fill="#FAFAFA"/>
</g>
<path d="M163.301 268.409C163.139 268.563 161.232 266.803 159.048 264.487C156.855 262.164 155.211 260.164 155.373 260.01C155.535 259.855 157.442 261.615 159.627 263.931C161.819 266.247 163.463 268.255 163.301 268.409Z" fill="#FAFAFA"/>
<g opacity="0.5">
<path d="M169.454 278.051C169.23 278.044 169.099 275.519 169.145 272.4C169.199 269.281 169.423 266.757 169.647 266.765C169.871 266.765 170.002 269.297 169.956 272.416C169.894 275.535 169.67 278.059 169.454 278.051Z" fill="#FAFAFA"/>
</g>
<path d="M163.208 293.939C163.038 294.063 161.379 292.04 159.85 289.214C158.314 286.389 157.526 283.895 157.727 283.818C157.943 283.733 159.047 286.049 160.56 288.828C162.058 291.608 163.394 293.808 163.208 293.939Z" fill="#FAFAFA"/>
<path d="M179.15 296.842C179.305 297.004 178.232 298.301 176.757 299.737C175.283 301.18 173.955 302.215 173.8 302.06C173.646 301.898 174.719 300.601 176.194 299.165C177.676 297.722 178.996 296.68 179.15 296.842Z" fill="#FAFAFA"/>
<g opacity="0.5">
<path d="M140.334 278.731C140.133 278.669 140.844 276.137 142.673 273.504C144.488 270.856 146.603 269.297 146.734 269.459C146.896 269.636 145.082 271.412 143.337 273.96C141.569 276.5 140.55 278.823 140.334 278.731Z" fill="#FAFAFA"/>
</g>
<path d="M95.3186 299.914C95.1024 299.86 95.4807 297.567 96.1678 294.788C96.8549 292.009 97.5806 289.793 97.7967 289.847C98.0129 289.902 97.6346 292.194 96.9475 294.981C96.2604 297.76 95.527 299.968 95.3186 299.914Z" fill="#FAFAFA"/>
<path d="M114.279 301.806C114.156 301.991 112.233 300.957 109.987 299.49C107.74 298.023 106.011 296.68 106.135 296.494C106.258 296.309 108.18 297.344 110.427 298.81C112.673 300.277 114.403 301.62 114.279 301.806Z" fill="#FAFAFA"/>
<path d="M113.33 288.126C113.144 288.249 112.241 287.223 111.315 285.833C110.388 284.443 109.779 283.216 109.964 283.092C110.149 282.969 111.052 283.996 111.979 285.385C112.905 286.775 113.515 288.002 113.33 288.126Z" fill="#FAFAFA"/>
<path d="M121.69 291.245C121.822 291.43 121.003 292.217 119.876 293.013C118.749 293.808 117.73 294.302 117.599 294.117C117.468 293.931 118.286 293.144 119.413 292.349C120.54 291.554 121.559 291.059 121.69 291.245Z" fill="#FAFAFA"/>
<g opacity="0.5">
<path d="M99.8583 346.744C99.6421 346.674 99.9972 344.922 100.314 342.76C100.638 340.599 100.808 338.815 101.039 338.815C101.256 338.808 101.449 340.645 101.109 342.876C100.777 345.107 100.059 346.813 99.8583 346.744Z" fill="#FAFAFA"/>
</g>
<g opacity="0.5">
<path d="M119.096 340.483C118.903 340.591 117.437 338.383 115.823 335.542C114.21 332.701 113.052 330.316 113.245 330.208C113.438 330.1 114.904 332.307 116.518 335.148C118.131 337.982 119.289 340.367 119.096 340.483Z" fill="#FAFAFA"/>
</g>
<g opacity="0.5">
<path d="M139.5 331.875C139.678 332.006 137.74 334.832 135.177 338.182C132.614 341.533 130.391 344.142 130.221 344.003C130.043 343.872 131.981 341.046 134.544 337.696C137.107 334.345 139.33 331.736 139.5 331.875Z" fill="#FAFAFA"/>
</g>
<g opacity="0.5">
<path d="M145.252 348.265C145.283 348.481 142.727 349.037 139.547 349.5C136.366 349.963 133.757 350.156 133.726 349.932C133.695 349.716 136.25 349.16 139.431 348.697C142.612 348.241 145.221 348.041 145.252 348.265Z" fill="#FAFAFA"/>
</g>
<path d="M146.139 340.004C145.916 339.95 146.116 338.306 146.201 336.283C146.294 334.261 146.24 332.601 146.464 332.57C146.672 332.539 147.097 334.207 147.004 336.314C146.911 338.422 146.348 340.058 146.139 340.004Z" fill="#FAFAFA"/>
<path d="M118.587 349.623C118.51 349.816 116.425 349.129 114.248 347.554C112.063 345.995 110.743 344.235 110.905 344.104C111.075 343.949 112.612 345.401 114.719 346.906C116.811 348.419 118.68 349.407 118.587 349.623Z" fill="#FAFAFA"/>
<path d="M85.8463 348.404C85.6302 348.35 85.8926 346.589 86.4253 344.466C86.958 342.343 87.5679 340.668 87.784 340.722C88.0002 340.776 87.7377 342.536 87.205 344.659C86.6646 346.782 86.0625 348.458 85.8463 348.404Z" fill="#FAFAFA"/>
<path d="M82.2873 153.134C82.3337 153.072 83.2137 153.829 84.8272 154.709C85.6301 155.157 86.6337 155.604 87.784 155.998C88.942 156.369 90.2389 156.685 91.6363 156.855C93.0336 157.009 94.3691 156.994 95.5812 156.894C96.7932 156.77 97.874 156.562 98.7541 156.307C100.53 155.813 101.556 155.272 101.587 155.35C101.603 155.373 101.348 155.519 100.885 155.759C100.653 155.882 100.368 156.021 100.02 156.152C99.6728 156.284 99.2868 156.461 98.8313 156.585C97.9435 156.878 96.8473 157.117 95.6121 157.264C94.3769 157.388 93.0104 157.411 91.5822 157.256C90.1617 157.087 88.8262 156.747 87.6605 156.345C86.4947 155.921 85.4834 155.442 84.6805 154.948C84.2714 154.724 83.9317 154.47 83.6229 154.261C83.3141 154.053 83.0671 153.852 82.8663 153.682C82.4803 153.35 82.2642 153.157 82.2873 153.134Z" fill="#455A64"/>
<path d="M102.228 162.02C102.236 162.043 101.935 162.143 101.387 162.282C100.839 162.421 100.036 162.599 99.0397 162.776C97.0557 163.116 94.207 163.448 91.1345 162.823C88.0542 162.182 85.5992 160.507 84.3023 158.924C83.6461 158.136 83.2292 157.411 83.0053 156.886C82.7814 156.361 82.7042 156.052 82.7197 156.052C82.8046 156.006 83.1674 157.249 84.5107 158.739C85.8231 160.229 88.224 161.811 91.2117 162.429C94.207 163.039 97.0094 162.761 98.9934 162.498C99.9893 162.359 100.792 162.22 101.348 162.135C101.912 162.035 102.22 161.989 102.228 162.02Z" fill="#455A64"/>
<path d="M74.7373 209.266C74.7296 209.274 74.6987 209.235 74.637 209.158C74.5752 209.081 74.4748 208.973 74.3745 208.811C74.166 208.494 73.9036 207.985 73.7569 207.267C73.4558 205.862 73.7723 203.561 75.4553 201.531C76.289 200.527 77.4161 199.632 78.6822 198.805C79.9483 197.972 81.3688 197.2 82.7661 196.266C84.148 195.324 85.5376 194.174 86.4871 192.637C86.9581 191.873 87.29 191.001 87.4136 190.09C87.5448 189.171 87.4676 188.221 87.2669 187.28C86.8423 185.396 86.0008 183.674 85.3137 181.953C84.6035 180.247 84.0476 178.486 84.009 176.757C83.8701 173.283 85.1593 170.288 86.657 168.203C88.1701 166.08 89.938 164.845 91.2118 164.189C91.5283 164.035 91.8217 163.896 92.0764 163.772C92.3312 163.687 92.5473 163.61 92.7403 163.541C93.1032 163.417 93.2885 163.363 93.2962 163.378C93.3039 163.394 93.1186 163.471 92.7712 163.618C92.5859 163.695 92.3698 163.78 92.1305 163.88C91.8834 164.011 91.6055 164.158 91.289 164.32C90.0538 165.015 88.3477 166.258 86.8963 168.358C85.4604 170.419 84.2252 173.368 84.3873 176.734C84.4413 178.409 84.974 180.108 85.6843 181.798C86.3713 183.497 87.2283 185.234 87.6683 187.187C87.8845 188.16 87.9617 189.163 87.8227 190.136C87.6915 191.109 87.3363 192.035 86.8423 192.838C85.8387 194.459 84.4027 195.617 82.99 196.574C81.5618 197.524 80.1413 198.273 78.883 199.091C77.6169 199.894 76.5129 200.759 75.6869 201.724C74.0348 203.661 73.6797 205.877 73.9267 207.243C74.166 208.649 74.7991 209.235 74.7373 209.266Z" fill="#455A64"/>
<path d="M95.3034 209.544C95.2957 209.559 95.1413 209.467 94.8557 209.289C94.5932 209.089 94.1918 208.764 93.8598 208.208C93.5201 207.66 93.2499 206.896 93.165 205.985C93.0801 205.074 93.1804 204.024 93.5047 202.913C94.13 200.643 96.0291 198.582 97.4496 195.995C98.1598 194.698 98.6616 193.201 98.6076 191.595C98.5767 189.997 98.0981 188.368 97.3647 186.832C95.8979 183.728 93.6436 181.258 92.0842 178.679C91.2968 177.398 90.6483 176.093 90.2623 174.796C89.8531 173.499 89.7759 172.218 89.884 171.075C90.1002 168.767 91.1655 167.084 92.1305 166.25C92.6246 165.841 93.0569 165.586 93.3657 165.455C93.6745 165.332 93.8444 165.27 93.8444 165.285C93.8752 165.339 93.1573 165.525 92.2309 166.366C91.3276 167.208 90.3395 168.86 90.1619 171.106C90.077 172.218 90.1619 173.453 90.5788 174.704C90.9725 175.962 91.6133 177.228 92.393 178.486C93.1804 179.753 94.1146 181.011 95.0718 182.339C96.0291 183.659 96.9787 185.087 97.7198 186.67C98.4609 188.245 98.9627 189.927 98.9936 191.603C99.0399 193.278 98.4995 194.868 97.7661 196.181C96.2916 198.813 94.4002 200.836 93.7672 203.005C93.4429 204.07 93.3194 205.09 93.3812 205.977C93.4429 206.857 93.6822 207.599 93.9833 208.139C94.6164 209.227 95.3575 209.49 95.3034 209.544Z" fill="#455A64"/>
<path d="M125.766 151.59C125.759 151.605 125.658 151.559 125.473 151.466C125.288 151.374 125.025 151.212 124.709 150.98C124.076 150.509 123.25 149.699 122.485 148.502C121.706 147.321 121.05 145.769 120.347 144.071C119.992 143.221 119.614 142.334 119.143 141.461C118.656 140.597 118.116 139.717 117.437 138.914C114.765 135.617 111.168 133.849 108.512 133.162C105.826 132.46 104.066 132.622 104.073 132.529C104.073 132.506 104.506 132.475 105.285 132.46C106.065 132.491 107.208 132.552 108.582 132.892C109.948 133.224 111.546 133.788 113.152 134.745C114.75 135.694 116.394 136.976 117.745 138.667C118.44 139.493 118.996 140.396 119.482 141.284C119.953 142.179 120.332 143.082 120.679 143.939C121.366 145.653 121.984 147.19 122.717 148.363C123.427 149.552 124.199 150.37 124.794 150.864C125.404 151.358 125.79 151.559 125.766 151.59Z" fill="#455A64"/>
<path d="M136.536 151.528C136.536 151.544 136.389 151.528 136.119 151.482C135.849 151.443 135.455 151.351 134.961 151.181C133.973 150.849 132.614 150.108 131.278 148.788C129.935 147.491 128.638 145.661 127.457 143.507C126.245 141.384 125.072 138.945 123.257 136.822C121.459 134.675 119.019 133.394 116.703 132.738C114.372 132.074 112.164 131.943 110.326 131.888C108.481 131.85 106.991 131.927 105.957 131.966C105.478 131.981 105.084 131.997 104.768 132.012C104.498 132.02 104.351 132.02 104.351 132.004C104.351 131.989 104.49 131.966 104.76 131.935C105.03 131.904 105.432 131.858 105.949 131.811C106.976 131.726 108.474 131.603 110.326 131.603C112.179 131.618 114.41 131.726 116.796 132.383C119.166 133.031 121.698 134.351 123.551 136.559C125.411 138.744 126.577 141.207 127.766 143.33C128.916 145.476 130.167 147.29 131.464 148.587C132.745 149.899 134.05 150.656 134.999 151.034C135.972 151.412 136.543 151.482 136.536 151.528Z" fill="#455A64"/>
<path d="M154.763 201.631C154.717 201.616 154.964 201.083 155.218 200.072C155.473 199.068 155.767 197.57 155.682 195.71C155.612 193.865 155.172 191.641 154.037 189.472C153.474 188.383 152.725 187.341 151.829 186.345C150.934 185.35 149.915 184.408 148.88 183.42C147.846 182.431 146.842 181.435 146.016 180.347C145.182 179.266 144.503 178.139 143.955 177.012C143.407 175.893 142.998 174.765 142.712 173.692C142.411 172.619 142.226 171.6 142.133 170.666C141.925 168.79 142.033 167.254 142.179 166.219C142.241 165.694 142.334 165.301 142.396 165.03C142.457 164.76 142.496 164.621 142.504 164.621C142.542 164.629 142.426 165.2 142.334 166.235C142.241 167.269 142.179 168.79 142.419 170.635C142.535 171.554 142.735 172.557 143.036 173.607C143.33 174.657 143.747 175.754 144.295 176.85C144.835 177.946 145.514 179.05 146.333 180.1C147.143 181.158 148.132 182.138 149.158 183.118C150.193 184.107 151.22 185.056 152.123 186.067C153.034 187.079 153.798 188.167 154.369 189.287C155.52 191.526 155.936 193.803 155.967 195.687C156.014 197.578 155.674 199.091 155.373 200.095C155.218 200.597 155.072 200.983 154.956 201.23C154.84 201.507 154.778 201.639 154.763 201.631Z" fill="#455A64"/>
<path d="M70.1904 150.918C70.1673 150.918 70.1827 150.64 70.2908 150.162C70.3912 149.683 70.6228 148.996 71.0474 148.216C71.8657 146.68 73.7108 144.742 76.3973 144.086C79.0916 143.453 81.616 144.341 83.0365 145.344C83.7699 145.846 84.2794 146.348 84.5882 146.734C84.897 147.112 85.036 147.352 85.0206 147.367C84.9588 147.429 84.3412 146.502 82.8821 145.584C81.4616 144.673 79.0453 143.878 76.49 144.48C73.9424 145.105 72.1436 146.904 71.2867 148.363C70.4066 149.838 70.2754 150.941 70.1904 150.918Z" fill="#455A64"/>
<path d="M77.6711 154.168C77.6248 154.161 77.6711 153.489 77.8873 152.416C78.1111 151.366 78.5049 149.807 79.7092 148.548C80.9675 147.282 82.7509 147.128 83.8008 147.514C84.3335 147.707 84.7117 148.008 84.897 148.263C85.09 148.51 85.1518 148.672 85.1286 148.687C85.0669 148.749 84.7272 148.077 83.7159 147.784C82.7431 147.498 81.1219 147.699 79.9948 148.834C78.8831 149.992 78.4508 151.466 78.1575 152.493C77.8873 153.52 77.7329 154.176 77.6711 154.168Z" fill="#455A64"/>
<path d="M87.4832 142.859C87.5913 142.928 86.3021 144.627 85.4529 147.066C84.5882 149.498 84.5342 151.621 84.403 151.613C84.3103 151.629 84.1791 149.436 85.0746 146.927C85.947 144.418 87.4138 142.789 87.4832 142.859Z" fill="#FFB501"/>
<path d="M210.987 161.68C210.987 163.008 212.06 164.081 213.388 164.081C214.716 164.081 215.789 163.008 215.789 161.68C215.789 160.352 214.716 159.279 213.388 159.279C212.06 159.279 210.987 160.352 210.987 161.68Z" fill="#455A64"/>
<path d="M203.769 164.081C205.095 164.081 206.17 163.006 206.17 161.68C206.17 160.354 205.095 159.279 203.769 159.279C202.443 159.279 201.368 160.354 201.368 161.68C201.368 163.006 202.443 164.081 203.769 164.081Z" fill="#455A64"/>
<path d="M191.78 160.476C191.116 161.626 191.51 163.093 192.66 163.757C193.81 164.421 195.277 164.027 195.941 162.877C196.605 161.726 196.211 160.259 195.061 159.596C193.911 158.932 192.444 159.325 191.78 160.476Z" fill="#455A64"/>
<path d="M203.623 133.618C203.623 133.61 203.461 133.602 203.136 133.61C202.781 133.618 202.31 133.633 201.708 133.649C201.392 133.664 201.044 133.664 200.658 133.695C200.272 133.749 199.855 133.811 199.4 133.872C198.944 133.942 198.45 134.011 197.933 134.081C197.416 134.212 196.868 134.343 196.289 134.49C193.98 135.085 191.186 136.096 188.329 137.956C185.473 139.786 182.508 142.411 180.1 145.97C177.738 149.536 175.916 154.022 175.429 159.063C175.383 160.321 175.229 161.61 175.352 162.907C175.398 163.556 175.383 164.22 175.483 164.876C175.584 165.532 175.684 166.196 175.784 166.86C176.325 169.493 177.104 172.187 178.455 174.688C179.776 177.205 181.489 179.598 183.574 181.729C185.697 183.813 188.183 185.627 190.946 187.025C193.702 188.43 196.752 189.402 199.933 189.781C200.72 189.935 201.523 189.935 202.326 189.981C203.129 190.035 203.939 190.066 204.75 190.028C206.371 189.958 207.992 189.758 209.598 189.418C213.087 188.677 216.368 187.256 219.256 185.357L218.962 185.388C222.313 186.731 225.594 188.051 228.798 189.333L229.377 189.565L229.207 188.962C228.211 185.349 227.246 181.845 226.312 178.448L226.265 178.71C229.029 175.043 230.789 170.851 231.515 166.69C231.878 164.614 232.032 162.537 231.901 160.53C231.855 159.526 231.808 158.538 231.623 157.573C231.546 157.087 231.476 156.608 231.399 156.137C231.314 155.666 231.168 155.203 231.052 154.747C229.153 147.344 224.59 141.878 220.074 138.744C217.812 137.153 215.581 136.011 213.543 135.301C213.033 135.115 212.547 134.946 212.068 134.776C211.582 134.652 211.119 134.536 210.671 134.421C210.223 134.313 209.799 134.204 209.39 134.104C208.98 134.027 208.587 133.981 208.216 133.927C207.475 133.834 206.819 133.703 206.247 133.672C205.684 133.656 205.205 133.633 204.804 133.625C204.441 133.618 204.148 133.61 203.924 133.602C203.723 133.602 203.623 133.602 203.623 133.618C203.623 133.625 203.723 133.641 203.924 133.656C204.148 133.672 204.441 133.695 204.804 133.726C205.205 133.749 205.684 133.788 206.24 133.826C206.811 133.873 207.452 134.011 208.193 134.12C211.088 134.652 215.427 135.802 219.866 139.045C224.297 142.179 228.736 147.591 230.565 154.871C230.674 155.326 230.813 155.774 230.897 156.237C230.967 156.708 231.036 157.179 231.106 157.65C231.283 158.592 231.33 159.565 231.368 160.553C231.5 162.521 231.337 164.552 230.967 166.59C230.241 170.666 228.504 174.758 225.787 178.347L225.702 178.463L225.74 178.602C226.667 181.999 227.624 185.512 228.612 189.125L229.029 188.754C225.825 187.465 222.544 186.145 219.194 184.794L219.04 184.732L218.901 184.825C216.075 186.677 212.871 188.067 209.459 188.793C207.892 189.132 206.302 189.325 204.719 189.395C203.924 189.433 203.136 189.402 202.349 189.348C201.561 189.302 200.774 189.302 200.01 189.148C196.906 188.777 193.919 187.835 191.224 186.461C188.522 185.102 186.091 183.335 184.006 181.296C181.96 179.212 180.285 176.873 178.98 174.418C177.645 171.963 176.873 169.33 176.332 166.752C176.232 166.103 176.132 165.455 176.031 164.807C175.939 164.166 175.946 163.517 175.9 162.877C175.777 161.595 175.923 160.337 175.962 159.101C176.41 154.153 178.178 149.737 180.478 146.209C182.825 142.689 185.728 140.079 188.53 138.242C191.332 136.374 194.081 135.339 196.358 134.714C196.929 134.56 197.47 134.421 197.979 134.282C198.497 134.197 198.983 134.12 199.431 134.042C199.878 133.965 200.295 133.903 200.681 133.834C201.067 133.795 201.415 133.78 201.724 133.757C202.326 133.71 202.797 133.68 203.144 133.656C203.461 133.649 203.623 133.625 203.623 133.618Z" fill="#455A64"/>
</svg>
