<svg width="290" height="349" viewBox="0 0 290 349" fill="none" xmlns="http://www.w3.org/2000/svg">
<g clip-path="url(#clip0_59_1751)">
<path d="M137.496 21.9036C139.593 35.8113 129.972 48.7879 116.005 50.8961C102.039 52.9968 89.0064 43.4245 86.9089 29.5167C84.8114 15.609 94.4331 2.63242 108.399 0.531729C122.373 -1.57641 135.398 7.99587 137.496 21.9036Z" fill="#F5F5F5"/>
<path d="M131.479 22.8123C133.077 33.4126 125.747 43.3052 115.102 44.9068C104.458 46.5084 94.5301 39.2156 92.9252 28.6153C91.3278 18.015 98.6579 8.12244 109.302 6.52085C119.954 4.91926 129.882 12.2121 131.479 22.8123Z" fill="#EBEBEB"/>
<path d="M131.382 22.2091C131.263 22.2315 131.054 21.3971 130.524 19.9743C129.986 18.559 129.083 16.5253 127.411 14.4097C126.575 13.3594 125.56 12.2867 124.328 11.296C123.097 10.3201 121.671 9.40385 120.059 8.68873C119.252 8.33116 118.402 8.01084 117.513 7.76502C116.625 7.51175 115.699 7.31062 114.751 7.19143C113.803 7.07224 112.826 7.0052 111.833 7.03499C110.84 7.06479 109.84 7.16163 108.84 7.34041C107.839 7.52664 106.869 7.78737 105.928 8.11513C104.988 8.43545 104.1 8.84516 103.256 9.29212C102.405 9.73907 101.614 10.2531 100.875 10.8043C100.128 11.3481 99.4492 11.9515 98.8222 12.5698C97.5607 13.8064 96.553 15.1696 95.7543 16.5179C94.9631 17.8736 94.3883 19.2369 93.9778 20.5181C93.1641 23.0881 93.0447 25.3005 93.0447 26.8202C93.0522 28.3398 93.1492 29.1965 93.0372 29.2114C92.9551 29.2263 92.6565 28.4069 92.4625 26.85C92.2833 25.3005 92.2385 22.9764 92.9626 20.2276C93.3283 18.8569 93.8733 17.3894 94.672 15.9145C95.4781 14.447 96.5157 12.9646 97.8444 11.6088C98.5012 10.931 99.2253 10.2754 100.017 9.67203C100.808 9.06864 101.651 8.5025 102.562 8.01085C103.473 7.5192 104.428 7.07224 105.436 6.72213C106.443 6.36456 107.496 6.08894 108.571 5.88036C109.653 5.68668 110.736 5.58239 111.803 5.56004C112.87 5.53025 113.923 5.61219 114.953 5.75373C115.976 5.88781 116.968 6.11874 117.924 6.40926C118.879 6.68488 119.782 7.04989 120.641 7.45215C122.358 8.24922 123.858 9.26977 125.134 10.3574C126.403 11.4524 127.441 12.6294 128.262 13.784C129.912 16.1007 130.703 18.2908 131.084 19.803C131.457 21.3226 131.472 22.1942 131.382 22.2091Z" fill="#A0A0A0"/>
<path d="M116.117 36.8542L116.67 40.1989L113.677 40.6905L113.139 37.4352C110.146 37.7481 107.153 37.2862 105.294 36.2806L106.331 32.3697C108.011 33.2264 110.295 33.6808 112.49 33.5318L111.661 28.5483C108.205 28.295 104.316 27.8033 103.607 23.5275C103.084 20.3615 104.936 17.2701 109.571 15.9516L109.019 12.6367L112.012 12.145L112.549 15.4003C114.826 15.2067 117.103 15.445 118.924 16.2198L118.036 20.1381C116.364 19.5272 114.729 19.2739 113.199 19.341L114.042 24.4139C117.491 24.6374 121.32 25.144 122.022 29.3528C122.544 32.4517 120.723 35.5133 116.117 36.8542ZM110.937 24.1607L110.235 19.922C108.713 20.5403 108.227 21.5087 108.392 22.4995C108.563 23.5424 109.556 23.9595 110.937 24.1607ZM117.274 30.5C117.103 29.4571 116.14 29.0325 114.781 28.7941L115.468 32.9135C116.909 32.3399 117.439 31.4609 117.274 30.5Z" fill="#A0A0A0"/>
<path d="M290.853 160.385C292.145 168.922 286.24 176.885 277.664 178.174C269.087 179.463 261.092 173.593 259.809 165.056C258.517 156.519 264.422 148.556 272.998 147.267C281.568 145.971 289.562 151.848 290.853 160.385Z" fill="#F5F5F5"/>
<path d="M287.158 160.936C288.144 167.439 283.643 173.511 277.111 174.494C270.58 175.477 264.489 171 263.503 164.497C262.518 157.994 267.019 151.923 273.551 150.939C280.082 149.956 286.173 154.433 287.158 160.936Z" fill="#EBEBEB"/>
<path d="M287.099 160.571C287.024 160.586 286.897 160.072 286.569 159.201C286.24 158.329 285.681 157.085 284.658 155.789C284.143 155.141 283.523 154.485 282.769 153.882C282.016 153.279 281.142 152.72 280.149 152.28C279.657 152.057 279.134 151.863 278.589 151.714C278.044 151.558 277.477 151.431 276.895 151.364C276.313 151.29 275.715 151.252 275.103 151.267C274.499 151.282 273.879 151.349 273.267 151.453C272.655 151.573 272.058 151.729 271.483 151.93C270.908 152.124 270.363 152.377 269.841 152.653C269.318 152.928 268.833 153.241 268.378 153.576C267.923 153.912 267.505 154.277 267.116 154.657C266.34 155.416 265.728 156.251 265.235 157.078C264.75 157.912 264.392 158.746 264.146 159.528C263.645 161.1 263.571 162.463 263.571 163.395C263.578 164.326 263.638 164.855 263.563 164.862C263.511 164.87 263.332 164.37 263.212 163.417C263.101 162.463 263.078 161.041 263.519 159.35C263.742 158.508 264.078 157.607 264.571 156.705C265.064 155.804 265.706 154.895 266.519 154.061C266.922 153.644 267.363 153.241 267.848 152.876C268.333 152.504 268.848 152.161 269.408 151.856C269.968 151.558 270.55 151.282 271.17 151.066C271.789 150.85 272.431 150.679 273.095 150.552C273.76 150.433 274.424 150.373 275.081 150.351C275.738 150.336 276.38 150.381 277.014 150.47C277.641 150.552 278.253 150.694 278.836 150.872C279.418 151.044 279.978 151.267 280.5 151.513C281.553 152.005 282.471 152.63 283.255 153.293C284.031 153.964 284.673 154.686 285.173 155.394C286.188 156.817 286.673 158.158 286.905 159.089C287.144 160.028 287.151 160.564 287.099 160.571Z" fill="#A0A0A0"/>
<path d="M277.731 169.555L278.074 171.604L276.238 171.909L275.909 169.913C274.073 170.106 272.237 169.823 271.095 169.205L271.737 166.806C272.767 167.335 274.17 167.611 275.514 167.522L275.006 164.46C272.886 164.303 270.498 163.998 270.065 161.383C269.744 159.439 270.878 157.54 273.722 156.735L273.386 154.701L275.223 154.396L275.551 156.392C276.947 156.273 278.343 156.422 279.463 156.891L278.918 159.298C277.895 158.918 276.887 158.769 275.954 158.806L276.469 161.92C278.582 162.061 280.94 162.367 281.366 164.952C281.679 166.859 280.552 168.736 277.731 169.555ZM274.551 161.763L274.118 159.164C273.185 159.543 272.886 160.139 272.983 160.743C273.095 161.383 273.7 161.644 274.551 161.763ZM278.44 165.659C278.335 165.019 277.746 164.758 276.91 164.616L277.328 167.142C278.216 166.784 278.537 166.248 278.44 165.659Z" fill="#A0A0A0"/>
<path d="M69.0912 175.678C70.8379 187.262 62.8285 198.063 51.1988 199.814C39.5691 201.564 28.7233 193.594 26.9766 182.01C25.2299 170.427 33.2393 159.625 44.8689 157.875C56.4911 156.124 67.3445 164.095 69.0912 175.678Z" fill="#F5F5F5"/>
<path d="M64.0825 176.431C65.4186 185.258 59.3127 193.489 50.4449 194.823C41.5845 196.156 33.3139 190.085 31.9852 181.258C30.6565 172.43 36.755 164.199 45.6228 162.866C54.4832 161.532 62.7463 167.603 64.0825 176.431Z" fill="#EBEBEB"/>
<path d="M64.0003 175.924C63.9033 175.939 63.7316 175.246 63.2837 174.062C62.8359 172.885 62.082 171.194 60.6936 169.428C59.9994 168.549 59.1484 167.663 58.1258 166.836C57.1032 166.024 55.9163 165.257 54.5652 164.668C53.8934 164.37 53.1843 164.102 52.4453 163.901C51.7063 163.692 50.9375 163.521 50.1463 163.424C49.355 163.327 48.5414 163.268 47.7203 163.298C46.8992 163.32 46.0632 163.402 45.2272 163.551C44.3911 163.707 43.585 163.923 42.8087 164.192C42.0249 164.46 41.2859 164.802 40.5843 165.167C39.8751 165.54 39.2183 165.972 38.5987 166.426C37.9791 166.881 37.4118 167.38 36.8893 167.894C35.8443 168.922 35.0008 170.054 34.329 171.179C33.6647 172.311 33.187 173.443 32.8511 174.509C32.1718 176.647 32.0747 178.494 32.0747 179.753C32.0822 181.019 32.1643 181.727 32.0673 181.749C31.9926 181.764 31.7538 181.079 31.5896 179.783C31.4403 178.494 31.4029 176.557 32.0076 174.27C32.3136 173.131 32.7689 171.909 33.4333 170.68C34.1051 169.458 34.971 168.222 36.0757 167.097C36.6206 166.531 37.2252 165.987 37.8821 165.488C38.539 164.989 39.2406 164.512 40.002 164.11C40.7559 163.7 41.5546 163.327 42.3981 163.037C43.2341 162.739 44.115 162.508 45.0107 162.337C45.9139 162.18 46.8096 162.091 47.6979 162.068C48.5862 162.046 49.467 162.113 50.3179 162.225C51.1689 162.337 51.9974 162.53 52.7887 162.769C53.5799 163 54.3338 163.298 55.0504 163.633C56.4836 164.296 57.7302 165.145 58.7901 166.054C59.8426 166.97 60.7085 167.946 61.3952 168.907C62.7687 170.836 63.4256 172.661 63.7465 173.92C64.06 175.187 64.0675 175.917 64.0003 175.924Z" fill="#A0A0A0"/>
<path d="M51.2884 188.119L51.7512 190.905L49.258 191.314L48.8102 188.603C46.317 188.864 43.8239 188.484 42.2788 187.642L43.1446 184.387C44.5405 185.102 46.4439 185.474 48.2653 185.355L47.5785 181.206C44.7047 180.99 41.4651 180.58 40.8754 177.027C40.435 174.39 41.9802 171.812 45.8393 170.717L45.384 167.961L47.8771 167.551L48.325 170.263C50.221 170.106 52.1169 170.3 53.6322 170.941L52.8932 174.203C51.5049 173.689 50.1389 173.481 48.8699 173.54L49.5716 177.764C52.4454 177.95 55.6327 178.375 56.2149 181.876C56.6404 184.454 55.1177 187.001 51.2884 188.119ZM46.9739 177.548L46.3842 174.017C45.1153 174.531 44.7122 175.343 44.8465 176.163C44.9958 177.034 45.8244 177.384 46.9739 177.548ZM52.2513 182.83C52.1095 181.958 51.3033 181.608 50.1762 181.407L50.7435 184.834C51.9453 184.364 52.3857 183.627 52.2513 182.83Z" fill="#A0A0A0"/>
<path d="M355.877 320.656C355.877 320.76 280.09 320.849 186.619 320.849C93.1194 320.849 17.34 320.76 17.34 320.656C17.34 320.551 93.1119 320.462 186.619 320.462C280.09 320.462 355.877 320.544 355.877 320.656Z" fill="#2B2B2B"/>
<path d="M138.078 320.626H33.7768C30.164 320.626 27.2379 317.706 27.2379 314.101V224.479C27.2379 220.873 30.164 217.953 33.7768 217.953H138.085C141.698 217.953 144.624 220.873 144.624 224.479V314.101C144.617 317.706 141.691 320.626 138.078 320.626Z" fill="#A7A7A7"/>
<g opacity="0.3">
<path d="M27.2379 285.287H69.9945C71.6366 285.287 72.9728 283.961 72.9728 282.315H27.3573L27.2379 285.287Z" fill="black"/>
</g>
<path d="M71.0096 282.687H27.8127C25.7599 282.687 24.0879 281.026 24.0879 278.97V259.751C24.0879 257.702 25.7525 256.034 27.8127 256.034H71.0022C73.0549 256.034 74.7269 257.695 74.7269 259.751V278.97C74.7269 281.026 73.0623 282.687 71.0096 282.687Z" fill="#A7A7A7"/>
<path d="M71.0096 282.687C71.0021 282.65 71.547 282.732 72.4577 282.352C72.8981 282.151 73.4206 281.815 73.8685 281.257C74.3014 280.705 74.6523 279.916 74.6523 278.992C74.6373 275.23 74.6149 269.822 74.5926 263.133C74.5926 262.298 74.5851 261.442 74.5851 260.563C74.5776 260.123 74.6 259.676 74.5403 259.259C74.4806 258.834 74.3462 258.417 74.1298 258.03C73.7043 257.263 72.9728 256.644 72.0994 256.369C71.659 256.227 71.2111 256.19 70.7259 256.197C70.2408 256.197 69.7556 256.197 69.2629 256.197C65.3217 256.205 61.1042 256.212 56.6703 256.212C47.8025 256.22 38.0465 256.22 27.8126 256.227C26.5959 256.22 25.4091 256.883 24.797 257.918C24.476 258.425 24.3118 259.013 24.2894 259.609C24.2745 260.22 24.2819 260.853 24.2819 261.472C24.2819 263.96 24.2819 266.41 24.2819 268.816C24.2819 271.223 24.282 273.591 24.2745 275.908C24.282 277.055 24.2521 278.232 24.2894 279.327C24.4014 280.4 25.0209 281.398 25.9241 281.949C26.372 282.233 26.8796 282.411 27.3946 282.471C27.9022 282.523 28.4695 282.486 29.007 282.501C30.0893 282.501 31.1567 282.501 32.2018 282.508C34.2993 282.508 36.3446 282.516 38.3152 282.516C42.2564 282.523 45.9289 282.531 49.288 282.538C55.9836 282.56 61.4103 282.583 65.1724 282.598C67.0385 282.612 68.4866 282.627 69.4943 282.635C69.972 282.642 70.3453 282.65 70.614 282.657C70.8752 282.672 71.0096 282.687 71.0096 282.687C71.0096 282.687 70.8752 282.702 70.6214 282.702C70.3527 282.709 69.9795 282.709 69.5018 282.724C68.4941 282.732 67.046 282.747 65.1798 282.761C61.4103 282.776 55.9911 282.799 49.2954 282.821C45.9364 282.829 42.2639 282.836 38.3226 282.843C36.352 282.843 34.3142 282.851 32.2092 282.851C31.1567 282.851 30.0893 282.851 29.0144 282.858C28.4695 282.851 27.947 282.888 27.3648 282.829C26.7975 282.761 26.2376 282.568 25.745 282.262C24.7522 281.659 24.0655 280.556 23.9386 279.38C23.8938 278.21 23.9237 277.093 23.9162 275.923C23.9162 273.606 23.9162 271.237 23.9087 268.831C23.9087 266.425 23.9087 263.974 23.9087 261.486C23.9087 260.861 23.9013 260.25 23.9162 259.609C23.9386 258.954 24.1327 258.298 24.4835 257.732C25.1628 256.585 26.4765 255.847 27.8276 255.855C38.0614 255.862 47.81 255.862 56.6853 255.87C61.1192 255.877 65.3366 255.885 69.2778 255.885C69.7705 255.885 70.2631 255.885 70.7409 255.885C71.2186 255.877 71.7411 255.914 72.2114 256.078C73.1594 256.384 73.9506 257.054 74.4059 257.888C74.6373 258.306 74.7866 258.76 74.8463 259.222C74.9061 259.691 74.8837 260.131 74.8837 260.57C74.8837 261.449 74.8762 262.306 74.8762 263.14C74.8463 269.822 74.8314 275.238 74.8165 279C74.8016 279.961 74.4283 280.773 73.973 281.339C73.5027 281.905 72.9653 282.24 72.5025 282.434C72.0397 282.627 71.659 282.665 71.4052 282.702C71.1365 282.694 71.0096 282.687 71.0096 282.687Z" fill="#2B2B2B"/>
<g opacity="0.3">
<path d="M62.2463 279.73C66.3853 279.73 69.7406 276.381 69.7406 272.251C69.7406 268.12 66.3853 264.772 62.2463 264.772C58.1073 264.772 54.752 268.12 54.752 272.251C54.752 276.381 58.1073 279.73 62.2463 279.73Z" fill="black"/>
</g>
<path d="M67.5425 274.932C70.4692 272.012 70.4692 267.276 67.5425 264.355C64.6158 261.435 59.8707 261.435 56.944 264.355C54.0173 267.276 54.0173 272.012 56.944 274.932C59.8707 277.853 64.6158 277.853 67.5425 274.932Z" fill="#EBEBEB"/>
<path d="M69.7481 269.643C69.6958 269.651 69.7406 268.973 69.442 267.833C69.1509 266.716 68.397 265.069 66.7026 263.803C65.8666 263.185 64.8141 262.656 63.6048 262.447C62.403 262.246 61.0445 262.291 59.7606 262.783C59.1112 263.006 58.4842 263.349 57.9094 263.781C57.3272 264.205 56.8047 264.727 56.3643 265.33C55.4685 266.522 54.9609 268.057 54.946 269.636C54.9609 271.215 55.4685 272.75 56.3643 273.949C56.7972 274.552 57.3272 275.081 57.9094 275.498C58.4842 275.93 59.1112 276.273 59.7606 276.497C61.052 276.988 62.403 277.033 63.6048 276.832C64.8141 276.623 65.8666 276.094 66.7026 275.476C68.3895 274.21 69.1435 272.563 69.442 271.446C69.7332 270.314 69.6958 269.643 69.7481 269.643C69.7481 269.643 69.8451 270.314 69.5839 271.491C69.3301 272.645 68.5986 274.359 66.8668 275.7C66.0084 276.355 64.926 276.921 63.6645 277.152C62.4105 277.376 60.9922 277.346 59.6337 276.839C58.9544 276.608 58.2901 276.251 57.6855 275.804C57.0734 275.364 56.5136 274.813 56.0582 274.18C55.1102 272.928 54.5728 271.312 54.5579 269.643C54.5728 267.982 55.1102 266.366 56.0582 265.107C56.521 264.474 57.0734 263.922 57.6855 263.483C58.2901 263.036 58.947 262.678 59.6337 262.447C60.9922 261.941 62.4105 261.911 63.6645 262.134C64.926 262.365 66.0158 262.932 66.8668 263.587C68.5986 264.928 69.3301 266.649 69.5839 267.796C69.8377 268.98 69.7481 269.643 69.7481 269.643Z" fill="#2B2B2B"/>
<path d="M253.568 320.432L152.455 319.963C140.295 319.911 130.479 310.026 130.531 297.891L131.606 44.9145C131.658 32.7722 141.564 22.969 153.731 23.0286L254.845 23.4979C267.004 23.5575 276.82 33.4352 276.768 45.57L275.693 298.546C275.648 310.689 265.743 320.492 253.568 320.432Z" fill="#2B2B2B"/>
<path d="M254.703 32.2284L235.101 32.139L177.849 31.8782L170.952 31.8485L153.791 31.7665C145.266 31.7293 138.332 38.59 138.294 47.0971L137.249 294.017C137.212 302.517 144.087 309.437 152.604 309.474L253.516 309.936C262.041 309.973 268.975 303.113 269.012 294.606L270.057 47.6855C270.095 39.186 263.22 32.2656 254.703 32.2284Z" fill="#FAFAFA"/>
<path d="M255.449 54.6655C255.449 55.3583 254.882 55.9245 254.18 55.9245C253.486 55.9245 252.919 55.3583 252.919 54.6581C252.919 53.9653 253.486 53.3992 254.188 53.3992C254.89 53.4066 255.457 53.9728 255.449 54.6655Z" fill="#2B2B2B"/>
<path d="M255.435 59.2022C255.435 59.8949 254.867 60.4611 254.166 60.4611C253.471 60.4611 252.904 59.8949 252.904 59.1947C252.904 58.5019 253.471 57.9358 254.173 57.9358C254.875 57.9432 255.435 58.5094 255.435 59.2022Z" fill="#2B2B2B"/>
<path d="M255.42 63.7312C255.42 64.424 254.852 64.9901 254.151 64.9901C253.456 64.9901 252.889 64.424 252.889 63.7238C252.889 63.031 253.456 62.4648 254.158 62.4648C254.86 62.4723 255.42 63.0384 255.42 63.7312Z" fill="#2B2B2B"/>
<path d="M259.891 165.801H158.747C156.978 165.801 155.537 164.363 155.537 162.598V100.903C155.537 99.1377 156.971 97.7 158.747 97.7H259.891C261.66 97.7 263.101 99.1377 263.101 100.903V162.598C263.101 164.363 261.667 165.801 259.891 165.801Z" fill="#EBEBEB"/>
<path d="M256.935 161.376H155.791C154.022 161.376 152.581 159.938 152.581 158.173V96.4781C152.581 94.7126 154.022 93.2749 155.791 93.2749H256.935C258.704 93.2749 260.145 94.7126 260.145 96.4781V158.173C260.145 159.946 258.711 161.376 256.935 161.376Z" fill="#A0A0A0"/>
<path d="M253.524 157.704H152.38C150.611 157.704 149.17 156.273 149.17 154.5V92.8057C149.17 91.0402 150.611 89.6025 152.38 89.6025H253.524C255.293 89.6025 256.733 91.0402 256.733 92.8057V154.5C256.733 156.266 255.3 157.704 253.524 157.704Z" fill="#FFB501"/>
<path d="M166.883 105.157C166.883 106.028 166.189 106.535 164.86 106.535H162.248V101.499H164.719C165.98 101.499 166.63 102.028 166.63 102.81C166.63 103.317 166.368 103.704 165.958 103.92C166.525 104.091 166.883 104.523 166.883 105.157ZM163.412 102.371V103.555H164.577C165.144 103.555 165.458 103.354 165.458 102.959C165.458 102.564 165.144 102.371 164.577 102.371H163.412ZM165.711 105.037C165.711 104.613 165.39 104.412 164.778 104.412H163.412V105.656H164.778C165.383 105.656 165.711 105.469 165.711 105.037Z" fill="white"/>
<path d="M171.093 105.454H168.749L168.302 106.534H167.107L169.354 101.499H170.511L172.765 106.534H171.541L171.093 105.454ZM170.728 104.568L169.929 102.639L169.13 104.568H170.728Z" fill="white"/>
<path d="M177.923 101.491V106.527H176.96L174.445 103.466V106.527H173.288V101.491H174.258L176.766 104.553V101.491H177.923Z" fill="white"/>
<path d="M180.954 104.553L180.275 105.261V106.534H179.11V101.499H180.275V103.853L182.514 101.499H183.813L181.723 103.741L183.94 106.534H182.574L180.954 104.553Z" fill="white"/>
<path d="M165.935 126.111H165.01V127.325H164.532V126.111H161.92V125.769L164.375 122.699H164.905L162.532 125.687H164.547V124.614H165.01V125.687H165.935V126.111Z" fill="white"/>
<path d="M169.339 125.999C169.339 126.774 168.779 127.37 167.66 127.37C166.988 127.37 166.346 127.139 165.988 126.774L166.219 126.394C166.518 126.707 167.055 126.931 167.66 126.931C168.429 126.931 168.854 126.573 168.854 125.999C168.854 125.441 168.466 125.083 167.6 125.083H167.272V124.733L168.555 123.124H166.182V122.699H169.16V123.035L167.846 124.681C168.847 124.741 169.339 125.262 169.339 125.999Z" fill="white"/>
<path d="M173.086 125.97C173.086 126.759 172.534 127.37 171.407 127.37C170.735 127.37 170.101 127.139 169.742 126.774L169.974 126.394C170.272 126.707 170.802 126.931 171.399 126.931C172.191 126.931 172.601 126.551 172.601 125.985C172.601 125.389 172.228 125.016 171.049 125.016H170.063L170.302 122.699H172.84V123.124H170.72L170.563 124.599H171.161C172.556 124.599 173.086 125.15 173.086 125.97Z" fill="white"/>
<path d="M177.177 125.947C177.177 126.811 176.498 127.37 175.594 127.37C174.363 127.37 173.691 126.521 173.691 125.061C173.691 123.489 174.549 122.67 175.811 122.67C176.229 122.67 176.617 122.744 176.908 122.923L176.714 123.303C176.475 123.146 176.162 123.087 175.811 123.087C174.811 123.087 174.169 123.727 174.169 124.986C174.169 125.091 174.176 125.225 174.191 125.366C174.423 124.86 174.967 124.577 175.609 124.577C176.535 124.562 177.177 125.098 177.177 125.947ZM176.707 125.962C176.707 125.351 176.259 124.964 175.542 124.964C174.833 124.964 174.348 125.404 174.348 125.977C174.348 126.484 174.773 126.968 175.572 126.968C176.244 126.968 176.707 126.573 176.707 125.962Z" fill="white"/>
<path d="M187.187 127.325L186.082 125.873L184.97 127.325H184.44L185.821 125.545L184.507 123.854H185.037L186.082 125.217L187.127 123.854H187.642L186.328 125.545L187.717 127.325H187.187Z" fill="white"/>
<path d="M190.725 127.325L189.62 125.873L188.508 127.325H187.978L189.359 125.545L188.045 123.854H188.575L189.62 125.217L190.665 123.854H191.18L189.867 125.545L191.255 127.325H190.725Z" fill="white"/>
<path d="M194.263 127.325L193.158 125.873L192.046 127.325H191.516L192.897 125.545L191.583 123.854H192.113L193.158 125.217L194.203 123.854H194.718L193.405 125.545L194.793 127.325H194.263Z" fill="white"/>
<path d="M197.794 127.325L196.689 125.873L195.577 127.325H195.047L196.428 125.545L195.114 123.854H195.644L196.689 125.217L197.734 123.854H198.249L196.935 125.545L198.324 127.325H197.794Z" fill="white"/>
<path d="M210.006 127.325L208.901 125.873L207.789 127.325H207.259L208.64 125.545L207.326 123.854H207.856L208.901 125.217L209.946 123.854H210.461L209.147 125.545L210.536 127.325H210.006Z" fill="white"/>
<path d="M213.536 127.325L212.432 125.873L211.32 127.325H210.79L212.17 125.545L210.857 123.854H211.387L212.432 125.217L213.477 123.854H213.992L212.678 125.545L214.066 127.325H213.536Z" fill="white"/>
<path d="M217.075 127.325L215.97 125.873L214.858 127.325H214.328L215.709 125.545L214.395 123.854H214.925L215.97 125.217L217.015 123.854H217.53L216.216 125.545L217.605 127.325H217.075Z" fill="white"/>
<path d="M220.613 127.325L219.508 125.873L218.396 127.325H217.866L219.247 125.545L217.933 123.854H218.463L219.508 125.217L220.553 123.854H221.068L219.754 125.545L221.143 127.325H220.613Z" fill="white"/>
<path d="M231.578 122.699V127.325H231.1V123.124H230.01V122.699H231.578Z" fill="white"/>
<path d="M235.743 125.999C235.743 126.774 235.183 127.37 234.064 127.37C233.392 127.37 232.75 127.139 232.392 126.774L232.623 126.394C232.922 126.707 233.459 126.931 234.064 126.931C234.833 126.931 235.258 126.573 235.258 125.999C235.258 125.441 234.87 125.083 234.004 125.083H233.675V124.733L234.959 123.124H232.586V122.699H235.564V123.035L234.25 124.681C235.251 124.741 235.743 125.262 235.743 125.999Z" fill="white"/>
<path d="M240.356 126.111H239.431V127.325H238.953V126.111H236.34V125.769L238.796 122.699H239.326L236.952 125.687H238.968V124.614H239.431V125.687H240.356V126.111Z" fill="white"/>
<path d="M243.932 126.908V127.333H240.677V126.998L242.603 125.113C243.126 124.599 243.223 124.286 243.223 123.973C243.223 123.437 242.85 123.109 242.14 123.109C241.595 123.109 241.177 123.273 240.879 123.623L240.543 123.333C240.901 122.908 241.476 122.67 242.185 122.67C243.126 122.67 243.723 123.146 243.723 123.921C243.723 124.361 243.581 124.763 242.961 125.366L241.386 126.916H243.932V126.908Z" fill="white"/>
<path d="M159.538 136.928C159.538 136.265 160.053 135.788 160.74 135.788C161.121 135.788 161.442 135.929 161.651 136.175L161.322 136.481C161.173 136.309 160.986 136.22 160.77 136.22C160.359 136.22 160.061 136.51 160.061 136.928C160.061 137.345 160.352 137.635 160.77 137.635C160.994 137.635 161.181 137.546 161.322 137.375L161.651 137.68C161.442 137.933 161.121 138.075 160.74 138.075C160.046 138.067 159.538 137.591 159.538 136.928Z" fill="white"/>
<path d="M163.405 137.561H162.375L162.181 138.03H161.658L162.644 135.825H163.151L164.136 138.03H163.599L163.405 137.561ZM163.248 137.174L162.897 136.332L162.546 137.174H163.248Z" fill="white"/>
<path d="M165.786 138.03L165.361 137.412H165.338H164.89V138.03H164.375V135.825H165.331C165.921 135.825 166.294 136.131 166.294 136.63C166.294 136.957 166.13 137.203 165.838 137.33L166.339 138.038H165.786V138.03ZM165.301 136.242H164.883V137.01H165.301C165.614 137.01 165.771 136.868 165.771 136.622C165.771 136.384 165.614 136.242 165.301 136.242Z" fill="white"/>
<path d="M166.525 137.814L166.697 137.427C166.883 137.561 167.16 137.658 167.428 137.658C167.734 137.658 167.854 137.553 167.854 137.419C167.854 137.01 166.57 137.293 166.57 136.473C166.57 136.101 166.876 135.788 167.503 135.788C167.779 135.788 168.063 135.855 168.272 135.982L168.115 136.369C167.906 136.25 167.697 136.198 167.503 136.198C167.197 136.198 167.085 136.309 167.085 136.451C167.085 136.861 168.369 136.577 168.369 137.389C168.369 137.762 168.063 138.075 167.428 138.075C167.077 138.067 166.719 137.963 166.525 137.814Z" fill="white"/>
<path d="M171.646 135.825V138.03H171.131V137.129H170.123V138.03H169.608V135.825H170.123V136.697H171.131V135.825H171.646Z" fill="white"/>
<path d="M172.034 136.928C172.034 136.272 172.549 135.788 173.243 135.788C173.937 135.788 174.452 136.272 174.452 136.928C174.452 137.583 173.937 138.067 173.243 138.067C172.541 138.067 172.034 137.583 172.034 136.928ZM173.937 136.928C173.937 136.51 173.639 136.22 173.243 136.22C172.847 136.22 172.549 136.51 172.549 136.928C172.549 137.345 172.847 137.635 173.243 137.635C173.639 137.635 173.937 137.345 173.937 136.928Z" fill="white"/>
<path d="M174.84 135.825H175.356V137.613H176.468V138.03H174.848V135.825H174.84Z" fill="white"/>
<path d="M176.751 135.825H177.759C178.483 135.825 178.976 136.257 178.976 136.928C178.976 137.598 178.483 138.03 177.759 138.03H176.751V135.825ZM177.737 137.613C178.177 137.613 178.461 137.352 178.461 136.928C178.461 136.503 178.17 136.242 177.737 136.242H177.267V137.613H177.737Z" fill="white"/>
<path d="M181.081 137.62V138.03H179.372V135.825H181.044V136.235H179.879V136.712H180.909V137.106H179.879V137.62H181.081Z" fill="white"/>
<path d="M182.902 138.03L182.477 137.412H182.454H182.006V138.03H181.499V135.825H182.454C183.044 135.825 183.417 136.131 183.417 136.63C183.417 136.957 183.253 137.203 182.962 137.33L183.462 138.038H182.902V138.03ZM182.417 136.242H181.999V137.01H182.417C182.73 137.01 182.887 136.868 182.887 136.622C182.887 136.384 182.73 136.242 182.417 136.242Z" fill="white"/>
<path d="M190.65 146.351H160.21C159.553 146.351 159.023 145.822 159.023 145.167V144.705C159.023 144.049 159.553 143.52 160.21 143.52H190.65C191.307 143.52 191.837 144.049 191.837 144.705V145.167C191.837 145.822 191.307 146.351 190.65 146.351Z" fill="white"/>
<path d="M244.88 146.351H229.025C228.368 146.351 227.838 145.822 227.838 145.167V144.705C227.838 144.049 228.368 143.52 229.025 143.52H244.88C245.537 143.52 246.067 144.049 246.067 144.705V145.167C246.067 145.822 245.529 146.351 244.88 146.351Z" fill="white"/>
<g opacity="0.2">
<path d="M253.173 89.6025H152.738C150.768 89.6025 149.178 91.1967 149.178 93.1558V111.138C155.523 115.556 164.241 116.33 171.974 114.714C181.088 112.814 189.344 108.159 197.839 104.352C206.333 100.538 215.656 97.4764 224.838 99.0482C233.496 100.531 240.879 105.916 248.709 109.902C251.24 111.19 253.964 112.323 256.748 113.135V93.1633C256.733 91.1967 255.136 89.6025 253.173 89.6025Z" fill="white"/>
</g>
<path d="M172.788 212.105H157.978C154.358 212.105 151.424 209.178 151.424 205.565V190.778C151.424 187.165 154.358 184.238 157.978 184.238H172.788C176.408 184.238 179.342 187.165 179.342 190.778V205.558C179.342 209.178 176.408 212.105 172.788 212.105Z" fill="#FFB501"/>
<path d="M168.137 202.436H162.039C161.875 202.436 161.733 202.325 161.688 202.161L159.434 193.199H157.314C157.112 193.199 156.956 193.035 156.956 192.842C156.956 192.641 157.12 192.484 157.314 192.484H159.71C159.874 192.484 160.016 192.596 160.061 192.76L162.315 201.721H168.137C168.339 201.721 168.496 201.885 168.496 202.079C168.496 202.272 168.339 202.436 168.137 202.436Z" fill="white"/>
<path d="M163.188 205.297C163.819 205.297 164.33 204.787 164.33 204.157C164.33 203.528 163.819 203.017 163.188 203.017C162.558 203.017 162.046 203.528 162.046 204.157C162.046 204.787 162.558 205.297 163.188 205.297Z" fill="#FFB501"/>
<path d="M163.188 205.654C162.36 205.654 161.688 204.984 161.688 204.157C161.688 203.33 162.36 202.66 163.188 202.66C164.017 202.66 164.689 203.33 164.689 204.157C164.696 204.984 164.017 205.654 163.188 205.654ZM163.188 203.375C162.755 203.375 162.405 203.725 162.405 204.157C162.405 204.589 162.755 204.939 163.188 204.939C163.621 204.939 163.972 204.589 163.972 204.157C163.972 203.725 163.621 203.375 163.188 203.375Z" fill="white"/>
<path d="M169.541 205.297C170.171 205.297 170.683 204.787 170.683 204.157C170.683 203.528 170.171 203.017 169.541 203.017C168.91 203.017 168.399 203.528 168.399 204.157C168.399 204.787 168.91 205.297 169.541 205.297Z" fill="#FFB501"/>
<path d="M169.541 205.654C168.712 205.654 168.04 204.984 168.04 204.157C168.04 203.33 168.712 202.66 169.541 202.66C170.369 202.66 171.041 203.33 171.041 204.157C171.041 204.984 170.369 205.654 169.541 205.654ZM169.541 203.375C169.108 203.375 168.757 203.725 168.757 204.157C168.757 204.589 169.108 204.939 169.541 204.939C169.974 204.939 170.324 204.589 170.324 204.157C170.324 203.725 169.966 203.375 169.541 203.375Z" fill="white"/>
<path d="M170.519 200.775H161.83C161.628 200.775 161.472 200.611 161.472 200.417C161.472 200.224 161.636 200.06 161.83 200.06H170.22L171.175 194.689C169.078 194.689 160.292 194.689 160.21 194.689C160.009 194.689 159.852 194.525 159.852 194.324C159.852 194.123 160.016 193.966 160.21 193.966C160.225 193.959 161.487 193.966 163.188 193.966C166.562 193.966 171.601 193.966 171.601 193.966C171.705 193.966 171.81 194.011 171.877 194.093C171.944 194.175 171.974 194.279 171.959 194.384L170.877 200.47C170.847 200.656 170.698 200.775 170.519 200.775Z" fill="white"/>
<path d="M242.431 195.866H191.419C189.866 195.866 188.605 194.607 188.605 193.058V191.948C188.605 190.398 189.866 189.139 191.419 189.139H242.431C243.984 189.139 245.245 190.398 245.245 191.948V193.058C245.245 194.607 243.984 195.866 242.431 195.866Z" fill="#A0A0A0"/>
<path d="M214.417 209.088H191.419C189.866 209.088 188.605 207.83 188.605 206.28V205.17C188.605 203.621 189.866 202.362 191.419 202.362H214.417C215.97 202.362 217.231 203.621 217.231 205.17V206.28C217.239 207.83 215.977 209.088 214.417 209.088Z" fill="#A0A0A0"/>
<path d="M268.788 173.742C268.788 173.846 239.311 173.935 202.959 173.935C166.592 173.935 137.122 173.846 137.122 173.742C137.122 173.637 166.592 173.548 202.959 173.548C239.311 173.548 268.788 173.637 268.788 173.742Z" fill="#A0A0A0"/>
<path d="M234.489 252.175H172.818C166.137 252.175 160.718 246.767 160.718 240.1V235.347C160.718 228.68 166.137 223.272 172.818 223.272H234.489C241.17 223.272 246.589 228.68 246.589 235.347V240.1C246.589 246.767 241.17 252.175 234.489 252.175Z" fill="#FFB501"/>
<path d="M201.959 236.353C201.959 237.805 200.862 238.707 199.115 238.707H198.003V240.375H196.196V233.991H199.122C200.869 233.991 201.959 234.9 201.959 236.353ZM200.138 236.353C200.138 235.757 199.764 235.414 199.018 235.414H198.01V237.284H199.018C199.757 237.284 200.138 236.941 200.138 236.353Z" fill="white"/>
<path d="M206.803 239.139H204.101L203.601 240.375H201.757L204.579 233.991H206.363L209.192 240.375H207.311L206.803 239.139ZM206.273 237.805L205.452 235.764L204.631 237.805H206.273Z" fill="white"/>
<path d="M212.723 238.088V240.375H210.916V238.059L208.475 233.991H210.386L211.902 236.524L213.417 233.991H215.171L212.723 238.088Z" fill="white"/>
<path d="M158.561 62.5071C159.27 59.5165 157.417 56.5179 154.42 55.8095C151.423 55.1011 148.418 56.9512 147.709 59.9418C146.999 62.9324 148.853 65.9309 151.849 66.6393C154.846 67.3477 157.851 65.4976 158.561 62.5071Z" fill="#FFB501"/>
<path d="M221.785 63.2471H184.119C182.992 63.2471 182.073 62.3383 182.073 61.206V60.4014C182.073 59.2766 182.984 58.3604 184.119 58.3604H221.785C222.912 58.3604 223.83 59.2692 223.83 60.4014V61.206C223.83 62.3308 222.912 63.2471 221.785 63.2471Z" fill="#A0A0A0"/>
<path d="M250.493 260.503H165.256V266.187H250.493V260.503Z" fill="#2B2B2B"/>
<path d="M169.295 263.341C170.041 263.587 180.028 263.587 180.028 283.268C180.028 302.949 179.528 327.353 190.008 328.098C200.489 328.843 255.644 328.098 255.644 328.098V278.717C255.644 270.485 248.985 263.803 240.737 263.751L169.295 263.341Z" fill="#FAFAFA"/>
<path d="M169.294 263.341C170.362 263.341 185.246 263.386 210.752 263.468C217.187 263.49 224.226 263.52 231.787 263.542C233.676 263.55 235.601 263.557 237.557 263.572C239.505 263.617 241.506 263.468 243.514 263.863C245.507 264.243 247.462 265.032 249.187 266.202C250.911 267.379 252.411 268.936 253.539 270.753C254.666 272.571 255.42 274.657 255.696 276.832C255.83 277.919 255.83 279.029 255.823 280.117C255.823 281.212 255.823 282.315 255.823 283.424C255.823 287.857 255.823 292.378 255.83 296.982C255.83 306.189 255.83 315.732 255.838 325.498C255.838 326.384 255.838 327.271 255.838 328.09V328.284H255.644C236.355 328.515 218.008 328.686 201.339 328.559C199.257 328.545 197.197 328.507 195.166 328.463C193.129 328.388 191.143 328.41 189.142 328.135C188.15 327.919 187.224 327.472 186.44 326.868C185.671 326.235 185.037 325.483 184.5 324.671C183.455 323.04 182.79 321.244 182.275 319.464C181.26 315.888 180.82 312.328 180.499 308.908C180.193 305.489 180.058 302.197 179.984 299.06C179.819 292.781 179.946 287.104 179.872 282.128C179.775 277.167 179.006 272.869 177.461 269.725C176.707 268.146 175.744 266.909 174.796 265.963C173.818 265.04 172.818 264.474 171.982 264.086C170.287 263.408 169.272 263.401 169.294 263.341C169.406 263.356 169.593 263.386 170.004 263.446C170.466 263.535 171.168 263.677 172.026 264.027C172.87 264.399 173.893 264.965 174.885 265.889C175.848 266.835 176.841 268.079 177.61 269.666C179.185 272.832 179.984 277.152 180.096 282.128C180.193 287.112 180.081 292.788 180.26 299.053C180.349 302.189 180.484 305.474 180.797 308.879C181.118 312.283 181.574 315.829 182.581 319.367C183.096 321.125 183.753 322.898 184.776 324.485C185.298 325.267 185.91 325.997 186.649 326.6C187.403 327.174 188.277 327.598 189.217 327.8C191.128 328.053 193.158 328.038 195.181 328.105C197.212 328.142 199.264 328.18 201.347 328.194C218.008 328.306 236.355 328.12 255.644 327.889L255.449 328.083C255.449 327.263 255.449 326.377 255.449 325.49C255.449 315.724 255.449 306.189 255.457 296.975C255.457 292.371 255.457 287.849 255.464 283.417C255.464 282.307 255.464 281.205 255.464 280.11C255.472 279.007 255.464 277.927 255.337 276.869C255.076 274.746 254.337 272.712 253.24 270.932C252.143 269.152 250.68 267.632 248.993 266.477C247.306 265.33 245.402 264.556 243.447 264.183C241.498 263.796 239.505 263.93 237.565 263.885C235.624 263.87 233.705 263.855 231.824 263.848C224.3 263.788 217.291 263.736 210.894 263.684C185.306 263.483 170.362 263.349 169.294 263.341Z" fill="#2B2B2B"/>
<path d="M190.262 328.098C190.262 328.098 198.891 328.098 200.742 315.397C202.944 300.26 200.742 287.008 212.469 286.508C224.196 286.009 255.644 286.508 255.644 286.508V328.098H190.262Z" fill="#A0A0A0"/>
<path d="M210.999 286.65C210.999 286.65 220.456 285.503 220.456 301.198C220.456 316.886 220.702 327.263 231.19 328.425C241.67 329.587 306.059 328.425 306.059 328.425C306.059 328.425 295.825 323.613 295.078 309.415C294.332 295.216 291.339 286.56 281.105 286.277C270.864 286.009 210.999 286.65 210.999 286.65Z" fill="#FAFAFA"/>
<path d="M210.998 286.65C211.11 286.642 211.275 286.635 211.633 286.62C212.066 286.613 212.685 286.598 213.492 286.583C215.141 286.56 217.552 286.523 220.657 286.478C226.898 286.411 235.907 286.315 247.052 286.188C252.628 286.151 258.734 286.106 265.295 286.061C268.579 286.054 271.968 286.054 275.469 286.046C277.216 286.054 278.992 286.061 280.791 286.099C282.598 286.173 284.456 286.397 286.196 287.134C287.92 287.886 289.443 289.123 290.585 290.657C291.734 292.192 292.555 293.965 293.175 295.805C294.339 299.515 294.862 303.463 295.146 307.47C295.213 308.476 295.265 309.482 295.377 310.48L295.526 311.985L295.81 313.475L295.952 314.219L296.153 314.957L296.571 316.424C296.944 317.378 297.273 318.346 297.758 319.255C299.557 322.928 302.453 326.235 306.148 328.246L306.805 328.604L306.074 328.619C305.514 328.626 304.902 328.641 304.289 328.649C287.009 328.932 270.55 329.118 255.576 329.118C248.089 329.103 240.976 329.081 234.317 328.798C232.653 328.686 231.003 328.649 229.421 328.269C227.846 327.889 226.353 327.181 225.173 326.138C223.994 325.103 223.136 323.777 222.546 322.414C221.941 321.043 221.561 319.635 221.284 318.242C220.747 315.456 220.575 312.752 220.478 310.212C220.381 307.664 220.374 305.265 220.374 303.023C220.381 301.898 220.374 300.818 220.322 299.783C220.292 299.261 220.299 298.755 220.247 298.256C220.187 297.757 220.127 297.272 220.068 296.796C220.038 296.557 220.008 296.326 219.978 296.088C219.926 295.857 219.874 295.634 219.829 295.41C219.732 294.963 219.627 294.524 219.53 294.099C219.388 293.689 219.254 293.287 219.12 292.892C219.053 292.699 218.985 292.505 218.918 292.311C218.829 292.132 218.739 291.954 218.657 291.775C218.015 290.337 217.104 289.235 216.179 288.46C215.261 287.67 214.313 287.231 213.514 286.992C212.723 286.739 212.088 286.672 211.663 286.65C211.454 286.635 211.29 286.635 211.178 286.642C211.081 286.65 211.036 286.65 210.998 286.65C210.991 286.657 211.051 286.635 211.163 286.627C211.267 286.62 211.431 286.613 211.648 286.62C212.073 286.627 212.715 286.68 213.521 286.925C214.328 287.149 215.298 287.588 216.231 288.378C217.172 289.153 218.112 290.263 218.769 291.715C220.247 294.568 220.59 298.554 220.568 303.023C220.583 305.265 220.598 307.664 220.702 310.204C220.814 312.744 220.986 315.434 221.531 318.19C221.807 319.568 222.188 320.961 222.785 322.302C223.367 323.643 224.203 324.917 225.353 325.915C226.487 326.928 227.935 327.598 229.473 327.971C231.018 328.336 232.66 328.373 234.317 328.477C240.961 328.745 248.082 328.753 255.561 328.76C270.535 328.745 286.994 328.544 304.275 328.261C304.887 328.254 305.499 328.239 306.059 328.231L305.976 328.604C302.162 326.518 299.251 323.173 297.407 319.426C296.915 318.503 296.579 317.512 296.205 316.544L295.78 315.054L295.571 314.309L295.429 313.549L295.146 312.037L294.996 310.51C294.884 309.497 294.832 308.491 294.765 307.493C294.489 303.5 293.974 299.574 292.824 295.917C292.219 294.099 291.413 292.363 290.294 290.874C289.181 289.384 287.718 288.192 286.054 287.462C284.374 286.747 282.56 286.523 280.784 286.449C278.992 286.411 277.216 286.397 275.469 286.389C271.976 286.389 268.579 286.389 265.303 286.382C258.741 286.411 252.635 286.434 247.059 286.464C235.915 286.531 226.905 286.59 220.665 286.627C217.56 286.642 215.141 286.657 213.499 286.665C212.685 286.665 212.066 286.665 211.633 286.665C211.275 286.657 211.103 286.657 210.998 286.65Z" fill="#2B2B2B"/>
<path d="M213.492 286.628C213.492 286.672 212.738 286.598 211.401 286.784C210.088 286.97 208.117 287.544 206.385 289.22C204.624 290.851 203.317 293.526 202.661 296.617C201.981 299.731 201.944 303.254 201.787 306.942C201.63 310.629 201.392 314.175 200.585 317.304C200.197 318.868 199.623 320.298 199.04 321.602C198.443 322.905 197.779 324.075 197.002 325.028C196.234 325.982 195.338 326.69 194.479 327.151C193.614 327.613 192.793 327.829 192.128 327.963C191.456 328.068 190.926 328.12 190.568 328.105C190.21 328.105 190.023 328.105 190.023 328.09C190.023 328.075 190.21 328.053 190.568 328.031C190.926 328.016 191.441 327.941 192.106 327.814C192.755 327.658 193.554 327.427 194.382 326.958C195.204 326.489 196.054 325.796 196.793 324.85C197.532 323.911 198.174 322.756 198.749 321.46C199.316 320.164 199.869 318.749 200.242 317.207C201.018 314.115 201.25 310.599 201.407 306.919C201.571 303.239 201.616 299.694 202.325 296.535C203.011 293.392 204.377 290.665 206.214 289.011C208.02 287.305 210.065 286.762 211.401 286.62C211.737 286.575 212.043 286.553 212.305 286.561C212.566 286.553 212.79 286.553 212.969 286.568C213.305 286.598 213.492 286.613 213.492 286.628Z" fill="#2B2B2B"/>
<path d="M244.895 274.746C244.895 274.85 232.802 274.94 217.888 274.94C202.967 274.94 190.882 274.85 190.882 274.746C190.882 274.642 202.974 274.552 217.888 274.552C232.802 274.552 244.895 274.634 244.895 274.746Z" fill="#A0A0A0"/>
<path d="M246.014 282.761C246.014 282.866 234.325 282.955 219.904 282.955C205.475 282.955 193.785 282.866 193.785 282.761C193.785 282.657 205.475 282.568 219.904 282.568C234.318 282.568 246.014 282.657 246.014 282.761Z" fill="#A0A0A0"/>
<path d="M282.836 298.353C282.836 298.457 270.744 298.546 255.83 298.546C240.908 298.546 228.823 298.457 228.823 298.353C228.823 298.248 240.916 298.159 255.83 298.159C270.744 298.159 282.836 298.248 282.836 298.353Z" fill="#A0A0A0"/>
<path d="M283.508 307.709C283.508 307.813 272.416 307.903 258.734 307.903C245.051 307.903 233.959 307.813 233.959 307.709C233.959 307.605 245.051 307.515 258.734 307.515C272.416 307.515 283.508 307.605 283.508 307.709Z" fill="#A0A0A0"/>
<path d="M238.378 108.986H233.116C231.817 108.986 230.764 107.935 230.764 106.639V101.387C230.764 100.091 231.817 99.0408 233.116 99.0408H238.378C239.677 99.0408 240.729 100.091 240.729 101.387V106.639C240.729 107.935 239.677 108.986 238.378 108.986Z" fill="white"/>
<path d="M54.3788 88.1349L49.4448 87.539C46.3171 89.6247 42.5327 90.8092 38.4347 90.7049C28.7756 90.4591 20.7364 82.7789 20.0571 73.1545C19.2733 62.0402 28.2232 52.6318 39.4648 52.9223C49.0118 53.1682 56.9839 60.6695 57.805 70.1673C58.2081 74.8827 56.8645 79.2926 54.3265 82.8161L54.334 82.8087L54.3788 88.1349Z" fill="white"/>
<path d="M54.3788 88.135C54.3788 88.135 54.3714 88.0084 54.3639 87.7774C54.3564 87.5316 54.349 87.189 54.3415 86.7494C54.3266 85.8406 54.2967 84.5221 54.2669 82.8162L54.3788 82.8684L54.3714 82.8758C54.3415 82.8982 54.2967 82.8982 54.2743 82.8684C54.2519 82.846 54.2519 82.8088 54.2743 82.7865C55.6179 80.8794 57.1108 78.0562 57.596 74.3688C57.8423 72.5363 57.8125 70.5101 57.4393 68.402C57.0436 66.3013 56.2449 64.1335 54.9909 62.085C53.7294 60.0514 52.0051 58.1518 49.8777 56.6247C47.7504 55.1051 45.2274 53.9206 42.458 53.4215C39.7037 52.9075 36.7328 53.0118 33.8739 53.794C31.0075 54.5613 28.2979 56.1182 26.0586 58.2337C24.8941 59.2766 23.9611 60.5281 23.1027 61.787C22.722 62.45 22.3263 63.1056 22.0054 63.7834L21.5575 64.8263L21.3336 65.3478L21.1694 65.8841C20.2214 68.7223 20.0049 71.7094 20.393 74.5103C20.7663 77.3262 21.8635 79.911 23.3117 82.1086C24.7672 84.3061 26.6184 86.1088 28.6264 87.4497C30.6418 88.7831 32.799 89.6621 34.8965 90.1389C35.4265 90.2282 35.949 90.3251 36.4641 90.4145C36.9791 90.489 37.4942 90.5039 37.9943 90.5486C38.9945 90.6231 39.9649 90.5784 40.8905 90.4964C44.6078 90.1314 47.4816 88.7384 49.4149 87.4795C49.4299 87.472 49.4448 87.4646 49.4597 87.472C51.0273 87.6806 52.2514 87.837 53.0949 87.9488C53.5055 88.0084 53.819 88.0456 54.0504 88.0829C54.2669 88.1127 54.3788 88.135 54.3788 88.135C54.3788 88.135 54.2743 88.1276 54.0653 88.1127C53.8414 88.0903 53.5279 88.0531 53.1248 88.0158C52.2664 87.919 51.0273 87.7849 49.4373 87.6136L49.4821 87.6061C47.5563 88.9023 44.6675 90.3325 40.9054 90.7273C39.9724 90.8167 38.9871 90.8763 37.9719 90.8018C37.4643 90.7571 36.9418 90.7497 36.4267 90.6752C35.9042 90.5858 35.3743 90.4964 34.8368 90.407C32.702 89.9377 30.5149 89.0587 28.4621 87.7104C26.4169 86.3546 24.5358 84.5296 23.0429 82.3022C21.565 80.0749 20.4378 77.4379 20.0571 74.5774C19.6615 71.7243 19.8705 68.6925 20.8409 65.7947L21.0126 65.2509L21.2365 64.722C21.3858 64.3719 21.5426 64.0144 21.6919 63.6642C22.0203 62.9715 22.4234 62.301 22.8115 61.6306C23.6849 60.3419 24.6403 59.0755 25.8197 58.0103C28.0964 55.85 30.8657 54.2707 33.7843 53.4886C36.6955 52.6915 39.7111 52.5947 42.5178 53.1236C45.3393 53.6301 47.8997 54.8443 50.0569 56.3938C52.2141 57.9507 53.9608 59.88 55.2298 61.9509C56.4913 64.0293 57.2974 66.2342 57.6856 68.3647C58.0588 70.5026 58.0737 72.5512 57.8125 74.4061C57.2974 78.1381 55.7598 80.9763 54.3863 82.8758L54.2893 82.779L54.2967 82.7716C54.3266 82.7492 54.3714 82.7492 54.3938 82.779C54.4012 82.7939 54.4087 82.8088 54.4087 82.8237C54.4087 84.5445 54.4012 85.8779 54.4012 86.7941C54.4012 87.2262 54.3938 87.5614 54.3938 87.8072C54.3863 88.0233 54.3788 88.135 54.3788 88.135Z" fill="#2B2B2B"/>
<path d="M30.582 72.9684L32.9483 70.4357L37.83 74.4806L46.8247 65.2361L49.1835 67.6049L37.6434 79.2183L30.582 72.9684Z" fill="#FFB501"/>
<path d="M72.3383 64.0292C73.4804 56.6619 80.0939 51.4101 87.536 51.9539L88.275 52.0061C96.2172 53.049 99.7703 60.3716 98.5013 68.2678L95.732 96.2918L95.5976 102.087L76.6752 103.801L77.0782 91.569C77.0782 91.569 69.4943 89.8184 69.9571 82.1606C70.196 78.4583 71.2783 70.875 72.3383 64.0292Z" fill="#FFBF9D"/>
<path d="M77.026 91.5468C77.026 91.5468 81.9003 92.1949 87.2897 89.3418C87.2897 89.3418 84.6249 94.8691 77.0186 93.6177L77.026 91.5468Z" fill="#FF9A6C"/>
<path d="M75.3092 71.6646C75.2495 72.2382 75.6824 72.7671 76.2871 72.8416C76.8842 72.9161 77.4217 72.5139 77.4888 71.9403C77.5486 71.3667 77.1156 70.8378 76.5185 70.7633C75.9138 70.6813 75.3764 71.0836 75.3092 71.6646Z" fill="#2B2B2B"/>
<path d="M73.7118 67.8953C73.8387 68.0443 74.712 67.493 75.8914 67.5824C77.0708 67.6569 77.8919 68.3199 78.0263 68.1858C78.0934 68.1262 77.974 67.858 77.6157 67.5601C77.2649 67.2621 76.6528 66.9492 75.9138 66.8971C75.1823 66.8449 74.5403 67.0759 74.1671 67.3217C73.7939 67.575 73.6521 67.8208 73.7118 67.8953Z" fill="#2B2B2B"/>
<path d="M86.3566 72.7149C86.2969 73.2885 86.7298 73.8174 87.3344 73.8919C87.9316 73.9664 88.469 73.5641 88.5362 72.9905C88.5959 72.417 88.163 71.8881 87.5584 71.8136C86.9537 71.7316 86.4163 72.1339 86.3566 72.7149Z" fill="#2B2B2B"/>
<path d="M85.2817 68.9531C85.4086 69.1021 86.2819 68.5509 87.4613 68.6403C88.6407 68.7148 89.4618 69.3777 89.5962 69.2437C89.6634 69.1841 89.5439 68.9159 89.1856 68.6179C88.8348 68.32 88.2227 68.0071 87.4912 67.9549C86.7597 67.9028 86.1177 68.1337 85.7445 68.3795C85.3638 68.6403 85.222 68.8861 85.2817 68.9531Z" fill="#2B2B2B"/>
<path d="M80.37 77.3633C80.3775 77.2963 79.6535 77.1175 78.4815 76.8791C78.1829 76.827 77.8993 76.745 77.8694 76.5364C77.8172 76.313 77.9665 76.0001 78.1382 75.6574C78.4741 74.9497 78.8249 74.2123 79.1981 73.4376C80.6686 70.2716 81.7584 67.6569 81.6315 67.6048C81.5046 67.5452 80.2058 70.063 78.7353 73.229C78.377 74.0111 78.0411 74.7561 77.7127 75.4638C77.5709 75.799 77.3469 76.1714 77.4738 76.6333C77.541 76.8642 77.75 77.043 77.9366 77.11C78.1232 77.1845 78.2949 77.1994 78.4442 77.2218C79.6161 77.3708 80.3551 77.4304 80.37 77.3633Z" fill="#2B2B2B"/>
<path d="M83.7739 78.4285C83.5798 78.4062 83.4903 79.68 82.3258 80.5069C81.1688 81.3337 79.8103 81.0953 79.7879 81.2741C79.7655 81.3561 80.0715 81.5423 80.6463 81.6019C81.2061 81.6615 82.0496 81.5423 82.7588 81.0357C83.4679 80.5292 83.8112 79.8066 83.8934 79.2852C83.9829 78.7563 83.8635 78.4285 83.7739 78.4285Z" fill="#2B2B2B"/>
<path d="M85.3116 64.3271C85.4011 64.6549 86.5955 64.5878 87.9615 64.856C89.3349 65.0944 90.4247 65.5786 90.6263 65.3104C90.7159 65.1763 90.5442 64.8635 90.1187 64.5208C89.6932 64.1781 89.0065 63.8355 88.1779 63.679C87.3568 63.53 86.588 63.6045 86.0655 63.7684C85.5504 63.9323 85.2743 64.1707 85.3116 64.3271Z" fill="#2B2B2B"/>
<path d="M74.3985 64.5208C74.5851 64.8039 75.4211 64.5879 76.3989 64.64C77.3768 64.6623 78.1904 64.9529 78.3994 64.6847C78.489 64.5581 78.3845 64.275 78.0411 63.9994C77.7052 63.7237 77.123 63.4705 76.4512 63.4407C75.7794 63.4109 75.1822 63.612 74.8239 63.8653C74.4507 64.1186 74.3163 64.3867 74.3985 64.5208Z" fill="#2B2B2B"/>
<path d="M96.7322 75.6203C96.8665 74.4433 97.9563 73.5866 99.1283 73.7803C100.547 74.0187 102.084 74.9424 101.771 77.8849C101.218 83.1068 96.0828 81.4754 96.0902 81.3264C96.0902 81.2296 96.4784 77.8029 96.7322 75.6203Z" fill="#FFBF9D"/>
<path d="M97.4339 79.4864C97.4562 79.4715 97.516 79.5609 97.6653 79.6428C97.8071 79.7248 98.0609 79.7993 98.3445 79.7248C98.9193 79.5832 99.4791 78.7564 99.5986 77.8178C99.6583 77.341 99.606 76.8792 99.4791 76.4918C99.3597 76.0895 99.1432 75.799 98.867 75.7245C98.5983 75.6351 98.3818 75.7767 98.2997 75.9182C98.2176 76.0597 98.24 76.164 98.2102 76.1715C98.1952 76.1864 98.1057 76.0746 98.1728 75.8586C98.2027 75.7543 98.2773 75.6426 98.4117 75.5532C98.5461 75.4638 98.7401 75.434 98.9268 75.4712C99.3298 75.5383 99.6508 75.948 99.7926 76.3801C99.9569 76.8121 100.024 77.3336 99.9569 77.8699C99.815 78.9202 99.1731 79.844 98.3893 79.9855C98.0086 80.0451 97.7175 79.8961 97.5682 79.762C97.4264 79.6205 97.4115 79.5013 97.4339 79.4864Z" fill="#FF9A6C"/>
<path d="M100.92 70.3015C100.487 71.7988 100.644 74.2868 99.3 73.9441C96.6426 73.2737 97.2771 78.7191 96.0007 78.1828C94.7392 77.6539 93.627 76.1044 93.5523 72.7597C93.4553 68.5062 95.1646 65.4371 93.4851 60.5727C92.358 58.621 90.3575 57.2876 88.1032 57.2355C85.849 57.1833 83.6693 58.3231 82.4526 60.2226C82.2138 58.7402 81.4897 56.5055 80.1685 55.7903C78.8473 55.0752 77.0782 55.1571 75.9361 56.1404C74.7941 57.1237 74.4806 58.9935 75.3838 60.2003C74.7792 60.394 74.0551 60.1407 73.7117 59.5969C73.6595 60.2897 73.9058 60.9973 74.3761 61.5039C73.8312 61.3698 73.346 61.0272 73.025 60.5653C73.1594 61.1761 73.2863 61.7944 73.4206 62.4053C71.1738 62.4648 68.9867 60.2971 68.3597 58.3678C67.4192 55.4477 68.1432 52.4978 69.778 49.898C71.4127 47.2982 74.3462 45.4657 77.4216 45.4955C80.4969 45.5253 83.0797 46.9779 84.2665 49.8086C86.267 48.4007 90.3127 47.909 92.5372 48.9221C94.7616 49.9352 96.3814 52.1774 96.6277 54.6059C98.0235 54.0174 99.6956 54.4718 100.868 55.4253C100.965 55.5073 101.062 55.5892 101.151 55.6711C102.763 57.1535 103.42 59.4107 103.01 61.556C102.846 62.4053 102.554 63.2917 102.375 63.9696C101.868 66.0107 100.92 70.3015 100.92 70.3015Z" fill="#2B2B2B"/>
<path d="M73.361 59.4628C73.3535 59.4702 73.2938 59.4181 73.1818 59.3212C73.0698 59.2244 72.9131 59.068 72.7414 58.837C72.3906 58.3901 71.98 57.6377 71.8606 56.6171C71.7337 55.619 71.9651 54.293 72.9056 53.265C73.8014 52.2519 75.3166 51.5293 76.9066 51.7602C77.6903 51.872 78.4144 52.1848 79.0265 52.5871C79.646 52.9968 80.1686 53.4885 80.5866 54.0174C81.445 55.0603 81.9376 56.2074 82.1914 57.1833C82.4452 58.1666 82.4751 59.0009 82.4527 59.567C82.4303 59.8501 82.4154 60.0662 82.3855 60.2151C82.3631 60.3641 82.3482 60.4386 82.3407 60.4386C82.2735 60.4461 82.5647 59.1722 82.0347 57.228C81.766 56.2745 81.2658 55.1645 80.4223 54.1515C79.5938 53.1533 78.3696 52.2072 76.8693 51.9912C75.3689 51.7751 73.9208 52.453 73.0624 53.414C72.1666 54.3749 71.9203 55.6339 72.0248 56.6023C72.1218 57.593 72.4951 58.3379 72.816 58.7923C73.137 59.2467 73.3759 59.4479 73.361 59.4628Z" fill="#A7A7A7"/>
<path d="M72.3309 61.8019C72.3234 61.8019 72.2711 61.7199 72.1741 61.5486C72.0771 61.3773 71.9352 61.124 71.7636 60.7962C71.4277 60.1333 70.9126 59.1723 70.5319 57.8836C70.3453 57.2429 70.2035 56.5055 70.1885 55.7159C70.1736 54.9262 70.2856 54.0621 70.6439 53.2353C70.9947 52.4084 71.6217 51.6411 72.4428 51.1048C73.2639 50.5684 74.2492 50.2258 75.2868 50.1662C76.3244 50.0991 77.3395 50.3003 78.2502 50.6355C79.1609 50.9781 79.9745 51.4623 80.6761 52.0136C82.0869 53.1086 83.0125 54.5314 83.326 55.8499C83.6545 57.1685 83.4455 58.3007 83.1693 58.9935C83.0349 59.3436 82.8782 59.5969 82.7811 59.7608C82.6692 59.9247 82.602 60.0066 82.5945 59.9992C82.5721 59.9843 82.8408 59.6565 83.0872 58.9637C83.3335 58.2784 83.5052 57.1685 83.1693 55.8946C82.8408 54.6208 81.9302 53.2502 80.5493 52.1849C79.1833 51.1271 77.3246 50.2779 75.3092 50.3971C74.3089 50.4567 73.361 50.7845 72.5697 51.2985C71.786 51.8125 71.1813 52.535 70.8454 53.3246C70.5021 54.1143 70.3826 54.9486 70.3901 55.7233C70.3976 56.498 70.5245 57.2132 70.7036 57.8538C71.0619 59.1276 71.5471 60.1035 71.8606 60.7739C72.0099 61.0942 72.1368 61.3475 72.2338 61.5486C72.301 61.7051 72.3383 61.8019 72.3309 61.8019Z" fill="#A7A7A7"/>
<path d="M99.0761 66.9195C99.0462 66.8823 99.5613 66.5247 100.196 65.7723C100.83 65.0274 101.562 63.8355 101.868 62.3606C102.174 60.8856 101.98 59.5001 101.696 58.5689C101.412 57.6228 101.084 57.0939 101.129 57.0716C101.144 57.0642 101.233 57.1908 101.375 57.4292C101.517 57.675 101.696 58.04 101.86 58.5168C102.196 59.4628 102.42 60.8856 102.107 62.4053C101.793 63.9249 101.009 65.1466 100.33 65.8766C99.9867 66.2491 99.6807 66.5172 99.4568 66.6811C99.2179 66.8525 99.0835 66.927 99.0761 66.9195Z" fill="#A7A7A7"/>
<path d="M94.2987 66.7706C94.2913 66.7482 94.56 66.6514 94.978 66.3683C95.3885 66.0852 95.9409 65.5861 96.2992 64.7816L96.5231 64.2825L96.4709 64.8263C96.4037 65.5638 96.3291 66.413 96.247 67.3293L96.0753 67.225C96.6948 66.8078 97.292 66.2417 97.7846 65.5489C98.4117 64.6773 98.7924 63.7089 98.9566 62.7927C99.1133 61.8764 99.0685 61.0272 98.9416 60.3344C98.6729 58.9414 98.1504 58.1965 98.2027 58.1741C98.2101 58.1667 98.24 58.2114 98.2997 58.3008C98.3594 58.3902 98.4341 58.5243 98.5311 58.703C98.7177 59.0606 98.9491 59.5969 99.0984 60.3046C99.2477 61.0049 99.3149 61.8839 99.1656 62.8299C99.0088 63.776 98.6207 64.7816 97.9713 65.683C97.4637 66.3907 96.8367 66.9792 96.1947 67.4038L96.0006 67.5304L96.023 67.2995C96.1201 66.3832 96.2096 65.534 96.2918 64.804L96.4634 64.8487C96.0678 65.6904 95.4707 66.1821 95.0303 66.4503C94.8138 66.5843 94.6272 66.6663 94.5003 66.711C94.3734 66.7631 94.3062 66.778 94.2987 66.7706Z" fill="#A7A7A7"/>
<path d="M92.8432 55.7606C92.7985 55.7904 92.5745 55.0156 91.634 54.2484C91.1637 53.8759 90.5218 53.5258 89.7455 53.3768C88.9766 53.2204 88.0809 53.2874 87.2225 53.6077C86.3641 53.928 85.64 54.442 85.11 55.0305C84.5726 55.6116 84.2143 56.2448 83.9754 56.796C83.4977 57.9059 83.4529 58.6807 83.4007 58.6658C83.3858 58.6658 83.3857 58.4721 83.438 58.1369C83.4903 57.7942 83.5948 57.31 83.8187 56.7364C84.0501 56.1628 84.4009 55.5073 84.9458 54.889C85.4907 54.2707 86.2446 53.7269 87.1329 53.3917C88.0287 53.0639 88.9692 52.9969 89.7753 53.1757C90.589 53.347 91.2533 53.7344 91.7236 54.1366C92.1938 54.5463 92.485 54.9635 92.6417 55.2764C92.7163 55.4328 92.7761 55.552 92.7985 55.6414C92.8432 55.7084 92.8507 55.7531 92.8432 55.7606Z" fill="#A7A7A7"/>
<path d="M91.619 51.7678C91.5966 51.8125 91.1115 51.4251 90.1709 51.2091C89.2528 50.9856 87.8569 51.0228 86.573 51.7156C85.2892 52.4158 84.4681 53.5258 84.0277 54.3601C83.5723 55.2019 83.4305 55.7904 83.3857 55.7829C83.3708 55.7755 83.3932 55.6265 83.4678 55.3658C83.5425 55.105 83.6694 54.7251 83.8858 54.2856C84.3038 53.4141 85.1324 52.2445 86.4685 51.5145C87.8121 50.7845 89.2752 50.7845 90.2157 51.0526C90.6934 51.1867 91.0517 51.3581 91.2831 51.507C91.5145 51.656 91.6265 51.7603 91.619 51.7678Z" fill="#A7A7A7"/>
<path d="M74.772 298.442L75.302 312.767C75.302 312.767 60.8881 318.115 60.7239 320.767L88.5962 320.745L88.6933 298.39L74.772 298.442Z" fill="#2B2B2B"/>
<path d="M83.9158 311.56C84.4532 311.709 84.8265 312.312 84.707 312.856C84.5801 313.4 83.968 313.787 83.4306 313.646C82.8857 313.512 82.4154 312.796 82.602 312.268C82.7886 311.739 83.5351 311.329 84.0277 311.59" fill="#A0A0A0"/>
<path d="M88.596 320.752L88.5138 318.495L61.8209 319.359C61.8209 319.359 60.5818 319.896 60.7236 320.775L88.596 320.752Z" fill="#2B2B2B"/>
<path d="M74.8464 312.633C74.8538 312.767 75.5331 312.826 76.2049 313.266C76.8842 313.683 77.235 314.271 77.3544 314.219C77.4813 314.189 77.2798 313.378 76.4587 312.871C75.6451 312.342 74.8165 312.506 74.8464 312.633Z" fill="white"/>
<path d="M71.9277 313.839C71.8979 313.974 72.4876 314.204 72.9504 314.778C73.4281 315.337 73.5475 315.962 73.6819 315.955C73.8088 315.977 73.9058 315.18 73.3161 314.48C72.7339 313.765 71.9277 313.705 71.9277 313.839Z" fill="white"/>
<path d="M70.2707 317.333C70.3976 317.363 70.5842 316.685 70.2334 315.94C69.89 315.195 69.2481 314.905 69.1884 315.016C69.1137 315.128 69.5243 315.53 69.8004 316.141C70.0916 316.745 70.1363 317.318 70.2707 317.333Z" fill="white"/>
<path d="M75.0928 309.347C75.1525 309.474 75.772 309.28 76.5409 309.333C77.3097 309.37 77.9069 309.623 77.9815 309.511C78.0636 309.414 77.4739 308.908 76.5707 308.863C75.6601 308.811 75.0256 309.243 75.0928 309.347Z" fill="white"/>
<path d="M106.757 299.753L107.869 317.065L104.794 331.01C104.57 332.016 105.249 332.999 106.272 333.148C106.839 333.23 107.414 333.044 107.817 332.627C110.362 329.982 119.678 320.209 119.529 318.942C119.35 317.482 119.574 300.61 119.574 300.61L106.757 299.753Z" fill="#2B2B2B"/>
<path d="M106.264 333.148L119.469 317.773L119.499 318.51C119.521 319.144 119.327 319.769 118.932 320.268C117.879 321.609 114.901 325.237 107.854 332.627C107.451 333.051 106.847 333.252 106.264 333.148Z" fill="#2B2B2B"/>
<g opacity="0.6">
<path d="M115.677 312.328C115.252 312.648 115.14 313.311 115.438 313.743C115.737 314.175 116.416 314.302 116.842 313.989C117.267 313.676 117.431 312.886 117.088 312.491C116.737 312.097 115.938 311.992 115.602 312.395" fill="white"/>
</g>
<path d="M109.922 325.416C109.825 325.468 109.399 324.574 108.347 324.127C107.309 323.65 106.361 323.933 106.332 323.829C106.317 323.784 106.526 323.643 106.936 323.568C107.339 323.494 107.929 323.524 108.504 323.777C109.078 324.03 109.504 324.447 109.713 324.79C109.922 325.14 109.959 325.393 109.922 325.416Z" fill="white"/>
<path d="M108.78 327.785C108.698 327.867 108.123 327.323 107.212 327.099C106.309 326.861 105.54 327.055 105.51 326.95C105.458 326.861 106.279 326.459 107.309 326.727C108.339 326.988 108.869 327.732 108.78 327.785Z" fill="white"/>
<path d="M112.102 322.347C112.027 322.429 111.139 321.594 109.75 321.132C108.377 320.648 107.16 320.752 107.153 320.641C107.123 320.551 108.399 320.253 109.877 320.775C111.355 321.274 112.184 322.294 112.102 322.347Z" fill="white"/>
<path d="M112.206 317.058C112.161 317.162 111.191 316.804 109.937 316.812C108.683 316.804 107.712 317.155 107.668 317.05C107.615 316.968 108.593 316.417 109.937 316.432C111.28 316.424 112.251 316.968 112.206 317.058Z" fill="white"/>
<path d="M112.005 311.962C111.952 312.067 110.967 311.523 109.653 311.642C108.332 311.724 107.436 312.409 107.377 312.313C107.347 312.275 107.526 312.052 107.922 311.806C108.31 311.56 108.922 311.314 109.631 311.262C110.34 311.21 110.982 311.359 111.4 311.545C111.818 311.732 112.027 311.925 112.005 311.962Z" fill="white"/>
<path d="M109.646 310.674C109.623 310.674 109.571 310.443 109.594 310.018C109.616 309.594 109.713 308.975 110.041 308.282C110.213 307.955 110.392 307.53 110.87 307.284C111.109 307.158 111.467 307.187 111.684 307.411C111.9 307.627 111.975 307.91 111.99 308.186C112.02 309.288 111.116 310.391 109.885 310.599C108.646 310.785 107.489 310.122 106.959 309.191C106.839 308.953 106.757 308.655 106.877 308.35C106.996 308.052 107.347 307.917 107.593 307.947C108.116 307.999 108.452 308.282 108.765 308.491C109.385 308.945 109.773 309.437 110.004 309.787C110.236 310.145 110.318 310.368 110.295 310.376C110.236 310.42 109.825 309.541 108.608 308.707C108.302 308.513 107.951 308.275 107.578 308.253C107.399 308.245 107.242 308.32 107.183 308.469C107.123 308.61 107.168 308.826 107.272 309.02C107.72 309.78 108.78 310.383 109.825 310.212C110.863 310.048 111.661 309.072 111.646 308.193C111.639 307.977 111.572 307.768 111.452 307.649C111.333 307.53 111.161 307.5 111.004 307.575C110.668 307.724 110.459 308.096 110.288 308.409C109.609 309.705 109.72 310.689 109.646 310.674Z" fill="white"/>
<path d="M62.5597 177.362C62.5597 177.362 60.2607 185.474 60.7981 195.441C61.0071 199.292 73.4131 310.681 73.4131 310.681L89.2004 309.266L86.4684 205.125L87.1328 205.714C87.1328 205.714 96.538 249.53 97.1576 256.451C97.7174 262.678 105.227 312.692 105.227 312.692L120.544 311.962L117.073 248.741L112.43 191.344L110.571 174.621L62.5597 177.362Z" fill="#2B2B2B"/>
<path d="M89.5065 196.141C89.5139 196.164 89.2527 196.305 88.7675 196.536C88.2748 196.752 87.5508 197.087 86.5729 197.244C86.0877 197.318 85.5354 197.333 84.9531 197.222C84.3784 197.11 83.7663 196.849 83.2811 196.372C82.7959 195.896 82.4824 195.24 82.2958 194.555C82.1017 193.869 82.0047 193.154 81.8703 192.432C81.3777 189.534 81.0567 186.882 80.885 184.968C80.7954 184.007 80.7432 183.232 80.7133 182.696C80.6835 182.159 80.6835 181.861 80.7133 181.854C80.7357 181.854 80.788 182.144 80.8626 182.681C80.9372 183.291 81.0343 184.044 81.1537 184.938C81.4 186.845 81.7583 189.474 82.251 192.372C82.5048 193.802 82.6615 195.255 83.5349 196.127C84.4082 196.983 85.6399 197.095 86.5505 196.983C87.4911 196.864 88.2226 196.573 88.7227 196.402C89.2079 196.216 89.4915 196.112 89.5065 196.141Z" fill="#A7A7A7"/>
<path d="M84.5277 182.45C84.5203 182.435 84.6472 182.36 84.8935 182.353C85.1398 182.338 85.5056 182.42 85.8713 182.688C86.2147 182.956 86.5805 183.426 86.5805 184.059C86.5954 184.699 86.0803 185.318 85.4235 185.541C84.7741 185.78 83.9828 185.616 83.5947 185.102C83.1991 184.603 83.1916 184.014 83.2961 183.59C83.4081 183.158 83.6469 182.86 83.8485 182.718C84.05 182.569 84.1918 182.554 84.1918 182.569C84.2366 182.621 83.6917 182.852 83.5499 183.642C83.4902 184.014 83.535 184.513 83.8559 184.878C84.162 185.251 84.7591 185.377 85.304 185.184C85.8489 184.997 86.2371 184.528 86.2446 184.044C86.267 183.56 85.9908 183.135 85.7146 182.882C85.095 182.36 84.5203 182.517 84.5277 182.45Z" fill="#A7A7A7"/>
<path d="M112.206 190.309C112.206 190.331 111.997 190.361 111.609 190.391C111.221 190.42 110.653 190.42 109.959 190.368C108.571 190.271 106.652 189.892 104.697 189.02C102.749 188.141 101.181 186.964 100.188 185.988C99.6881 185.504 99.3149 185.087 99.076 184.774C98.8371 184.469 98.7177 184.29 98.7401 184.275C98.7923 184.23 99.3373 184.893 100.367 185.794C101.39 186.703 102.943 187.821 104.846 188.677C106.757 189.527 108.623 189.944 109.982 190.1C111.34 190.264 112.199 190.242 112.206 190.309Z" fill="#A7A7A7"/>
<path d="M69.6585 182.427C69.6958 182.45 69.3823 183.15 68.703 184.193C68.0312 185.236 66.9638 186.599 65.5679 187.895C64.1721 189.184 62.7314 190.145 61.6342 190.741C60.5443 191.337 59.8128 191.597 59.7979 191.56C59.7755 191.508 60.4548 191.158 61.4998 190.517C62.5448 189.877 63.9407 188.893 65.3142 187.627C66.6876 186.353 67.7625 185.042 68.4866 184.051C69.2106 183.053 69.6062 182.398 69.6585 182.427Z" fill="#A7A7A7"/>
<path d="M53.9906 119.511C51.6393 126.342 51.9005 125.761 47.5189 146.165C46.7127 149.927 48.1384 155.819 51.5422 157.636C54.946 159.454 60.9922 157.458 63.0151 154.18L66.2771 123.377L53.9906 119.511Z" fill="#FFBF9D"/>
<path d="M110.571 156.526L110.482 140.294L110.549 138.7L127.053 134.857C127.053 134.857 123.813 124.204 120.842 112.755C119.126 106.147 113.415 102.817 112.034 102.102V102.095L111.736 101.953L95.8514 95.2415C92.6417 98.6607 87.9689 101.395 83.4678 100.083C81.0045 99.3683 78.4815 97.5507 76.9364 95.6363L66.2249 99.3013V99.3087C63.4779 100.314 60.5668 102.221 58.8201 105.298C56.5807 109.253 49.4223 127.385 49.2954 127.795L62.5523 128.987C62.5523 128.987 60.201 171.902 61.0296 179.574C61.0296 179.574 64.2468 181.794 72.3756 182.182C88.8497 182.956 113.371 181.787 113.371 181.787C112.99 179.306 112.587 175.172 112.355 173.079L110.571 156.526Z" fill="#FFB501"/>
<path d="M63.0002 112.993C63.0674 112.993 62.7166 123.228 62.2164 135.855C61.7163 148.481 61.2535 158.709 61.1863 158.709C61.1192 158.709 61.47 148.474 61.9701 135.847C62.4777 123.221 62.933 112.986 63.0002 112.993Z" fill="#2B2B2B"/>
<path d="M108.758 115.854C108.638 115.861 108.974 124.942 109.504 136.138C110.034 147.341 110.556 156.407 110.676 156.407C110.795 156.4 110.459 147.319 109.929 136.123C109.399 124.919 108.877 115.846 108.758 115.854Z" fill="#2B2B2B"/>
<path d="M127.128 142.581C126.59 138.551 126.142 134.991 126.142 134.991L112.945 138.052L113.512 140.175L103.308 129.836L101.696 129.977L96.5605 135.311C96.5605 135.311 101.039 144.749 103.644 148.422C107.033 153.204 112.363 160.489 119.648 159.878C126.381 159.297 128.091 149.807 127.128 142.581Z" fill="#FFBF9D"/>
<path d="M119.977 144.995C120.059 144.92 118.85 143.609 117.073 142.336C115.304 141.054 113.677 140.332 113.624 140.436C113.565 140.548 115.08 141.427 116.819 142.686C118.573 143.93 119.895 145.084 119.977 144.995Z" fill="#FF9A6C"/>
<path d="M85.4907 116.33L90.0217 114.021L95.9037 115.883L98.8223 118.565L103.301 129.828L106.891 134.365L100.554 142.604L96.5456 135.303C96.5456 135.303 93.1418 133.821 91.7833 131.676C90.4247 129.538 89.8127 128.368 89.8127 128.368C89.8127 128.368 87.8495 127.43 87.4837 126.521C87.118 125.619 87.1329 124.912 87.1329 124.912L88.1257 123.467C88.1257 123.467 88.0286 122.118 88.4243 121.619C88.8199 121.12 89.208 121.001 89.208 121.001C89.208 121.001 88.9169 119.779 89.3723 119.34C89.8276 118.9 92.0893 118.096 92.0893 118.096L90.1112 116.971C90.1262 116.978 85.7371 118.334 85.4907 116.33Z" fill="#FFBF9D"/>
<path d="M92.2237 120.42C92.2237 120.479 91.5295 120.494 90.7009 120.673C89.8723 120.844 89.2304 121.113 89.2005 121.061C89.1781 121.016 89.7977 120.666 90.6561 120.487C91.5145 120.301 92.2311 120.368 92.2237 120.42Z" fill="#FF9A6C"/>
<path d="M90.8652 122.945C90.8652 123.005 90.268 122.997 89.5514 123.109C88.8348 123.213 88.2675 123.392 88.2526 123.34C88.2302 123.295 88.7826 123.027 89.529 122.923C90.268 122.811 90.8726 122.901 90.8652 122.945Z" fill="#FF9A6C"/>
<path d="M88.9468 126.908C88.8946 126.908 88.8573 126.647 88.8647 126.335C88.8722 126.014 88.917 125.761 88.9767 125.761C89.0289 125.761 89.0663 126.022 89.0588 126.335C89.0513 126.647 88.9991 126.908 88.9468 126.908Z" fill="#FF9A6C"/>
<path d="M89.8126 128.13C89.7604 128.13 89.7902 127.579 89.3946 127.087C89.0139 126.58 88.469 126.484 88.4839 126.431C88.4839 126.409 88.6258 126.394 88.8422 126.461C89.0587 126.528 89.3349 126.692 89.5514 126.968C89.7678 127.243 89.8649 127.549 89.8723 127.772C89.8873 127.996 89.835 128.13 89.8126 128.13Z" fill="#FF9A6C"/>
<path d="M93.3583 124.517C93.306 124.539 93.1119 124.04 92.567 123.742C92.0296 123.429 91.4996 123.534 91.4921 123.474C91.4847 123.452 91.6116 123.392 91.828 123.377C92.0445 123.362 92.358 123.407 92.6566 123.578C92.9552 123.742 93.1567 123.988 93.2612 124.182C93.3732 124.375 93.3806 124.509 93.3583 124.517Z" fill="#FF9A6C"/>
<path d="M95.4259 122.014C95.3737 122.036 95.1945 121.567 94.7019 121.262C94.2167 120.941 93.7166 120.979 93.7091 120.919C93.7091 120.897 93.8285 120.852 94.0375 120.852C94.2466 120.852 94.5377 120.927 94.8064 121.098C95.0751 121.269 95.2617 121.5 95.3513 121.686C95.4409 121.88 95.4483 122.007 95.4259 122.014Z" fill="#FF9A6C"/>
<path d="M96.8143 120.785C96.7844 120.777 96.7994 120.628 96.7695 120.397C96.7397 120.167 96.6501 119.854 96.4411 119.571C96.2321 119.288 95.9559 119.109 95.7394 119.012C95.5229 118.915 95.3737 118.885 95.3811 118.855C95.3811 118.833 95.5453 118.811 95.7917 118.885C96.038 118.952 96.359 119.131 96.5978 119.451C96.8367 119.772 96.9113 120.137 96.9113 120.39C96.8964 120.643 96.8367 120.792 96.8143 120.785Z" fill="#FF9A6C"/>
<path d="M94.8886 117.843C94.8886 117.91 93.9406 117.924 92.791 118.103C91.649 118.282 90.7831 118.677 90.7607 118.625C90.7383 118.587 91.5818 118.096 92.7612 117.91C93.3434 117.813 93.8808 117.798 94.2615 117.798C94.6497 117.798 94.8886 117.813 94.8886 117.843Z" fill="#FF9A6C"/>
<g opacity="0.3">
<path d="M81.9749 143.274C81.8106 141.963 81.6166 140.6 80.8552 139.52C79.5265 137.65 76.9214 137.255 74.6298 137.367C72.3382 137.479 69.9645 137.926 67.8073 137.144L61.3804 156.199C63.769 155.618 65.8964 154.068 67.1877 151.982C67.8446 150.917 68.3223 149.681 69.3151 148.921C70.6811 147.87 72.5846 148.027 74.3089 148.005C76.1153 147.982 77.9142 147.721 79.6534 147.222C80.3924 147.006 81.1538 146.723 81.6091 146.105C82.1988 145.323 82.1018 144.25 81.9749 143.274Z" fill="black"/>
</g>
<path d="M65.4111 120.971L67.4116 142.179C67.5236 143.356 67.9789 144.176 68.7254 144.622L81.6165 144.347C82.139 143.87 82.7138 142.358 82.6019 140.741L81.1761 120.442C81.094 119.221 80.6312 118.342 80.0789 118.327L66.501 118.014C65.8068 117.999 65.2693 119.459 65.4111 120.971Z" fill="#2B2B2B"/>
<path d="M63.5376 125.232C62.9927 124.606 63.0673 123.586 63.5824 122.93C64.0974 122.275 64.9559 121.962 65.7919 121.947C66.6279 121.932 67.4415 122.193 68.2104 122.506C69.1658 122.893 70.0765 123.377 70.9349 123.943C71.5395 124.346 72.1665 124.86 72.271 125.575C72.3755 126.29 71.5768 127.087 70.9573 126.714C71.7709 127.079 72.5771 127.966 72.6891 128.867C72.801 129.776 72.3009 130.253 71.4201 130.491C72.0844 130.767 72.4875 131.616 72.1665 132.249C71.8306 132.92 70.8826 133.084 70.1885 132.8C69.4943 132.517 68.9867 131.914 68.5089 131.325C68.9867 132.197 68.9493 133.59 68.7403 134.558C66.822 133.851 64.926 131.72 65.4933 129.694C64.5602 128.957 64.1348 127.444 64.7245 126.409C63.9481 126.148 63.0897 124.941 63.1718 124.122" fill="#FFBF9D"/>
<path d="M63.3211 123.385L63.1644 132.45L60.8056 135.989L50.012 145.621C50.012 145.621 51.6168 158.724 56.4911 157.294C61.3654 155.863 62.5523 154.932 65.4336 149.643C66.9787 146.813 67.9267 142.209 68.8225 139.565C69.345 138.015 68.8822 133.024 68.8822 133.024L63.3211 123.385Z" fill="#FFBF9D"/>
<path d="M71.3977 130.514C71.3753 130.536 71.0767 130.268 70.5766 129.858C70.0765 129.456 69.345 128.905 68.397 128.681C67.9267 128.569 67.4565 128.562 67.0534 128.651C66.6503 128.741 66.3069 128.927 66.0606 129.121C65.5605 129.515 65.441 129.933 65.4037 129.91C65.3963 129.91 65.4037 129.806 65.4858 129.635C65.5605 129.463 65.7172 129.232 65.9636 129.009C66.2173 128.785 66.5682 128.577 67.0086 128.465C67.4415 128.353 67.9491 128.361 68.4492 128.48C69.4569 128.718 70.1959 129.322 70.6811 129.754C71.1514 130.186 71.4126 130.491 71.3977 130.514Z" fill="#FF9A6C"/>
<path d="M71.2634 126.819C71.2485 126.849 70.8603 126.685 70.2557 126.372C69.9496 126.223 69.5988 126.037 69.1808 125.873C68.7703 125.716 68.2925 125.582 67.7924 125.478C67.2923 125.381 66.8071 125.359 66.3742 125.433C65.9487 125.508 65.5829 125.672 65.3142 125.865C64.7693 126.253 64.6499 126.685 64.6125 126.662C64.6051 126.662 64.62 126.551 64.7021 126.372C64.7842 126.2 64.9484 125.955 65.2246 125.739C65.5008 125.523 65.8815 125.321 66.3368 125.232C66.7922 125.143 67.3072 125.165 67.8297 125.262C68.3448 125.366 68.8225 125.508 69.248 125.679C69.6735 125.858 70.0243 126.059 70.3229 126.223C70.9126 126.588 71.2783 126.796 71.2634 126.819Z" fill="#FF9A6C"/>
<path d="M51.1765 150.835C51.266 150.828 50.6987 149.547 51.0421 147.461C51.2138 146.433 51.6169 145.226 52.3185 144.034C53.0127 142.835 54.013 141.658 55.17 140.54C56.3344 139.423 57.5287 138.44 58.5962 137.523C59.6636 136.607 60.5966 135.736 61.3282 134.953C62.0522 134.171 62.5822 133.471 62.9032 132.972C63.2316 132.473 63.366 132.167 63.351 132.16C63.3286 132.145 63.142 132.421 62.7912 132.89C62.4329 133.359 61.888 134.022 61.149 134.775C60.41 135.527 59.462 136.369 58.3871 137.27C57.3123 138.172 56.103 139.147 54.9311 140.28C53.7592 141.412 52.744 142.619 52.0423 143.863C51.3407 145.107 50.9451 146.351 50.8032 147.416C50.6614 148.489 50.751 149.368 50.8853 149.949C50.96 150.239 51.0197 150.463 51.0869 150.612C51.1317 150.768 51.1615 150.843 51.1765 150.835Z" fill="#FF9A6C"/>
</g>
<defs>
<clipPath id="clip0_59_1751">
<rect width="290" height="349" fill="white"/>
</clipPath>
</defs>
</svg>
