<svg width="51" height="49" viewBox="0 0 51 49" fill="none" xmlns="http://www.w3.org/2000/svg">
<path fill-rule="evenodd" clip-rule="evenodd" d="M25.328 7.93652L39.6727 16.2189V32.7816L25.328 41.0641L10.9834 32.7816V16.2189L25.328 7.93652ZM25.328 11.6504L36.4567 18.0759V30.9247L25.328 37.3502L14.1994 30.9247V18.0759L25.328 11.6504Z" fill="#009640"/>
<path fill-rule="evenodd" clip-rule="evenodd" d="M7.25677 17.7786V34.9332L25.3281 45.3674L43.3994 34.9332V17.7786L46.5448 19.5949V36.7495L25.3281 49L4.10919 36.7495V19.5949L7.25677 17.7786Z" fill="#FFB501"/>
<path fill-rule="evenodd" clip-rule="evenodd" d="M25.328 0L50.6561 14.6224L49.0834 17.3469L25.328 3.63264L1.57272 17.3469L0 14.6224L25.328 0Z" fill="#009640"/>
<path d="M21.1291 29.2662H23.8364V22.159C23.8364 21.8107 23.8471 21.4475 23.8664 21.0671L22.2723 22.392C22.1697 22.4753 22.065 22.5351 21.9624 22.5715C21.8599 22.6078 21.7594 22.6249 21.6633 22.6249C21.4966 22.6249 21.3449 22.5885 21.2145 22.5138C21.082 22.439 20.9838 22.3599 20.9196 22.2766L19.973 21.0201L24.36 17.3362H26.8344V29.2662H29.1551V31.433H21.1312V29.2662H21.1291Z" fill="#009640"/>
</svg>
