<svg width="65" height="75" viewBox="0 0 65 75" fill="none" xmlns="http://www.w3.org/2000/svg">
<path fill-rule="evenodd" clip-rule="evenodd" d="M4.79469 26.5856V52.7172L32.3227 68.6117L59.8507 52.7172V26.5856L64.6421 29.3524V55.484L32.3227 74.1452L0 55.484V29.3524L4.79469 26.5856Z" fill="#FFB501"/>
<path fill-rule="evenodd" clip-rule="evenodd" d="M4.79469 47.5596V21.428L32.3227 5.53361L59.8507 21.428V47.5596L64.6421 44.7928V18.6612L32.3227 1.90735e-05L0 18.6612V44.7928L4.79469 47.5596Z" fill="#FFB501"/>
<path d="M20.456 46.24C19.224 46.24 18.112 45.976 17.12 45.448C16.144 44.904 15.392 44.176 14.864 43.264L16.712 41.344C17.176 41.968 17.736 42.464 18.392 42.832C19.064 43.2 19.76 43.384 20.48 43.384C21.056 43.384 21.568 43.264 22.016 43.024C22.464 42.784 22.808 42.448 23.048 42.016C23.304 41.584 23.432 41.088 23.432 40.528C23.432 39.984 23.312 39.504 23.072 39.088C22.832 38.656 22.504 38.328 22.088 38.104C21.672 37.864 21.2 37.744 20.672 37.744C20.16 37.744 19.672 37.864 19.208 38.104C18.744 38.328 18.376 38.656 18.104 39.088H15.296L17.264 28.96H25.664V31.888H19.592L18.92 35.704C19.112 35.496 19.392 35.328 19.76 35.2C20.128 35.056 20.584 34.984 21.128 34.984C22.2 34.984 23.16 35.224 24.008 35.704C24.856 36.168 25.52 36.808 26 37.624C26.496 38.44 26.744 39.384 26.744 40.456C26.744 41.592 26.464 42.6 25.904 43.48C25.36 44.344 24.616 45.024 23.672 45.52C22.744 46 21.672 46.24 20.456 46.24ZM29.0561 46V42.544H31.6961V46H29.0561ZM41.4547 46.24C40.2547 46.224 39.1907 45.952 38.2627 45.424C37.3347 44.896 36.5587 44.2 35.9347 43.336C35.3107 42.472 34.8387 41.544 34.5187 40.552C34.2147 39.544 34.0627 38.56 34.0627 37.6C34.0627 36.576 34.2307 35.552 34.5667 34.528C34.9027 33.504 35.3907 32.576 36.0307 31.744C36.6867 30.896 37.4707 30.224 38.3827 29.728C39.2947 29.216 40.3187 28.96 41.4547 28.96C42.6867 28.96 43.7587 29.232 44.6707 29.776C45.5987 30.32 46.3747 31.024 46.9987 31.888C47.6227 32.752 48.0867 33.688 48.3907 34.696C48.7107 35.704 48.8707 36.672 48.8707 37.6C48.8707 38.64 48.7027 39.672 48.3667 40.696C48.0307 41.704 47.5347 42.624 46.8787 43.456C46.2387 44.288 45.4627 44.96 44.5507 45.472C43.6387 45.968 42.6067 46.224 41.4547 46.24ZM37.3987 37.6C37.4147 38.272 37.5027 38.944 37.6627 39.616C37.8387 40.272 38.0867 40.88 38.4067 41.44C38.7427 42 39.1667 42.456 39.6787 42.808C40.1907 43.144 40.7827 43.312 41.4547 43.312C42.1747 43.312 42.7907 43.128 43.3027 42.76C43.8147 42.392 44.2307 41.92 44.5507 41.344C44.8867 40.768 45.1347 40.152 45.2947 39.496C45.4547 38.84 45.5347 38.208 45.5347 37.6C45.5347 36.928 45.4467 36.264 45.2707 35.608C45.1107 34.936 44.8547 34.32 44.5027 33.76C44.1667 33.2 43.7427 32.752 43.2307 32.416C42.7347 32.064 42.1427 31.888 41.4547 31.888C40.7507 31.888 40.1427 32.072 39.6307 32.44C39.1187 32.808 38.6947 33.28 38.3587 33.856C38.0387 34.432 37.7987 35.048 37.6387 35.704C37.4787 36.36 37.3987 36.992 37.3987 37.6Z" fill="#1D1D1D"/>
</svg>
