<svg width="26" height="17" viewBox="0 0 26 17" fill="none" xmlns="http://www.w3.org/2000/svg">
<path d="M14.1612 16.8057C5.27795 16.8057 0.211118 10.7997 0 0.805664L4.44972 0.805664C4.59588 8.141 7.87633 11.2481 10.4747 11.8887V0.805664L14.6646 0.805664V7.13199C17.2305 6.85972 19.9263 3.97684 20.8357 0.805664L25.0256 0.805664C24.6829 2.45032 23.9998 4.00755 23.019 5.37995C22.0382 6.75235 20.7808 7.91039 19.3254 8.78164C20.9499 9.57773 22.3848 10.7045 23.5353 12.0877C24.6859 13.4708 25.5259 15.0788 26 16.8057H21.3879C20.9623 15.3058 20.0973 13.9632 18.9013 12.946C17.7053 11.9289 16.2315 11.2825 14.6646 11.0879V16.8057H14.1612Z" fill="#1D1D1D"/>
</svg>
