<svg width="76" height="76" viewBox="0 0 76 76" fill="none" xmlns="http://www.w3.org/2000/svg">
<rect width="76" height="76" rx="38" fill="#1D1D1D"/>
<path d="M53.061 22.9184C49.3073 19.1777 44.3024 17.0996 39.0195 17.0996C28.0366 17.0996 19.139 25.9663 19.139 36.9111C19.139 40.3746 20.1122 43.8381 21.7805 46.7475L19 56.9996L29.5659 54.2288C32.4854 55.7527 35.6829 56.584 39.0195 56.584C50.0024 56.584 58.9 47.7173 58.9 36.7725C58.761 31.6465 56.8146 26.659 53.061 22.9184ZM48.6122 43.9767C48.1951 45.085 46.2488 46.1934 45.2756 46.3319C44.4415 46.4704 43.3293 46.4704 42.2171 46.1934C41.522 45.9163 40.5488 45.6392 39.4366 45.085C34.4317 43.0069 31.2341 38.0194 30.9561 37.6038C30.6781 37.3267 28.8707 34.9715 28.8707 32.4777C28.8707 29.984 30.122 28.8756 30.539 28.3215C30.9561 27.7673 31.5122 27.7673 31.9293 27.7673C32.2073 27.7673 32.6244 27.7673 32.9024 27.7673C33.1805 27.7673 33.5976 27.6288 34.0146 28.5986C34.4317 29.5684 35.4049 32.0621 35.5439 32.2007C35.6829 32.4777 35.6829 32.7548 35.5439 33.0319C35.4049 33.309 35.2658 33.5861 34.9878 33.8631C34.7098 34.1402 34.4317 34.5559 34.2927 34.6944C34.0146 34.9715 33.7366 35.2486 34.0146 35.6642C34.2927 36.2184 35.2659 37.7423 36.7951 39.1277C38.7415 40.7902 40.2707 41.3444 40.8268 41.6215C41.3829 41.8986 41.661 41.76 41.939 41.4829C42.2171 41.2059 43.1902 40.0975 43.4683 39.5434C43.7463 38.9892 44.1634 39.1277 44.5805 39.2663C44.9976 39.4048 47.5 40.6517 47.9171 40.9288C48.4732 41.2059 48.7512 41.3444 48.8902 41.4829C49.0293 41.8986 49.0293 42.8684 48.6122 43.9767Z" fill="#FFB400"/>
</svg>
